0
SECTION
2
HEADER
9
$INSUNITS
70
4
9
$ACADVER
1
AC1014
9
$HANDSEED
5
FFFF
0
ENDSEC
0
SECTION
2
TABLES
0
TABLE
2
VPORT
5
8
100
AcDbSymbolTable
0
ENDTAB
0
TABLE
2
LTYPE
5
5
100
AcDbSymbolTable
0
LTYPE
5
14
100
AcDbSymbolTableRecord
100
AcDbLinetypeTableRecord
2
BYBLOCK
70
0
0
LTYPE
5
15
100
AcDbSymbolTableRecord
100
AcDbLinetypeTableRecord
2
BYLAYER
70
0
0
LTYPE
5
16
100
AcDbSymbolTableRecord
100
AcDbLinetypeTableRecord
2
DASHED
70
0
3
Dashed __ __ __ __ __ __ __ __ __ __ __ __ __ _
72
65
73
2
40
0.75
49
0.5
74
0
49
-0.25
74
0
0
ENDTAB
0
TABLE
2
LAYER
5
2
100
AcDbSymbolTable
70
2
0
LAYER
5
50
100
AcDbSymbolTableRecord
100
AcDbLayerTableRecord
2
0
70
0
62
7
6
CONTINUOUS
0
ENDTAB
0
TABLE
2
STYLE
5
3
100
AcDbSymbolTable
70
1
0
STYLE
5
11
100
AcDbSymbolTableRecord
100
AcDbTextStyleTableRecord
2
STANDARD
70
0
0
ENDTAB
0
TABLE
2
VIEW
5
6
100
AcDbSymbolTable
70
0
0
ENDTAB
0
TABLE
2
UCS
5
7
100
AcDbSymbolTable
70
0
0
ENDTAB
0
TABLE
2
APPID
5
9
100
AcDbSymbolTable
70
2
0
APPID
5
12
100
AcDbSymbolTableRecord
100
AcDbRegAppTableRecord
2
ACAD
70
0
0
ENDTAB
0
TABLE
2
DIMSTYLE
5
A
100
AcDbSymbolTable
70
1
0
ENDTAB
0
TABLE
2
BLOCK_RECORD
5
1
100
AcDbSymbolTable
70
1
0
BLOCK_RECORD
5
1F
100
AcDbSymbolTableRecord
100
AcDbBlockTableRecord
2
*MODEL_SPACE
0
BLOCK_RECORD
5
1B
100
AcDbSymbolTableRecord
100
AcDbBlockTableRecord
2
*PAPER_SPACE
0
ENDTAB
0
ENDSEC
0
SECTION
2
BLOCKS
0
BLOCK
5
20
100
AcDbEntity
100
AcDbBlockBegin
2
*MODEL_SPACE
0
ENDBLK
5
21
100
AcDbEntity
100
AcDbBlockEnd
0
BLOCK
5
1C
100
AcDbEntity
100
AcDbBlockBegin
2
*PAPER_SPACE
0
ENDBLK
5
1D
100
AcDbEntity
100
AcDbBlockEnd
0
ENDSEC
0
SECTION
2
ENTITIES
0
CIRCLE
5
100
100
AcDbEntity
8
0
100
AcDbCircle
10
-3.600000000000001
20
-3.6000000000000005
30
0
40
1.6000000000000003
210
0
220
-0
230
1
0
CIRCLE
5
101
100
AcDbEntity
8
0
100
AcDbCircle
10
-21.850000000000009
20
-3.5999999999999881
30
0
40
1.6000000000000014
210
0
220
-0
230
1
0
LWPOLYLINE
5
102
100
AcDbEntity
8
0
100
AcDbPolyline
90
34
70
1
43
0.0
10
-9.6303632826710501
20
0
10
-15.50938218616675
20
0
10
-16.509382186166739
20
-0.99999999999999867
10
-19.358831175456874
20
-1.0000000000000004
10
-20.358831175456871
20
0
10
-23.341168824543143
20
3.3306690738754696e-15
10
-25.449999999999999
20
-2.1088311754568538
10
-25.449999999999999
20
-5.0911688245431188
10
-24.350000000000001
20
-6.1911688245431158
10
-24.350000000000009
20
-12.885584709703162
10
-25.187009652190291
20
-13.722594361893446
10
-25.187009652190291
20
-40.30396543758971
10
-23.573550699000538
20
-41.917424390779459
42
-0.19891236737965798
10
-23.104921548899007
20
-43.048795240677947
10
-23.104921548899007
20
-44.349076392776148
10
-22.812028330085575
20
-44.641969611589573
10
-15.635983567300812
20
-44.641969611589573
10
-14.994013955711241
20
-44
10
-10.455986044288771
20
-44
10
-9.8140164326992014
20
-44.641969611589573
10
-2.6379716699144371
20
-44.641969611589573
10
-2.345078451101001
20
-44.349076392776148
10
-2.345078451101001
20
-43.04879524067794
42
-0.19891236737966064
10
-1.8764493009994754
20
-41.917424390779459
10
-0.26299034780972008
20
-40.30396543758971
10
-0.2629903478097198
20
-26.486929582682947
10
-1.2860546747784076
20
-25.463865255714229
10
-1.2860546747784076
20
-13.753986290141675
10
-3.8857805861880479e-15
20
-12.467931615363268
10
0
20
-2.1088311754568578
10
-2.1088311754568565
20
0
10
-5.0911688245431286
20
-2.2204460492503131e-15
10
-6.0911688245431268
20
-1.000000000000002
10
-8.6303632826710501
20
-0.99999999999999922
0
ENDSEC
0
SECTION
2
OBJECTS
0
DICTIONARY
5
C
100
AcDbDictionary
3
ACAD_GROUP
350
D
3
ACAD_MLINESTYLE
350
17
0
DICTIONARY
5
D
100
AcDbDictionary
0
DICTIONARY
5
1A
330
C
100
AcDbDictionary
0
DICTIONARY
5
17
100
AcDbDictionary
0
ENDSEC
0
EOF
