%TF.GenerationSoftware,KiCad,Pcbnew,10.0.3*%
%TF.CreationDate,2026-09-13T09:01:26-07:00*%
%TF.ProjectId,Eyeliner_PCB_V3,4579656c-696e-4657-925f-5043425f5633,rev?*%
%TF.SameCoordinates,Original*%
%TF.FileFunction,Profile,NP*%
%FSLAX46Y46*%
G04 Gerber Fmt 4.6, Leading zero omitted, Abs format (unit mm)*
G04 Created by KiCad (PCBNEW 10.0.3) date 2026-09-13 09:01:26*
%MOMM*%
%LPD*%
G01*
G04 APERTURE LIST*
%TA.AperFunction,Profile*%
%ADD10C,0.100000*%
%TD*%
G04 APERTURE END LIST*
D10*
X140059637Y-103542068D02*
X140059637Y-113901169D01*
X140059637Y-113901169D02*
X142168468Y-116010000D01*
X140322627Y-75706035D02*
X140322627Y-89523070D01*
X140322627Y-89523070D02*
X141345692Y-90546135D01*
X141345692Y-90546135D02*
X141345692Y-102256014D01*
X141345692Y-102256014D02*
X140059637Y-103542068D01*
X141936086Y-74092576D02*
X140322627Y-75706035D01*
X142168468Y-116010000D02*
X145150806Y-116010000D01*
X142404715Y-71660924D02*
X142404715Y-72961205D01*
X142404715Y-72961205D02*
G75*
G02*
X141936086Y-74092576I-1600015J5D01*
G01*
X142697609Y-71368030D02*
X142404715Y-71660924D01*
X145150806Y-116010000D02*
X146150806Y-115010000D01*
X146150806Y-115010000D02*
X148690000Y-115010000D01*
X148690000Y-115010000D02*
X149690000Y-116010000D01*
X149690000Y-116010000D02*
X155569019Y-116010000D01*
X149873653Y-71368030D02*
X142697609Y-71368030D01*
X150515623Y-72010000D02*
X149873653Y-71368030D01*
X155053651Y-72010000D02*
X150515623Y-72010000D01*
X155569019Y-116010000D02*
X156569019Y-115010000D01*
X155695621Y-71368030D02*
X155053651Y-72010000D01*
X156569019Y-115010000D02*
X159418468Y-115010000D01*
X159418468Y-115010000D02*
X160418468Y-116010000D01*
X160418468Y-116010000D02*
X163400806Y-116010000D01*
X162871665Y-71368030D02*
X155695621Y-71368030D01*
X163164559Y-71660924D02*
X162871665Y-71368030D01*
X163164559Y-72961205D02*
X163164559Y-71660924D01*
X163400806Y-116010000D02*
X165509637Y-113901169D01*
X163633188Y-74092576D02*
G75*
G02*
X163164538Y-72961205I1131312J1131376D01*
G01*
X164409637Y-103124415D02*
X165246647Y-102287406D01*
X164409637Y-109818831D02*
X164409637Y-103124415D01*
X165246647Y-75706035D02*
X163633188Y-74092576D01*
X165246647Y-102287406D02*
X165246647Y-75706035D01*
X165509637Y-110918831D02*
X164409637Y-109818831D01*
X165509637Y-113901169D02*
X165509637Y-110918831D01*
M02*
