%TF.GenerationSoftware,KiCad,Pcbnew,10.0.3*%
%TF.CreationDate,2026-09-13T09:01:26-07:00*%
%TF.ProjectId,Eyeliner_PCB_V3,4579656c-696e-4657-925f-5043425f5633,rev?*%
%TF.SameCoordinates,Original*%
%TF.FileFunction,Copper,L2,Bot*%
%TF.FilePolarity,Positive*%
%FSLAX46Y46*%
G04 Gerber Fmt 4.6, Leading zero omitted, Abs format (unit mm)*
G04 Created by KiCad (PCBNEW 10.0.3) date 2026-09-13 09:01:26*
%MOMM*%
%LPD*%
G01*
G04 APERTURE LIST*
G04 Aperture macros list*
%AMRoundRect*
0 Rectangle with rounded corners*
0 $1 Rounding radius*
0 $2 $3 $4 $5 $6 $7 $8 $9 X,Y pos of 4 corners*
0 Add a 4 corners polygon primitive as box body*
4,1,4,$2,$3,$4,$5,$6,$7,$8,$9,$2,$3,0*
0 Add four circle primitives for the rounded corners*
1,1,$1+$1,$2,$3*
1,1,$1+$1,$4,$5*
1,1,$1+$1,$6,$7*
1,1,$1+$1,$8,$9*
0 Add four rect primitives between the rounded corners*
20,1,$1+$1,$2,$3,$4,$5,0*
20,1,$1+$1,$4,$5,$6,$7,0*
20,1,$1+$1,$6,$7,$8,$9,0*
20,1,$1+$1,$8,$9,$2,$3,0*%
G04 Aperture macros list end*
%TA.AperFunction,Conductor*%
%ADD10C,0.000000*%
%TD*%
%TA.AperFunction,Conductor*%
%ADD11C,0.600000*%
%TD*%
%TA.AperFunction,Conductor*%
%ADD12C,0.200000*%
%TD*%
%TA.AperFunction,Conductor*%
%ADD13C,0.400000*%
%TD*%
%TA.AperFunction,ComponentPad*%
%ADD14C,1.700000*%
%TD*%
%TA.AperFunction,ComponentPad*%
%ADD15C,5.600000*%
%TD*%
%TA.AperFunction,SMDPad,CuDef*%
%ADD16RoundRect,0.135000X-0.135000X-0.185000X0.135000X-0.185000X0.135000X0.185000X-0.135000X0.185000X0*%
%TD*%
%TA.AperFunction,SMDPad,CuDef*%
%ADD17RoundRect,0.140000X0.140000X0.170000X-0.140000X0.170000X-0.140000X-0.170000X0.140000X-0.170000X0*%
%TD*%
%TA.AperFunction,SMDPad,CuDef*%
%ADD18RoundRect,0.135000X0.135000X0.185000X-0.135000X0.185000X-0.135000X-0.185000X0.135000X-0.185000X0*%
%TD*%
%TA.AperFunction,SMDPad,CuDef*%
%ADD19RoundRect,0.225000X0.250000X-0.225000X0.250000X0.225000X-0.250000X0.225000X-0.250000X-0.225000X0*%
%TD*%
%TA.AperFunction,SMDPad,CuDef*%
%ADD20RoundRect,0.112500X-0.350000X-0.112500X0.350000X-0.112500X0.350000X0.112500X-0.350000X0.112500X0*%
%TD*%
%TA.AperFunction,SMDPad,CuDef*%
%ADD21RoundRect,0.150000X-0.150000X-0.625000X0.150000X-0.625000X0.150000X0.625000X-0.150000X0.625000X0*%
%TD*%
%TA.AperFunction,SMDPad,CuDef*%
%ADD22RoundRect,0.250000X-0.350000X-0.650000X0.350000X-0.650000X0.350000X0.650000X-0.350000X0.650000X0*%
%TD*%
%TA.AperFunction,SMDPad,CuDef*%
%ADD23RoundRect,0.135000X-0.185000X0.135000X-0.185000X-0.135000X0.185000X-0.135000X0.185000X0.135000X0*%
%TD*%
%TA.AperFunction,SMDPad,CuDef*%
%ADD24RoundRect,0.087500X0.220971X-0.097227X-0.097227X0.220971X-0.220971X0.097227X0.097227X-0.220971X0*%
%TD*%
%TA.AperFunction,SMDPad,CuDef*%
%ADD25RoundRect,0.087500X0.220971X0.097227X0.097227X0.220971X-0.220971X-0.097227X-0.097227X-0.220971X0*%
%TD*%
%TA.AperFunction,SMDPad,CuDef*%
%ADD26RoundRect,0.087500X-0.220971X0.097227X0.097227X-0.220971X0.220971X-0.097227X-0.097227X0.220971X0*%
%TD*%
%TA.AperFunction,SMDPad,CuDef*%
%ADD27RoundRect,0.087500X-0.220971X-0.097227X-0.097227X-0.220971X0.220971X0.097227X0.097227X0.220971X0*%
%TD*%
%TA.AperFunction,SMDPad,CuDef*%
%ADD28RoundRect,0.250000X-1.100000X0.325000X-1.100000X-0.325000X1.100000X-0.325000X1.100000X0.325000X0*%
%TD*%
%TA.AperFunction,SMDPad,CuDef*%
%ADD29RoundRect,0.135000X0.185000X-0.135000X0.185000X0.135000X-0.185000X0.135000X-0.185000X-0.135000X0*%
%TD*%
%TA.AperFunction,ConnectorPad*%
%ADD30C,6.200000*%
%TD*%
%TA.AperFunction,SMDPad,CuDef*%
%ADD31RoundRect,0.250000X-0.650000X1.000000X-0.650000X-1.000000X0.650000X-1.000000X0.650000X1.000000X0*%
%TD*%
%TA.AperFunction,SMDPad,CuDef*%
%ADD32RoundRect,0.250000X0.650000X-0.325000X0.650000X0.325000X-0.650000X0.325000X-0.650000X-0.325000X0*%
%TD*%
%TA.AperFunction,SMDPad,CuDef*%
%ADD33RoundRect,0.050000X0.050000X-0.437500X0.050000X0.437500X-0.050000X0.437500X-0.050000X-0.437500X0*%
%TD*%
%TA.AperFunction,SMDPad,CuDef*%
%ADD34RoundRect,0.050000X0.050000X-0.337500X0.050000X0.337500X-0.050000X0.337500X-0.050000X-0.337500X0*%
%TD*%
%TA.AperFunction,SMDPad,CuDef*%
%ADD35RoundRect,0.050000X0.337500X-0.050000X0.337500X0.050000X-0.337500X0.050000X-0.337500X-0.050000X0*%
%TD*%
%TA.AperFunction,SMDPad,CuDef*%
%ADD36R,0.203200X0.660400*%
%TD*%
%TA.AperFunction,SMDPad,CuDef*%
%ADD37RoundRect,0.140000X-0.140000X-0.170000X0.140000X-0.170000X0.140000X0.170000X-0.140000X0.170000X0*%
%TD*%
%TA.AperFunction,SMDPad,CuDef*%
%ADD38RoundRect,0.140000X0.170000X-0.140000X0.170000X0.140000X-0.170000X0.140000X-0.170000X-0.140000X0*%
%TD*%
%TA.AperFunction,SMDPad,CuDef*%
%ADD39RoundRect,0.150000X-0.625000X0.150000X-0.625000X-0.150000X0.625000X-0.150000X0.625000X0.150000X0*%
%TD*%
%TA.AperFunction,SMDPad,CuDef*%
%ADD40RoundRect,0.250000X-0.650000X0.350000X-0.650000X-0.350000X0.650000X-0.350000X0.650000X0.350000X0*%
%TD*%
%TA.AperFunction,SMDPad,CuDef*%
%ADD41RoundRect,0.150000X0.625000X-0.150000X0.625000X0.150000X-0.625000X0.150000X-0.625000X-0.150000X0*%
%TD*%
%TA.AperFunction,SMDPad,CuDef*%
%ADD42RoundRect,0.250000X0.650000X-0.350000X0.650000X0.350000X-0.650000X0.350000X-0.650000X-0.350000X0*%
%TD*%
%TA.AperFunction,SMDPad,CuDef*%
%ADD43RoundRect,0.437500X-0.437500X-0.562500X0.437500X-0.562500X0.437500X0.562500X-0.437500X0.562500X0*%
%TD*%
%TA.AperFunction,SMDPad,CuDef*%
%ADD44R,0.700000X0.400000*%
%TD*%
%TA.AperFunction,SMDPad,CuDef*%
%ADD45R,0.700000X0.250000*%
%TD*%
%TA.AperFunction,SMDPad,CuDef*%
%ADD46R,0.700000X0.300000*%
%TD*%
%TA.AperFunction,SMDPad,CuDef*%
%ADD47R,0.250000X0.700000*%
%TD*%
%TA.AperFunction,SMDPad,CuDef*%
%ADD48R,0.400000X1.000000*%
%TD*%
%TA.AperFunction,SMDPad,CuDef*%
%ADD49R,0.800000X0.400000*%
%TD*%
%TA.AperFunction,SMDPad,CuDef*%
%ADD50R,2.400000X0.400000*%
%TD*%
%TA.AperFunction,SMDPad,CuDef*%
%ADD51R,0.350000X0.600000*%
%TD*%
%TA.AperFunction,SMDPad,CuDef*%
%ADD52R,0.400000X0.600000*%
%TD*%
%TA.AperFunction,SMDPad,CuDef*%
%ADD53R,0.200000X0.600000*%
%TD*%
%TA.AperFunction,ViaPad*%
%ADD54C,0.400000*%
%TD*%
%TA.AperFunction,ViaPad*%
%ADD55C,0.650000*%
%TD*%
%TA.AperFunction,Conductor*%
%ADD56C,0.130000*%
%TD*%
%TA.AperFunction,Conductor*%
%ADD57C,1.800000*%
%TD*%
G04 APERTURE END LIST*
D10*
%TA.AperFunction,Conductor*%
%TO.N,VCC_HV*%
G36*
X148226117Y-109255161D02*
G01*
X145764813Y-111728848D01*
X143902399Y-109918165D01*
X145390000Y-108429537D01*
X148223248Y-108419807D01*
X148226117Y-109255161D01*
G37*
%TD.AperFunction*%
%TA.AperFunction,Conductor*%
%TO.N,Net-(J3-Ext)*%
G36*
X154400000Y-109800000D02*
G01*
X156250000Y-111150000D01*
X158670192Y-110792493D01*
X155838804Y-114605136D01*
X155804704Y-114650724D01*
X155730892Y-114737416D01*
X155651069Y-114818606D01*
X155565641Y-114893877D01*
X155475048Y-114962845D01*
X155379753Y-115025155D01*
X155280245Y-115080488D01*
X155177034Y-115128561D01*
X155070648Y-115169127D01*
X154961632Y-115201979D01*
X154850546Y-115226948D01*
X154737958Y-115243906D01*
X154624446Y-115252766D01*
X154567521Y-115253587D01*
X150512886Y-115254897D01*
X153150000Y-112500000D01*
X152300000Y-110570000D01*
X152300000Y-110040000D01*
X154150000Y-107540000D01*
X154400000Y-109800000D01*
G37*
%TD.AperFunction*%
%TA.AperFunction,Conductor*%
%TO.N,VCC_NoProc*%
G36*
X140790000Y-103770000D02*
G01*
X143430000Y-103770000D01*
X143430000Y-108870000D01*
X140790000Y-108870000D01*
X140790000Y-103770000D01*
G37*
%TD.AperFunction*%
%TA.AperFunction,Conductor*%
%TO.N,VCC_HV*%
G36*
X145390000Y-103450000D02*
G01*
X148230000Y-103450000D01*
X148230000Y-107220000D01*
X145390000Y-107220000D01*
X145390000Y-103450000D01*
G37*
%TD.AperFunction*%
%TO.N,Net-(J3-Ext)*%
D11*
X153061151Y-109507186D02*
G75*
G02*
X151849963Y-109730056I-723051J526886D01*
G01*
%TO.N,GND*%
D12*
X162347699Y-108261089D02*
G75*
G02*
X161171447Y-109801066I-1596199J-11D01*
G01*
D13*
X162530000Y-108710000D02*
G75*
G02*
X161663147Y-109852789I-1778500J448900D01*
G01*
X164210000Y-111220000D02*
G75*
G02*
X163854561Y-109805396I2585900J1401700D01*
G01*
%TD*%
D14*
%TO.P,U2,15,MTDI_15*%
%TO.N,/Top_Board/I2C_Sel*%
X150539500Y-75548250D03*
%TO.P,U2,16,MTDO_16*%
%TO.N,/Top_Board/LEDs*%
X153079500Y-75548250D03*
%TO.P,U2,19,MTMS_19*%
%TO.N,/Top_Board/ESC_Telem1*%
X150539500Y-80628250D03*
%TO.P,U2,20,MTCK_20*%
%TO.N,/Top_Board/ESC_Telem2*%
X153079500Y-80628250D03*
%TD*%
D15*
%TO.P,HV1,1,1_1*%
%TO.N,VCC_HV*%
X143650000Y-112400000D03*
%TD*%
%TO.P,GND1,1,1_1*%
%TO.N,GND*%
X161900000Y-112400000D03*
%TD*%
%TO.P,Batt1,1,1_1*%
%TO.N,Net-(J3-Ext)*%
X156500000Y-109050000D03*
%TD*%
D16*
%TO.P,R26,1*%
%TO.N,/Top_Board/SDA_Accel*%
X147310000Y-79200000D03*
%TO.P,R26,2*%
%TO.N,VCC_3V3*%
X148330000Y-79200000D03*
%TD*%
D17*
%TO.P,C17,1*%
%TO.N,VCC_5V*%
X160580000Y-78350000D03*
%TO.P,C17,2*%
%TO.N,GND*%
X159620000Y-78350000D03*
%TD*%
%TO.P,C3,1*%
%TO.N,/Top_Board/Bias*%
X161530000Y-94200000D03*
%TO.P,C3,2*%
%TO.N,Net-(C3-Pad2)*%
X160570000Y-94200000D03*
%TD*%
D18*
%TO.P,R24,1*%
%TO.N,Net-(ESCs1-Pin_3)*%
X157930000Y-88650000D03*
%TO.P,R24,2*%
%TO.N,/Top_Board/ESC_Telem2*%
X156910000Y-88650000D03*
%TD*%
%TO.P,R2,1*%
%TO.N,GND*%
X162910000Y-99500000D03*
%TO.P,R2,2*%
%TO.N,Net-(U1-RT)*%
X161890000Y-99500000D03*
%TD*%
D16*
%TO.P,R15,1*%
%TO.N,Net-(Temps1-Pin_2)*%
X148380000Y-100460000D03*
%TO.P,R15,2*%
%TO.N,/Top_Board/Temp1_1*%
X149400000Y-100460000D03*
%TD*%
D19*
%TO.P,C1,1*%
%TO.N,GND*%
X164200000Y-98425000D03*
%TO.P,C1,2*%
%TO.N,Net-(U1-VCC)*%
X164200000Y-96875000D03*
%TD*%
D20*
%TO.P,Q1,1,G_1*%
%TO.N,VCC_3V3*%
X154712500Y-77850000D03*
%TO.P,Q1,2,S_2*%
%TO.N,/Top_Board/LEDs*%
X154712500Y-76550000D03*
%TO.P,Q1,3,D_3*%
%TO.N,Net-(Q1-D)*%
X156487500Y-77200000D03*
%TD*%
D21*
%TO.P,LEDs1,1,Pin_1_1*%
%TO.N,GND*%
X158600000Y-76500000D03*
%TO.P,LEDs1,2,Pin_2_2*%
%TO.N,Net-(LEDs1-Pin_2)*%
X159600000Y-76500000D03*
%TO.P,LEDs1,3,Pin_3_3*%
%TO.N,VCC_5V*%
X160600000Y-76500000D03*
D22*
%TO.P,LEDs1,MP*%
%TO.N,GND*%
X157300000Y-72625000D03*
X161900000Y-72625000D03*
%TD*%
D16*
%TO.P,R20,1*%
%TO.N,VCC_5V*%
X154920000Y-75530000D03*
%TO.P,R20,2*%
%TO.N,Net-(Q1-D)*%
X155940000Y-75530000D03*
%TD*%
D23*
%TO.P,R3,1*%
%TO.N,/Top_Board/FB*%
X163950000Y-94640000D03*
%TO.P,R3,2*%
%TO.N,/Top_Board/Bias*%
X163950000Y-95660000D03*
%TD*%
D18*
%TO.P,R21,1*%
%TO.N,Net-(LEDs1-Pin_2)*%
X157880000Y-78360000D03*
%TO.P,R21,2*%
%TO.N,Net-(Q1-D)*%
X156860000Y-78360000D03*
%TD*%
%TO.P,R23,1*%
%TO.N,Net-(ESCs1-Pin_5)*%
X157930000Y-90650000D03*
%TO.P,R23,2*%
%TO.N,/Top_Board/Dshot1*%
X156910000Y-90650000D03*
%TD*%
D24*
%TO.P,U4,1,SDO/TA0_1*%
%TO.N,VCC_3V3*%
X147552342Y-82491682D03*
%TO.P,U4,2,SDX_2*%
%TO.N,GND*%
X147198788Y-82845235D03*
%TO.P,U4,3,SCX_3*%
X146845235Y-83198788D03*
%TO.P,U4,4,INT1_4*%
%TO.N,/Top_Board/INT*%
X146491682Y-83552342D03*
D25*
%TO.P,U4,5,VDDIO_5*%
%TO.N,VCC_3V3*%
X145908318Y-83198788D03*
%TO.P,U4,6,GND_6*%
%TO.N,GND*%
X145554765Y-82845235D03*
%TO.P,U4,7,GND_7*%
X145201212Y-82491682D03*
D24*
%TO.P,U4,8,VDD_8*%
%TO.N,VCC_3V3*%
X144847658Y-81908318D03*
%TO.P,U4,9,INT2_9*%
%TO.N,unconnected-(U4-INT2-Pad9)*%
X145201212Y-81554765D03*
%TO.P,U4,10,OCS_AUX_10*%
%TO.N,GND*%
X145554765Y-81201212D03*
%TO.P,U4,11,SDO_AUX_11*%
X145908318Y-80847658D03*
D25*
%TO.P,U4,12,CS_12*%
%TO.N,VCC_3V3*%
X146491682Y-81201212D03*
%TO.P,U4,13,SCL_13*%
%TO.N,/Top_Board/SCL_Accel*%
X146845235Y-81554765D03*
%TO.P,U4,14,SDA_14*%
%TO.N,/Top_Board/SDA_Accel*%
X147198788Y-81908318D03*
%TD*%
D26*
%TO.P,U5,1,SDO/TA0_1*%
%TO.N,GND*%
X157697658Y-81858318D03*
%TO.P,U5,2,SDX_2*%
X158051212Y-81504765D03*
%TO.P,U5,3,SCX_3*%
X158404765Y-81151212D03*
%TO.P,U5,4,INT1_4*%
%TO.N,/Top_Board/INT*%
X158758318Y-80797658D03*
D27*
%TO.P,U5,5,VDDIO_5*%
%TO.N,VCC_3V3*%
X159341682Y-81151212D03*
%TO.P,U5,6,GND_6*%
%TO.N,GND*%
X159695235Y-81504765D03*
%TO.P,U5,7,GND_7*%
X160048788Y-81858318D03*
D26*
%TO.P,U5,8,VDD_8*%
%TO.N,VCC_3V3*%
X160402342Y-82441682D03*
%TO.P,U5,9,INT2_9*%
%TO.N,unconnected-(U5-INT2-Pad9)*%
X160048788Y-82795235D03*
%TO.P,U5,10,OCS_AUX_10*%
%TO.N,GND*%
X159695235Y-83148788D03*
%TO.P,U5,11,SDO_AUX_11*%
X159341682Y-83502342D03*
D27*
%TO.P,U5,12,CS_12*%
%TO.N,VCC_3V3*%
X158758318Y-83148788D03*
%TO.P,U5,13,SCL_13*%
%TO.N,/Top_Board/SCL_Accel*%
X158404765Y-82795235D03*
%TO.P,U5,14,SDA_14*%
%TO.N,/Top_Board/SDA_Accel*%
X158051212Y-82441682D03*
%TD*%
D28*
%TO.P,C8,1*%
%TO.N,VCC_HV*%
X156400000Y-100625000D03*
%TO.P,C8,2*%
%TO.N,GND*%
X156400000Y-103575000D03*
%TD*%
D29*
%TO.P,R29,1*%
%TO.N,/Top_Board/SCL_Extra*%
X141810000Y-78580000D03*
%TO.P,R29,2*%
%TO.N,VCC_3V3*%
X141810000Y-77560000D03*
%TD*%
D30*
%TO.P,J3,2,Ext_2*%
%TO.N,Net-(J3-Ext)*%
X150460000Y-112160000D03*
%TD*%
D31*
%TO.P,D5,1,K_1*%
%TO.N,VCC_HV*%
X163150000Y-101550000D03*
%TO.P,D5,2,A_2*%
%TO.N,GND*%
X163150000Y-105550000D03*
%TD*%
D32*
%TO.P,C20,1*%
%TO.N,VCC_HV*%
X155950000Y-98875000D03*
%TO.P,C20,2*%
%TO.N,GND*%
X155950000Y-95925000D03*
%TD*%
D33*
%TO.P,U3,1,A0_1*%
%TO.N,/Top_Board/SCL_Accel*%
X143250000Y-80662500D03*
D34*
%TO.P,U3,2,A1_2*%
%TO.N,/Top_Board/SDA_Extra*%
X142850000Y-80762500D03*
D35*
%TO.P,U3,3,A_3*%
%TO.N,/Top_Board/SDA*%
X142187500Y-80500000D03*
%TO.P,U3,4,GND_4*%
%TO.N,GND*%
X142187499Y-80100000D03*
%TO.P,U3,5,B_5*%
%TO.N,/Top_Board/SCL*%
X142187500Y-79700000D03*
D34*
%TO.P,U3,6,B1_6*%
%TO.N,/Top_Board/SCL_Extra*%
X142850000Y-79437500D03*
%TO.P,U3,7,B0_7*%
%TO.N,/Top_Board/SDA_Accel*%
X143250000Y-79437500D03*
D35*
%TO.P,U3,8,~{EN}_8*%
%TO.N,GND*%
X143912500Y-79700000D03*
%TO.P,U3,9,VCC_9*%
%TO.N,VCC_3V3*%
X143912501Y-80100000D03*
%TO.P,U3,10,SEL_10*%
%TO.N,/Top_Board/I2C_Sel*%
X143912500Y-80500000D03*
%TD*%
D16*
%TO.P,R17,1*%
%TO.N,Net-(Temps1-Pin_4)*%
X148380000Y-98460000D03*
%TO.P,R17,2*%
%TO.N,/Top_Board/Temp3_1*%
X149400000Y-98460000D03*
%TD*%
D23*
%TO.P,R30,1*%
%TO.N,Net-(I2C1-Pin_3)*%
X141950000Y-75590000D03*
%TO.P,R30,2*%
%TO.N,/Top_Board/SDA_Extra*%
X141950000Y-76610000D03*
%TD*%
D31*
%TO.P,D2,1,K_1*%
%TO.N,VCC_5V*%
X163250000Y-78600000D03*
%TO.P,D2,2,A_2*%
%TO.N,/Top_Board/Bias*%
X163250000Y-82600000D03*
%TD*%
D29*
%TO.P,R19,1*%
%TO.N,VCC_3V3*%
X153500000Y-78360000D03*
%TO.P,R19,2*%
%TO.N,/Top_Board/LEDs*%
X153500000Y-77340000D03*
%TD*%
D36*
%TO.P,U7,1,1_1*%
%TO.N,/Top_Board/LEDs*%
X151600000Y-78154800D03*
%TO.P,U7,2,2_2*%
%TO.N,GND*%
X150799999Y-78154800D03*
%TO.P,U7,3,3_3*%
%TO.N,/Top_Board/Receiver_RX*%
X150000001Y-78154800D03*
%TO.P,U7,4,4_4*%
%TO.N,/Top_Board/SDA_Extra*%
X149200000Y-78154800D03*
%TO.P,U7,5,5_5*%
%TO.N,/Top_Board/SCL_Extra*%
X149599999Y-77545200D03*
%TO.P,U7,6,6_6*%
%TO.N,/Top_Board/Receiver_TX*%
X150400000Y-77545200D03*
%TO.P,U7,7,7_7*%
%TO.N,/Top_Board/Vbat_Sense*%
X151199998Y-77545200D03*
%TD*%
D21*
%TO.P,I2C1,1,Pin_1_1*%
%TO.N,GND*%
X144750000Y-76500000D03*
%TO.P,I2C1,2,Pin_2_2*%
%TO.N,Net-(I2C1-Pin_2)*%
X145750000Y-76500000D03*
%TO.P,I2C1,3,Pin_3_3*%
%TO.N,Net-(I2C1-Pin_3)*%
X146750000Y-76500000D03*
%TO.P,I2C1,4,Pin_4_4*%
%TO.N,VCC_5V*%
X147750000Y-76500000D03*
D22*
%TO.P,I2C1,MP*%
%TO.N,GND*%
X143450000Y-72625000D03*
X149050000Y-72625000D03*
%TD*%
D17*
%TO.P,C16,1*%
%TO.N,/Top_Board/Temp_Sense*%
X157900000Y-85640000D03*
%TO.P,C16,2*%
%TO.N,GND*%
X156940000Y-85640000D03*
%TD*%
D28*
%TO.P,C9,1*%
%TO.N,VCC_HV*%
X149830000Y-102305000D03*
%TO.P,C9,2*%
%TO.N,GND*%
X149830000Y-105255000D03*
%TD*%
D18*
%TO.P,R14,1*%
%TO.N,/Top_Board/Temp_Sense*%
X157930000Y-84630000D03*
%TO.P,R14,2*%
%TO.N,VCC_3V3*%
X156910000Y-84630000D03*
%TD*%
D37*
%TO.P,C15,1*%
%TO.N,VCC_3V3*%
X150990000Y-97460000D03*
%TO.P,C15,2*%
%TO.N,GND*%
X151950000Y-97460000D03*
%TD*%
D38*
%TO.P,C11,1*%
%TO.N,VCC_3V3*%
X148280000Y-81160000D03*
%TO.P,C11,2*%
%TO.N,GND*%
X148280000Y-80200000D03*
%TD*%
D18*
%TO.P,R22,1*%
%TO.N,Net-(ESCs1-Pin_6)*%
X157930000Y-91650000D03*
%TO.P,R22,2*%
%TO.N,/Top_Board/ESC_Telem1*%
X156910000Y-91650000D03*
%TD*%
D39*
%TO.P,ESCs1,1,Pin_1_1*%
%TO.N,GND*%
X159700000Y-86650000D03*
%TO.P,ESCs1,2,Pin_2_2*%
%TO.N,Net-(ESCs1-Pin_2)*%
X159700000Y-87650000D03*
%TO.P,ESCs1,3,Pin_3_3*%
%TO.N,Net-(ESCs1-Pin_3)*%
X159700000Y-88650000D03*
%TO.P,ESCs1,4,Pin_4_4*%
%TO.N,GND*%
X159700000Y-89650000D03*
%TO.P,ESCs1,5,Pin_5_5*%
%TO.N,Net-(ESCs1-Pin_5)*%
X159700000Y-90650000D03*
%TO.P,ESCs1,6,Pin_6_6*%
%TO.N,Net-(ESCs1-Pin_6)*%
X159700000Y-91650000D03*
D40*
%TO.P,ESCs1,MP*%
%TO.N,GND*%
X163575000Y-85350000D03*
X163575000Y-92950000D03*
%TD*%
D17*
%TO.P,C18,1*%
%TO.N,VCC_5V*%
X160580000Y-79450000D03*
%TO.P,C18,2*%
%TO.N,GND*%
X159620000Y-79450000D03*
%TD*%
D28*
%TO.P,C7,1*%
%TO.N,VCC_HV*%
X159700000Y-100625000D03*
%TO.P,C7,2*%
%TO.N,GND*%
X159700000Y-103575000D03*
%TD*%
D41*
%TO.P,Temps1,1,Pin_1_1*%
%TO.N,GND*%
X146540000Y-101460000D03*
%TO.P,Temps1,2,Pin_2_2*%
%TO.N,Net-(Temps1-Pin_2)*%
X146540000Y-100460000D03*
%TO.P,Temps1,3,Pin_3_3*%
%TO.N,Net-(Temps1-Pin_3)*%
X146540000Y-99460000D03*
%TO.P,Temps1,4,Pin_4_4*%
%TO.N,Net-(Temps1-Pin_4)*%
X146540000Y-98460000D03*
D42*
%TO.P,Temps1,MP*%
%TO.N,GND*%
X142665000Y-102760000D03*
X142665000Y-97160000D03*
%TD*%
D18*
%TO.P,R25,1*%
%TO.N,Net-(ESCs1-Pin_2)*%
X157930000Y-87650000D03*
%TO.P,R25,2*%
%TO.N,/Top_Board/Dshot2*%
X156910000Y-87650000D03*
%TD*%
D29*
%TO.P,R31,1*%
%TO.N,/Top_Board/SCL_Extra*%
X142950000Y-78260000D03*
%TO.P,R31,2*%
%TO.N,Net-(I2C1-Pin_2)*%
X142950000Y-77240000D03*
%TD*%
D43*
%TO.P,Receiver1,1,RX_1*%
%TO.N,/Top_Board/Receiver_RX*%
X142707500Y-85670000D03*
%TO.P,Receiver1,2,TX_2*%
%TO.N,/Top_Board/Receiver_TX*%
X145207500Y-85670000D03*
%TO.P,Receiver1,3,5V_3*%
%TO.N,VCC_5V*%
X147707500Y-85670000D03*
%TO.P,Receiver1,4,GND_4*%
%TO.N,GND*%
X150207500Y-85670000D03*
%TD*%
D28*
%TO.P,C6,1*%
%TO.N,VCC_HV*%
X153100000Y-100625000D03*
%TO.P,C6,2*%
%TO.N,GND*%
X153100000Y-103575000D03*
%TD*%
D32*
%TO.P,C19,1*%
%TO.N,VCC_HV*%
X153550000Y-98875000D03*
%TO.P,C19,2*%
%TO.N,GND*%
X153550000Y-95925000D03*
%TD*%
D44*
%TO.P,U1,1,BIAS_1_1*%
%TO.N,/Top_Board/Bias*%
X162650000Y-95700000D03*
D45*
%TO.P,U1,2,VCC_2*%
%TO.N,Net-(U1-VCC)*%
X162650000Y-96325000D03*
D46*
%TO.P,U1,3,AGND_3*%
%TO.N,GND*%
X162650000Y-96850000D03*
D45*
%TO.P,U1,4,FB_4*%
%TO.N,/Top_Board/FB*%
X162650000Y-97375000D03*
D44*
%TO.P,U1,5,PGOOD_1_5*%
%TO.N,/Top_Board/NC_1*%
X162650000Y-98000000D03*
D47*
%TO.P,U1,6,RT_6*%
%TO.N,Net-(U1-RT)*%
X161925000Y-98450000D03*
%TO.P,U1,7,EN/SYNC_7*%
%TO.N,VCC_HV*%
X161425000Y-98450000D03*
D48*
%TO.P,U1,8,VIN1_8*%
X160350000Y-98300000D03*
D49*
%TO.P,U1,9,PGND1_1_9*%
%TO.N,GND*%
X159000000Y-98000000D03*
D50*
%TO.P,U1,10,SW_10*%
%TO.N,Net-(U1-SW)*%
X159800000Y-96850000D03*
D49*
%TO.P,U1,11,PGND2_1_11*%
%TO.N,GND*%
X159000000Y-95700000D03*
D48*
%TO.P,U1,12,VIN2_12*%
%TO.N,VCC_HV*%
X160350000Y-95400000D03*
D47*
%TO.P,U1,13,RBOOT_13*%
%TO.N,Net-(U1-CBOOT)*%
X161425000Y-95250000D03*
%TO.P,U1,14,CBOOT_14*%
X161925000Y-95250000D03*
D51*
%TO.P,U1,15,BIAS_2_15*%
%TO.N,/Top_Board/Bias*%
X162475000Y-95200000D03*
%TO.P,U1,16,PGOOD_2_16*%
%TO.N,/Top_Board/NC_1*%
X162475000Y-98500000D03*
D52*
%TO.P,U1,17,PGND1_2_17*%
%TO.N,GND*%
X159200000Y-98500000D03*
%TO.P,U1,18,PGND2_2_18*%
X159200000Y-95200000D03*
%TD*%
D16*
%TO.P,R16,1*%
%TO.N,Net-(Temps1-Pin_3)*%
X148380000Y-99460000D03*
%TO.P,R16,2*%
%TO.N,/Top_Board/Temp2_1*%
X149400000Y-99460000D03*
%TD*%
D23*
%TO.P,R27,1*%
%TO.N,/Top_Board/SCL_Accel*%
X143260000Y-81970000D03*
%TO.P,R27,2*%
%TO.N,VCC_3V3*%
X143260000Y-82990000D03*
%TD*%
D53*
%TO.P,D4,1*%
%TO.N,/Top_Board/ESC_Telem1*%
X155850000Y-93825000D03*
%TO.P,D4,2*%
%TO.N,/Top_Board/ESC_Telem2*%
X155050000Y-93825000D03*
%TO.P,D4,3*%
%TO.N,GND*%
X154250000Y-93825000D03*
%TO.P,D4,4*%
%TO.N,/Top_Board/TempRef_1*%
X153450000Y-93825000D03*
%TO.P,D4,5*%
%TO.N,/Top_Board/Temp3_1*%
X152650000Y-93825000D03*
%TO.P,D4,6*%
%TO.N,/Top_Board/Temp2_1*%
X152950000Y-92975000D03*
%TO.P,D4,7*%
%TO.N,/Top_Board/Temp1_1*%
X153850000Y-92975000D03*
%TO.P,D4,8*%
%TO.N,/Top_Board/Dshot2*%
X154650000Y-92975000D03*
%TO.P,D4,9*%
%TO.N,/Top_Board/Dshot1*%
X155550000Y-92975000D03*
%TD*%
D17*
%TO.P,C14,1*%
%TO.N,VCC_3V3*%
X157180000Y-83620000D03*
%TO.P,C14,2*%
%TO.N,GND*%
X156220000Y-83620000D03*
%TD*%
D37*
%TO.P,C2,1*%
%TO.N,Net-(U1-SW)*%
X158670000Y-94200000D03*
%TO.P,C2,2*%
%TO.N,Net-(U1-CBOOT)*%
X159630000Y-94200000D03*
%TD*%
D54*
%TO.N,GND*%
X149110000Y-94460000D03*
%TO.N,VCC_NoProc*%
X143010000Y-105210000D03*
X141810000Y-105210000D03*
X143010000Y-105810000D03*
X141810000Y-104610000D03*
X141810000Y-104010000D03*
X141210000Y-107010000D03*
X143010000Y-108210000D03*
X143010000Y-104010000D03*
X141210000Y-108210000D03*
X141210000Y-107610000D03*
X141210000Y-105210000D03*
X141210000Y-106410000D03*
X141210000Y-105810000D03*
X142410000Y-104610000D03*
X142410000Y-106410000D03*
X141810000Y-105810000D03*
X141210000Y-104010000D03*
X141810000Y-106410000D03*
X142410000Y-107010000D03*
X141810000Y-107610000D03*
X141810000Y-107010000D03*
X143010000Y-107010000D03*
X142410000Y-104010000D03*
X142410000Y-105210000D03*
X143010000Y-107610000D03*
X143010000Y-106410000D03*
X142410000Y-108210000D03*
X143010000Y-104610000D03*
X141210000Y-104610000D03*
X141810000Y-108210000D03*
X142410000Y-105810000D03*
X142410000Y-107610000D03*
%TO.N,Net-(J1-SHIELD)*%
X149850000Y-107860000D03*
X150450000Y-107860000D03*
X144362500Y-106550000D03*
X144362500Y-107750000D03*
X144362500Y-107150000D03*
X151050000Y-107860000D03*
%TO.N,/Top_Board/SDA*%
X141630000Y-79230000D03*
%TO.N,/Top_Board/SCL*%
X142290000Y-79420000D03*
%TO.N,/Top_Board/INT*%
X156700000Y-81210000D03*
X146410000Y-83540000D03*
%TO.N,/Top_Board/Vbat_Sense*%
X143754500Y-89260250D03*
X151199998Y-77545200D03*
X141410000Y-82720000D03*
%TO.N,/Top_Board/Dshot1*%
X156910000Y-90650000D03*
%TO.N,/Top_Board/Dshot2*%
X156910000Y-87650000D03*
%TO.N,/Top_Board/Temp_Sense*%
X159919500Y-84180250D03*
%TO.N,VCC_3V3*%
X147690000Y-82350000D03*
X141770000Y-82050000D03*
X150990000Y-97390000D03*
X141675000Y-77275000D03*
X159500000Y-80820000D03*
X160510000Y-82420000D03*
X145597106Y-83510000D03*
X148430000Y-79350000D03*
X146640000Y-80880000D03*
X146300000Y-79000000D03*
X148430000Y-81270000D03*
X153500000Y-78360000D03*
X148870000Y-96020000D03*
%TO.N,GND*%
X160100000Y-103920000D03*
X153500000Y-103920000D03*
X152710000Y-103220000D03*
X159150000Y-99490000D03*
X159310000Y-103220000D03*
X155560000Y-96280000D03*
X156350000Y-96270000D03*
X153430000Y-95570000D03*
X153900000Y-84890000D03*
X146100000Y-82300000D03*
X154220000Y-96270000D03*
X163110000Y-96860000D03*
X155560000Y-95570000D03*
X153900000Y-83400000D03*
X151675000Y-79750000D03*
X145140000Y-75070000D03*
X156010000Y-103220000D03*
X157470000Y-89890000D03*
X152250000Y-84900000D03*
X145600000Y-78710000D03*
X157440000Y-101740000D03*
X147060000Y-74670000D03*
X156800000Y-103920000D03*
X154210000Y-95570000D03*
X153490000Y-103220000D03*
X152710000Y-103930000D03*
X160090000Y-103220000D03*
X156340000Y-95570000D03*
X158340000Y-99490000D03*
X163540000Y-105190000D03*
X157470000Y-99480000D03*
X158920000Y-95410000D03*
X151970000Y-91190000D03*
X163550000Y-105890000D03*
X159120000Y-101750000D03*
X147022011Y-83022011D03*
X152250000Y-83400000D03*
X162760000Y-105190000D03*
X156790000Y-103220000D03*
X158310000Y-101750000D03*
X153620000Y-91180000D03*
X153430000Y-96280000D03*
X162760000Y-105900000D03*
X148100000Y-80350000D03*
X159310000Y-103930000D03*
X141500000Y-79950000D03*
X156010000Y-103930000D03*
D55*
%TO.N,VCC_5V*%
X160600000Y-76500000D03*
X153150000Y-82682284D03*
X156620000Y-80280000D03*
D54*
X163900000Y-79250000D03*
X147707500Y-85670000D03*
X163250000Y-79250000D03*
X162600000Y-79250000D03*
%TO.N,/Top_Board/I2C_Sel*%
X146225000Y-79650000D03*
%TO.N,/Top_Board/ESC_Telem1*%
X156910000Y-91650000D03*
%TO.N,/Top_Board/ESC_Telem2*%
X156910000Y-88650000D03*
%TO.N,/Top_Board/FB*%
X164050000Y-94210000D03*
%TO.N,VCC_HV*%
X145950000Y-105200000D03*
X147750000Y-107000000D03*
X147150000Y-106400000D03*
X146550000Y-104000000D03*
X147150000Y-105200000D03*
X145952792Y-109194264D03*
X147750000Y-106400000D03*
X145104264Y-109194264D03*
X145950000Y-104000000D03*
X147750000Y-104600000D03*
X147750000Y-104000000D03*
X147225584Y-108770000D03*
X146550000Y-104600000D03*
X147750000Y-105200000D03*
X146801320Y-110042792D03*
X147150000Y-104600000D03*
X146550000Y-105200000D03*
X146550000Y-107000000D03*
X145531472Y-108771472D03*
X146550000Y-106400000D03*
X147150000Y-105800000D03*
X147150000Y-104000000D03*
X146550000Y-105800000D03*
X146377056Y-108770000D03*
X145950000Y-106400000D03*
X147225584Y-109618528D03*
X147649848Y-109194264D03*
X146377056Y-110467056D03*
X146801320Y-109194264D03*
X145950000Y-104600000D03*
X146377056Y-109618528D03*
X145950000Y-107000000D03*
X147750000Y-105800000D03*
X145950000Y-105800000D03*
X147150000Y-107000000D03*
%TO.N,/Top_Board/Receiver_TX*%
X141750000Y-84275000D03*
X149960000Y-82510000D03*
X149040000Y-84640000D03*
%TO.N,Net-(U1-SW)*%
X159800000Y-96850000D03*
D55*
%TO.N,/Top_Board/Bias*%
X162320000Y-91750000D03*
X163950000Y-95660000D03*
D54*
%TO.N,/Top_Board/Temp3_1*%
X150010000Y-95800000D03*
%TO.N,/Top_Board/Temp2_1*%
X150010000Y-96800000D03*
%TO.N,/Top_Board/Temp1_1*%
X151130000Y-96800000D03*
%TO.N,/Top_Board/TempRef_1*%
X151120000Y-95800000D03*
%TO.N,Net-(C3-Pad2)*%
X160570000Y-94200000D03*
%TO.N,/Top_Board/Receiver_RX*%
X148520000Y-83680000D03*
X142075000Y-85500000D03*
X149260000Y-79330000D03*
%TO.N,/Top_Board/SDA_Extra*%
X141550000Y-76610000D03*
%TO.N,Net-(U1-CBOOT)*%
X161425000Y-95250000D03*
X159630000Y-94200000D03*
%TD*%
%TO.N,/Top_Board/FB*%
D56*
X163950000Y-94640000D02*
X164860000Y-95550000D01*
X164860000Y-95550000D02*
X164860000Y-97290000D01*
X164860000Y-97290000D02*
X164620000Y-97530000D01*
X164620000Y-97530000D02*
X163710000Y-97530000D01*
X163710000Y-97530000D02*
X163555000Y-97375000D01*
X163555000Y-97375000D02*
X162650000Y-97375000D01*
%TO.N,Net-(J1-SHIELD)*%
D13*
X144632500Y-107860000D02*
X144362500Y-107590000D01*
X144362500Y-106550000D02*
X144362500Y-107590000D01*
X151050000Y-107860000D02*
X149850000Y-107860000D01*
X144362500Y-107590000D02*
X144362500Y-107750000D01*
X145072500Y-107860000D02*
X144472500Y-107860000D01*
X149850000Y-107860000D02*
X145072500Y-107860000D01*
X144472500Y-107860000D02*
X144362500Y-107750000D01*
X144362500Y-107150000D02*
X145072500Y-107860000D01*
X145072500Y-107860000D02*
X144632500Y-107860000D01*
%TO.N,/Top_Board/SDA*%
D56*
X141630000Y-79230000D02*
X141075000Y-79785000D01*
X141425000Y-80500000D02*
X142187500Y-80500000D01*
X141075000Y-79785000D02*
X141075000Y-80150000D01*
X141075000Y-80150000D02*
X141425000Y-80500000D01*
%TO.N,/Top_Board/SCL*%
X142187500Y-79522500D02*
X142290000Y-79420000D01*
X142187500Y-79700000D02*
X142187500Y-79522500D01*
%TO.N,/Top_Board/INT*%
X157510000Y-80400000D02*
X158360660Y-80400000D01*
X158360660Y-80400000D02*
X158758318Y-80797658D01*
X156700000Y-81210000D02*
X157510000Y-80400000D01*
%TO.N,/Top_Board/Vbat_Sense*%
X141150000Y-87600000D02*
X142810250Y-89260250D01*
X141410000Y-83465000D02*
X141150000Y-83725000D01*
X141150000Y-83725000D02*
X141150000Y-87600000D01*
X141410000Y-82720000D02*
X141410000Y-83465000D01*
X142810250Y-89260250D02*
X143754500Y-89260250D01*
%TO.N,/Top_Board/Dshot1*%
X155550000Y-92975000D02*
X155550000Y-92010000D01*
X155550000Y-92010000D02*
X156910000Y-90650000D01*
%TO.N,/Top_Board/Dshot2*%
X154650000Y-92975000D02*
X154650000Y-92200000D01*
X154650000Y-92200000D02*
X156030000Y-90820000D01*
X156390000Y-88170000D02*
X156910000Y-87650000D01*
X156030000Y-90820000D02*
X156030000Y-89980000D01*
X156030000Y-89980000D02*
X156390000Y-89620000D01*
X156390000Y-89620000D02*
X156390000Y-88170000D01*
%TO.N,/Top_Board/Temp_Sense*%
X157900000Y-84660000D02*
X157930000Y-84630000D01*
X159469750Y-84630000D02*
X159919500Y-84180250D01*
X157930000Y-84630000D02*
X159469750Y-84630000D01*
X157900000Y-85640000D02*
X157900000Y-84660000D01*
%TO.N,VCC_3V3*%
X145911212Y-83198788D02*
X145908318Y-83198788D01*
X159060000Y-81432894D02*
X159341682Y-81151212D01*
X158287106Y-83620000D02*
X158758318Y-83148788D01*
X146300000Y-79000000D02*
X146000000Y-79300000D01*
X154202500Y-78360000D02*
X153500000Y-78360000D01*
X159060000Y-82847106D02*
X159060000Y-81432894D01*
X152360000Y-92710000D02*
X152360000Y-92310000D01*
X155630000Y-85910000D02*
X156910000Y-84630000D01*
X154992500Y-79150000D02*
X158100000Y-79150000D01*
X145450000Y-79300000D02*
X144650000Y-80100000D01*
X157180000Y-83620000D02*
X156910000Y-83890000D01*
X146491682Y-81201212D02*
X146275000Y-81417894D01*
X157180000Y-83620000D02*
X158287106Y-83620000D01*
X154712500Y-77850000D02*
X154202500Y-78360000D01*
X144847658Y-81908318D02*
X144345976Y-82410000D01*
X151180000Y-93190000D02*
X151880000Y-93190000D01*
X159500000Y-80820000D02*
X159480000Y-80820000D01*
X153500000Y-78360000D02*
X153500000Y-78390000D01*
X152360000Y-92310000D02*
X152640000Y-92030000D01*
X144650000Y-80100000D02*
X143912501Y-80100000D01*
X159500000Y-80550000D02*
X159500000Y-80820000D01*
X151880000Y-93190000D02*
X152360000Y-92710000D01*
X155630000Y-90660000D02*
X155630000Y-85910000D01*
X156910000Y-83890000D02*
X156910000Y-84630000D01*
X144345976Y-82735976D02*
X145120000Y-83510000D01*
X143260000Y-82990000D02*
X142710000Y-82990000D01*
X152640000Y-92030000D02*
X154260000Y-92030000D01*
X148870000Y-95500000D02*
X151180000Y-93190000D01*
X145120000Y-83510000D02*
X145597106Y-83510000D01*
X158758318Y-83148788D02*
X159060000Y-82847106D01*
X154260000Y-92030000D02*
X155630000Y-90660000D01*
X145597106Y-83510000D02*
X145908318Y-83198788D01*
X142710000Y-82990000D02*
X141770000Y-82050000D01*
X154202500Y-78360000D02*
X154992500Y-79150000D01*
X148870000Y-96020000D02*
X148870000Y-95500000D01*
X146675000Y-82435000D02*
X145911212Y-83198788D01*
X158100000Y-79150000D02*
X159500000Y-80550000D01*
X146675000Y-82200000D02*
X146675000Y-82435000D01*
X146275000Y-81417894D02*
X146275000Y-81800000D01*
X144345976Y-82410000D02*
X144345976Y-82735976D01*
X146000000Y-79300000D02*
X145450000Y-79300000D01*
X146275000Y-81800000D02*
X146675000Y-82200000D01*
%TO.N,GND*%
X144750000Y-75460000D02*
X145140000Y-75070000D01*
X145890000Y-81802894D02*
X145201212Y-82491682D01*
X144750000Y-76500000D02*
X144750000Y-75460000D01*
X145908318Y-80847658D02*
X145554765Y-81201211D01*
X159341682Y-83502341D02*
X159341682Y-83502342D01*
X147022011Y-83022011D02*
X147198788Y-82845235D01*
X145600000Y-78710000D02*
X144902500Y-78710000D01*
X158051212Y-81504765D02*
X158404765Y-81151212D01*
X148280000Y-80200000D02*
X148250000Y-80200000D01*
X145554765Y-81204765D02*
X145890000Y-81540000D01*
X144902500Y-78710000D02*
X143912500Y-79700000D01*
D57*
X163150000Y-105550000D02*
X163150000Y-111150000D01*
D56*
X150799999Y-78874999D02*
X151675000Y-79750000D01*
X159695235Y-83148788D02*
X159341682Y-83502341D01*
X145890000Y-81540000D02*
X145890000Y-81802894D01*
X145554765Y-81201211D02*
X145554765Y-81201212D01*
X141650000Y-80100000D02*
X141500000Y-79950000D01*
X159695235Y-81504765D02*
X160048788Y-81858318D01*
X142187499Y-80100000D02*
X141650000Y-80100000D01*
X148250000Y-80200000D02*
X148100000Y-80350000D01*
X157697659Y-81858318D02*
X157697658Y-81858318D01*
X158051212Y-81504765D02*
X157697659Y-81858318D01*
X146845235Y-83198788D02*
X147022011Y-83022011D01*
X150799999Y-78154800D02*
X150799999Y-78874999D01*
X145201212Y-82491682D02*
X145554765Y-82845235D01*
X145554765Y-81201212D02*
X145554765Y-81204765D01*
X145554765Y-82845235D02*
X146100000Y-82300000D01*
%TO.N,VCC_5V*%
D13*
X156620000Y-80280000D02*
X154217716Y-82682284D01*
X154217716Y-82682284D02*
X153150000Y-82682284D01*
X154930000Y-74080000D02*
X148870000Y-74080000D01*
X159050000Y-74080000D02*
X160600000Y-75630000D01*
X160600000Y-78330000D02*
X160580000Y-78350000D01*
X160580000Y-78350000D02*
X160580000Y-79450000D01*
X160600000Y-75630000D02*
X160600000Y-76500000D01*
X147750000Y-75200000D02*
X147750000Y-76500000D01*
X160580000Y-78350000D02*
X163000000Y-78350000D01*
X163000000Y-78350000D02*
X163250000Y-78600000D01*
X160600000Y-76500000D02*
X160600000Y-78330000D01*
X154920000Y-74090000D02*
X154930000Y-74080000D01*
X148870000Y-74080000D02*
X147750000Y-75200000D01*
X154920000Y-75530000D02*
X154920000Y-74090000D01*
X154930000Y-74080000D02*
X159050000Y-74080000D01*
%TO.N,/Top_Board/I2C_Sel*%
D56*
X145610000Y-79650000D02*
X144760000Y-80500000D01*
X144760000Y-80500000D02*
X143912500Y-80500000D01*
X146225000Y-79650000D02*
X145610000Y-79650000D01*
%TO.N,/Top_Board/LEDs*%
X151600000Y-78154800D02*
X152065200Y-78154800D01*
X152310000Y-77910000D02*
X152310000Y-77340000D01*
X152310000Y-77340000D02*
X153500000Y-77340000D01*
X152310000Y-76317750D02*
X153079500Y-75548250D01*
X154712500Y-76550000D02*
X154081250Y-76550000D01*
X154081250Y-76550000D02*
X153079500Y-75548250D01*
X152065200Y-78154800D02*
X152310000Y-77910000D01*
X152310000Y-77340000D02*
X152310000Y-76317750D01*
%TO.N,/Top_Board/ESC_Telem1*%
X155850000Y-93825000D02*
X155850000Y-92710000D01*
X155850000Y-92710000D02*
X156910000Y-91650000D01*
%TO.N,/Top_Board/ESC_Telem2*%
X155050000Y-93825000D02*
X155050000Y-92160000D01*
X156280000Y-90130000D02*
X156280000Y-90930000D01*
X156910000Y-88650000D02*
X156910000Y-89500000D01*
X156920000Y-88660000D02*
X156910000Y-88650000D01*
X156910000Y-89500000D02*
X156280000Y-90130000D01*
X156280000Y-90930000D02*
X155050000Y-92160000D01*
%TO.N,VCC_HV*%
X161610000Y-96400000D02*
X161310000Y-96100000D01*
D13*
X149445000Y-102305000D02*
X149830000Y-102305000D01*
D56*
X161425000Y-97595000D02*
X161610000Y-97410000D01*
D13*
X155950000Y-98875000D02*
X155950000Y-100175000D01*
X149830000Y-102305000D02*
X151420000Y-102305000D01*
X160350000Y-98300000D02*
X160350000Y-99975000D01*
D56*
X161610000Y-97410000D02*
X161610000Y-96400000D01*
D13*
X153550000Y-100175000D02*
X153100000Y-100625000D01*
X160625000Y-101550000D02*
X159700000Y-100625000D01*
X153550000Y-98875000D02*
X153550000Y-100175000D01*
D56*
X160500000Y-98450000D02*
X160350000Y-98300000D01*
D13*
X160350000Y-99975000D02*
X159700000Y-100625000D01*
D56*
X161050000Y-96100000D02*
X160350000Y-95400000D01*
X161310000Y-96100000D02*
X161050000Y-96100000D01*
X161425000Y-98450000D02*
X161425000Y-97595000D01*
D13*
X153100000Y-100625000D02*
X156400000Y-100625000D01*
X155950000Y-100175000D02*
X156400000Y-100625000D01*
D56*
X161425000Y-98450000D02*
X160500000Y-98450000D01*
D13*
X147750000Y-104000000D02*
X149445000Y-102305000D01*
X151420000Y-102305000D02*
X153100000Y-100625000D01*
X156400000Y-100625000D02*
X159700000Y-100625000D01*
X163150000Y-101550000D02*
X160625000Y-101550000D01*
%TO.N,/Top_Board/Receiver_TX*%
D56*
X149230000Y-81130000D02*
X149230000Y-79960000D01*
X149230000Y-79960000D02*
X150400000Y-78790000D01*
X141475000Y-84550000D02*
X141750000Y-84275000D01*
X141900000Y-87175000D02*
X141475000Y-86750000D01*
X145207500Y-85670000D02*
X143702500Y-87175000D01*
X141475000Y-86750000D02*
X141475000Y-84550000D01*
X149040000Y-86680000D02*
X148580000Y-87140000D01*
X143702500Y-87175000D02*
X141900000Y-87175000D01*
X148580000Y-87140000D02*
X146677500Y-87140000D01*
X149960000Y-82510000D02*
X149960000Y-81860000D01*
X150400000Y-78790000D02*
X150400000Y-77545200D01*
X149960000Y-81860000D02*
X149230000Y-81130000D01*
X149040000Y-84640000D02*
X149040000Y-86680000D01*
X146677500Y-87140000D02*
X145207500Y-85670000D01*
%TO.N,Net-(U1-SW)*%
D13*
X157740000Y-96330000D02*
X157740000Y-95130000D01*
X158260000Y-96850000D02*
X157740000Y-96330000D01*
X157740000Y-95130000D02*
X158670000Y-94200000D01*
X159800000Y-96850000D02*
X158260000Y-96850000D01*
%TO.N,/Top_Board/Bias*%
X162475000Y-95200000D02*
X162475000Y-94595000D01*
X161690000Y-84160000D02*
X163250000Y-82600000D01*
X162320000Y-91750000D02*
X161530000Y-92540000D01*
X163910000Y-95700000D02*
X163950000Y-95660000D01*
X162320000Y-91750000D02*
X162320000Y-87320000D01*
X162080000Y-94200000D02*
X161530000Y-94200000D01*
X162650000Y-95700000D02*
X163910000Y-95700000D01*
X162475000Y-94595000D02*
X162080000Y-94200000D01*
X161690000Y-86690000D02*
X161690000Y-84160000D01*
X162320000Y-87320000D02*
X161690000Y-86690000D01*
X161530000Y-92540000D02*
X161530000Y-94200000D01*
%TO.N,/Top_Board/Temp3_1*%
D56*
X150010000Y-95231426D02*
X150010000Y-95800000D01*
X152650000Y-93825000D02*
X151416426Y-93825000D01*
X149400000Y-98460000D02*
X149290000Y-98350000D01*
X149290000Y-98350000D02*
X149290000Y-96520000D01*
X151416426Y-93825000D02*
X150010000Y-95231426D01*
X149290000Y-96520000D02*
X150010000Y-95800000D01*
%TO.N,/Top_Board/Temp2_1*%
X149655000Y-97635000D02*
X149655000Y-97155000D01*
X153040000Y-94240000D02*
X153040000Y-93065000D01*
X149655000Y-97155000D02*
X150010000Y-96800000D01*
X150010000Y-96430000D02*
X150425000Y-96015000D01*
X149400000Y-99460000D02*
X149990000Y-99460000D01*
X150320000Y-99130000D02*
X150320000Y-98300000D01*
X150425000Y-96015000D02*
X150425000Y-95215000D01*
X153040000Y-93065000D02*
X152950000Y-92975000D01*
X152860000Y-94420000D02*
X153040000Y-94240000D01*
X149990000Y-99460000D02*
X150320000Y-99130000D01*
X150425000Y-95215000D02*
X151220000Y-94420000D01*
X150010000Y-96800000D02*
X150010000Y-96430000D01*
X151220000Y-94420000D02*
X152860000Y-94420000D01*
X150320000Y-98300000D02*
X149655000Y-97635000D01*
%TO.N,/Top_Board/Temp1_1*%
X150140000Y-100460000D02*
X149400000Y-100460000D01*
X152770000Y-94970000D02*
X153150000Y-94970000D01*
X150320000Y-97740000D02*
X150740000Y-98160000D01*
X152300000Y-95440000D02*
X152770000Y-94970000D01*
X150730000Y-96800000D02*
X150320000Y-97210000D01*
X153850000Y-94270000D02*
X153850000Y-92975000D01*
X150320000Y-97210000D02*
X150320000Y-97740000D01*
X151130000Y-96800000D02*
X150730000Y-96800000D01*
X152300000Y-95630000D02*
X152300000Y-95440000D01*
X151130000Y-96800000D02*
X152300000Y-95630000D01*
X150740000Y-99860000D02*
X150140000Y-100460000D01*
X150740000Y-98160000D02*
X150740000Y-99860000D01*
X153150000Y-94970000D02*
X153850000Y-94270000D01*
%TO.N,/Top_Board/TempRef_1*%
X153450000Y-93825000D02*
X153450000Y-94255000D01*
X151400000Y-95800000D02*
X151120000Y-95800000D01*
X153450000Y-94255000D02*
X153015000Y-94690000D01*
X152510000Y-94690000D02*
X151400000Y-95800000D01*
X153015000Y-94690000D02*
X152510000Y-94690000D01*
%TO.N,/Top_Board/Receiver_RX*%
X149260000Y-79330000D02*
X150000001Y-78589999D01*
X144010000Y-84320000D02*
X142707500Y-85622500D01*
X142707500Y-85622500D02*
X142707500Y-85670000D01*
X150000001Y-78589999D02*
X150000001Y-78154800D01*
X148520000Y-83680000D02*
X147880000Y-84320000D01*
X147880000Y-84320000D02*
X144010000Y-84320000D01*
%TO.N,/Top_Board/SDA_Extra*%
X141950000Y-76610000D02*
X141550000Y-76610000D01*
X142620000Y-77680000D02*
X142385000Y-77445000D01*
X148725200Y-77680000D02*
X142620000Y-77680000D01*
X142385000Y-77445000D02*
X142385000Y-77045000D01*
X149200000Y-78154800D02*
X148725200Y-77680000D01*
X142385000Y-77045000D02*
X141950000Y-76610000D01*
%TO.N,/Top_Board/SDA_Accel*%
X147310000Y-78690000D02*
X147310000Y-79200000D01*
X157550000Y-82575000D02*
X157683318Y-82441682D01*
X147550000Y-79440000D02*
X147310000Y-79200000D01*
X148875000Y-82875000D02*
X149150000Y-82875000D01*
X146840000Y-78220000D02*
X147310000Y-78690000D01*
X144467500Y-78220000D02*
X146840000Y-78220000D01*
X143250000Y-79437500D02*
X144467500Y-78220000D01*
X155675000Y-82575000D02*
X157550000Y-82575000D01*
X147550000Y-81557106D02*
X147557106Y-81557106D01*
X149150000Y-82875000D02*
X150350000Y-84075000D01*
X143250000Y-79437500D02*
X143272500Y-79437500D01*
X147550000Y-81557106D02*
X147550000Y-79440000D01*
X147557106Y-81557106D02*
X148875000Y-82875000D01*
X154175000Y-84075000D02*
X155675000Y-82575000D01*
X150350000Y-84075000D02*
X154175000Y-84075000D01*
X147310000Y-79200000D02*
X147310000Y-79210000D01*
X147198788Y-81908318D02*
X147550000Y-81557106D01*
X157683318Y-82441682D02*
X158051212Y-82441682D01*
%TO.N,Net-(ESCs1-Pin_3)*%
X159700000Y-88650000D02*
X157930000Y-88650000D01*
%TO.N,Net-(U1-RT)*%
X161925000Y-98450000D02*
X161925000Y-99465000D01*
X161925000Y-99465000D02*
X161890000Y-99500000D01*
%TO.N,Net-(Temps1-Pin_2)*%
X146540000Y-100460000D02*
X148380000Y-100460000D01*
%TO.N,Net-(U1-VCC)*%
X163650000Y-96325000D02*
X164200000Y-96875000D01*
X162650000Y-96325000D02*
X163650000Y-96325000D01*
%TO.N,Net-(Q1-D)*%
X156487500Y-77200000D02*
X156860000Y-77572500D01*
X156860000Y-77572500D02*
X156860000Y-78360000D01*
X155940000Y-75530000D02*
X156487500Y-76077500D01*
X156487500Y-76077500D02*
X156487500Y-77200000D01*
%TO.N,Net-(LEDs1-Pin_2)*%
X158280000Y-78360000D02*
X159600000Y-77040000D01*
X159600000Y-77040000D02*
X159600000Y-76500000D01*
X157880000Y-78360000D02*
X158280000Y-78360000D01*
%TO.N,Net-(ESCs1-Pin_5)*%
X159700000Y-90650000D02*
X157930000Y-90650000D01*
%TO.N,/Top_Board/SCL_Accel*%
X145680000Y-80120000D02*
X146610000Y-80120000D01*
X155785000Y-82890000D02*
X154300000Y-84375000D01*
X147230000Y-81170000D02*
X146845235Y-81554765D01*
X143250000Y-81960000D02*
X143260000Y-81970000D01*
X158140000Y-83060000D02*
X157760000Y-83060000D01*
X147125000Y-84070000D02*
X145040000Y-84070000D01*
X144000000Y-82710000D02*
X143260000Y-81970000D01*
X147995000Y-83200000D02*
X147125000Y-84070000D01*
X158404765Y-82795235D02*
X158140000Y-83060000D01*
X157590000Y-82890000D02*
X155785000Y-82890000D01*
X150175000Y-84375000D02*
X149000000Y-83200000D01*
X144900000Y-80900000D02*
X145680000Y-80120000D01*
X149000000Y-83200000D02*
X147995000Y-83200000D01*
X144000000Y-83030000D02*
X144000000Y-82710000D01*
X147230000Y-80740000D02*
X147230000Y-81170000D01*
X143487500Y-80900000D02*
X144900000Y-80900000D01*
X154300000Y-84375000D02*
X150175000Y-84375000D01*
X157760000Y-83060000D02*
X157590000Y-82890000D01*
X145040000Y-84070000D02*
X144000000Y-83030000D01*
X143250000Y-80662500D02*
X143250000Y-81960000D01*
X143250000Y-80662500D02*
X143487500Y-80900000D01*
X146610000Y-80120000D02*
X147230000Y-80740000D01*
%TO.N,/Top_Board/SCL_Extra*%
X143400000Y-78810000D02*
X143410000Y-78820000D01*
X142850000Y-78360000D02*
X142950000Y-78260000D01*
X142180000Y-78580000D02*
X141810000Y-78580000D01*
X142410000Y-78810000D02*
X142180000Y-78580000D01*
X149330000Y-78850000D02*
X149599999Y-78580001D01*
X142950000Y-78260000D02*
X143330000Y-78260000D01*
X142830000Y-78810000D02*
X143400000Y-78810000D01*
X143410000Y-78820000D02*
X143650000Y-78580000D01*
X143330000Y-78260000D02*
X143650000Y-78580000D01*
X142830000Y-78810000D02*
X142850000Y-78830000D01*
X142850000Y-78830000D02*
X142850000Y-79437500D01*
X144290000Y-77940000D02*
X148080000Y-77940000D01*
X142830000Y-78810000D02*
X142410000Y-78810000D01*
X148080000Y-77940000D02*
X148990000Y-78850000D01*
X148990000Y-78850000D02*
X149330000Y-78850000D01*
X143650000Y-78580000D02*
X144290000Y-77940000D01*
X149599999Y-78580001D02*
X149599999Y-77545200D01*
%TO.N,Net-(Temps1-Pin_4)*%
X148380000Y-98460000D02*
X146540000Y-98460000D01*
%TO.N,Net-(I2C1-Pin_3)*%
X145840000Y-74140000D02*
X142770000Y-74140000D01*
X146750000Y-76500000D02*
X146750000Y-75050000D01*
X141950000Y-74960000D02*
X141950000Y-75590000D01*
X142770000Y-74140000D02*
X141950000Y-74960000D01*
X146750000Y-75050000D02*
X145840000Y-74140000D01*
%TO.N,Net-(I2C1-Pin_2)*%
X145750000Y-74780000D02*
X145420000Y-74450000D01*
X143240000Y-74450000D02*
X142950000Y-74740000D01*
X145420000Y-74450000D02*
X143240000Y-74450000D01*
X145750000Y-76500000D02*
X145750000Y-74780000D01*
X142950000Y-74740000D02*
X142950000Y-77240000D01*
%TO.N,Net-(ESCs1-Pin_6)*%
X157930000Y-91650000D02*
X159700000Y-91650000D01*
%TO.N,Net-(ESCs1-Pin_2)*%
X157930000Y-87650000D02*
X159700000Y-87650000D01*
%TO.N,Net-(Temps1-Pin_3)*%
X148380000Y-99460000D02*
X146540000Y-99460000D01*
%TO.N,Net-(U1-CBOOT)*%
X161925000Y-95250000D02*
X161425000Y-95250000D01*
%TO.N,/Top_Board/SDA_Extra*%
X140845000Y-80245269D02*
X140845000Y-79689730D01*
X142750000Y-80862500D02*
X141462231Y-80862500D01*
X141462231Y-80862500D02*
X140845000Y-80245269D01*
X142850000Y-80762500D02*
X142750000Y-80862500D01*
X140845000Y-79689730D02*
X140850000Y-79684730D01*
X141200000Y-76960000D02*
X141550000Y-76610000D01*
X140850000Y-79684730D02*
X140850000Y-79375000D01*
X141200000Y-79025000D02*
X141200000Y-76960000D01*
X140850000Y-79375000D02*
X141200000Y-79025000D01*
%TD*%
%TA.AperFunction,Conductor*%
%TO.N,GND*%
G36*
X146970054Y-82303605D02*
G01*
X147016501Y-82334640D01*
X147059844Y-82343261D01*
X147061081Y-82343559D01*
X147079946Y-82357283D01*
X147099313Y-82370224D01*
X147099994Y-82371869D01*
X147100691Y-82372376D01*
X147100990Y-82374272D01*
X147108870Y-82393296D01*
X147126018Y-82479511D01*
X147126019Y-82479515D01*
X147162038Y-82533420D01*
X147510603Y-82881985D01*
X147564508Y-82918004D01*
X147564512Y-82918005D01*
X147649567Y-82934923D01*
X147649569Y-82934923D01*
X147649571Y-82934923D01*
X147734625Y-82918005D01*
X147734629Y-82918004D01*
X147788535Y-82881985D01*
X147942645Y-82727875D01*
X147978664Y-82673969D01*
X147978687Y-82673856D01*
X147995583Y-82588910D01*
X147995583Y-82588908D01*
X147990341Y-82562557D01*
X147993723Y-82526215D01*
X147995413Y-82522007D01*
X148016614Y-82485288D01*
X148029537Y-82437057D01*
X148030970Y-82433491D01*
X148045614Y-82418529D01*
X148058357Y-82401922D01*
X148062388Y-82401391D01*
X148065233Y-82398485D01*
X148086164Y-82398260D01*
X148106921Y-82395527D01*
X148111189Y-82397991D01*
X148114214Y-82397959D01*
X148118644Y-82402295D01*
X148135613Y-82412092D01*
X148618766Y-82895245D01*
X148637511Y-82940500D01*
X148618766Y-82985755D01*
X148573511Y-83004500D01*
X147956110Y-83004500D01*
X147884257Y-83034263D01*
X147062766Y-83855755D01*
X147017511Y-83874500D01*
X146944280Y-83874500D01*
X146899025Y-83855755D01*
X146880280Y-83810500D01*
X146891065Y-83774945D01*
X146918004Y-83734629D01*
X146919693Y-83726141D01*
X146934923Y-83649570D01*
X146934923Y-83649567D01*
X146918005Y-83564512D01*
X146918004Y-83564508D01*
X146881985Y-83510603D01*
X146533420Y-83162038D01*
X146479515Y-83126019D01*
X146479511Y-83126018D01*
X146414236Y-83113035D01*
X146373507Y-83085822D01*
X146363951Y-83037780D01*
X146381464Y-83005012D01*
X146776739Y-82609738D01*
X146776742Y-82609736D01*
X146785741Y-82600737D01*
X146785742Y-82600737D01*
X146840737Y-82545742D01*
X146866551Y-82483421D01*
X146870500Y-82473888D01*
X146870500Y-82396113D01*
X146870500Y-82356820D01*
X146889245Y-82311565D01*
X146934500Y-82292820D01*
X146970054Y-82303605D01*
G37*
%TD.AperFunction*%
%TA.AperFunction,Conductor*%
G36*
X146547766Y-80334245D02*
G01*
X146633899Y-80420378D01*
X146652644Y-80465633D01*
X146633899Y-80510888D01*
X146597005Y-80529085D01*
X146593852Y-80529500D01*
X146504713Y-80553384D01*
X146504712Y-80553385D01*
X146424787Y-80599531D01*
X146359531Y-80664787D01*
X146313385Y-80744712D01*
X146313384Y-80744713D01*
X146289501Y-80833849D01*
X146289500Y-80833858D01*
X146289500Y-80926147D01*
X146290047Y-80930302D01*
X146288919Y-80930450D01*
X146283092Y-80974677D01*
X146272925Y-80987925D01*
X146101378Y-81159473D01*
X146065359Y-81213378D01*
X146065358Y-81213382D01*
X146048441Y-81298437D01*
X146048441Y-81298440D01*
X146065358Y-81383495D01*
X146065360Y-81383499D01*
X146068713Y-81388517D01*
X146079500Y-81424075D01*
X146079500Y-81838889D01*
X146099342Y-81886790D01*
X146109263Y-81910742D01*
X146294663Y-82096141D01*
X146460755Y-82262233D01*
X146479500Y-82307488D01*
X146479500Y-82327510D01*
X146460755Y-82372765D01*
X146090145Y-82743374D01*
X146044890Y-82762119D01*
X146032405Y-82760889D01*
X146005547Y-82755547D01*
X146005543Y-82755547D01*
X145920488Y-82772464D01*
X145920484Y-82772465D01*
X145866579Y-82808484D01*
X145757060Y-82918004D01*
X145518015Y-83157049D01*
X145518013Y-83157051D01*
X145515793Y-83159272D01*
X145514907Y-83158386D01*
X145486291Y-83176827D01*
X145461819Y-83183385D01*
X145461814Y-83183387D01*
X145381893Y-83229531D01*
X145315670Y-83295755D01*
X145270415Y-83314500D01*
X145227488Y-83314500D01*
X145182233Y-83295755D01*
X144560221Y-82673742D01*
X144541476Y-82628487D01*
X144541476Y-82517488D01*
X144560221Y-82472233D01*
X144639158Y-82393296D01*
X144725568Y-82306885D01*
X144770822Y-82288141D01*
X144806375Y-82298925D01*
X144859825Y-82334640D01*
X144859827Y-82334640D01*
X144859828Y-82334641D01*
X144944883Y-82351559D01*
X144944885Y-82351559D01*
X144944887Y-82351559D01*
X145029941Y-82334641D01*
X145029945Y-82334640D01*
X145056376Y-82316979D01*
X145083851Y-82298621D01*
X145237961Y-82144511D01*
X145273980Y-82090605D01*
X145283807Y-82041197D01*
X145311019Y-82000471D01*
X145334087Y-81990915D01*
X145383499Y-81981087D01*
X145437405Y-81945068D01*
X145591515Y-81790958D01*
X145627534Y-81737052D01*
X145628657Y-81731409D01*
X145644453Y-81651993D01*
X145644453Y-81651990D01*
X145627535Y-81566935D01*
X145627534Y-81566931D01*
X145591515Y-81513026D01*
X145242950Y-81164461D01*
X145189045Y-81128442D01*
X145189041Y-81128441D01*
X145105457Y-81111816D01*
X145064728Y-81084603D01*
X145055172Y-81036561D01*
X145072685Y-81003793D01*
X145742234Y-80334245D01*
X145787489Y-80315500D01*
X146502511Y-80315500D01*
X146547766Y-80334245D01*
G37*
%TD.AperFunction*%
%TA.AperFunction,Conductor*%
G36*
X146777766Y-78434245D02*
G01*
X146929936Y-78586415D01*
X147038455Y-78694933D01*
X147057200Y-78740188D01*
X147038455Y-78785443D01*
X147028757Y-78793402D01*
X146983586Y-78823584D01*
X146983583Y-78823587D01*
X146924905Y-78911406D01*
X146924903Y-78911409D01*
X146909500Y-78988850D01*
X146909500Y-79411148D01*
X146909501Y-79411149D01*
X146924903Y-79488588D01*
X146924904Y-79488591D01*
X146924905Y-79488593D01*
X146983585Y-79576415D01*
X147064484Y-79630469D01*
X147071406Y-79635094D01*
X147071409Y-79635096D01*
X147117789Y-79644321D01*
X147148853Y-79650500D01*
X147290500Y-79650499D01*
X147335755Y-79669244D01*
X147354500Y-79714499D01*
X147354500Y-80433511D01*
X147335755Y-80478766D01*
X147290500Y-80497511D01*
X147245245Y-80478766D01*
X146720742Y-79954263D01*
X146648889Y-79924500D01*
X146648887Y-79924500D01*
X146582091Y-79924500D01*
X146536836Y-79905755D01*
X146518091Y-79860500D01*
X146526666Y-79828499D01*
X146536012Y-79812310D01*
X146551614Y-79785288D01*
X146556307Y-79767776D01*
X146565290Y-79734247D01*
X146575500Y-79696144D01*
X146575500Y-79603856D01*
X146568961Y-79579452D01*
X146551615Y-79514713D01*
X146551614Y-79514712D01*
X146534625Y-79485287D01*
X146505469Y-79434788D01*
X146470178Y-79399497D01*
X146451433Y-79354242D01*
X146470178Y-79308987D01*
X146483427Y-79298819D01*
X146515212Y-79280469D01*
X146580469Y-79215212D01*
X146626614Y-79135288D01*
X146629622Y-79124064D01*
X146650498Y-79046150D01*
X146650500Y-79046144D01*
X146650500Y-78953856D01*
X146640936Y-78918163D01*
X146626615Y-78864713D01*
X146626614Y-78864712D01*
X146602868Y-78823583D01*
X146580469Y-78784788D01*
X146515212Y-78719531D01*
X146513108Y-78718316D01*
X146435287Y-78673385D01*
X146435286Y-78673384D01*
X146346150Y-78649501D01*
X146346146Y-78649500D01*
X146346144Y-78649500D01*
X146253856Y-78649500D01*
X146253854Y-78649500D01*
X146253849Y-78649501D01*
X146164713Y-78673384D01*
X146164712Y-78673385D01*
X146084787Y-78719531D01*
X146019531Y-78784787D01*
X145973385Y-78864712D01*
X145973384Y-78864713D01*
X145949501Y-78953849D01*
X145949500Y-78953858D01*
X145949500Y-79040500D01*
X145930755Y-79085755D01*
X145885500Y-79104500D01*
X145411110Y-79104500D01*
X145339257Y-79134263D01*
X144587766Y-79885755D01*
X144542511Y-79904500D01*
X144376551Y-79904500D01*
X144340995Y-79893714D01*
X144320433Y-79879975D01*
X144320429Y-79879973D01*
X144267779Y-79869500D01*
X143557224Y-79869500D01*
X143555389Y-79869866D01*
X143554768Y-79869742D01*
X143554094Y-79869809D01*
X143554073Y-79869604D01*
X143507347Y-79860307D01*
X143480135Y-79819578D01*
X143480136Y-79794607D01*
X143480204Y-79794263D01*
X143480500Y-79792777D01*
X143480499Y-79509987D01*
X143499243Y-79464734D01*
X144529734Y-78434245D01*
X144574989Y-78415500D01*
X146732511Y-78415500D01*
X146777766Y-78434245D01*
G37*
%TD.AperFunction*%
%TA.AperFunction,Conductor*%
G36*
X141650755Y-79599245D02*
G01*
X141669500Y-79644499D01*
X141669500Y-79767773D01*
X141679973Y-79820428D01*
X141679974Y-79820429D01*
X141719865Y-79880131D01*
X141719866Y-79880132D01*
X141719867Y-79880133D01*
X141779572Y-79920027D01*
X141832223Y-79930500D01*
X142542776Y-79930499D01*
X142595428Y-79920027D01*
X142608234Y-79911469D01*
X142656276Y-79901912D01*
X142679349Y-79911469D01*
X142685556Y-79915616D01*
X142729572Y-79945027D01*
X142782223Y-79955500D01*
X142917776Y-79955499D01*
X142970428Y-79945027D01*
X143014443Y-79915616D01*
X143026927Y-79913133D01*
X143037514Y-79906060D01*
X143049999Y-79908543D01*
X143062484Y-79906060D01*
X143085555Y-79915615D01*
X143100481Y-79925589D01*
X143132204Y-79946786D01*
X143159417Y-79987515D01*
X143149861Y-80035557D01*
X143132204Y-80053214D01*
X143069867Y-80094866D01*
X143029973Y-80154570D01*
X143029973Y-80154571D01*
X143020981Y-80199776D01*
X142993767Y-80240504D01*
X142945725Y-80250059D01*
X142917779Y-80244500D01*
X142782226Y-80244500D01*
X142729571Y-80254973D01*
X142729570Y-80254974D01*
X142679348Y-80288531D01*
X142631306Y-80298087D01*
X142608237Y-80288531D01*
X142595428Y-80279973D01*
X142542778Y-80269500D01*
X141832225Y-80269500D01*
X141779571Y-80279973D01*
X141779570Y-80279973D01*
X141759007Y-80293714D01*
X141723451Y-80304500D01*
X141532489Y-80304500D01*
X141487234Y-80285755D01*
X141289245Y-80087766D01*
X141270500Y-80042511D01*
X141270500Y-79892488D01*
X141289244Y-79847234D01*
X141537233Y-79599244D01*
X141582488Y-79580500D01*
X141605500Y-79580500D01*
X141650755Y-79599245D01*
G37*
%TD.AperFunction*%
%TA.AperFunction,Conductor*%
G36*
X145357766Y-74664245D02*
G01*
X145535755Y-74842233D01*
X145554500Y-74887488D01*
X145554500Y-75546761D01*
X145535755Y-75592016D01*
X145516351Y-75605308D01*
X145484687Y-75619288D01*
X145438733Y-75639580D01*
X145364580Y-75713733D01*
X145322219Y-75809670D01*
X145319501Y-75833102D01*
X145319500Y-75833121D01*
X145319500Y-77166878D01*
X145319501Y-77166897D01*
X145322219Y-77190329D01*
X145327437Y-77202146D01*
X145364580Y-77286267D01*
X145438733Y-77360420D01*
X145441526Y-77361653D01*
X145442207Y-77361954D01*
X145476034Y-77397381D01*
X145474901Y-77446352D01*
X145439474Y-77480179D01*
X145416355Y-77484500D01*
X143461905Y-77484500D01*
X143416650Y-77465755D01*
X143397905Y-77420500D01*
X143399134Y-77408017D01*
X143400175Y-77402779D01*
X143400500Y-77401147D01*
X143400499Y-77078854D01*
X143400499Y-77078851D01*
X143400498Y-77078850D01*
X143385096Y-77001411D01*
X143385095Y-77001410D01*
X143385095Y-77001407D01*
X143326415Y-76913585D01*
X143238593Y-76854905D01*
X143238590Y-76854903D01*
X143197013Y-76846633D01*
X143156285Y-76819419D01*
X143145500Y-76783863D01*
X143145500Y-74847489D01*
X143164245Y-74802234D01*
X143302234Y-74664245D01*
X143347489Y-74645500D01*
X145312511Y-74645500D01*
X145357766Y-74664245D01*
G37*
%TD.AperFunction*%
%TA.AperFunction,Conductor*%
G36*
X149850770Y-71487275D02*
G01*
X150430422Y-72066927D01*
X150430423Y-72066929D01*
X150458694Y-72095200D01*
X150473995Y-72101537D01*
X150481771Y-72104758D01*
X150481772Y-72104759D01*
X150489449Y-72107939D01*
X150495633Y-72110501D01*
X150543062Y-72110501D01*
X150543070Y-72110500D01*
X155073642Y-72110500D01*
X155110580Y-72095200D01*
X155138851Y-72066929D01*
X155138851Y-72066928D01*
X155147850Y-72057929D01*
X155147851Y-72057926D01*
X155718504Y-71487275D01*
X155763759Y-71468530D01*
X162803527Y-71468530D01*
X162848782Y-71487275D01*
X163045314Y-71683807D01*
X163064059Y-71729062D01*
X163064059Y-72961205D01*
X163064058Y-73072661D01*
X163064058Y-73072666D01*
X163093152Y-73293662D01*
X163093155Y-73293676D01*
X163150847Y-73508986D01*
X163236150Y-73714926D01*
X163347610Y-73907981D01*
X163347614Y-73907986D01*
X163483310Y-74084827D01*
X163483312Y-74084829D01*
X163547988Y-74149504D01*
X165127402Y-75728918D01*
X165146147Y-75774173D01*
X165146147Y-95408485D01*
X165127402Y-95453740D01*
X165082147Y-95472485D01*
X165036892Y-95453740D01*
X165035852Y-95452675D01*
X165027800Y-95444239D01*
X165025737Y-95439258D01*
X164970742Y-95384263D01*
X164970740Y-95384262D01*
X164701190Y-95114712D01*
X164419244Y-94832765D01*
X164400499Y-94787512D01*
X164400499Y-94478854D01*
X164400499Y-94478853D01*
X164400499Y-94478851D01*
X164400498Y-94478850D01*
X164399840Y-94475544D01*
X164387417Y-94413081D01*
X164385096Y-94401410D01*
X164385095Y-94401409D01*
X164385095Y-94401407D01*
X164384420Y-94400397D01*
X164384183Y-94399206D01*
X164382683Y-94395584D01*
X164383403Y-94395285D01*
X164374861Y-94352358D01*
X164375813Y-94348273D01*
X164376611Y-94345291D01*
X164376614Y-94345288D01*
X164400500Y-94256144D01*
X164400500Y-94163856D01*
X164393532Y-94137852D01*
X164376615Y-94074713D01*
X164376614Y-94074712D01*
X164330468Y-93994787D01*
X164265212Y-93929531D01*
X164185287Y-93883385D01*
X164185286Y-93883384D01*
X164096150Y-93859501D01*
X164096146Y-93859500D01*
X164096144Y-93859500D01*
X164003856Y-93859500D01*
X164003854Y-93859500D01*
X164003849Y-93859501D01*
X163914713Y-93883384D01*
X163914712Y-93883385D01*
X163834787Y-93929531D01*
X163769531Y-93994787D01*
X163723385Y-94074712D01*
X163723384Y-94074713D01*
X163699501Y-94163849D01*
X163699500Y-94163858D01*
X163699500Y-94196362D01*
X163680755Y-94241617D01*
X163666482Y-94251155D01*
X163666648Y-94251403D01*
X163573587Y-94313583D01*
X163573583Y-94313587D01*
X163514905Y-94401406D01*
X163514903Y-94401409D01*
X163499500Y-94478850D01*
X163499500Y-94801148D01*
X163499501Y-94801149D01*
X163514903Y-94878588D01*
X163514904Y-94878591D01*
X163514905Y-94878593D01*
X163573585Y-94966415D01*
X163661406Y-95025094D01*
X163661409Y-95025096D01*
X163738848Y-95040499D01*
X163738853Y-95040500D01*
X163745494Y-95040499D01*
X163790749Y-95059240D01*
X163809499Y-95104492D01*
X163790758Y-95149749D01*
X163771768Y-95162860D01*
X163767050Y-95164983D01*
X163747164Y-95170312D01*
X163718687Y-95186752D01*
X163715751Y-95188074D01*
X163712551Y-95188170D01*
X163697838Y-95193165D01*
X163676828Y-95195931D01*
X163569594Y-95245936D01*
X163534776Y-95280755D01*
X163489521Y-95299500D01*
X162939500Y-95299500D01*
X162894245Y-95280755D01*
X162875500Y-95235500D01*
X162875500Y-94542271D01*
X162848208Y-94440417D01*
X162848208Y-94440416D01*
X162848207Y-94440415D01*
X162848207Y-94440413D01*
X162795480Y-94349087D01*
X162720913Y-94274520D01*
X162325913Y-93879520D01*
X162234588Y-93826793D01*
X162234586Y-93826792D01*
X162234584Y-93826791D01*
X162132728Y-93799500D01*
X162132727Y-93799500D01*
X161994500Y-93799500D01*
X161949245Y-93780755D01*
X161930500Y-93735500D01*
X161930500Y-92732402D01*
X161949245Y-92687147D01*
X162342147Y-92294245D01*
X162385079Y-92276461D01*
X162385025Y-92276047D01*
X162386573Y-92275843D01*
X162387402Y-92275500D01*
X162389180Y-92275500D01*
X162389183Y-92275500D01*
X162522836Y-92239688D01*
X162642665Y-92170505D01*
X162740505Y-92072665D01*
X162809688Y-91952836D01*
X162845500Y-91819183D01*
X162845500Y-91680817D01*
X162809688Y-91547164D01*
X162740505Y-91427335D01*
X162739245Y-91426075D01*
X162738900Y-91425244D01*
X162737950Y-91424005D01*
X162738282Y-91423750D01*
X162720500Y-91380820D01*
X162720500Y-87377892D01*
X162720501Y-87377879D01*
X162720501Y-87267275D01*
X162720500Y-87267268D01*
X162708429Y-87222221D01*
X162693207Y-87165413D01*
X162640480Y-87074087D01*
X162565913Y-86999520D01*
X162563683Y-86997290D01*
X162563672Y-86997280D01*
X162109245Y-86542852D01*
X162090500Y-86497597D01*
X162090500Y-84352402D01*
X162109244Y-84307148D01*
X162378300Y-84038091D01*
X162423554Y-84019347D01*
X162444692Y-84022939D01*
X162515296Y-84047645D01*
X162515305Y-84047647D01*
X162542970Y-84050240D01*
X162545734Y-84050500D01*
X162545736Y-84050500D01*
X163954264Y-84050500D01*
X163954266Y-84050500D01*
X163961180Y-84049851D01*
X163984694Y-84047647D01*
X163984695Y-84047646D01*
X163984699Y-84047646D01*
X164112882Y-84002793D01*
X164222150Y-83922150D01*
X164302793Y-83812882D01*
X164347646Y-83684699D01*
X164347646Y-83684695D01*
X164347647Y-83684694D01*
X164350499Y-83654275D01*
X164350500Y-83654264D01*
X164350500Y-81545736D01*
X164350499Y-81545724D01*
X164347647Y-81515305D01*
X164347646Y-81515303D01*
X164347646Y-81515301D01*
X164302793Y-81387118D01*
X164271921Y-81345288D01*
X164222153Y-81277854D01*
X164222152Y-81277853D01*
X164222150Y-81277850D01*
X164211550Y-81270027D01*
X164112881Y-81197206D01*
X163984696Y-81152353D01*
X163984694Y-81152352D01*
X163954275Y-81149500D01*
X163954266Y-81149500D01*
X162545734Y-81149500D01*
X162545724Y-81149500D01*
X162515305Y-81152352D01*
X162515303Y-81152353D01*
X162387118Y-81197206D01*
X162277854Y-81277846D01*
X162277846Y-81277854D01*
X162197206Y-81387118D01*
X162152353Y-81515303D01*
X162152352Y-81515305D01*
X162149500Y-81545724D01*
X162149500Y-83107597D01*
X162130755Y-83152852D01*
X161369521Y-83914085D01*
X161316792Y-84005414D01*
X161310072Y-84030498D01*
X161310071Y-84030500D01*
X161289500Y-84107271D01*
X161289500Y-86742728D01*
X161316791Y-86844583D01*
X161316791Y-86844584D01*
X161316792Y-86844586D01*
X161316793Y-86844588D01*
X161363655Y-86925755D01*
X161369521Y-86935914D01*
X161900755Y-87467147D01*
X161919500Y-87512402D01*
X161919500Y-91380820D01*
X161901717Y-91423750D01*
X161902050Y-91424005D01*
X161901099Y-91425244D01*
X161900755Y-91426075D01*
X161899496Y-91427333D01*
X161830310Y-91547167D01*
X161830310Y-91547168D01*
X161794501Y-91680810D01*
X161794500Y-91680819D01*
X161794500Y-91682597D01*
X161794157Y-91683424D01*
X161793953Y-91684975D01*
X161793537Y-91684920D01*
X161775755Y-91727852D01*
X161209521Y-92294085D01*
X161156793Y-92385412D01*
X161154612Y-92393553D01*
X161129500Y-92487271D01*
X161129500Y-93782450D01*
X161122029Y-93812458D01*
X161117533Y-93820926D01*
X161106776Y-93831684D01*
X161070299Y-93909907D01*
X161069518Y-93911380D01*
X161051799Y-93926006D01*
X161034877Y-93941513D01*
X161033108Y-93941435D01*
X161031743Y-93942563D01*
X161008881Y-93940377D01*
X160985941Y-93939375D01*
X160984378Y-93938034D01*
X160982981Y-93937901D01*
X160979968Y-93934251D01*
X160959776Y-93916930D01*
X160905019Y-93834981D01*
X160871311Y-93812458D01*
X160815544Y-93775195D01*
X160736643Y-93759500D01*
X160736640Y-93759500D01*
X160403360Y-93759500D01*
X160403357Y-93759500D01*
X160324456Y-93775195D01*
X160324454Y-93775195D01*
X160234981Y-93834981D01*
X160175195Y-93924454D01*
X160175195Y-93924455D01*
X160162770Y-93986919D01*
X160135556Y-94027646D01*
X160087513Y-94037202D01*
X160046786Y-94009988D01*
X160037230Y-93986919D01*
X160033666Y-93969005D01*
X160024805Y-93924456D01*
X159965019Y-93834981D01*
X159875544Y-93775195D01*
X159796643Y-93759500D01*
X159796640Y-93759500D01*
X159463360Y-93759500D01*
X159463357Y-93759500D01*
X159384456Y-93775195D01*
X159384454Y-93775195D01*
X159294980Y-93834981D01*
X159240224Y-93916929D01*
X159199495Y-93944142D01*
X159151453Y-93934586D01*
X159129007Y-93908421D01*
X159093224Y-93831684D01*
X159008317Y-93746777D01*
X159008318Y-93746777D01*
X159008316Y-93746776D01*
X158899487Y-93696028D01*
X158899485Y-93696027D01*
X158849904Y-93689500D01*
X158490102Y-93689500D01*
X158440514Y-93696027D01*
X158331682Y-93746777D01*
X158246777Y-93831682D01*
X158196027Y-93940514D01*
X158189500Y-93990093D01*
X158189500Y-94087597D01*
X158170755Y-94132852D01*
X157419521Y-94884085D01*
X157366792Y-94975413D01*
X157364677Y-94983308D01*
X157354980Y-95019500D01*
X157339500Y-95077272D01*
X157339500Y-96382728D01*
X157366791Y-96484583D01*
X157366791Y-96484584D01*
X157366792Y-96484586D01*
X157366793Y-96484588D01*
X157419520Y-96575913D01*
X158014087Y-97170480D01*
X158105412Y-97223207D01*
X158105414Y-97223207D01*
X158105415Y-97223208D01*
X158207272Y-97250500D01*
X158207273Y-97250500D01*
X161019750Y-97250500D01*
X161036393Y-97247188D01*
X161078231Y-97238867D01*
X161144552Y-97194552D01*
X161188867Y-97128231D01*
X161200500Y-97069748D01*
X161200500Y-96630252D01*
X161199950Y-96627488D01*
X161196639Y-96610844D01*
X161188867Y-96571769D01*
X161144552Y-96505448D01*
X161144477Y-96505398D01*
X161110529Y-96482714D01*
X161083316Y-96441985D01*
X161092872Y-96393943D01*
X161133601Y-96366730D01*
X161146086Y-96365500D01*
X161173516Y-96365500D01*
X161218771Y-96384245D01*
X161325755Y-96491229D01*
X161344500Y-96536484D01*
X161344500Y-97273516D01*
X161325755Y-97318771D01*
X161199920Y-97444605D01*
X161166501Y-97525287D01*
X161159500Y-97542187D01*
X161159500Y-97929968D01*
X161148714Y-97965525D01*
X161111134Y-98021767D01*
X161111133Y-98021768D01*
X161099500Y-98080250D01*
X161099500Y-98120500D01*
X161080755Y-98165755D01*
X161035500Y-98184500D01*
X160814500Y-98184500D01*
X160769245Y-98165755D01*
X160750500Y-98120500D01*
X160750500Y-97780250D01*
X160744300Y-97749084D01*
X160738867Y-97721769D01*
X160736860Y-97718766D01*
X160721472Y-97695736D01*
X160694552Y-97655448D01*
X160628231Y-97611133D01*
X160569750Y-97599500D01*
X160569748Y-97599500D01*
X160130252Y-97599500D01*
X160130250Y-97599500D01*
X160071768Y-97611133D01*
X160071767Y-97611133D01*
X160005448Y-97655448D01*
X159961133Y-97721767D01*
X159961133Y-97721768D01*
X159949500Y-97780250D01*
X159949500Y-99782597D01*
X159930755Y-99827852D01*
X159927852Y-99830755D01*
X159882597Y-99849500D01*
X158545724Y-99849500D01*
X158515305Y-99852352D01*
X158515303Y-99852353D01*
X158387118Y-99897206D01*
X158277854Y-99977846D01*
X158277846Y-99977854D01*
X158197206Y-100087118D01*
X158164133Y-100181638D01*
X158154506Y-100192409D01*
X158148979Y-100205755D01*
X158138820Y-100209962D01*
X158131493Y-100218162D01*
X158103724Y-100224500D01*
X157996276Y-100224500D01*
X157951021Y-100205755D01*
X157935867Y-100181638D01*
X157902793Y-100087118D01*
X157822153Y-99977854D01*
X157822152Y-99977853D01*
X157822150Y-99977850D01*
X157785089Y-99950498D01*
X157712881Y-99897206D01*
X157584696Y-99852353D01*
X157584694Y-99852352D01*
X157554275Y-99849500D01*
X157554266Y-99849500D01*
X156414500Y-99849500D01*
X156369245Y-99830755D01*
X156350500Y-99785500D01*
X156350500Y-99714500D01*
X156369245Y-99669245D01*
X156414500Y-99650500D01*
X156654264Y-99650500D01*
X156654266Y-99650500D01*
X156661180Y-99649851D01*
X156684694Y-99647647D01*
X156684695Y-99647646D01*
X156684699Y-99647646D01*
X156812882Y-99602793D01*
X156922150Y-99522150D01*
X157002793Y-99412882D01*
X157047646Y-99284699D01*
X157047646Y-99284695D01*
X157047647Y-99284694D01*
X157050499Y-99254275D01*
X157050500Y-99254264D01*
X157050500Y-98495736D01*
X157050499Y-98495724D01*
X157047647Y-98465305D01*
X157047646Y-98465303D01*
X157047646Y-98465301D01*
X157002793Y-98337118D01*
X156922150Y-98227850D01*
X156906447Y-98216261D01*
X156812881Y-98147206D01*
X156684696Y-98102353D01*
X156684694Y-98102352D01*
X156654275Y-98099500D01*
X156654266Y-98099500D01*
X155245734Y-98099500D01*
X155245724Y-98099500D01*
X155215305Y-98102352D01*
X155215303Y-98102353D01*
X155087118Y-98147206D01*
X154977854Y-98227846D01*
X154977846Y-98227854D01*
X154897206Y-98337118D01*
X154852353Y-98465303D01*
X154852352Y-98465305D01*
X154849500Y-98495724D01*
X154849500Y-99254275D01*
X154852352Y-99284694D01*
X154852353Y-99284696D01*
X154852353Y-99284698D01*
X154852354Y-99284699D01*
X154853807Y-99288851D01*
X154897206Y-99412881D01*
X154897207Y-99412882D01*
X154977850Y-99522150D01*
X155087118Y-99602793D01*
X155215301Y-99647646D01*
X155215303Y-99647646D01*
X155215305Y-99647647D01*
X155242970Y-99650240D01*
X155245734Y-99650500D01*
X155485500Y-99650500D01*
X155530755Y-99669245D01*
X155549500Y-99714500D01*
X155549500Y-99785500D01*
X155530755Y-99830755D01*
X155485500Y-99849500D01*
X155245724Y-99849500D01*
X155215305Y-99852352D01*
X155215303Y-99852353D01*
X155087118Y-99897206D01*
X154977854Y-99977846D01*
X154977846Y-99977854D01*
X154897206Y-100087118D01*
X154864133Y-100181638D01*
X154854506Y-100192409D01*
X154848979Y-100205755D01*
X154838820Y-100209962D01*
X154831493Y-100218162D01*
X154803724Y-100224500D01*
X154696276Y-100224500D01*
X154651021Y-100205755D01*
X154635867Y-100181638D01*
X154602793Y-100087118D01*
X154522153Y-99977854D01*
X154522152Y-99977853D01*
X154522150Y-99977850D01*
X154485089Y-99950498D01*
X154412881Y-99897206D01*
X154284696Y-99852353D01*
X154284694Y-99852352D01*
X154254275Y-99849500D01*
X154254266Y-99849500D01*
X154014500Y-99849500D01*
X153969245Y-99830755D01*
X153950500Y-99785500D01*
X153950500Y-99714500D01*
X153969245Y-99669245D01*
X154014500Y-99650500D01*
X154254264Y-99650500D01*
X154254266Y-99650500D01*
X154261180Y-99649851D01*
X154284694Y-99647647D01*
X154284695Y-99647646D01*
X154284699Y-99647646D01*
X154412882Y-99602793D01*
X154522150Y-99522150D01*
X154602793Y-99412882D01*
X154647646Y-99284699D01*
X154647646Y-99284695D01*
X154647647Y-99284694D01*
X154650499Y-99254275D01*
X154650500Y-99254264D01*
X154650500Y-98495736D01*
X154650499Y-98495724D01*
X154647647Y-98465305D01*
X154647646Y-98465303D01*
X154647646Y-98465301D01*
X154602793Y-98337118D01*
X154522150Y-98227850D01*
X154506447Y-98216261D01*
X154412881Y-98147206D01*
X154284696Y-98102353D01*
X154284694Y-98102352D01*
X154254275Y-98099500D01*
X154254266Y-98099500D01*
X152845734Y-98099500D01*
X152845724Y-98099500D01*
X152815305Y-98102352D01*
X152815303Y-98102353D01*
X152687118Y-98147206D01*
X152577854Y-98227846D01*
X152577846Y-98227854D01*
X152497206Y-98337118D01*
X152452353Y-98465303D01*
X152452352Y-98465305D01*
X152449500Y-98495724D01*
X152449500Y-99254275D01*
X152452352Y-99284694D01*
X152452353Y-99284696D01*
X152452353Y-99284698D01*
X152452354Y-99284699D01*
X152453807Y-99288851D01*
X152497206Y-99412881D01*
X152497207Y-99412882D01*
X152577850Y-99522150D01*
X152687118Y-99602793D01*
X152815301Y-99647646D01*
X152815303Y-99647646D01*
X152815305Y-99647647D01*
X152842970Y-99650240D01*
X152845734Y-99650500D01*
X153085500Y-99650500D01*
X153130755Y-99669245D01*
X153149500Y-99714500D01*
X153149500Y-99785500D01*
X153130755Y-99830755D01*
X153085500Y-99849500D01*
X151945724Y-99849500D01*
X151915305Y-99852352D01*
X151915303Y-99852353D01*
X151787118Y-99897206D01*
X151677854Y-99977846D01*
X151677846Y-99977854D01*
X151597206Y-100087118D01*
X151552353Y-100215303D01*
X151552352Y-100215305D01*
X151549501Y-100245720D01*
X151549500Y-100245736D01*
X151549500Y-101004275D01*
X151552352Y-101034694D01*
X151552353Y-101034696D01*
X151597206Y-101162881D01*
X151597207Y-101162882D01*
X151677850Y-101272150D01*
X151724092Y-101306278D01*
X151738037Y-101316570D01*
X151763317Y-101358526D01*
X151751526Y-101406069D01*
X151745287Y-101413319D01*
X151410303Y-101748302D01*
X151365048Y-101767047D01*
X151319793Y-101748302D01*
X151313565Y-101741065D01*
X151252150Y-101657850D01*
X151142882Y-101577207D01*
X151142881Y-101577206D01*
X151014696Y-101532353D01*
X151014694Y-101532352D01*
X150984275Y-101529500D01*
X150984266Y-101529500D01*
X148675734Y-101529500D01*
X148675724Y-101529500D01*
X148645305Y-101532352D01*
X148645303Y-101532353D01*
X148517118Y-101577206D01*
X148407854Y-101657846D01*
X148407846Y-101657854D01*
X148327206Y-101767118D01*
X148282353Y-101895303D01*
X148282352Y-101895305D01*
X148279500Y-101925724D01*
X148279500Y-102684275D01*
X148282352Y-102714694D01*
X148282353Y-102714696D01*
X148317429Y-102814937D01*
X148314682Y-102863844D01*
X148302275Y-102881330D01*
X147952852Y-103230755D01*
X147907597Y-103249500D01*
X145350115Y-103249500D01*
X145276425Y-103280024D01*
X145220024Y-103336425D01*
X145189500Y-103410115D01*
X145189500Y-106965798D01*
X145170755Y-107011053D01*
X145125506Y-107029798D01*
X144835234Y-107029825D01*
X144835230Y-107029823D01*
X144835228Y-107029825D01*
X144811939Y-107020178D01*
X144789977Y-107011084D01*
X144781745Y-107002852D01*
X144763000Y-106957597D01*
X144763000Y-106497271D01*
X144735708Y-106395417D01*
X144735708Y-106395416D01*
X144735707Y-106395415D01*
X144735707Y-106395413D01*
X144682980Y-106304087D01*
X144608413Y-106229520D01*
X144517087Y-106176793D01*
X144517086Y-106176792D01*
X144517083Y-106176791D01*
X144415228Y-106149500D01*
X144415227Y-106149500D01*
X144309773Y-106149500D01*
X144309772Y-106149500D01*
X144207917Y-106176791D01*
X144207916Y-106176791D01*
X144116585Y-106229521D01*
X144042021Y-106304085D01*
X143989291Y-106395416D01*
X143989291Y-106395417D01*
X143962000Y-106497271D01*
X143962000Y-106965910D01*
X143943255Y-107011165D01*
X143898006Y-107029910D01*
X143694506Y-107029930D01*
X143649250Y-107011189D01*
X143630500Y-106965936D01*
X143630500Y-103730118D01*
X143630499Y-103730115D01*
X143621559Y-103708532D01*
X143599976Y-103656426D01*
X143543574Y-103600024D01*
X143469884Y-103569500D01*
X143469882Y-103569500D01*
X140829882Y-103569500D01*
X140750118Y-103569500D01*
X140750115Y-103569500D01*
X140676425Y-103600024D01*
X140620024Y-103656425D01*
X140589500Y-103730115D01*
X140589500Y-106966218D01*
X140570755Y-107011473D01*
X140525506Y-107030218D01*
X140224143Y-107030246D01*
X140178886Y-107011505D01*
X140160137Y-106966252D01*
X140160137Y-103610206D01*
X140178882Y-103564951D01*
X140463809Y-103280024D01*
X141402619Y-102341214D01*
X141402621Y-102341214D01*
X141430892Y-102312943D01*
X141437229Y-102297642D01*
X141446193Y-102276004D01*
X141446193Y-102236023D01*
X141446193Y-102230871D01*
X141446192Y-102230857D01*
X141446192Y-98268121D01*
X145634500Y-98268121D01*
X145634500Y-98651878D01*
X145634501Y-98651897D01*
X145637219Y-98675329D01*
X145637221Y-98675333D01*
X145679580Y-98771267D01*
X145753733Y-98845420D01*
X145849667Y-98887779D01*
X145849669Y-98887779D01*
X145849671Y-98887780D01*
X145849670Y-98887780D01*
X145873102Y-98890498D01*
X145873110Y-98890498D01*
X145873120Y-98890500D01*
X145873121Y-98890500D01*
X147206879Y-98890500D01*
X147206880Y-98890500D01*
X147208047Y-98890364D01*
X147230329Y-98887780D01*
X147230330Y-98887779D01*
X147230333Y-98887779D01*
X147326267Y-98845420D01*
X147400420Y-98771267D01*
X147434692Y-98693647D01*
X147470118Y-98659822D01*
X147493238Y-98655500D01*
X147923865Y-98655500D01*
X147969120Y-98674245D01*
X147986635Y-98707014D01*
X147994905Y-98748593D01*
X148053585Y-98836415D01*
X148141407Y-98895095D01*
X148141408Y-98895095D01*
X148141410Y-98895096D01*
X148152137Y-98897230D01*
X148192866Y-98924443D01*
X148202422Y-98972485D01*
X148175209Y-99013214D01*
X148152138Y-99022770D01*
X148141410Y-99024903D01*
X148141405Y-99024906D01*
X148053587Y-99083583D01*
X148053583Y-99083587D01*
X147994905Y-99171406D01*
X147994903Y-99171410D01*
X147986634Y-99212985D01*
X147959421Y-99253714D01*
X147923864Y-99264500D01*
X147493238Y-99264500D01*
X147447983Y-99245755D01*
X147434692Y-99226353D01*
X147400420Y-99148733D01*
X147326267Y-99074580D01*
X147230333Y-99032221D01*
X147230332Y-99032220D01*
X147230328Y-99032219D01*
X147230329Y-99032219D01*
X147206897Y-99029501D01*
X147206880Y-99029500D01*
X145873120Y-99029500D01*
X145873119Y-99029500D01*
X145873102Y-99029501D01*
X145849670Y-99032219D01*
X145753733Y-99074580D01*
X145679580Y-99148733D01*
X145637219Y-99244670D01*
X145634501Y-99268102D01*
X145634500Y-99268121D01*
X145634500Y-99651878D01*
X145634501Y-99651897D01*
X145637219Y-99675329D01*
X145637221Y-99675333D01*
X145679580Y-99771267D01*
X145753733Y-99845420D01*
X145849667Y-99887779D01*
X145849669Y-99887779D01*
X145849671Y-99887780D01*
X145849670Y-99887780D01*
X145873102Y-99890498D01*
X145873110Y-99890498D01*
X145873120Y-99890500D01*
X145873121Y-99890500D01*
X147206879Y-99890500D01*
X147206880Y-99890500D01*
X147208047Y-99890364D01*
X147230329Y-99887780D01*
X147230330Y-99887779D01*
X147230333Y-99887779D01*
X147326267Y-99845420D01*
X147400420Y-99771267D01*
X147434692Y-99693647D01*
X147470118Y-99659822D01*
X147493238Y-99655500D01*
X147923865Y-99655500D01*
X147969120Y-99674245D01*
X147986635Y-99707014D01*
X147994905Y-99748593D01*
X148053585Y-99836415D01*
X148141407Y-99895095D01*
X148141408Y-99895095D01*
X148141410Y-99895096D01*
X148152137Y-99897230D01*
X148192866Y-99924443D01*
X148202422Y-99972485D01*
X148175209Y-100013214D01*
X148152138Y-100022770D01*
X148141410Y-100024903D01*
X148141405Y-100024906D01*
X148053587Y-100083583D01*
X148053583Y-100083587D01*
X147994905Y-100171406D01*
X147994903Y-100171410D01*
X147986634Y-100212985D01*
X147959421Y-100253714D01*
X147923864Y-100264500D01*
X147493238Y-100264500D01*
X147447983Y-100245755D01*
X147434692Y-100226353D01*
X147400420Y-100148733D01*
X147326267Y-100074580D01*
X147230333Y-100032221D01*
X147230332Y-100032220D01*
X147230328Y-100032219D01*
X147230329Y-100032219D01*
X147206897Y-100029501D01*
X147206880Y-100029500D01*
X145873120Y-100029500D01*
X145873119Y-100029500D01*
X145873102Y-100029501D01*
X145849670Y-100032219D01*
X145753733Y-100074580D01*
X145679580Y-100148733D01*
X145637219Y-100244670D01*
X145634501Y-100268102D01*
X145634500Y-100268121D01*
X145634500Y-100651878D01*
X145634501Y-100651897D01*
X145637219Y-100675329D01*
X145637221Y-100675333D01*
X145679580Y-100771267D01*
X145753733Y-100845420D01*
X145849667Y-100887779D01*
X145849669Y-100887779D01*
X145849671Y-100887780D01*
X145849670Y-100887780D01*
X145873102Y-100890498D01*
X145873110Y-100890498D01*
X145873120Y-100890500D01*
X145873121Y-100890500D01*
X147206879Y-100890500D01*
X147206880Y-100890500D01*
X147208047Y-100890364D01*
X147230329Y-100887780D01*
X147230330Y-100887779D01*
X147230333Y-100887779D01*
X147326267Y-100845420D01*
X147400420Y-100771267D01*
X147434692Y-100693647D01*
X147470118Y-100659822D01*
X147493238Y-100655500D01*
X147923865Y-100655500D01*
X147969120Y-100674245D01*
X147986635Y-100707014D01*
X147994905Y-100748593D01*
X148053585Y-100836415D01*
X148141406Y-100895094D01*
X148141409Y-100895096D01*
X148187789Y-100904321D01*
X148218853Y-100910500D01*
X148541146Y-100910499D01*
X148541148Y-100910499D01*
X148541148Y-100910498D01*
X148618593Y-100895095D01*
X148706415Y-100836415D01*
X148765095Y-100748593D01*
X148780500Y-100671147D01*
X148780499Y-100248854D01*
X148780499Y-100248853D01*
X148780499Y-100248851D01*
X148780498Y-100248850D01*
X148779882Y-100245755D01*
X148765095Y-100171407D01*
X148706415Y-100083585D01*
X148618593Y-100024905D01*
X148618590Y-100024904D01*
X148607859Y-100022769D01*
X148567132Y-99995554D01*
X148557577Y-99947511D01*
X148584792Y-99906784D01*
X148607863Y-99897229D01*
X148618593Y-99895095D01*
X148706415Y-99836415D01*
X148765095Y-99748593D01*
X148780500Y-99671147D01*
X148780499Y-99248854D01*
X148780499Y-99248853D01*
X148780499Y-99248851D01*
X148780498Y-99248850D01*
X148779882Y-99245755D01*
X148765095Y-99171407D01*
X148706415Y-99083585D01*
X148618593Y-99024905D01*
X148618590Y-99024904D01*
X148607859Y-99022769D01*
X148567132Y-98995554D01*
X148557577Y-98947511D01*
X148584792Y-98906784D01*
X148607863Y-98897229D01*
X148618593Y-98895095D01*
X148706415Y-98836415D01*
X148765095Y-98748593D01*
X148780500Y-98671147D01*
X148780499Y-98248854D01*
X148780499Y-98248852D01*
X148780499Y-98248851D01*
X148780498Y-98248850D01*
X148780184Y-98247273D01*
X148765095Y-98171407D01*
X148706415Y-98083585D01*
X148618593Y-98024905D01*
X148618590Y-98024903D01*
X148541149Y-98009500D01*
X148218851Y-98009500D01*
X148218850Y-98009501D01*
X148141411Y-98024903D01*
X148141405Y-98024906D01*
X148053587Y-98083583D01*
X148053583Y-98083587D01*
X147994905Y-98171406D01*
X147994903Y-98171410D01*
X147986634Y-98212985D01*
X147959421Y-98253714D01*
X147923864Y-98264500D01*
X147493238Y-98264500D01*
X147447983Y-98245755D01*
X147434692Y-98226353D01*
X147400420Y-98148733D01*
X147326267Y-98074580D01*
X147230333Y-98032221D01*
X147230332Y-98032220D01*
X147230328Y-98032219D01*
X147230329Y-98032219D01*
X147206897Y-98029501D01*
X147206880Y-98029500D01*
X145873120Y-98029500D01*
X145873119Y-98029500D01*
X145873102Y-98029501D01*
X145849670Y-98032219D01*
X145753733Y-98074580D01*
X145679580Y-98148733D01*
X145637219Y-98244670D01*
X145634501Y-98268102D01*
X145634500Y-98268121D01*
X141446192Y-98268121D01*
X141446192Y-90526144D01*
X141446191Y-90526141D01*
X141430892Y-90489206D01*
X140441872Y-89500186D01*
X140423127Y-89454931D01*
X140423127Y-79650840D01*
X140649500Y-79650840D01*
X140649500Y-80284158D01*
X140673563Y-80342251D01*
X140679263Y-80356011D01*
X140986750Y-80663498D01*
X141292843Y-80969590D01*
X141292846Y-80969594D01*
X141296494Y-80973242D01*
X141351489Y-81028237D01*
X141402297Y-81049282D01*
X141423343Y-81058000D01*
X141423344Y-81058000D01*
X142555607Y-81058000D01*
X142600862Y-81076745D01*
X142618816Y-81114706D01*
X142618888Y-81114692D01*
X142618944Y-81114976D01*
X142619299Y-81115726D01*
X142619500Y-81117771D01*
X142629973Y-81170428D01*
X142629974Y-81170429D01*
X142669865Y-81230131D01*
X142669866Y-81230132D01*
X142669867Y-81230133D01*
X142729572Y-81270027D01*
X142782223Y-81280500D01*
X142917776Y-81280499D01*
X142970428Y-81270027D01*
X142970429Y-81270026D01*
X142976610Y-81268797D01*
X142977218Y-81271857D01*
X143014991Y-81271857D01*
X143049628Y-81306493D01*
X143054500Y-81330986D01*
X143054500Y-81515853D01*
X143035755Y-81561108D01*
X143002986Y-81578623D01*
X142971410Y-81584903D01*
X142971405Y-81584906D01*
X142883587Y-81643583D01*
X142883583Y-81643587D01*
X142824905Y-81731406D01*
X142824903Y-81731409D01*
X142809500Y-81808850D01*
X142809500Y-82131148D01*
X142809501Y-82131149D01*
X142824903Y-82208588D01*
X142824904Y-82208591D01*
X142824905Y-82208593D01*
X142883585Y-82296415D01*
X142969568Y-82353866D01*
X142971406Y-82355094D01*
X142971409Y-82355096D01*
X143017789Y-82364321D01*
X143048853Y-82370500D01*
X143357510Y-82370499D01*
X143402765Y-82389244D01*
X143493766Y-82480245D01*
X143512511Y-82525500D01*
X143493766Y-82570755D01*
X143448511Y-82589500D01*
X143048851Y-82589500D01*
X143048850Y-82589501D01*
X142971411Y-82604903D01*
X142971405Y-82604906D01*
X142883587Y-82663583D01*
X142883585Y-82663585D01*
X142837381Y-82732735D01*
X142796653Y-82759948D01*
X142748610Y-82750392D01*
X142738912Y-82742433D01*
X142139245Y-82142766D01*
X142120500Y-82097511D01*
X142120500Y-82003858D01*
X142120498Y-82003849D01*
X142118932Y-81998006D01*
X142104748Y-81945068D01*
X142096615Y-81914713D01*
X142096614Y-81914712D01*
X142085895Y-81896147D01*
X142050469Y-81834788D01*
X141985212Y-81769531D01*
X141928951Y-81737048D01*
X141905287Y-81723385D01*
X141905286Y-81723384D01*
X141816150Y-81699501D01*
X141816146Y-81699500D01*
X141816144Y-81699500D01*
X141723856Y-81699500D01*
X141723854Y-81699500D01*
X141723849Y-81699501D01*
X141634713Y-81723384D01*
X141634712Y-81723385D01*
X141554787Y-81769531D01*
X141489531Y-81834787D01*
X141443385Y-81914712D01*
X141443384Y-81914713D01*
X141419501Y-82003849D01*
X141419500Y-82003858D01*
X141419500Y-82096141D01*
X141419501Y-82096150D01*
X141443384Y-82185286D01*
X141443385Y-82185287D01*
X141489531Y-82265213D01*
X141490549Y-82266539D01*
X141490767Y-82267352D01*
X141491628Y-82268844D01*
X141491228Y-82269074D01*
X141503228Y-82313853D01*
X141478736Y-82356274D01*
X141439775Y-82369500D01*
X141363856Y-82369500D01*
X141363854Y-82369500D01*
X141363849Y-82369501D01*
X141274713Y-82393384D01*
X141274712Y-82393385D01*
X141194787Y-82439531D01*
X141129531Y-82504787D01*
X141083385Y-82584712D01*
X141083384Y-82584713D01*
X141059501Y-82673849D01*
X141059500Y-82673858D01*
X141059500Y-82766141D01*
X141059501Y-82766150D01*
X141083384Y-82855286D01*
X141083385Y-82855287D01*
X141125435Y-82928117D01*
X141129531Y-82935212D01*
X141194788Y-83000469D01*
X141194790Y-83000470D01*
X141195755Y-83001435D01*
X141214500Y-83046690D01*
X141214500Y-83357511D01*
X141195755Y-83402766D01*
X140984263Y-83614257D01*
X140954500Y-83686110D01*
X140954500Y-87638889D01*
X140984263Y-87710742D01*
X142644513Y-89370992D01*
X142699508Y-89425987D01*
X142730360Y-89438766D01*
X142771360Y-89455749D01*
X142771363Y-89455750D01*
X143427809Y-89455750D01*
X143473064Y-89474495D01*
X143474031Y-89475462D01*
X143539288Y-89540719D01*
X143568814Y-89557766D01*
X143619212Y-89586864D01*
X143619213Y-89586865D01*
X143695405Y-89607279D01*
X143708356Y-89610750D01*
X143708359Y-89610750D01*
X143800641Y-89610750D01*
X143800644Y-89610750D01*
X143841481Y-89599807D01*
X143889786Y-89586865D01*
X143889786Y-89586864D01*
X143889788Y-89586864D01*
X143969712Y-89540719D01*
X144034969Y-89475462D01*
X144081114Y-89395538D01*
X144081658Y-89393511D01*
X144104998Y-89306400D01*
X144105000Y-89306394D01*
X144105000Y-89214106D01*
X144086562Y-89145293D01*
X144081115Y-89124963D01*
X144081114Y-89124962D01*
X144073503Y-89111780D01*
X144034969Y-89045038D01*
X143969712Y-88979781D01*
X143889787Y-88933635D01*
X143889786Y-88933634D01*
X143800650Y-88909751D01*
X143800646Y-88909750D01*
X143800644Y-88909750D01*
X143708356Y-88909750D01*
X143708354Y-88909750D01*
X143708349Y-88909751D01*
X143619213Y-88933634D01*
X143619212Y-88933635D01*
X143539287Y-88979781D01*
X143473064Y-89046005D01*
X143427809Y-89064750D01*
X142917739Y-89064750D01*
X142872484Y-89046005D01*
X141364245Y-87537766D01*
X141345500Y-87492511D01*
X141345500Y-87051489D01*
X141364245Y-87006234D01*
X141409500Y-86987489D01*
X141454755Y-87006234D01*
X141734263Y-87285742D01*
X141789258Y-87340737D01*
X141839158Y-87361406D01*
X141861110Y-87370499D01*
X141861113Y-87370500D01*
X143741387Y-87370500D01*
X143813242Y-87340737D01*
X144412145Y-86741832D01*
X144457399Y-86723088D01*
X144481891Y-86727960D01*
X144483548Y-86728646D01*
X144483549Y-86728647D01*
X144621722Y-86785880D01*
X144732773Y-86800500D01*
X145682226Y-86800499D01*
X145793278Y-86785880D01*
X145793280Y-86785879D01*
X145793281Y-86785879D01*
X145933108Y-86727961D01*
X145982092Y-86727961D01*
X146002854Y-86741833D01*
X146566758Y-87305737D01*
X146617565Y-87326782D01*
X146638610Y-87335499D01*
X146638613Y-87335500D01*
X148618887Y-87335500D01*
X148690742Y-87305737D01*
X149141739Y-86854737D01*
X149141742Y-86854736D01*
X149150741Y-86845737D01*
X149150742Y-86845737D01*
X149205737Y-86790742D01*
X149226782Y-86739933D01*
X149235500Y-86718888D01*
X149235500Y-86641113D01*
X149235500Y-84966690D01*
X149254245Y-84921435D01*
X149255209Y-84920470D01*
X149255212Y-84920469D01*
X149320469Y-84855212D01*
X149366614Y-84775288D01*
X149390500Y-84686144D01*
X149390500Y-84593856D01*
X149384242Y-84570499D01*
X149366615Y-84504713D01*
X149366614Y-84504712D01*
X149346284Y-84469500D01*
X149320469Y-84424788D01*
X149255212Y-84359531D01*
X149175287Y-84313385D01*
X149175286Y-84313384D01*
X149086150Y-84289501D01*
X149086146Y-84289500D01*
X149086144Y-84289500D01*
X148993856Y-84289500D01*
X148993854Y-84289500D01*
X148993849Y-84289501D01*
X148904713Y-84313384D01*
X148904712Y-84313385D01*
X148824787Y-84359531D01*
X148759531Y-84424787D01*
X148713385Y-84504712D01*
X148713384Y-84504713D01*
X148689501Y-84593849D01*
X148689500Y-84593858D01*
X148689500Y-84595221D01*
X148689237Y-84595855D01*
X148688953Y-84598014D01*
X148688374Y-84597937D01*
X148670755Y-84640476D01*
X148625500Y-84659221D01*
X148580245Y-84640476D01*
X148539145Y-84599376D01*
X148539143Y-84599374D01*
X148463288Y-84554514D01*
X148400396Y-84517320D01*
X148400395Y-84517319D01*
X148400394Y-84517319D01*
X148245598Y-84472346D01*
X148209435Y-84469500D01*
X148209427Y-84469500D01*
X148161488Y-84469500D01*
X148116233Y-84450755D01*
X148097488Y-84405500D01*
X148116233Y-84360245D01*
X148427233Y-84049245D01*
X148472488Y-84030500D01*
X148566141Y-84030500D01*
X148566144Y-84030500D01*
X148623077Y-84015245D01*
X148655286Y-84006615D01*
X148655286Y-84006614D01*
X148655288Y-84006614D01*
X148735212Y-83960469D01*
X148800469Y-83895212D01*
X148846614Y-83815288D01*
X148849109Y-83805979D01*
X148868227Y-83734626D01*
X148870500Y-83726144D01*
X148870500Y-83633856D01*
X148865249Y-83614258D01*
X148846615Y-83544713D01*
X148846614Y-83544712D01*
X148823043Y-83503887D01*
X148815891Y-83491500D01*
X148813711Y-83474937D01*
X148807317Y-83459500D01*
X148810626Y-83451509D01*
X148809498Y-83442936D01*
X148819667Y-83429681D01*
X148826062Y-83414245D01*
X148834051Y-83410935D01*
X148839316Y-83404075D01*
X148871317Y-83395500D01*
X148892511Y-83395500D01*
X148937766Y-83414245D01*
X150009263Y-84485742D01*
X150064258Y-84540737D01*
X150097891Y-84554668D01*
X150136110Y-84570499D01*
X150136113Y-84570500D01*
X154338887Y-84570500D01*
X154410742Y-84540737D01*
X155847234Y-83104245D01*
X155892489Y-83085500D01*
X156887646Y-83085500D01*
X156932901Y-83104245D01*
X156951646Y-83149500D01*
X156932901Y-83194755D01*
X156923203Y-83202714D01*
X156844981Y-83254981D01*
X156785195Y-83344454D01*
X156785195Y-83344456D01*
X156769500Y-83423357D01*
X156769500Y-83727511D01*
X156750755Y-83772766D01*
X156744263Y-83779257D01*
X156714500Y-83851110D01*
X156714500Y-84134292D01*
X156695755Y-84179547D01*
X156674992Y-84193420D01*
X156671406Y-84194905D01*
X156583587Y-84253583D01*
X156583583Y-84253587D01*
X156524905Y-84341406D01*
X156524903Y-84341409D01*
X156509500Y-84418850D01*
X156509500Y-84727510D01*
X156490755Y-84772765D01*
X155510255Y-85753265D01*
X155510254Y-85753264D01*
X155464265Y-85799254D01*
X155464263Y-85799257D01*
X155434500Y-85871110D01*
X155434500Y-90552511D01*
X155415755Y-90597766D01*
X154197766Y-91815755D01*
X154152511Y-91834500D01*
X152601110Y-91834500D01*
X152529257Y-91864263D01*
X152194263Y-92199257D01*
X152164500Y-92271110D01*
X152164500Y-92602511D01*
X152145755Y-92647766D01*
X151817766Y-92975755D01*
X151772511Y-92994500D01*
X151141109Y-92994500D01*
X151125327Y-93001037D01*
X151120066Y-93003217D01*
X151099021Y-93011934D01*
X151069259Y-93024262D01*
X151069258Y-93024263D01*
X151014263Y-93079258D01*
X151014262Y-93079259D01*
X149883346Y-94210175D01*
X148750256Y-95343264D01*
X148750255Y-95343265D01*
X148750254Y-95343264D01*
X148704265Y-95389254D01*
X148704263Y-95389257D01*
X148674500Y-95461110D01*
X148674500Y-95693309D01*
X148655755Y-95738564D01*
X148589531Y-95804787D01*
X148543385Y-95884712D01*
X148543384Y-95884713D01*
X148519501Y-95973849D01*
X148519500Y-95973858D01*
X148519500Y-96066141D01*
X148519501Y-96066150D01*
X148543384Y-96155286D01*
X148543385Y-96155287D01*
X148552033Y-96170265D01*
X148589531Y-96235212D01*
X148654788Y-96300469D01*
X148707518Y-96330913D01*
X148734712Y-96346614D01*
X148734713Y-96346615D01*
X148809786Y-96366730D01*
X148823856Y-96370500D01*
X148823859Y-96370500D01*
X148916141Y-96370500D01*
X148916144Y-96370500D01*
X148967736Y-96356676D01*
X149005286Y-96346615D01*
X149005286Y-96346614D01*
X149005288Y-96346614D01*
X149032482Y-96330912D01*
X149081046Y-96324518D01*
X149119908Y-96354337D01*
X149126303Y-96402901D01*
X149123611Y-96410829D01*
X149094500Y-96481107D01*
X149094500Y-98036160D01*
X149077041Y-98078313D01*
X149077087Y-98078344D01*
X149076932Y-98078575D01*
X149075758Y-98081411D01*
X149073586Y-98083582D01*
X149014905Y-98171406D01*
X149014903Y-98171409D01*
X148999500Y-98248850D01*
X148999500Y-98671148D01*
X148999501Y-98671149D01*
X149014903Y-98748588D01*
X149014904Y-98748590D01*
X149014905Y-98748593D01*
X149073585Y-98836415D01*
X149161407Y-98895095D01*
X149161408Y-98895095D01*
X149161410Y-98895096D01*
X149172137Y-98897230D01*
X149212866Y-98924443D01*
X149222422Y-98972485D01*
X149195209Y-99013214D01*
X149172138Y-99022770D01*
X149161410Y-99024903D01*
X149161405Y-99024906D01*
X149073587Y-99083583D01*
X149073583Y-99083587D01*
X149014905Y-99171406D01*
X149014903Y-99171409D01*
X148999500Y-99248850D01*
X148999500Y-99671148D01*
X148999501Y-99671149D01*
X149014903Y-99748588D01*
X149014904Y-99748589D01*
X149014905Y-99748593D01*
X149073585Y-99836415D01*
X149161407Y-99895095D01*
X149161408Y-99895095D01*
X149161410Y-99895096D01*
X149172137Y-99897230D01*
X149212866Y-99924443D01*
X149222422Y-99972485D01*
X149195209Y-100013214D01*
X149172138Y-100022770D01*
X149161410Y-100024903D01*
X149161405Y-100024906D01*
X149073587Y-100083583D01*
X149073583Y-100083587D01*
X149014905Y-100171406D01*
X149014903Y-100171409D01*
X148999500Y-100248850D01*
X148999500Y-100671148D01*
X148999501Y-100671149D01*
X149014903Y-100748588D01*
X149014904Y-100748589D01*
X149014905Y-100748593D01*
X149073585Y-100836415D01*
X149161406Y-100895094D01*
X149161409Y-100895096D01*
X149207789Y-100904321D01*
X149238853Y-100910500D01*
X149561146Y-100910499D01*
X149561148Y-100910499D01*
X149561148Y-100910498D01*
X149638593Y-100895095D01*
X149726415Y-100836415D01*
X149785095Y-100748593D01*
X149785096Y-100748588D01*
X149793366Y-100707015D01*
X149820579Y-100666286D01*
X149856136Y-100655500D01*
X150178887Y-100655500D01*
X150250742Y-100625737D01*
X150905737Y-99970742D01*
X150935500Y-99898887D01*
X150935500Y-99821113D01*
X150935500Y-98121113D01*
X150905737Y-98049258D01*
X150866234Y-98009755D01*
X150847489Y-97964500D01*
X150866234Y-97919245D01*
X150911489Y-97900500D01*
X151156643Y-97900500D01*
X151182863Y-97895283D01*
X151235544Y-97884805D01*
X151325019Y-97825019D01*
X151384805Y-97735544D01*
X151399338Y-97662483D01*
X151400500Y-97656642D01*
X151400500Y-97263357D01*
X151391466Y-97217945D01*
X151384805Y-97184456D01*
X151381493Y-97179500D01*
X151356475Y-97142058D01*
X151346919Y-97094016D01*
X151364435Y-97061246D01*
X151410466Y-97015215D01*
X151410469Y-97015212D01*
X151456614Y-96935288D01*
X151480500Y-96846144D01*
X151480500Y-96753856D01*
X151480500Y-96752488D01*
X151499245Y-96707233D01*
X151965587Y-96240891D01*
X152465737Y-95740742D01*
X152495500Y-95668887D01*
X152495500Y-95591113D01*
X152495500Y-95547488D01*
X152514245Y-95502233D01*
X152832233Y-95184245D01*
X152877488Y-95165500D01*
X153188887Y-95165500D01*
X153260742Y-95135737D01*
X153951739Y-94444737D01*
X153951742Y-94444736D01*
X153960741Y-94435737D01*
X153960742Y-94435737D01*
X154015737Y-94380742D01*
X154043554Y-94313585D01*
X154045500Y-94308888D01*
X154045500Y-94231113D01*
X154045500Y-93386383D01*
X154056285Y-93350827D01*
X154072929Y-93325919D01*
X154080500Y-93287855D01*
X154080499Y-92662146D01*
X154072929Y-92624081D01*
X154044086Y-92580914D01*
X154044085Y-92580913D01*
X154044084Y-92580912D01*
X154000919Y-92552071D01*
X154000915Y-92552069D01*
X153962859Y-92544500D01*
X153737147Y-92544500D01*
X153699079Y-92552071D01*
X153655913Y-92580914D01*
X153655912Y-92580915D01*
X153627071Y-92624080D01*
X153627069Y-92624084D01*
X153619500Y-92662141D01*
X153619500Y-93287854D01*
X153625499Y-93318018D01*
X153615940Y-93366060D01*
X153575210Y-93393271D01*
X153562728Y-93394500D01*
X153337146Y-93394500D01*
X153311983Y-93399505D01*
X153263941Y-93389946D01*
X153236729Y-93349217D01*
X153235500Y-93336734D01*
X153235500Y-93026113D01*
X153235499Y-93026110D01*
X153226016Y-93003217D01*
X153205737Y-92954258D01*
X153199244Y-92947765D01*
X153180499Y-92902510D01*
X153180499Y-92662147D01*
X153173911Y-92629021D01*
X153172929Y-92624081D01*
X153144086Y-92580914D01*
X153144085Y-92580913D01*
X153144084Y-92580912D01*
X153100919Y-92552071D01*
X153100915Y-92552069D01*
X153062859Y-92544500D01*
X152837147Y-92544500D01*
X152799079Y-92552071D01*
X152755913Y-92580914D01*
X152755912Y-92580915D01*
X152727071Y-92624080D01*
X152727069Y-92624084D01*
X152719500Y-92662141D01*
X152719500Y-93287854D01*
X152725499Y-93318018D01*
X152715940Y-93366060D01*
X152675210Y-93393271D01*
X152662728Y-93394500D01*
X152537147Y-93394500D01*
X152499079Y-93402071D01*
X152455913Y-93430914D01*
X152455912Y-93430915D01*
X152427071Y-93474080D01*
X152427069Y-93474084D01*
X152419500Y-93512141D01*
X152419500Y-93565500D01*
X152400755Y-93610755D01*
X152355500Y-93629500D01*
X151377536Y-93629500D01*
X151305683Y-93659263D01*
X149844263Y-95120683D01*
X149814500Y-95192536D01*
X149814500Y-95473309D01*
X149795755Y-95518564D01*
X149729531Y-95584787D01*
X149683385Y-95664712D01*
X149683384Y-95664713D01*
X149659501Y-95753849D01*
X149659500Y-95753858D01*
X149659500Y-95847510D01*
X149640755Y-95892765D01*
X149292263Y-96241256D01*
X149247008Y-96260001D01*
X149201753Y-96241256D01*
X149183008Y-96196001D01*
X149191586Y-96163996D01*
X149196613Y-96155289D01*
X149196615Y-96155286D01*
X149214412Y-96088866D01*
X149220500Y-96066144D01*
X149220500Y-95973856D01*
X149210166Y-95935288D01*
X149196615Y-95884713D01*
X149196614Y-95884712D01*
X149174346Y-95846144D01*
X149150469Y-95804788D01*
X149085212Y-95739531D01*
X149084245Y-95738564D01*
X149065500Y-95693309D01*
X149065500Y-95607488D01*
X149084245Y-95562233D01*
X151242233Y-93404245D01*
X151287488Y-93385500D01*
X151918887Y-93385500D01*
X151990742Y-93355737D01*
X152525737Y-92820742D01*
X152555501Y-92748887D01*
X152555501Y-92671112D01*
X152555501Y-92665960D01*
X152555500Y-92665946D01*
X152555500Y-92417489D01*
X152574245Y-92372234D01*
X152702234Y-92244245D01*
X152747489Y-92225500D01*
X154298887Y-92225500D01*
X154366010Y-92197696D01*
X154414991Y-92197696D01*
X154449628Y-92232332D01*
X154454500Y-92256825D01*
X154454500Y-92563616D01*
X154443715Y-92599170D01*
X154427072Y-92624079D01*
X154427069Y-92624084D01*
X154419500Y-92662141D01*
X154419500Y-93287852D01*
X154427071Y-93325920D01*
X154453574Y-93365584D01*
X154455914Y-93369086D01*
X154499081Y-93397929D01*
X154499082Y-93397929D01*
X154499084Y-93397930D01*
X154537140Y-93405499D01*
X154537145Y-93405500D01*
X154762728Y-93405499D01*
X154807983Y-93424244D01*
X154826728Y-93469499D01*
X154825498Y-93481984D01*
X154819500Y-93512140D01*
X154819500Y-94137852D01*
X154827071Y-94175920D01*
X154855914Y-94219086D01*
X154855915Y-94219087D01*
X154873914Y-94231113D01*
X154899081Y-94247929D01*
X154899082Y-94247929D01*
X154899084Y-94247930D01*
X154937140Y-94255499D01*
X154937145Y-94255500D01*
X155162854Y-94255499D01*
X155200919Y-94247929D01*
X155244086Y-94219086D01*
X155272929Y-94175919D01*
X155280500Y-94137855D01*
X155280499Y-93512146D01*
X155272929Y-93474081D01*
X155269867Y-93469499D01*
X155256286Y-93449173D01*
X155245500Y-93413616D01*
X155245500Y-93413182D01*
X155264245Y-93367927D01*
X155309500Y-93349182D01*
X155350330Y-93366094D01*
X155350672Y-93365584D01*
X155353238Y-93367298D01*
X155354755Y-93367927D01*
X155355914Y-93369086D01*
X155399081Y-93397929D01*
X155399082Y-93397929D01*
X155399084Y-93397930D01*
X155437140Y-93405499D01*
X155437145Y-93405500D01*
X155562729Y-93405499D01*
X155607982Y-93424244D01*
X155626728Y-93469499D01*
X155625498Y-93481984D01*
X155619500Y-93512140D01*
X155619500Y-94137852D01*
X155627071Y-94175920D01*
X155655914Y-94219086D01*
X155655915Y-94219087D01*
X155673914Y-94231113D01*
X155699081Y-94247929D01*
X155699082Y-94247929D01*
X155699084Y-94247930D01*
X155737140Y-94255499D01*
X155737145Y-94255500D01*
X155962854Y-94255499D01*
X156000919Y-94247929D01*
X156044086Y-94219086D01*
X156072929Y-94175919D01*
X156080500Y-94137855D01*
X156080499Y-93512146D01*
X156072929Y-93474081D01*
X156069867Y-93469499D01*
X156056286Y-93449173D01*
X156045500Y-93413616D01*
X156045500Y-92817487D01*
X156064244Y-92772233D01*
X156717233Y-92119243D01*
X156762484Y-92100499D01*
X157071146Y-92100499D01*
X157071148Y-92100499D01*
X157071148Y-92100498D01*
X157148593Y-92085095D01*
X157236415Y-92026415D01*
X157295095Y-91938593D01*
X157310500Y-91861147D01*
X157310499Y-91438854D01*
X157310499Y-91438853D01*
X157310499Y-91438851D01*
X157310498Y-91438850D01*
X157309882Y-91435755D01*
X157295095Y-91361407D01*
X157236415Y-91273585D01*
X157148593Y-91214905D01*
X157148590Y-91214904D01*
X157137859Y-91212769D01*
X157097132Y-91185554D01*
X157087577Y-91137511D01*
X157114792Y-91096784D01*
X157137863Y-91087229D01*
X157148593Y-91085095D01*
X157236415Y-91026415D01*
X157295095Y-90938593D01*
X157310500Y-90861147D01*
X157310499Y-90438854D01*
X157310498Y-90438850D01*
X157529500Y-90438850D01*
X157529500Y-90861148D01*
X157529501Y-90861149D01*
X157544903Y-90938588D01*
X157544904Y-90938589D01*
X157544905Y-90938593D01*
X157603585Y-91026415D01*
X157691407Y-91085095D01*
X157691408Y-91085095D01*
X157691410Y-91085096D01*
X157702137Y-91087230D01*
X157742866Y-91114443D01*
X157752422Y-91162485D01*
X157725209Y-91203214D01*
X157702138Y-91212770D01*
X157691410Y-91214903D01*
X157691405Y-91214906D01*
X157603587Y-91273583D01*
X157603583Y-91273587D01*
X157544905Y-91361406D01*
X157544903Y-91361409D01*
X157529500Y-91438850D01*
X157529500Y-91861148D01*
X157529501Y-91861149D01*
X157544903Y-91938588D01*
X157544904Y-91938589D01*
X157544905Y-91938593D01*
X157603585Y-92026415D01*
X157691406Y-92085094D01*
X157691409Y-92085096D01*
X157737789Y-92094321D01*
X157768853Y-92100500D01*
X158091146Y-92100499D01*
X158091148Y-92100499D01*
X158091148Y-92100498D01*
X158168593Y-92085095D01*
X158256415Y-92026415D01*
X158315095Y-91938593D01*
X158315096Y-91938588D01*
X158323366Y-91897015D01*
X158350579Y-91856286D01*
X158386136Y-91845500D01*
X158746762Y-91845500D01*
X158792017Y-91864245D01*
X158805307Y-91883646D01*
X158839580Y-91961267D01*
X158913733Y-92035420D01*
X159009667Y-92077779D01*
X159009669Y-92077779D01*
X159009671Y-92077780D01*
X159009670Y-92077780D01*
X159033102Y-92080498D01*
X159033110Y-92080498D01*
X159033120Y-92080500D01*
X159033121Y-92080500D01*
X160366879Y-92080500D01*
X160366880Y-92080500D01*
X160368047Y-92080364D01*
X160390329Y-92077780D01*
X160390330Y-92077779D01*
X160390333Y-92077779D01*
X160486267Y-92035420D01*
X160560420Y-91961267D01*
X160602779Y-91865333D01*
X160602779Y-91865330D01*
X160602780Y-91865329D01*
X160605498Y-91841897D01*
X160605500Y-91841878D01*
X160605500Y-91458121D01*
X160605498Y-91458102D01*
X160602780Y-91434670D01*
X160602779Y-91434667D01*
X160560420Y-91338733D01*
X160486267Y-91264580D01*
X160390333Y-91222221D01*
X160390332Y-91222220D01*
X160390328Y-91222219D01*
X160390329Y-91222219D01*
X160366897Y-91219501D01*
X160366880Y-91219500D01*
X159033120Y-91219500D01*
X159033119Y-91219500D01*
X159033102Y-91219501D01*
X159009670Y-91222219D01*
X158913733Y-91264580D01*
X158839580Y-91338733D01*
X158805307Y-91416352D01*
X158769882Y-91450178D01*
X158746762Y-91454500D01*
X158386135Y-91454500D01*
X158340880Y-91435755D01*
X158323364Y-91402985D01*
X158315095Y-91361407D01*
X158256415Y-91273585D01*
X158168593Y-91214905D01*
X158168590Y-91214904D01*
X158157859Y-91212769D01*
X158117132Y-91185554D01*
X158107577Y-91137511D01*
X158134792Y-91096784D01*
X158157863Y-91087229D01*
X158168593Y-91085095D01*
X158256415Y-91026415D01*
X158315095Y-90938593D01*
X158315096Y-90938588D01*
X158323366Y-90897015D01*
X158350579Y-90856286D01*
X158386136Y-90845500D01*
X158746762Y-90845500D01*
X158792017Y-90864245D01*
X158805307Y-90883646D01*
X158839580Y-90961267D01*
X158913733Y-91035420D01*
X159009667Y-91077779D01*
X159009669Y-91077779D01*
X159009671Y-91077780D01*
X159009670Y-91077780D01*
X159033102Y-91080498D01*
X159033110Y-91080498D01*
X159033120Y-91080500D01*
X159033121Y-91080500D01*
X160366879Y-91080500D01*
X160366880Y-91080500D01*
X160368047Y-91080364D01*
X160390329Y-91077780D01*
X160390330Y-91077779D01*
X160390333Y-91077779D01*
X160486267Y-91035420D01*
X160560420Y-90961267D01*
X160602779Y-90865333D01*
X160602779Y-90865330D01*
X160602780Y-90865329D01*
X160605498Y-90841897D01*
X160605500Y-90841878D01*
X160605500Y-90458121D01*
X160605498Y-90458102D01*
X160602780Y-90434670D01*
X160602779Y-90434667D01*
X160560420Y-90338733D01*
X160486267Y-90264580D01*
X160390333Y-90222221D01*
X160390332Y-90222220D01*
X160390328Y-90222219D01*
X160390329Y-90222219D01*
X160366897Y-90219501D01*
X160366880Y-90219500D01*
X159033120Y-90219500D01*
X159033119Y-90219500D01*
X159033102Y-90219501D01*
X159009670Y-90222219D01*
X158913733Y-90264580D01*
X158839580Y-90338733D01*
X158805307Y-90416352D01*
X158769882Y-90450178D01*
X158746762Y-90454500D01*
X158386135Y-90454500D01*
X158340880Y-90435755D01*
X158323364Y-90402985D01*
X158315095Y-90361407D01*
X158256415Y-90273585D01*
X158168593Y-90214905D01*
X158168590Y-90214903D01*
X158091149Y-90199500D01*
X157768851Y-90199500D01*
X157768850Y-90199501D01*
X157691411Y-90214903D01*
X157691405Y-90214906D01*
X157603587Y-90273583D01*
X157603583Y-90273587D01*
X157544905Y-90361406D01*
X157544903Y-90361409D01*
X157529500Y-90438850D01*
X157310498Y-90438850D01*
X157295095Y-90361407D01*
X157236415Y-90273585D01*
X157148593Y-90214905D01*
X157148590Y-90214903D01*
X157071149Y-90199500D01*
X156748851Y-90199500D01*
X156748850Y-90199501D01*
X156671411Y-90214903D01*
X156671408Y-90214904D01*
X156609468Y-90256291D01*
X156561425Y-90265846D01*
X156520697Y-90238632D01*
X156511142Y-90190589D01*
X156528655Y-90157823D01*
X157075737Y-89610742D01*
X157105500Y-89538887D01*
X157105500Y-89461112D01*
X157105500Y-89145708D01*
X157124245Y-89100453D01*
X157145008Y-89086580D01*
X157148588Y-89085095D01*
X157148593Y-89085095D01*
X157236415Y-89026415D01*
X157295095Y-88938593D01*
X157296082Y-88933635D01*
X157309668Y-88865329D01*
X157310500Y-88861147D01*
X157310499Y-88438854D01*
X157310499Y-88438853D01*
X157310499Y-88438851D01*
X157310498Y-88438850D01*
X157309882Y-88435755D01*
X157295095Y-88361407D01*
X157236415Y-88273585D01*
X157148593Y-88214905D01*
X157148590Y-88214904D01*
X157137859Y-88212769D01*
X157097132Y-88185554D01*
X157087577Y-88137511D01*
X157114792Y-88096784D01*
X157137863Y-88087229D01*
X157148593Y-88085095D01*
X157236415Y-88026415D01*
X157295095Y-87938593D01*
X157310500Y-87861147D01*
X157310499Y-87438854D01*
X157310498Y-87438850D01*
X157529500Y-87438850D01*
X157529500Y-87861148D01*
X157529501Y-87861149D01*
X157544903Y-87938588D01*
X157544904Y-87938589D01*
X157544905Y-87938593D01*
X157603585Y-88026415D01*
X157691407Y-88085095D01*
X157691408Y-88085095D01*
X157691410Y-88085096D01*
X157702137Y-88087230D01*
X157742866Y-88114443D01*
X157752422Y-88162485D01*
X157725209Y-88203214D01*
X157702138Y-88212770D01*
X157691410Y-88214903D01*
X157691405Y-88214906D01*
X157603587Y-88273583D01*
X157603583Y-88273587D01*
X157544905Y-88361406D01*
X157544903Y-88361409D01*
X157529500Y-88438850D01*
X157529500Y-88861148D01*
X157529501Y-88861149D01*
X157544903Y-88938588D01*
X157544904Y-88938589D01*
X157544905Y-88938593D01*
X157603585Y-89026415D01*
X157691406Y-89085094D01*
X157691409Y-89085096D01*
X157734496Y-89093666D01*
X157768853Y-89100500D01*
X158091146Y-89100499D01*
X158091148Y-89100499D01*
X158091148Y-89100498D01*
X158168593Y-89085095D01*
X158256415Y-89026415D01*
X158315095Y-88938593D01*
X158316081Y-88933635D01*
X158323366Y-88897015D01*
X158350579Y-88856286D01*
X158386136Y-88845500D01*
X158746762Y-88845500D01*
X158792017Y-88864245D01*
X158805307Y-88883646D01*
X158839580Y-88961267D01*
X158913733Y-89035420D01*
X159009667Y-89077779D01*
X159009669Y-89077779D01*
X159009671Y-89077780D01*
X159009670Y-89077780D01*
X159033102Y-89080498D01*
X159033110Y-89080498D01*
X159033120Y-89080500D01*
X159033121Y-89080500D01*
X160366879Y-89080500D01*
X160366880Y-89080500D01*
X160368047Y-89080364D01*
X160390329Y-89077780D01*
X160390330Y-89077779D01*
X160390333Y-89077779D01*
X160486267Y-89035420D01*
X160560420Y-88961267D01*
X160602779Y-88865333D01*
X160602779Y-88865330D01*
X160602780Y-88865329D01*
X160605498Y-88841897D01*
X160605500Y-88841878D01*
X160605500Y-88458121D01*
X160605498Y-88458102D01*
X160602780Y-88434670D01*
X160602779Y-88434667D01*
X160560420Y-88338733D01*
X160486267Y-88264580D01*
X160390333Y-88222221D01*
X160390332Y-88222220D01*
X160390328Y-88222219D01*
X160390329Y-88222219D01*
X160366897Y-88219501D01*
X160366880Y-88219500D01*
X159033120Y-88219500D01*
X159033119Y-88219500D01*
X159033102Y-88219501D01*
X159009670Y-88222219D01*
X158944536Y-88250979D01*
X158913733Y-88264580D01*
X158839580Y-88338733D01*
X158805307Y-88416352D01*
X158769882Y-88450178D01*
X158746762Y-88454500D01*
X158386135Y-88454500D01*
X158340880Y-88435755D01*
X158323364Y-88402985D01*
X158315095Y-88361407D01*
X158256415Y-88273585D01*
X158168593Y-88214905D01*
X158168590Y-88214904D01*
X158157859Y-88212769D01*
X158117132Y-88185554D01*
X158107577Y-88137511D01*
X158134792Y-88096784D01*
X158157863Y-88087229D01*
X158168593Y-88085095D01*
X158256415Y-88026415D01*
X158315095Y-87938593D01*
X158315096Y-87938588D01*
X158323366Y-87897015D01*
X158350579Y-87856286D01*
X158386136Y-87845500D01*
X158746762Y-87845500D01*
X158792017Y-87864245D01*
X158805307Y-87883646D01*
X158839580Y-87961267D01*
X158913733Y-88035420D01*
X159009667Y-88077779D01*
X159009669Y-88077779D01*
X159009671Y-88077780D01*
X159009670Y-88077780D01*
X159033102Y-88080498D01*
X159033110Y-88080498D01*
X159033120Y-88080500D01*
X159033121Y-88080500D01*
X160366879Y-88080500D01*
X160366880Y-88080500D01*
X160368047Y-88080364D01*
X160390329Y-88077780D01*
X160390330Y-88077779D01*
X160390333Y-88077779D01*
X160486267Y-88035420D01*
X160560420Y-87961267D01*
X160602779Y-87865333D01*
X160602779Y-87865330D01*
X160602780Y-87865329D01*
X160605498Y-87841897D01*
X160605500Y-87841878D01*
X160605500Y-87458121D01*
X160605498Y-87458102D01*
X160602780Y-87434670D01*
X160602779Y-87434667D01*
X160560420Y-87338733D01*
X160486267Y-87264580D01*
X160390333Y-87222221D01*
X160390332Y-87222220D01*
X160390328Y-87222219D01*
X160390329Y-87222219D01*
X160366897Y-87219501D01*
X160366880Y-87219500D01*
X159033120Y-87219500D01*
X159033119Y-87219500D01*
X159033102Y-87219501D01*
X159009670Y-87222219D01*
X158913733Y-87264580D01*
X158839580Y-87338733D01*
X158805307Y-87416352D01*
X158769882Y-87450178D01*
X158746762Y-87454500D01*
X158386135Y-87454500D01*
X158340880Y-87435755D01*
X158323364Y-87402985D01*
X158315095Y-87361407D01*
X158256415Y-87273585D01*
X158168593Y-87214905D01*
X158168590Y-87214903D01*
X158091149Y-87199500D01*
X157768851Y-87199500D01*
X157768850Y-87199501D01*
X157691411Y-87214903D01*
X157691405Y-87214906D01*
X157603587Y-87273583D01*
X157603583Y-87273587D01*
X157544905Y-87361406D01*
X157544903Y-87361409D01*
X157529500Y-87438850D01*
X157310498Y-87438850D01*
X157296904Y-87370500D01*
X157295096Y-87361411D01*
X157295095Y-87361409D01*
X157295095Y-87361407D01*
X157236415Y-87273585D01*
X157148593Y-87214905D01*
X157148590Y-87214903D01*
X157071149Y-87199500D01*
X156748851Y-87199500D01*
X156748850Y-87199501D01*
X156671411Y-87214903D01*
X156671405Y-87214906D01*
X156583587Y-87273583D01*
X156583583Y-87273587D01*
X156524905Y-87361406D01*
X156524903Y-87361409D01*
X156509500Y-87438850D01*
X156509500Y-87747510D01*
X156490755Y-87792765D01*
X156279258Y-88004263D01*
X156224263Y-88059257D01*
X156194500Y-88131110D01*
X156194500Y-89512511D01*
X156175755Y-89557766D01*
X155934755Y-89798766D01*
X155889500Y-89817511D01*
X155844245Y-89798766D01*
X155825500Y-89753511D01*
X155825500Y-86017487D01*
X155844244Y-85972233D01*
X156373119Y-85443357D01*
X157489500Y-85443357D01*
X157489500Y-85836642D01*
X157505195Y-85915543D01*
X157505195Y-85915545D01*
X157535088Y-85960281D01*
X157564981Y-86005019D01*
X157654456Y-86064805D01*
X157699673Y-86073799D01*
X157733357Y-86080500D01*
X157733360Y-86080500D01*
X158066643Y-86080500D01*
X158092863Y-86075283D01*
X158145544Y-86064805D01*
X158235019Y-86005019D01*
X158294805Y-85915544D01*
X158310500Y-85836640D01*
X158310500Y-85443360D01*
X158310500Y-85443357D01*
X158304634Y-85413869D01*
X158294805Y-85364456D01*
X158235019Y-85274981D01*
X158145544Y-85215195D01*
X158145543Y-85215194D01*
X158139723Y-85212784D01*
X158140425Y-85211087D01*
X158131488Y-85205114D01*
X158114245Y-85197972D01*
X158111735Y-85191912D01*
X158106282Y-85188268D01*
X158095500Y-85152717D01*
X158095500Y-85132157D01*
X158114245Y-85086902D01*
X158147014Y-85069386D01*
X158168593Y-85065095D01*
X158256415Y-85006415D01*
X158315095Y-84918593D01*
X158315096Y-84918588D01*
X158323366Y-84877015D01*
X158350579Y-84836286D01*
X158386136Y-84825500D01*
X159508637Y-84825500D01*
X159580492Y-84795737D01*
X159826733Y-84549494D01*
X159871988Y-84530750D01*
X159965641Y-84530750D01*
X159965644Y-84530750D01*
X160015766Y-84517320D01*
X160054786Y-84506865D01*
X160054786Y-84506864D01*
X160054788Y-84506864D01*
X160134712Y-84460719D01*
X160199969Y-84395462D01*
X160246114Y-84315538D01*
X160246692Y-84313384D01*
X160264109Y-84248379D01*
X160270000Y-84226394D01*
X160270000Y-84134106D01*
X160262810Y-84107271D01*
X160246115Y-84044963D01*
X160246114Y-84044962D01*
X160246023Y-84044804D01*
X160199969Y-83965038D01*
X160134712Y-83899781D01*
X160127375Y-83895545D01*
X160054787Y-83853635D01*
X160054786Y-83853634D01*
X159965650Y-83829751D01*
X159965646Y-83829750D01*
X159965644Y-83829750D01*
X159873356Y-83829750D01*
X159873354Y-83829750D01*
X159873349Y-83829751D01*
X159784213Y-83853634D01*
X159784212Y-83853635D01*
X159704287Y-83899781D01*
X159639031Y-83965037D01*
X159592885Y-84044962D01*
X159592884Y-84044963D01*
X159569001Y-84134099D01*
X159569000Y-84134108D01*
X159569000Y-84227760D01*
X159550255Y-84273015D01*
X159407516Y-84415755D01*
X159362261Y-84434500D01*
X158386135Y-84434500D01*
X158340880Y-84415755D01*
X158323364Y-84382985D01*
X158315095Y-84341407D01*
X158256415Y-84253585D01*
X158168593Y-84194905D01*
X158168590Y-84194903D01*
X158091149Y-84179500D01*
X157768851Y-84179500D01*
X157768850Y-84179501D01*
X157691411Y-84194903D01*
X157691405Y-84194906D01*
X157603587Y-84253583D01*
X157603583Y-84253587D01*
X157544905Y-84341406D01*
X157544903Y-84341409D01*
X157529500Y-84418850D01*
X157529500Y-84841148D01*
X157529501Y-84841149D01*
X157544903Y-84918588D01*
X157544904Y-84918589D01*
X157544905Y-84918593D01*
X157603585Y-85006415D01*
X157676058Y-85054839D01*
X157679698Y-85060287D01*
X157685755Y-85062796D01*
X157692898Y-85080042D01*
X157703270Y-85095564D01*
X157704500Y-85108051D01*
X157704500Y-85152717D01*
X157685755Y-85197972D01*
X157659872Y-85211808D01*
X157660277Y-85212784D01*
X157654456Y-85215194D01*
X157564981Y-85274981D01*
X157505195Y-85364454D01*
X157505195Y-85364456D01*
X157489500Y-85443357D01*
X156373119Y-85443357D01*
X156717233Y-85099243D01*
X156762484Y-85080499D01*
X157071146Y-85080499D01*
X157071148Y-85080499D01*
X157071148Y-85080498D01*
X157148593Y-85065095D01*
X157236415Y-85006415D01*
X157295095Y-84918593D01*
X157296081Y-84913639D01*
X157308320Y-84852106D01*
X157310500Y-84841147D01*
X157310499Y-84418854D01*
X157310499Y-84418853D01*
X157310499Y-84418851D01*
X157310498Y-84418850D01*
X157309882Y-84415755D01*
X157295095Y-84341407D01*
X157236415Y-84253585D01*
X157148593Y-84194905D01*
X157145008Y-84193420D01*
X157136007Y-84184419D01*
X157124245Y-84179547D01*
X157119372Y-84167783D01*
X157110372Y-84158783D01*
X157105500Y-84134292D01*
X157105500Y-84124500D01*
X157124245Y-84079245D01*
X157169500Y-84060500D01*
X157346643Y-84060500D01*
X157372863Y-84055283D01*
X157425544Y-84044805D01*
X157515019Y-83985019D01*
X157574805Y-83895544D01*
X157580480Y-83867014D01*
X157607694Y-83826286D01*
X157643250Y-83815500D01*
X158325993Y-83815500D01*
X158397848Y-83785737D01*
X158578902Y-83604680D01*
X158624157Y-83585936D01*
X158636643Y-83587166D01*
X158661090Y-83592029D01*
X158661091Y-83592029D01*
X158661093Y-83592029D01*
X158746147Y-83575111D01*
X158746151Y-83575110D01*
X158762018Y-83564508D01*
X158800057Y-83539091D01*
X159148621Y-83190527D01*
X159184640Y-83136621D01*
X159189332Y-83113035D01*
X159201559Y-83051562D01*
X159201559Y-83051559D01*
X159196696Y-83027113D01*
X159206252Y-82979071D01*
X159214206Y-82969378D01*
X159225737Y-82957848D01*
X159255500Y-82885993D01*
X159255500Y-82808219D01*
X159255500Y-82698006D01*
X159605547Y-82698006D01*
X159605547Y-82698009D01*
X159622464Y-82783064D01*
X159622465Y-82783068D01*
X159658484Y-82836973D01*
X160007049Y-83185538D01*
X160060954Y-83221557D01*
X160060958Y-83221558D01*
X160146013Y-83238476D01*
X160146015Y-83238476D01*
X160146017Y-83238476D01*
X160231071Y-83221558D01*
X160231075Y-83221557D01*
X160234496Y-83219271D01*
X160284981Y-83185538D01*
X160439091Y-83031428D01*
X160475110Y-82977522D01*
X160484937Y-82928114D01*
X160512149Y-82887388D01*
X160535217Y-82877832D01*
X160584629Y-82868004D01*
X160638535Y-82831985D01*
X160792645Y-82677875D01*
X160828664Y-82623969D01*
X160830826Y-82613103D01*
X160845583Y-82538910D01*
X160845583Y-82532603D01*
X160846907Y-82532603D01*
X160847494Y-82514681D01*
X160850146Y-82504786D01*
X160858425Y-82473888D01*
X160860499Y-82466148D01*
X160860500Y-82466141D01*
X160860500Y-82373858D01*
X160860498Y-82373849D01*
X160859967Y-82371869D01*
X160855144Y-82353866D01*
X160836615Y-82284713D01*
X160836614Y-82284712D01*
X160825355Y-82265212D01*
X160790469Y-82204788D01*
X160725212Y-82139531D01*
X160710694Y-82131149D01*
X160645287Y-82093385D01*
X160645286Y-82093384D01*
X160556150Y-82069501D01*
X160556146Y-82069500D01*
X160556144Y-82069500D01*
X160488712Y-82069500D01*
X160447343Y-82052364D01*
X160446514Y-82053375D01*
X160444082Y-82051379D01*
X160390175Y-82015359D01*
X160390171Y-82015358D01*
X160305117Y-81998441D01*
X160305113Y-81998441D01*
X160220058Y-82015358D01*
X160220054Y-82015359D01*
X160166149Y-82051378D01*
X160012038Y-82205489D01*
X159976019Y-82259394D01*
X159976018Y-82259397D01*
X159966192Y-82308801D01*
X159938979Y-82349529D01*
X159915907Y-82359085D01*
X159866504Y-82368911D01*
X159866500Y-82368912D01*
X159812595Y-82404931D01*
X159658484Y-82559042D01*
X159622465Y-82612947D01*
X159622464Y-82612951D01*
X159605547Y-82698006D01*
X159255500Y-82698006D01*
X159255500Y-81644779D01*
X159274245Y-81599524D01*
X159307014Y-81582009D01*
X159329515Y-81577534D01*
X159383421Y-81541515D01*
X159731985Y-81192951D01*
X159768004Y-81139045D01*
X159772235Y-81117777D01*
X159784923Y-81053986D01*
X159784923Y-81047681D01*
X159787398Y-81047681D01*
X159793047Y-81013425D01*
X159826614Y-80955288D01*
X159850500Y-80866144D01*
X159850500Y-80773856D01*
X159837361Y-80724821D01*
X159826615Y-80684713D01*
X159826614Y-80684712D01*
X159780468Y-80604787D01*
X159712246Y-80536565D01*
X159713092Y-80535718D01*
X159697009Y-80514755D01*
X159676662Y-80465633D01*
X159665737Y-80439258D01*
X159610742Y-80384263D01*
X158210742Y-78984263D01*
X158201655Y-78980499D01*
X158138889Y-78954500D01*
X158138887Y-78954500D01*
X155099989Y-78954500D01*
X155054734Y-78935755D01*
X154524233Y-78405254D01*
X154505488Y-78359999D01*
X154524231Y-78314746D01*
X154614734Y-78224243D01*
X154659989Y-78205499D01*
X155086436Y-78205499D01*
X155086436Y-78205498D01*
X155139964Y-78194852D01*
X155157310Y-78191402D01*
X155157314Y-78191401D01*
X155197574Y-78164500D01*
X155237693Y-78137693D01*
X155291401Y-78057314D01*
X155305500Y-77986435D01*
X155305499Y-77713566D01*
X155305499Y-77713565D01*
X155305499Y-77713562D01*
X155291402Y-77642689D01*
X155291401Y-77642685D01*
X155237694Y-77562308D01*
X155237693Y-77562307D01*
X155157315Y-77508599D01*
X155086436Y-77494500D01*
X154338562Y-77494500D01*
X154267689Y-77508597D01*
X154267685Y-77508598D01*
X154187308Y-77562305D01*
X154187307Y-77562306D01*
X154133599Y-77642684D01*
X154133599Y-77642685D01*
X154119500Y-77713563D01*
X154119500Y-77986437D01*
X154133597Y-78057310D01*
X154133599Y-78057314D01*
X154138696Y-78064942D01*
X154142338Y-78083252D01*
X154149483Y-78100500D01*
X154146974Y-78106555D01*
X154148254Y-78112984D01*
X154137882Y-78128507D01*
X154130738Y-78145755D01*
X154124682Y-78148263D01*
X154121041Y-78153713D01*
X154085483Y-78164500D01*
X153995708Y-78164500D01*
X153950453Y-78145755D01*
X153936580Y-78124992D01*
X153935095Y-78121409D01*
X153935095Y-78121407D01*
X153876415Y-78033585D01*
X153788593Y-77974905D01*
X153788590Y-77974903D01*
X153711149Y-77959500D01*
X153288851Y-77959500D01*
X153288850Y-77959501D01*
X153211411Y-77974903D01*
X153211405Y-77974906D01*
X153123587Y-78033583D01*
X153123583Y-78033587D01*
X153064905Y-78121406D01*
X153064903Y-78121409D01*
X153049500Y-78198850D01*
X153049500Y-78521148D01*
X153049501Y-78521149D01*
X153064903Y-78598588D01*
X153064904Y-78598591D01*
X153064905Y-78598593D01*
X153123585Y-78686415D01*
X153211406Y-78745094D01*
X153211409Y-78745096D01*
X153249911Y-78752754D01*
X153288853Y-78760500D01*
X153711146Y-78760499D01*
X153711148Y-78760499D01*
X153711148Y-78760498D01*
X153788593Y-78745095D01*
X153876415Y-78686415D01*
X153935095Y-78598593D01*
X153935095Y-78598588D01*
X153936580Y-78595008D01*
X153945580Y-78586007D01*
X153950453Y-78574245D01*
X153962216Y-78569372D01*
X153971217Y-78560372D01*
X153995708Y-78555500D01*
X154095011Y-78555500D01*
X154140266Y-78574245D01*
X154881758Y-79315737D01*
X154914401Y-79329258D01*
X154953610Y-79345499D01*
X154953613Y-79345500D01*
X155031388Y-79345500D01*
X157992511Y-79345500D01*
X158037766Y-79364245D01*
X159206320Y-80532799D01*
X159212713Y-80548235D01*
X159222885Y-80561491D01*
X159221755Y-80570065D01*
X159225065Y-80578054D01*
X159216490Y-80610055D01*
X159179960Y-80673324D01*
X159141098Y-80703143D01*
X159092534Y-80696748D01*
X159079280Y-80686578D01*
X158800056Y-80407354D01*
X158746151Y-80371335D01*
X158746147Y-80371334D01*
X158661093Y-80354417D01*
X158661091Y-80354417D01*
X158636642Y-80359280D01*
X158588600Y-80349722D01*
X158578903Y-80341764D01*
X158471402Y-80234263D01*
X158399549Y-80204500D01*
X158399547Y-80204500D01*
X157548887Y-80204500D01*
X157471113Y-80204500D01*
X157471110Y-80204500D01*
X157399257Y-80234263D01*
X157254755Y-80378765D01*
X157209500Y-80397510D01*
X157164245Y-80378765D01*
X157145500Y-80333510D01*
X157145500Y-80210819D01*
X157145498Y-80210810D01*
X157142541Y-80199776D01*
X157109688Y-80077164D01*
X157040505Y-79957335D01*
X156942665Y-79859495D01*
X156822836Y-79790312D01*
X156822835Y-79790311D01*
X156822832Y-79790310D01*
X156689189Y-79754501D01*
X156689185Y-79754500D01*
X156689183Y-79754500D01*
X156550817Y-79754500D01*
X156550815Y-79754500D01*
X156550810Y-79754501D01*
X156417168Y-79790310D01*
X156417167Y-79790310D01*
X156297333Y-79859496D01*
X156199496Y-79957333D01*
X156130310Y-80077167D01*
X156130310Y-80077168D01*
X156094501Y-80210810D01*
X156094500Y-80210819D01*
X156094500Y-80212597D01*
X156094157Y-80213424D01*
X156093953Y-80214975D01*
X156093537Y-80214920D01*
X156075755Y-80257852D01*
X154070568Y-82263039D01*
X154025313Y-82281784D01*
X153519180Y-82281784D01*
X153476249Y-82264001D01*
X153475995Y-82264334D01*
X153474755Y-82263383D01*
X153473925Y-82263039D01*
X153472666Y-82261780D01*
X153472665Y-82261779D01*
X153352836Y-82192596D01*
X153352835Y-82192595D01*
X153352832Y-82192594D01*
X153219189Y-82156785D01*
X153219185Y-82156784D01*
X153219183Y-82156784D01*
X153080817Y-82156784D01*
X153080815Y-82156784D01*
X153080810Y-82156785D01*
X152947168Y-82192594D01*
X152947167Y-82192594D01*
X152827333Y-82261780D01*
X152729496Y-82359617D01*
X152660310Y-82479451D01*
X152660310Y-82479452D01*
X152624501Y-82613094D01*
X152624500Y-82613103D01*
X152624500Y-82751464D01*
X152624501Y-82751473D01*
X152660310Y-82885115D01*
X152660310Y-82885116D01*
X152660311Y-82885119D01*
X152660312Y-82885120D01*
X152729495Y-83004949D01*
X152827335Y-83102789D01*
X152947164Y-83171972D01*
X152947166Y-83171972D01*
X152947167Y-83171973D01*
X152997651Y-83185500D01*
X153080817Y-83207784D01*
X153080820Y-83207784D01*
X153219180Y-83207784D01*
X153219183Y-83207784D01*
X153352836Y-83171972D01*
X153472665Y-83102789D01*
X153473925Y-83101529D01*
X153474755Y-83101184D01*
X153475995Y-83100234D01*
X153476249Y-83100566D01*
X153519180Y-83082784D01*
X154270444Y-83082784D01*
X154322308Y-83068887D01*
X154372304Y-83055491D01*
X154463629Y-83002764D01*
X156241689Y-81224701D01*
X156286943Y-81205957D01*
X156332198Y-81224702D01*
X156348762Y-81253393D01*
X156373384Y-81345286D01*
X156373385Y-81345287D01*
X156408027Y-81405287D01*
X156419531Y-81425212D01*
X156484788Y-81490469D01*
X156532498Y-81518015D01*
X156564712Y-81536614D01*
X156564713Y-81536615D01*
X156632602Y-81554805D01*
X156653856Y-81560500D01*
X156653859Y-81560500D01*
X156746141Y-81560500D01*
X156746144Y-81560500D01*
X156794922Y-81547430D01*
X156835286Y-81536615D01*
X156835286Y-81536614D01*
X156835288Y-81536614D01*
X156915212Y-81490469D01*
X156980469Y-81425212D01*
X157026614Y-81345288D01*
X157030447Y-81330986D01*
X157044685Y-81277846D01*
X157050500Y-81256144D01*
X157050500Y-81163856D01*
X157050500Y-81162488D01*
X157069245Y-81117233D01*
X157318833Y-80867646D01*
X157572234Y-80614245D01*
X157617489Y-80595500D01*
X158253171Y-80595500D01*
X158298426Y-80614245D01*
X158302424Y-80618243D01*
X158321169Y-80663498D01*
X158319940Y-80675981D01*
X158317833Y-80686578D01*
X158315077Y-80700432D01*
X158331994Y-80785487D01*
X158331995Y-80785491D01*
X158368014Y-80839396D01*
X158716579Y-81187961D01*
X158770484Y-81223980D01*
X158770488Y-81223981D01*
X158809317Y-81231704D01*
X158845923Y-81238985D01*
X158886651Y-81266198D01*
X158896208Y-81314240D01*
X158892566Y-81326246D01*
X158864500Y-81394002D01*
X158864500Y-82473964D01*
X158845755Y-82519219D01*
X158800500Y-82537964D01*
X158755245Y-82519219D01*
X158640957Y-82404931D01*
X158587052Y-82368912D01*
X158587048Y-82368911D01*
X158537646Y-82359085D01*
X158496917Y-82331872D01*
X158487361Y-82308804D01*
X158477534Y-82259395D01*
X158441515Y-82205489D01*
X158287405Y-82051379D01*
X158287404Y-82051378D01*
X158233499Y-82015359D01*
X158233495Y-82015358D01*
X158148441Y-81998441D01*
X158148437Y-81998441D01*
X158063382Y-82015358D01*
X158063378Y-82015359D01*
X158009473Y-82051378D01*
X157833415Y-82227437D01*
X157788160Y-82246182D01*
X157644428Y-82246182D01*
X157572575Y-82275945D01*
X157487766Y-82360755D01*
X157442511Y-82379500D01*
X155713887Y-82379500D01*
X155636112Y-82379500D01*
X155629034Y-82382432D01*
X155629032Y-82382433D01*
X155629031Y-82382432D01*
X155564257Y-82409263D01*
X154112766Y-83860755D01*
X154067511Y-83879500D01*
X150457488Y-83879500D01*
X150412233Y-83860755D01*
X149260742Y-82709263D01*
X149188889Y-82679500D01*
X149188887Y-82679500D01*
X148982489Y-82679500D01*
X148937234Y-82660755D01*
X147936344Y-81659865D01*
X147917599Y-81614610D01*
X147936344Y-81569355D01*
X147981599Y-81550610D01*
X147998206Y-81553913D01*
X147998274Y-81553575D01*
X148004455Y-81554804D01*
X148004456Y-81554805D01*
X148028111Y-81559510D01*
X148083357Y-81570500D01*
X148083360Y-81570500D01*
X148232334Y-81570500D01*
X148264332Y-81579074D01*
X148294712Y-81596614D01*
X148294714Y-81596614D01*
X148294715Y-81596615D01*
X148305572Y-81599524D01*
X148383856Y-81620500D01*
X148383859Y-81620500D01*
X148476141Y-81620500D01*
X148476144Y-81620500D01*
X148519996Y-81608750D01*
X148565286Y-81596615D01*
X148565286Y-81596614D01*
X148565288Y-81596614D01*
X148645212Y-81550469D01*
X148710469Y-81485212D01*
X148756614Y-81405288D01*
X148756783Y-81404660D01*
X148776523Y-81330986D01*
X148780500Y-81316144D01*
X148780500Y-81223856D01*
X148756614Y-81134712D01*
X148746833Y-81117771D01*
X148729074Y-81087010D01*
X148720500Y-81055011D01*
X148720500Y-80993357D01*
X148707986Y-80930450D01*
X148704805Y-80914456D01*
X148645019Y-80824981D01*
X148555544Y-80765195D01*
X148476643Y-80749500D01*
X148476640Y-80749500D01*
X148083360Y-80749500D01*
X148083357Y-80749500D01*
X148004456Y-80765195D01*
X148004454Y-80765195D01*
X147914981Y-80824981D01*
X147862714Y-80903203D01*
X147821985Y-80930416D01*
X147773943Y-80920860D01*
X147746730Y-80880131D01*
X147745500Y-80867646D01*
X147745500Y-79401113D01*
X147744471Y-79398631D01*
X147744464Y-79398613D01*
X147736782Y-79380066D01*
X147715737Y-79329258D01*
X147715736Y-79329257D01*
X147715370Y-79328373D01*
X147715370Y-79328368D01*
X147710499Y-79303882D01*
X147710499Y-78988851D01*
X147710498Y-78988850D01*
X147709793Y-78985307D01*
X147698022Y-78926122D01*
X147695096Y-78911411D01*
X147695095Y-78911409D01*
X147695095Y-78911407D01*
X147636415Y-78823585D01*
X147548593Y-78764905D01*
X147545008Y-78763420D01*
X147537619Y-78756031D01*
X147527698Y-78752754D01*
X147522082Y-78740493D01*
X147510372Y-78728783D01*
X147505674Y-78709001D01*
X147505500Y-78706643D01*
X147505500Y-78651113D01*
X147504456Y-78648593D01*
X147496294Y-78628888D01*
X147496294Y-78628887D01*
X147483746Y-78598594D01*
X147475737Y-78579258D01*
X147420742Y-78524263D01*
X147417097Y-78520618D01*
X147417090Y-78520612D01*
X147141234Y-78244755D01*
X147122489Y-78199500D01*
X147141234Y-78154245D01*
X147186489Y-78135500D01*
X147972511Y-78135500D01*
X148017766Y-78154245D01*
X148503766Y-78640245D01*
X148522511Y-78685500D01*
X148503766Y-78730755D01*
X148458511Y-78749500D01*
X148168851Y-78749500D01*
X148168850Y-78749501D01*
X148091411Y-78764903D01*
X148091405Y-78764906D01*
X148003587Y-78823583D01*
X148003583Y-78823587D01*
X147944905Y-78911406D01*
X147944903Y-78911409D01*
X147929500Y-78988850D01*
X147929500Y-79411148D01*
X147929501Y-79411149D01*
X147944903Y-79488588D01*
X147944904Y-79488591D01*
X147944905Y-79488593D01*
X148003585Y-79576415D01*
X148084484Y-79630469D01*
X148091406Y-79635094D01*
X148091409Y-79635096D01*
X148149228Y-79646596D01*
X148168853Y-79650500D01*
X148232330Y-79650499D01*
X148264332Y-79659074D01*
X148294712Y-79676614D01*
X148294713Y-79676615D01*
X148370905Y-79697029D01*
X148383856Y-79700500D01*
X148383859Y-79700500D01*
X148476141Y-79700500D01*
X148476144Y-79700500D01*
X148531446Y-79685682D01*
X148565286Y-79676615D01*
X148565286Y-79676614D01*
X148565288Y-79676614D01*
X148645212Y-79630469D01*
X148710469Y-79565212D01*
X148756614Y-79485288D01*
X148760845Y-79469500D01*
X148776479Y-79411149D01*
X148780500Y-79396144D01*
X148780500Y-79303856D01*
X148775139Y-79283849D01*
X148756615Y-79214713D01*
X148756614Y-79214712D01*
X148739074Y-79184332D01*
X148739019Y-79183918D01*
X148738691Y-79183660D01*
X148730499Y-79152331D01*
X148730499Y-79021488D01*
X148749244Y-78976233D01*
X148794499Y-78957488D01*
X148839754Y-78976233D01*
X148879258Y-79015737D01*
X148912659Y-79029572D01*
X148923984Y-79034263D01*
X148938906Y-79040444D01*
X148973542Y-79075081D01*
X148973542Y-79124064D01*
X148969840Y-79131572D01*
X148933384Y-79194714D01*
X148909501Y-79283849D01*
X148909500Y-79283858D01*
X148909500Y-79376141D01*
X148909501Y-79376150D01*
X148933384Y-79465286D01*
X148933385Y-79465287D01*
X148946841Y-79488593D01*
X148979531Y-79545212D01*
X149044788Y-79610469D01*
X149114176Y-79650531D01*
X149124712Y-79656614D01*
X149128588Y-79658220D01*
X149127716Y-79660324D01*
X149135150Y-79666030D01*
X149150585Y-79672423D01*
X149153895Y-79680415D01*
X149160759Y-79685682D01*
X149162938Y-79702245D01*
X149169331Y-79717678D01*
X149166020Y-79725670D01*
X149167149Y-79734247D01*
X149150587Y-79762933D01*
X149119259Y-79794262D01*
X149119258Y-79794263D01*
X149064263Y-79849257D01*
X149034500Y-79921110D01*
X149034500Y-81168889D01*
X149064263Y-81240742D01*
X149745755Y-81922234D01*
X149764500Y-81967489D01*
X149764500Y-82183309D01*
X149745755Y-82228564D01*
X149679531Y-82294787D01*
X149633385Y-82374712D01*
X149633384Y-82374713D01*
X149609501Y-82463849D01*
X149609500Y-82463858D01*
X149609500Y-82556141D01*
X149609501Y-82556150D01*
X149633384Y-82645286D01*
X149633385Y-82645287D01*
X149663823Y-82698006D01*
X149679531Y-82725212D01*
X149744788Y-82790469D01*
X149824712Y-82836614D01*
X149824713Y-82836615D01*
X149900905Y-82857029D01*
X149913856Y-82860500D01*
X149913859Y-82860500D01*
X150006141Y-82860500D01*
X150006144Y-82860500D01*
X150046981Y-82849557D01*
X150095286Y-82836615D01*
X150095286Y-82836614D01*
X150095288Y-82836614D01*
X150175212Y-82790469D01*
X150240469Y-82725212D01*
X150286614Y-82645288D01*
X150292327Y-82623969D01*
X150306585Y-82570755D01*
X150310500Y-82556144D01*
X150310500Y-82463856D01*
X150298355Y-82418529D01*
X150286615Y-82374713D01*
X150286614Y-82374712D01*
X150277899Y-82359617D01*
X150240469Y-82294788D01*
X150175212Y-82229531D01*
X150174245Y-82228564D01*
X150155500Y-82183309D01*
X150155500Y-81821113D01*
X150155499Y-81821110D01*
X150146782Y-81800065D01*
X150125737Y-81749258D01*
X150070742Y-81694263D01*
X149927519Y-81551040D01*
X149908774Y-81505785D01*
X149927519Y-81460530D01*
X149972774Y-81441785D01*
X150008329Y-81452570D01*
X150075059Y-81497158D01*
X150075060Y-81497158D01*
X150075061Y-81497159D01*
X150253492Y-81571068D01*
X150253496Y-81571069D01*
X150253499Y-81571070D01*
X150323042Y-81584903D01*
X150442926Y-81608750D01*
X150442929Y-81608750D01*
X150636074Y-81608750D01*
X150730786Y-81589910D01*
X150825501Y-81571070D01*
X150825504Y-81571068D01*
X150825507Y-81571068D01*
X150944461Y-81521795D01*
X151003941Y-81497158D01*
X151164532Y-81389854D01*
X151301104Y-81253282D01*
X151408408Y-81092691D01*
X151441243Y-81013421D01*
X151482318Y-80914257D01*
X151482318Y-80914254D01*
X151482320Y-80914251D01*
X151510248Y-80773849D01*
X151520000Y-80724823D01*
X151520000Y-80531676D01*
X152099000Y-80531676D01*
X152099000Y-80724823D01*
X152136679Y-80914248D01*
X152136681Y-80914257D01*
X152210590Y-81092688D01*
X152210591Y-81092690D01*
X152210592Y-81092691D01*
X152317896Y-81253282D01*
X152454468Y-81389854D01*
X152615059Y-81497158D01*
X152615060Y-81497158D01*
X152615061Y-81497159D01*
X152793492Y-81571068D01*
X152793496Y-81571069D01*
X152793499Y-81571070D01*
X152863042Y-81584903D01*
X152982926Y-81608750D01*
X152982929Y-81608750D01*
X153176074Y-81608750D01*
X153270786Y-81589910D01*
X153365501Y-81571070D01*
X153365504Y-81571068D01*
X153365507Y-81571068D01*
X153484461Y-81521795D01*
X153543941Y-81497158D01*
X153704532Y-81389854D01*
X153841104Y-81253282D01*
X153948408Y-81092691D01*
X153981243Y-81013421D01*
X154022318Y-80914257D01*
X154022318Y-80914254D01*
X154022320Y-80914251D01*
X154050248Y-80773849D01*
X154060000Y-80724823D01*
X154060000Y-80531676D01*
X154028106Y-80371336D01*
X154022320Y-80342249D01*
X154022319Y-80342246D01*
X154022318Y-80342242D01*
X153948409Y-80163811D01*
X153942235Y-80154571D01*
X153841104Y-80003218D01*
X153704532Y-79866646D01*
X153543941Y-79759342D01*
X153543940Y-79759341D01*
X153543938Y-79759340D01*
X153365507Y-79685431D01*
X153365498Y-79685429D01*
X153176074Y-79647750D01*
X153176071Y-79647750D01*
X152982929Y-79647750D01*
X152982926Y-79647750D01*
X152793501Y-79685429D01*
X152793492Y-79685431D01*
X152615061Y-79759340D01*
X152454466Y-79866647D01*
X152317897Y-80003216D01*
X152210590Y-80163811D01*
X152136681Y-80342242D01*
X152136679Y-80342251D01*
X152099000Y-80531676D01*
X151520000Y-80531676D01*
X151488106Y-80371336D01*
X151482320Y-80342249D01*
X151482319Y-80342246D01*
X151482318Y-80342242D01*
X151408409Y-80163811D01*
X151402235Y-80154571D01*
X151301104Y-80003218D01*
X151164532Y-79866646D01*
X151003941Y-79759342D01*
X151003940Y-79759341D01*
X151003938Y-79759340D01*
X150825507Y-79685431D01*
X150825498Y-79685429D01*
X150636074Y-79647750D01*
X150636071Y-79647750D01*
X150442929Y-79647750D01*
X150442926Y-79647750D01*
X150253501Y-79685429D01*
X150253492Y-79685431D01*
X150075061Y-79759340D01*
X149914466Y-79866647D01*
X149777897Y-80003216D01*
X149670590Y-80163811D01*
X149596681Y-80342242D01*
X149596679Y-80342251D01*
X149559000Y-80531676D01*
X149559000Y-80724823D01*
X149596679Y-80914248D01*
X149596681Y-80914257D01*
X149670590Y-81092688D01*
X149670591Y-81092690D01*
X149670592Y-81092691D01*
X149710456Y-81152352D01*
X149715178Y-81159418D01*
X149724734Y-81207461D01*
X149697521Y-81248189D01*
X149649478Y-81257745D01*
X149616709Y-81240230D01*
X149444245Y-81067766D01*
X149425500Y-81022511D01*
X149425500Y-80067489D01*
X149444245Y-80022234D01*
X150001746Y-79464733D01*
X150565737Y-78900742D01*
X150595500Y-78828887D01*
X150595500Y-78751113D01*
X150595500Y-77989178D01*
X150606286Y-77953622D01*
X150610522Y-77947282D01*
X150624529Y-77926319D01*
X150625113Y-77923386D01*
X150629074Y-77903468D01*
X150632100Y-77888255D01*
X150632099Y-77202146D01*
X150624529Y-77164081D01*
X150595686Y-77120914D01*
X150595685Y-77120913D01*
X150595684Y-77120912D01*
X150552519Y-77092071D01*
X150552515Y-77092069D01*
X150514459Y-77084500D01*
X150285547Y-77084500D01*
X150247479Y-77092071D01*
X150204313Y-77120914D01*
X150204312Y-77120915D01*
X150175471Y-77164080D01*
X150175469Y-77164084D01*
X150167900Y-77202141D01*
X150167900Y-77630100D01*
X150149155Y-77675355D01*
X150103900Y-77694100D01*
X149896098Y-77694100D01*
X149850843Y-77675355D01*
X149832098Y-77630100D01*
X149832098Y-77202147D01*
X149831116Y-77197207D01*
X149824528Y-77164081D01*
X149795685Y-77120914D01*
X149795684Y-77120913D01*
X149795683Y-77120912D01*
X149752518Y-77092071D01*
X149752514Y-77092069D01*
X149714458Y-77084500D01*
X149485546Y-77084500D01*
X149447478Y-77092071D01*
X149404312Y-77120914D01*
X149404311Y-77120915D01*
X149375470Y-77164080D01*
X149375468Y-77164084D01*
X149367899Y-77202141D01*
X149367899Y-77630100D01*
X149349154Y-77675355D01*
X149303899Y-77694100D01*
X149085547Y-77694100D01*
X149069598Y-77697272D01*
X149060902Y-77699001D01*
X149012862Y-77689444D01*
X149003165Y-77681486D01*
X148835942Y-77514263D01*
X148764089Y-77484500D01*
X148764087Y-77484500D01*
X148190691Y-77484500D01*
X148145436Y-77465755D01*
X148126691Y-77420500D01*
X148145436Y-77375245D01*
X148160262Y-77360419D01*
X148189198Y-77331483D01*
X148240573Y-77226393D01*
X148244107Y-77202141D01*
X148250500Y-77158261D01*
X148250500Y-75841738D01*
X148240574Y-75773612D01*
X148240573Y-75773610D01*
X148240573Y-75773607D01*
X148189198Y-75668517D01*
X148169245Y-75648564D01*
X148150500Y-75603309D01*
X148150500Y-75392403D01*
X148169245Y-75347148D01*
X149017148Y-74499245D01*
X149062403Y-74480500D01*
X150233884Y-74480500D01*
X150279139Y-74499245D01*
X150297884Y-74544500D01*
X150279139Y-74589755D01*
X150256123Y-74603548D01*
X150256404Y-74604226D01*
X150075061Y-74679340D01*
X149914466Y-74786647D01*
X149777897Y-74923216D01*
X149670590Y-75083811D01*
X149596681Y-75262242D01*
X149596679Y-75262251D01*
X149559000Y-75451676D01*
X149559000Y-75644823D01*
X149596679Y-75834248D01*
X149596681Y-75834257D01*
X149670590Y-76012688D01*
X149670591Y-76012689D01*
X149670592Y-76012691D01*
X149777896Y-76173282D01*
X149914468Y-76309854D01*
X150075059Y-76417158D01*
X150075060Y-76417158D01*
X150075061Y-76417159D01*
X150253492Y-76491068D01*
X150253496Y-76491069D01*
X150253499Y-76491070D01*
X150329271Y-76506142D01*
X150442926Y-76528750D01*
X150442929Y-76528750D01*
X150636074Y-76528750D01*
X150730786Y-76509910D01*
X150825501Y-76491070D01*
X150825504Y-76491068D01*
X150825507Y-76491068D01*
X150970970Y-76430815D01*
X151003941Y-76417158D01*
X151164532Y-76309854D01*
X151301104Y-76173282D01*
X151408408Y-76012691D01*
X151450777Y-75910404D01*
X151482318Y-75834257D01*
X151482318Y-75834254D01*
X151482320Y-75834251D01*
X151514442Y-75672765D01*
X151520000Y-75644823D01*
X151520000Y-75451676D01*
X151490960Y-75305684D01*
X151482320Y-75262249D01*
X151482319Y-75262246D01*
X151482318Y-75262242D01*
X151408409Y-75083811D01*
X151405529Y-75079501D01*
X151301104Y-74923218D01*
X151164532Y-74786646D01*
X151003941Y-74679342D01*
X151003940Y-74679341D01*
X151003938Y-74679340D01*
X150822596Y-74604226D01*
X150823127Y-74602943D01*
X150788676Y-74574675D01*
X150783870Y-74525927D01*
X150814941Y-74488060D01*
X150845116Y-74480500D01*
X152773884Y-74480500D01*
X152819139Y-74499245D01*
X152837884Y-74544500D01*
X152819139Y-74589755D01*
X152796123Y-74603548D01*
X152796404Y-74604226D01*
X152615061Y-74679340D01*
X152454466Y-74786647D01*
X152317897Y-74923216D01*
X152210590Y-75083811D01*
X152136681Y-75262242D01*
X152136679Y-75262251D01*
X152099000Y-75451676D01*
X152099000Y-75644823D01*
X152136679Y-75834248D01*
X152136681Y-75834257D01*
X152210591Y-76012691D01*
X152232676Y-76045743D01*
X152242232Y-76093785D01*
X152224717Y-76126552D01*
X152199258Y-76152012D01*
X152144263Y-76207007D01*
X152114500Y-76278860D01*
X152114500Y-77802511D01*
X152095755Y-77847766D01*
X152002966Y-77940555D01*
X151957711Y-77959300D01*
X151896099Y-77959300D01*
X151850844Y-77940555D01*
X151832099Y-77895300D01*
X151832099Y-77811747D01*
X151829483Y-77798593D01*
X151824529Y-77773681D01*
X151795686Y-77730514D01*
X151795685Y-77730513D01*
X151795684Y-77730512D01*
X151752519Y-77701671D01*
X151752515Y-77701669D01*
X151714459Y-77694100D01*
X151714455Y-77694100D01*
X151606371Y-77694100D01*
X151561116Y-77675355D01*
X151542371Y-77630100D01*
X151544552Y-77613535D01*
X151550497Y-77591348D01*
X151550498Y-77591341D01*
X151550498Y-77499058D01*
X151550496Y-77499049D01*
X151526613Y-77409913D01*
X151526612Y-77409912D01*
X151513452Y-77387118D01*
X151480467Y-77329988D01*
X151450842Y-77300363D01*
X151432097Y-77255108D01*
X151432097Y-77202147D01*
X151431115Y-77197207D01*
X151424527Y-77164081D01*
X151395684Y-77120914D01*
X151395683Y-77120913D01*
X151395682Y-77120912D01*
X151352517Y-77092071D01*
X151352513Y-77092069D01*
X151314457Y-77084500D01*
X151085545Y-77084500D01*
X151047477Y-77092071D01*
X151004311Y-77120914D01*
X151004310Y-77120915D01*
X150975469Y-77164080D01*
X150975467Y-77164084D01*
X150967898Y-77202141D01*
X150967898Y-77255109D01*
X150949154Y-77300361D01*
X150919530Y-77329987D01*
X150919527Y-77329990D01*
X150873383Y-77409912D01*
X150873382Y-77409913D01*
X150849499Y-77499049D01*
X150849498Y-77499058D01*
X150849498Y-77591341D01*
X150849499Y-77591350D01*
X150873382Y-77680486D01*
X150873383Y-77680487D01*
X150919529Y-77760412D01*
X150949153Y-77790036D01*
X150967898Y-77835290D01*
X150967898Y-77888252D01*
X150975469Y-77926320D01*
X151004312Y-77969486D01*
X151004313Y-77969487D01*
X151021098Y-77980702D01*
X151047479Y-77998329D01*
X151047480Y-77998329D01*
X151047482Y-77998330D01*
X151085538Y-78005899D01*
X151085543Y-78005900D01*
X151303900Y-78005899D01*
X151349155Y-78024644D01*
X151367900Y-78069899D01*
X151367900Y-78497852D01*
X151375471Y-78535920D01*
X151404314Y-78579086D01*
X151404315Y-78579087D01*
X151425897Y-78593507D01*
X151447481Y-78607929D01*
X151447482Y-78607929D01*
X151447484Y-78607930D01*
X151485540Y-78615499D01*
X151485545Y-78615500D01*
X151714454Y-78615499D01*
X151752519Y-78607929D01*
X151795686Y-78579086D01*
X151824529Y-78535919D01*
X151825325Y-78531919D01*
X151832100Y-78497858D01*
X151832100Y-78414300D01*
X151850845Y-78369045D01*
X151896100Y-78350300D01*
X152104087Y-78350300D01*
X152175942Y-78320537D01*
X152411739Y-78084737D01*
X152411742Y-78084736D01*
X152420741Y-78075737D01*
X152420742Y-78075737D01*
X152475737Y-78020742D01*
X152501187Y-77959300D01*
X152505500Y-77948888D01*
X152505500Y-77871113D01*
X152505500Y-77599500D01*
X152524245Y-77554245D01*
X152569500Y-77535500D01*
X153004292Y-77535500D01*
X153049547Y-77554245D01*
X153063420Y-77575008D01*
X153064904Y-77578590D01*
X153064905Y-77578593D01*
X153123585Y-77666415D01*
X153211406Y-77725094D01*
X153211409Y-77725096D01*
X153257789Y-77734321D01*
X153288853Y-77740500D01*
X153711146Y-77740499D01*
X153711148Y-77740499D01*
X153711148Y-77740498D01*
X153788593Y-77725095D01*
X153876415Y-77666415D01*
X153935095Y-77578593D01*
X153938335Y-77562307D01*
X153943667Y-77535500D01*
X153950500Y-77501147D01*
X153950499Y-77178854D01*
X153950499Y-77178851D01*
X153950498Y-77178850D01*
X153949713Y-77174905D01*
X153938975Y-77120913D01*
X153935096Y-77101411D01*
X153935095Y-77101410D01*
X153935095Y-77101407D01*
X153876415Y-77013585D01*
X153788593Y-76954905D01*
X153788590Y-76954903D01*
X153711149Y-76939500D01*
X153288851Y-76939500D01*
X153288850Y-76939501D01*
X153211411Y-76954903D01*
X153211405Y-76954906D01*
X153123587Y-77013583D01*
X153123583Y-77013587D01*
X153064905Y-77101406D01*
X153063420Y-77104992D01*
X153028783Y-77139628D01*
X153004292Y-77144500D01*
X152569500Y-77144500D01*
X152524245Y-77125755D01*
X152505500Y-77080500D01*
X152505500Y-76463688D01*
X152524245Y-76418433D01*
X152569500Y-76399688D01*
X152605056Y-76410474D01*
X152615059Y-76417158D01*
X152648030Y-76430815D01*
X152793492Y-76491068D01*
X152793496Y-76491069D01*
X152793499Y-76491070D01*
X152869271Y-76506142D01*
X152982926Y-76528750D01*
X152982929Y-76528750D01*
X153176074Y-76528750D01*
X153270786Y-76509910D01*
X153365501Y-76491070D01*
X153365504Y-76491068D01*
X153365507Y-76491068D01*
X153431607Y-76463688D01*
X153543941Y-76417158D01*
X153576991Y-76395073D01*
X153625033Y-76385516D01*
X153657804Y-76403032D01*
X153911862Y-76657090D01*
X153911865Y-76657094D01*
X153915513Y-76660742D01*
X153970508Y-76715737D01*
X154021316Y-76736782D01*
X154042362Y-76745500D01*
X154042363Y-76745500D01*
X154096069Y-76745500D01*
X154100590Y-76746149D01*
X154118024Y-76756488D01*
X154136751Y-76764245D01*
X154142105Y-76770769D01*
X154142722Y-76771135D01*
X154142865Y-76771694D01*
X154144710Y-76773943D01*
X154175096Y-76819419D01*
X154187307Y-76837693D01*
X154218592Y-76858597D01*
X154267684Y-76891400D01*
X154267686Y-76891401D01*
X154338565Y-76905500D01*
X155086434Y-76905499D01*
X155086437Y-76905499D01*
X155157310Y-76891402D01*
X155157314Y-76891401D01*
X155206405Y-76858599D01*
X155237693Y-76837693D01*
X155291401Y-76757314D01*
X155305500Y-76686435D01*
X155305499Y-76413566D01*
X155305499Y-76413562D01*
X155291402Y-76342689D01*
X155291401Y-76342685D01*
X155237694Y-76262308D01*
X155237693Y-76262307D01*
X155157315Y-76208599D01*
X155086436Y-76194500D01*
X154338562Y-76194500D01*
X154267689Y-76208597D01*
X154267685Y-76208598D01*
X154187308Y-76262305D01*
X154187306Y-76262307D01*
X154183660Y-76267765D01*
X154142931Y-76294978D01*
X154094889Y-76285422D01*
X154085191Y-76277463D01*
X153934282Y-76126554D01*
X153915537Y-76081299D01*
X153926324Y-76045741D01*
X153948406Y-76012694D01*
X153948406Y-76012693D01*
X153948408Y-76012691D01*
X154022320Y-75834251D01*
X154054442Y-75672765D01*
X154060000Y-75644823D01*
X154060000Y-75451676D01*
X154030960Y-75305684D01*
X154022320Y-75262249D01*
X154022319Y-75262246D01*
X154022318Y-75262242D01*
X153948409Y-75083811D01*
X153945529Y-75079501D01*
X153841104Y-74923218D01*
X153704532Y-74786646D01*
X153543941Y-74679342D01*
X153543940Y-74679341D01*
X153543938Y-74679340D01*
X153362596Y-74604226D01*
X153363127Y-74602943D01*
X153328676Y-74574675D01*
X153323870Y-74525927D01*
X153354941Y-74488060D01*
X153385116Y-74480500D01*
X154455500Y-74480500D01*
X154500755Y-74499245D01*
X154519500Y-74544500D01*
X154519500Y-75110043D01*
X154507930Y-75146746D01*
X154505937Y-75149591D01*
X154455931Y-75256828D01*
X154449500Y-75305678D01*
X154449500Y-75754321D01*
X154455931Y-75803171D01*
X154455932Y-75803173D01*
X154505935Y-75910404D01*
X154505936Y-75910405D01*
X154589594Y-75994063D01*
X154589596Y-75994065D01*
X154696827Y-76044068D01*
X154745684Y-76050500D01*
X155094316Y-76050500D01*
X155143173Y-76044068D01*
X155250404Y-75994065D01*
X155334065Y-75910404D01*
X155384068Y-75803173D01*
X155390500Y-75754316D01*
X155390500Y-75318850D01*
X155539500Y-75318850D01*
X155539500Y-75741148D01*
X155539501Y-75741149D01*
X155554903Y-75818588D01*
X155554904Y-75818591D01*
X155554905Y-75818593D01*
X155613585Y-75906415D01*
X155628553Y-75916416D01*
X155701406Y-75965094D01*
X155701409Y-75965096D01*
X155747789Y-75974321D01*
X155778853Y-75980500D01*
X156087510Y-75980499D01*
X156132765Y-75999244D01*
X156273255Y-76139734D01*
X156292000Y-76184989D01*
X156292000Y-76780500D01*
X156273255Y-76825755D01*
X156228001Y-76844500D01*
X156113562Y-76844500D01*
X156042689Y-76858597D01*
X156042685Y-76858598D01*
X155962308Y-76912305D01*
X155962307Y-76912306D01*
X155908599Y-76992684D01*
X155908599Y-76992685D01*
X155894500Y-77063563D01*
X155894500Y-77336437D01*
X155908597Y-77407310D01*
X155908598Y-77407314D01*
X155962305Y-77487691D01*
X155962306Y-77487692D01*
X155962307Y-77487693D01*
X155979313Y-77499056D01*
X156042684Y-77541400D01*
X156042686Y-77541401D01*
X156113565Y-77555500D01*
X156540010Y-77555499D01*
X156585265Y-77574244D01*
X156645755Y-77634734D01*
X156664500Y-77679989D01*
X156664500Y-77864292D01*
X156645755Y-77909547D01*
X156624992Y-77923420D01*
X156621406Y-77924905D01*
X156533587Y-77983583D01*
X156533583Y-77983587D01*
X156474905Y-78071406D01*
X156474903Y-78071409D01*
X156459500Y-78148850D01*
X156459500Y-78571148D01*
X156459501Y-78571149D01*
X156474903Y-78648588D01*
X156474904Y-78648590D01*
X156474905Y-78648593D01*
X156533585Y-78736415D01*
X156621406Y-78795094D01*
X156621409Y-78795096D01*
X156667789Y-78804321D01*
X156698853Y-78810500D01*
X157021146Y-78810499D01*
X157021148Y-78810499D01*
X157021148Y-78810498D01*
X157098593Y-78795095D01*
X157186415Y-78736415D01*
X157245095Y-78648593D01*
X157249015Y-78628889D01*
X157251678Y-78615499D01*
X157260500Y-78571147D01*
X157260499Y-78148854D01*
X157260499Y-78148853D01*
X157260499Y-78148851D01*
X157260498Y-78148850D01*
X157259882Y-78145755D01*
X157245095Y-78071407D01*
X157186415Y-77983585D01*
X157098593Y-77924905D01*
X157095008Y-77923420D01*
X157060372Y-77888783D01*
X157055500Y-77864292D01*
X157055500Y-77533616D01*
X157055500Y-77533613D01*
X157040467Y-77497320D01*
X157040467Y-77448339D01*
X157046375Y-77437283D01*
X157066401Y-77407314D01*
X157080500Y-77336435D01*
X157080499Y-77063566D01*
X157080499Y-77063565D01*
X157080499Y-77063562D01*
X157066402Y-76992689D01*
X157066401Y-76992685D01*
X157012694Y-76912308D01*
X157012693Y-76912307D01*
X156932315Y-76858599D01*
X156861437Y-76844500D01*
X156861435Y-76844500D01*
X156747000Y-76844500D01*
X156701745Y-76825755D01*
X156683000Y-76780500D01*
X156683000Y-76038613D01*
X156682999Y-76038610D01*
X156663071Y-75990500D01*
X156653237Y-75966758D01*
X156598242Y-75911763D01*
X156359244Y-75672765D01*
X156340499Y-75627510D01*
X156340499Y-75318851D01*
X156340498Y-75318850D01*
X156337879Y-75305684D01*
X156329241Y-75262251D01*
X156325096Y-75241411D01*
X156325095Y-75241409D01*
X156325095Y-75241407D01*
X156266415Y-75153585D01*
X156178593Y-75094905D01*
X156178590Y-75094903D01*
X156101149Y-75079500D01*
X155778851Y-75079500D01*
X155778850Y-75079501D01*
X155701411Y-75094903D01*
X155701405Y-75094906D01*
X155613587Y-75153583D01*
X155613583Y-75153587D01*
X155554905Y-75241406D01*
X155554903Y-75241409D01*
X155539500Y-75318850D01*
X155390500Y-75318850D01*
X155390500Y-75305684D01*
X155384068Y-75256827D01*
X155334065Y-75149596D01*
X155334063Y-75149594D01*
X155334062Y-75149591D01*
X155332070Y-75146746D01*
X155320500Y-75110043D01*
X155320500Y-74544500D01*
X155339245Y-74499245D01*
X155384500Y-74480500D01*
X158857597Y-74480500D01*
X158902852Y-74499245D01*
X159905397Y-75501790D01*
X159924142Y-75547045D01*
X159905397Y-75592300D01*
X159860142Y-75611045D01*
X159834292Y-75605592D01*
X159815331Y-75597220D01*
X159815329Y-75597219D01*
X159791897Y-75594501D01*
X159791880Y-75594500D01*
X159408120Y-75594500D01*
X159408119Y-75594500D01*
X159408102Y-75594501D01*
X159384670Y-75597219D01*
X159288733Y-75639580D01*
X159214580Y-75713733D01*
X159172219Y-75809670D01*
X159169501Y-75833102D01*
X159169500Y-75833121D01*
X159169500Y-77167510D01*
X159150755Y-77212765D01*
X158331060Y-78032459D01*
X158285805Y-78051204D01*
X158240550Y-78032459D01*
X158232591Y-78022761D01*
X158231688Y-78021409D01*
X158206415Y-77983585D01*
X158118593Y-77924905D01*
X158118590Y-77924903D01*
X158041149Y-77909500D01*
X157718851Y-77909500D01*
X157718850Y-77909501D01*
X157641411Y-77924903D01*
X157641405Y-77924906D01*
X157553587Y-77983583D01*
X157553583Y-77983587D01*
X157494905Y-78071406D01*
X157494903Y-78071409D01*
X157479500Y-78148850D01*
X157479500Y-78571148D01*
X157479501Y-78571149D01*
X157494903Y-78648588D01*
X157494904Y-78648590D01*
X157494905Y-78648593D01*
X157553585Y-78736415D01*
X157641406Y-78795094D01*
X157641409Y-78795096D01*
X157687789Y-78804321D01*
X157718853Y-78810500D01*
X158041146Y-78810499D01*
X158041148Y-78810499D01*
X158041148Y-78810498D01*
X158118593Y-78795095D01*
X158206415Y-78736415D01*
X158265095Y-78648593D01*
X158266988Y-78639078D01*
X158273817Y-78604747D01*
X158301030Y-78564019D01*
X158313461Y-78558873D01*
X158313063Y-78557913D01*
X158343543Y-78545287D01*
X158390742Y-78525737D01*
X159492234Y-77424245D01*
X159537489Y-77405500D01*
X159791879Y-77405500D01*
X159791880Y-77405500D01*
X159793047Y-77405364D01*
X159815329Y-77402780D01*
X159815330Y-77402779D01*
X159815333Y-77402779D01*
X159911267Y-77360420D01*
X159985420Y-77286267D01*
X160002566Y-77247433D01*
X160037992Y-77213607D01*
X160086962Y-77214738D01*
X160118609Y-77245176D01*
X160160802Y-77331483D01*
X160180755Y-77351436D01*
X160199500Y-77396691D01*
X160199500Y-77912450D01*
X160180755Y-77957705D01*
X160156777Y-77981682D01*
X160156776Y-77981683D01*
X160156776Y-77981684D01*
X160151087Y-77993882D01*
X160106027Y-78090514D01*
X160099500Y-78140093D01*
X160099500Y-78559897D01*
X160106027Y-78609485D01*
X160106028Y-78609487D01*
X160156776Y-78718316D01*
X160156777Y-78718317D01*
X160160755Y-78722295D01*
X160179500Y-78767550D01*
X160179500Y-79032450D01*
X160160755Y-79077705D01*
X160156777Y-79081682D01*
X160106027Y-79190514D01*
X160099500Y-79240093D01*
X160099500Y-79659897D01*
X160106027Y-79709485D01*
X160106028Y-79709487D01*
X160156776Y-79818316D01*
X160156777Y-79818317D01*
X160241682Y-79903222D01*
X160241684Y-79903224D01*
X160350513Y-79953972D01*
X160400099Y-79960500D01*
X160759900Y-79960499D01*
X160809487Y-79953972D01*
X160918316Y-79903224D01*
X161003224Y-79818316D01*
X161053972Y-79709487D01*
X161060500Y-79659901D01*
X161060499Y-79240100D01*
X161053972Y-79190513D01*
X161003224Y-79081684D01*
X160999245Y-79077705D01*
X160980500Y-79032450D01*
X160980500Y-78814500D01*
X160999245Y-78769245D01*
X161044500Y-78750500D01*
X162085500Y-78750500D01*
X162130755Y-78769245D01*
X162149500Y-78814500D01*
X162149500Y-79654275D01*
X162152352Y-79684694D01*
X162152353Y-79684696D01*
X162197206Y-79812881D01*
X162277084Y-79921113D01*
X162277850Y-79922150D01*
X162277853Y-79922152D01*
X162277854Y-79922153D01*
X162321362Y-79954263D01*
X162387118Y-80002793D01*
X162515301Y-80047646D01*
X162515303Y-80047646D01*
X162515305Y-80047647D01*
X162542970Y-80050240D01*
X162545734Y-80050500D01*
X162545736Y-80050500D01*
X163954264Y-80050500D01*
X163954266Y-80050500D01*
X163961180Y-80049851D01*
X163984694Y-80047647D01*
X163984695Y-80047646D01*
X163984699Y-80047646D01*
X164112882Y-80002793D01*
X164222150Y-79922150D01*
X164302793Y-79812882D01*
X164347646Y-79684699D01*
X164347646Y-79684695D01*
X164347647Y-79684694D01*
X164350499Y-79654275D01*
X164350500Y-79654264D01*
X164350500Y-77545736D01*
X164350499Y-77545724D01*
X164347647Y-77515305D01*
X164347646Y-77515303D01*
X164347646Y-77515301D01*
X164302793Y-77387118D01*
X164222150Y-77277850D01*
X164135103Y-77213607D01*
X164112881Y-77197206D01*
X163984696Y-77152353D01*
X163984694Y-77152352D01*
X163954275Y-77149500D01*
X163954266Y-77149500D01*
X162545734Y-77149500D01*
X162545724Y-77149500D01*
X162515305Y-77152352D01*
X162515303Y-77152353D01*
X162387118Y-77197206D01*
X162277854Y-77277846D01*
X162277846Y-77277854D01*
X162197206Y-77387118D01*
X162152353Y-77515303D01*
X162152352Y-77515305D01*
X162149500Y-77545724D01*
X162149500Y-77885500D01*
X162130755Y-77930755D01*
X162085500Y-77949500D01*
X161064500Y-77949500D01*
X161019245Y-77930755D01*
X161000500Y-77885500D01*
X161000500Y-77396691D01*
X161019245Y-77351436D01*
X161039198Y-77331483D01*
X161090573Y-77226393D01*
X161094107Y-77202141D01*
X161100500Y-77158261D01*
X161100500Y-76670908D01*
X161102681Y-76654343D01*
X161125499Y-76569187D01*
X161125500Y-76569180D01*
X161125500Y-76430815D01*
X161102681Y-76345654D01*
X161100500Y-76329090D01*
X161100500Y-75841738D01*
X161090574Y-75773612D01*
X161090573Y-75773610D01*
X161090573Y-75773607D01*
X161039198Y-75668517D01*
X161019245Y-75648564D01*
X161000500Y-75603309D01*
X161000500Y-75577271D01*
X160975388Y-75483553D01*
X160973207Y-75475413D01*
X160973207Y-75475412D01*
X160920480Y-75384087D01*
X159295913Y-73759520D01*
X159204588Y-73706793D01*
X159204586Y-73706792D01*
X159204584Y-73706791D01*
X159102728Y-73679500D01*
X159102727Y-73679500D01*
X154982727Y-73679500D01*
X148922727Y-73679500D01*
X148817273Y-73679500D01*
X148817272Y-73679500D01*
X148715416Y-73706791D01*
X148715415Y-73706791D01*
X148624085Y-73759521D01*
X147429521Y-74954085D01*
X147376792Y-75045413D01*
X147372226Y-75062456D01*
X147367659Y-75079501D01*
X147349500Y-75147271D01*
X147349500Y-75603309D01*
X147330755Y-75648564D01*
X147310801Y-75668517D01*
X147268609Y-75754823D01*
X147231892Y-75787246D01*
X147183003Y-75784211D01*
X147152566Y-75752566D01*
X147135420Y-75713733D01*
X147061267Y-75639580D01*
X147015312Y-75619288D01*
X146983649Y-75605308D01*
X146949822Y-75569880D01*
X146945500Y-75546761D01*
X146945500Y-75011113D01*
X146945499Y-75011110D01*
X146921878Y-74954085D01*
X146915737Y-74939258D01*
X146860742Y-74884263D01*
X146857097Y-74880618D01*
X146857090Y-74880612D01*
X145950742Y-73974263D01*
X145878889Y-73944500D01*
X145878887Y-73944500D01*
X142808887Y-73944500D01*
X142731113Y-73944500D01*
X142731110Y-73944500D01*
X142659257Y-73974263D01*
X141784263Y-74849257D01*
X141754500Y-74921110D01*
X141754500Y-75133864D01*
X141735755Y-75179119D01*
X141702986Y-75196634D01*
X141661410Y-75204903D01*
X141661405Y-75204906D01*
X141573587Y-75263583D01*
X141573583Y-75263587D01*
X141514905Y-75351406D01*
X141514903Y-75351409D01*
X141499500Y-75428850D01*
X141499500Y-75751148D01*
X141499501Y-75751149D01*
X141514903Y-75828588D01*
X141514904Y-75828590D01*
X141514905Y-75828593D01*
X141573585Y-75916415D01*
X141661406Y-75975094D01*
X141661409Y-75975096D01*
X141707789Y-75984321D01*
X141738853Y-75990500D01*
X142161146Y-75990499D01*
X142161148Y-75990499D01*
X142161148Y-75990498D01*
X142238593Y-75975095D01*
X142326415Y-75916415D01*
X142385095Y-75828593D01*
X142400500Y-75751147D01*
X142400499Y-75428854D01*
X142400499Y-75428853D01*
X142400499Y-75428851D01*
X142400498Y-75428850D01*
X142385096Y-75351411D01*
X142385095Y-75351409D01*
X142385095Y-75351407D01*
X142326415Y-75263585D01*
X142238593Y-75204905D01*
X142238590Y-75204903D01*
X142197013Y-75196633D01*
X142181491Y-75186261D01*
X142164245Y-75179118D01*
X142161736Y-75173061D01*
X142156285Y-75169419D01*
X142145500Y-75133863D01*
X142145500Y-75067489D01*
X142164245Y-75022234D01*
X142832234Y-74354245D01*
X142877489Y-74335500D01*
X142923511Y-74335500D01*
X142968766Y-74354245D01*
X142987511Y-74399500D01*
X142968766Y-74444755D01*
X142784263Y-74629257D01*
X142754500Y-74701110D01*
X142754500Y-76783864D01*
X142735755Y-76829119D01*
X142702986Y-76846634D01*
X142661410Y-76854903D01*
X142661408Y-76854904D01*
X142591167Y-76901837D01*
X142572856Y-76905478D01*
X142555611Y-76912622D01*
X142549554Y-76910113D01*
X142543124Y-76911392D01*
X142510356Y-76893877D01*
X142419244Y-76802765D01*
X142400499Y-76757512D01*
X142400499Y-76448854D01*
X142400499Y-76448851D01*
X142400498Y-76448850D01*
X142393479Y-76413562D01*
X142385095Y-76371407D01*
X142326415Y-76283585D01*
X142238593Y-76224905D01*
X142238590Y-76224903D01*
X142161149Y-76209500D01*
X141738851Y-76209500D01*
X141738850Y-76209501D01*
X141661408Y-76224904D01*
X141661406Y-76224904D01*
X141625771Y-76248715D01*
X141590216Y-76259500D01*
X141503856Y-76259500D01*
X141503854Y-76259500D01*
X141503849Y-76259501D01*
X141414713Y-76283384D01*
X141414712Y-76283385D01*
X141334787Y-76329531D01*
X141269531Y-76394787D01*
X141223385Y-76474712D01*
X141223384Y-76474713D01*
X141199501Y-76563849D01*
X141199500Y-76563858D01*
X141199500Y-76657510D01*
X141180755Y-76702765D01*
X141089258Y-76794263D01*
X141034263Y-76849257D01*
X141004500Y-76921110D01*
X141004500Y-78917511D01*
X140985755Y-78962766D01*
X140684263Y-79264257D01*
X140654500Y-79336110D01*
X140654500Y-79626041D01*
X140649629Y-79650531D01*
X140649500Y-79650840D01*
X140423127Y-79650840D01*
X140423127Y-75774173D01*
X140441872Y-75728918D01*
X141231533Y-74939257D01*
X142021286Y-74149504D01*
X142021285Y-74149504D01*
X142085962Y-74084829D01*
X142221664Y-73907980D01*
X142333121Y-73714931D01*
X142418426Y-73508986D01*
X142476118Y-73293676D01*
X142476121Y-73293662D01*
X142505215Y-73072666D01*
X142505216Y-73072661D01*
X142505215Y-72961205D01*
X142505215Y-72934276D01*
X142505215Y-71729062D01*
X142523960Y-71683807D01*
X142720492Y-71487275D01*
X142765747Y-71468530D01*
X149805515Y-71468530D01*
X149850770Y-71487275D01*
G37*
%TD.AperFunction*%
%TA.AperFunction,Conductor*%
G36*
X165098758Y-97374531D02*
G01*
X165117699Y-97378297D01*
X165120953Y-97383167D01*
X165126412Y-97385291D01*
X165134186Y-97402967D01*
X165144916Y-97419023D01*
X165145975Y-97429772D01*
X165146132Y-97430129D01*
X165146035Y-97430378D01*
X165146147Y-97431514D01*
X165146147Y-102219265D01*
X165127402Y-102264520D01*
X164324436Y-103067486D01*
X164309137Y-103104421D01*
X164309137Y-106496000D01*
X164290392Y-106541255D01*
X164245137Y-106560000D01*
X160343953Y-106560000D01*
X160298698Y-106541255D01*
X160279953Y-106496047D01*
X160279879Y-106395417D01*
X160279470Y-105835042D01*
X160279469Y-105835042D01*
X148494547Y-105843646D01*
X148449278Y-105824934D01*
X148430500Y-105779693D01*
X148430500Y-103912403D01*
X148449245Y-103867148D01*
X149217148Y-103099245D01*
X149262403Y-103080500D01*
X150984264Y-103080500D01*
X150984266Y-103080500D01*
X150991180Y-103079851D01*
X151014694Y-103077647D01*
X151014695Y-103077646D01*
X151014699Y-103077646D01*
X151142882Y-103032793D01*
X151252150Y-102952150D01*
X151332793Y-102842882D01*
X151360786Y-102762882D01*
X151365867Y-102748362D01*
X151398507Y-102711838D01*
X151426276Y-102705500D01*
X151472728Y-102705500D01*
X151551941Y-102684275D01*
X151574588Y-102678207D01*
X151665913Y-102625480D01*
X152872147Y-101419244D01*
X152917402Y-101400500D01*
X154254264Y-101400500D01*
X154254266Y-101400500D01*
X154261180Y-101399851D01*
X154284694Y-101397647D01*
X154284695Y-101397646D01*
X154284699Y-101397646D01*
X154412882Y-101352793D01*
X154522150Y-101272150D01*
X154602793Y-101162882D01*
X154635867Y-101068362D01*
X154645493Y-101057590D01*
X154651021Y-101044245D01*
X154661179Y-101040037D01*
X154668507Y-101031838D01*
X154696276Y-101025500D01*
X154803724Y-101025500D01*
X154848979Y-101044245D01*
X154864133Y-101068362D01*
X154897206Y-101162881D01*
X154897207Y-101162882D01*
X154977850Y-101272150D01*
X155087118Y-101352793D01*
X155215301Y-101397646D01*
X155215303Y-101397646D01*
X155215305Y-101397647D01*
X155242970Y-101400240D01*
X155245734Y-101400500D01*
X155245736Y-101400500D01*
X157554264Y-101400500D01*
X157554266Y-101400500D01*
X157561180Y-101399851D01*
X157584694Y-101397647D01*
X157584695Y-101397646D01*
X157584699Y-101397646D01*
X157712882Y-101352793D01*
X157822150Y-101272150D01*
X157902793Y-101162882D01*
X157935867Y-101068362D01*
X157945493Y-101057590D01*
X157951021Y-101044245D01*
X157961179Y-101040037D01*
X157968507Y-101031838D01*
X157996276Y-101025500D01*
X158103724Y-101025500D01*
X158148979Y-101044245D01*
X158164133Y-101068362D01*
X158197206Y-101162881D01*
X158197207Y-101162882D01*
X158277850Y-101272150D01*
X158387118Y-101352793D01*
X158515301Y-101397646D01*
X158515303Y-101397646D01*
X158515305Y-101397647D01*
X158542970Y-101400240D01*
X158545734Y-101400500D01*
X159882598Y-101400500D01*
X159927853Y-101419245D01*
X160302280Y-101793672D01*
X160302285Y-101793678D01*
X160304520Y-101795913D01*
X160379087Y-101870480D01*
X160470413Y-101923207D01*
X160532747Y-101939909D01*
X160572268Y-101950500D01*
X160572270Y-101950500D01*
X160572273Y-101950501D01*
X160572276Y-101950501D01*
X160681644Y-101950501D01*
X160681660Y-101950500D01*
X161985500Y-101950500D01*
X162030755Y-101969245D01*
X162049500Y-102014500D01*
X162049500Y-102604275D01*
X162052352Y-102634694D01*
X162052353Y-102634696D01*
X162097206Y-102762881D01*
X162156248Y-102842881D01*
X162177850Y-102872150D01*
X162177853Y-102872152D01*
X162177854Y-102872153D01*
X162286240Y-102952145D01*
X162287118Y-102952793D01*
X162415301Y-102997646D01*
X162415303Y-102997646D01*
X162415305Y-102997647D01*
X162442970Y-103000240D01*
X162445734Y-103000500D01*
X162445736Y-103000500D01*
X163854264Y-103000500D01*
X163854266Y-103000500D01*
X163861180Y-102999851D01*
X163884694Y-102997647D01*
X163884695Y-102997646D01*
X163884699Y-102997646D01*
X164012882Y-102952793D01*
X164122150Y-102872150D01*
X164202793Y-102762882D01*
X164247646Y-102634699D01*
X164247646Y-102634695D01*
X164247647Y-102634694D01*
X164250499Y-102604275D01*
X164250500Y-102604264D01*
X164250500Y-100495736D01*
X164250499Y-100495724D01*
X164247647Y-100465305D01*
X164247646Y-100465303D01*
X164247646Y-100465301D01*
X164202793Y-100337118D01*
X164122150Y-100227850D01*
X164109023Y-100218162D01*
X164012881Y-100147206D01*
X163884696Y-100102353D01*
X163884694Y-100102352D01*
X163854275Y-100099500D01*
X163854266Y-100099500D01*
X162445734Y-100099500D01*
X162445724Y-100099500D01*
X162415305Y-100102352D01*
X162415303Y-100102353D01*
X162287118Y-100147206D01*
X162177854Y-100227846D01*
X162177846Y-100227854D01*
X162097206Y-100337118D01*
X162052353Y-100465303D01*
X162052352Y-100465305D01*
X162049500Y-100495724D01*
X162049500Y-101085500D01*
X162030755Y-101130755D01*
X161985500Y-101149500D01*
X161297675Y-101149500D01*
X161252420Y-101130755D01*
X161233675Y-101085500D01*
X161237267Y-101064362D01*
X161247645Y-101034703D01*
X161247647Y-101034694D01*
X161250499Y-101004275D01*
X161250500Y-101004264D01*
X161250500Y-100245736D01*
X161250499Y-100245720D01*
X161247647Y-100215305D01*
X161247646Y-100215303D01*
X161247646Y-100215301D01*
X161202793Y-100087118D01*
X161156877Y-100024904D01*
X161122153Y-99977854D01*
X161122152Y-99977853D01*
X161122150Y-99977850D01*
X161085089Y-99950498D01*
X161012881Y-99897206D01*
X160884696Y-99852353D01*
X160884694Y-99852352D01*
X160854275Y-99849500D01*
X160854266Y-99849500D01*
X160814500Y-99849500D01*
X160769245Y-99830755D01*
X160750500Y-99785500D01*
X160750500Y-98779500D01*
X160769245Y-98734245D01*
X160814500Y-98715500D01*
X161035500Y-98715500D01*
X161080755Y-98734245D01*
X161099500Y-98779500D01*
X161099500Y-98819749D01*
X161111133Y-98878231D01*
X161111133Y-98878232D01*
X161123828Y-98897230D01*
X161155448Y-98944552D01*
X161221769Y-98988867D01*
X161255387Y-98995554D01*
X161280250Y-99000500D01*
X161536816Y-99000500D01*
X161582071Y-99019245D01*
X161600816Y-99064500D01*
X161582071Y-99109755D01*
X161572372Y-99117714D01*
X161563587Y-99123583D01*
X161563583Y-99123587D01*
X161504905Y-99211406D01*
X161504903Y-99211409D01*
X161489500Y-99288850D01*
X161489500Y-99711148D01*
X161489501Y-99711149D01*
X161504903Y-99788588D01*
X161504904Y-99788590D01*
X161504905Y-99788593D01*
X161563585Y-99876415D01*
X161651406Y-99935094D01*
X161651409Y-99935096D01*
X161697789Y-99944321D01*
X161728853Y-99950500D01*
X162051146Y-99950499D01*
X162051148Y-99950499D01*
X162051148Y-99950498D01*
X162128593Y-99935095D01*
X162216415Y-99876415D01*
X162275095Y-99788593D01*
X162275711Y-99785500D01*
X162283051Y-99748594D01*
X162290500Y-99711147D01*
X162290499Y-99288854D01*
X162290499Y-99288853D01*
X162290499Y-99288851D01*
X162290498Y-99288850D01*
X162289672Y-99284699D01*
X162275095Y-99211407D01*
X162216415Y-99123585D01*
X162148943Y-99078502D01*
X162145301Y-99073051D01*
X162139245Y-99070543D01*
X162132100Y-99053295D01*
X162121730Y-99037774D01*
X162120500Y-99025288D01*
X162120500Y-98956749D01*
X162139245Y-98911494D01*
X162184500Y-98892749D01*
X162220054Y-98903534D01*
X162249081Y-98922929D01*
X162249083Y-98922929D01*
X162249084Y-98922930D01*
X162274340Y-98927953D01*
X162287145Y-98930500D01*
X162662854Y-98930499D01*
X162700919Y-98922929D01*
X162744086Y-98894086D01*
X162772929Y-98850919D01*
X162780500Y-98812855D01*
X162780499Y-98394498D01*
X162799244Y-98349244D01*
X162844499Y-98330499D01*
X163012852Y-98330499D01*
X163012854Y-98330499D01*
X163050919Y-98322929D01*
X163094086Y-98294086D01*
X163122929Y-98250919D01*
X163123341Y-98248851D01*
X163127518Y-98227846D01*
X163130500Y-98212855D01*
X163130499Y-97787146D01*
X163122929Y-97749081D01*
X163094086Y-97705914D01*
X163094085Y-97705913D01*
X163094084Y-97705912D01*
X163090043Y-97703212D01*
X163084864Y-97695460D01*
X163076593Y-97691160D01*
X163071755Y-97675841D01*
X163062830Y-97662483D01*
X163064649Y-97653339D01*
X163061842Y-97644450D01*
X163068735Y-97632800D01*
X163072388Y-97614441D01*
X163084440Y-97600991D01*
X163087117Y-97598741D01*
X163094086Y-97594086D01*
X163095907Y-97591359D01*
X163102894Y-97585492D01*
X163118233Y-97580647D01*
X163131617Y-97571720D01*
X163144055Y-97570500D01*
X163447511Y-97570500D01*
X163492766Y-97589245D01*
X163599258Y-97695737D01*
X163650065Y-97716782D01*
X163671110Y-97725499D01*
X163671113Y-97725500D01*
X164658887Y-97725500D01*
X164730742Y-97695737D01*
X164970740Y-97455737D01*
X164970742Y-97455737D01*
X165025737Y-97400742D01*
X165027821Y-97395710D01*
X165035924Y-97387249D01*
X165053600Y-97379474D01*
X165069656Y-97368745D01*
X165075400Y-97369887D01*
X165080762Y-97367529D01*
X165098758Y-97374531D01*
G37*
%TD.AperFunction*%
%TA.AperFunction,Conductor*%
G36*
X161710556Y-95697188D02*
G01*
X161730151Y-95710280D01*
X161749081Y-95722929D01*
X161749082Y-95722929D01*
X161749084Y-95722930D01*
X161787140Y-95730499D01*
X161787145Y-95730500D01*
X162035500Y-95730499D01*
X162080755Y-95749244D01*
X162099500Y-95794499D01*
X162099500Y-95919749D01*
X162111133Y-95978231D01*
X162111133Y-95978232D01*
X162155448Y-96044552D01*
X162165469Y-96051248D01*
X162192682Y-96091977D01*
X162183127Y-96140017D01*
X162177070Y-96149081D01*
X162177069Y-96149084D01*
X162169500Y-96187140D01*
X162169500Y-96462852D01*
X162177071Y-96500920D01*
X162202679Y-96539245D01*
X162205914Y-96544086D01*
X162249081Y-96572929D01*
X162249082Y-96572929D01*
X162249084Y-96572930D01*
X162264083Y-96575913D01*
X162287145Y-96580500D01*
X163012854Y-96580499D01*
X163050919Y-96572929D01*
X163094086Y-96544086D01*
X163094087Y-96544084D01*
X163094089Y-96544083D01*
X163098546Y-96539627D01*
X163101037Y-96542118D01*
X163131617Y-96521720D01*
X163144055Y-96520500D01*
X163534451Y-96520500D01*
X163579706Y-96539245D01*
X163598451Y-96584500D01*
X163597783Y-96593721D01*
X163594500Y-96616258D01*
X163594500Y-96616263D01*
X163594500Y-97115500D01*
X163575755Y-97160755D01*
X163530500Y-97179500D01*
X163144055Y-97179500D01*
X163098800Y-97160755D01*
X163098211Y-97160038D01*
X163094087Y-97155915D01*
X163050919Y-97127071D01*
X163050915Y-97127069D01*
X163012858Y-97119500D01*
X162287147Y-97119500D01*
X162249079Y-97127071D01*
X162205913Y-97155914D01*
X162205912Y-97155915D01*
X162177071Y-97199080D01*
X162177069Y-97199084D01*
X162169500Y-97237140D01*
X162169500Y-97512852D01*
X162177071Y-97550920D01*
X162202679Y-97589245D01*
X162205914Y-97594086D01*
X162209950Y-97596783D01*
X162237167Y-97637508D01*
X162227615Y-97685551D01*
X162209958Y-97703210D01*
X162205918Y-97705909D01*
X162205912Y-97705915D01*
X162177071Y-97749080D01*
X162177069Y-97749084D01*
X162169500Y-97787141D01*
X162169500Y-97912728D01*
X162150755Y-97957983D01*
X162105500Y-97976728D01*
X162093015Y-97975498D01*
X162062859Y-97969500D01*
X161787146Y-97969500D01*
X161770016Y-97972907D01*
X161766982Y-97973510D01*
X161718941Y-97963953D01*
X161691729Y-97923223D01*
X161690500Y-97910740D01*
X161690500Y-97731483D01*
X161709245Y-97686228D01*
X161764974Y-97630499D01*
X161835080Y-97560393D01*
X161875500Y-97462811D01*
X161875500Y-97357188D01*
X161875500Y-96347189D01*
X161856148Y-96300469D01*
X161839952Y-96261367D01*
X161839951Y-96261367D01*
X161835080Y-96249607D01*
X161835080Y-96249606D01*
X161460394Y-95874920D01*
X161460393Y-95874919D01*
X161408989Y-95853627D01*
X161374353Y-95818990D01*
X161374353Y-95770007D01*
X161408990Y-95735371D01*
X161433478Y-95730499D01*
X161562854Y-95730499D01*
X161600919Y-95722929D01*
X161639443Y-95697187D01*
X161687485Y-95687632D01*
X161710556Y-95697188D01*
G37*
%TD.AperFunction*%
%TA.AperFunction,Conductor*%
G36*
X160153214Y-94390011D02*
G01*
X160162770Y-94413081D01*
X160175195Y-94475543D01*
X160175195Y-94475545D01*
X160234981Y-94565019D01*
X160234982Y-94565020D01*
X160260822Y-94582286D01*
X160288036Y-94623014D01*
X160278480Y-94671056D01*
X160237752Y-94698270D01*
X160225266Y-94699500D01*
X160130250Y-94699500D01*
X160071768Y-94711133D01*
X160071767Y-94711133D01*
X160005448Y-94755448D01*
X159961133Y-94821767D01*
X159961133Y-94821768D01*
X159949500Y-94880250D01*
X159949500Y-95919749D01*
X159961133Y-95978231D01*
X159961133Y-95978232D01*
X159975381Y-95999554D01*
X160005448Y-96044552D01*
X160071769Y-96088867D01*
X160110844Y-96096639D01*
X160130250Y-96100500D01*
X160130252Y-96100500D01*
X160569750Y-96100500D01*
X160596624Y-96095153D01*
X160624007Y-96089707D01*
X160672049Y-96099262D01*
X160681748Y-96107222D01*
X160899606Y-96325080D01*
X160899607Y-96325080D01*
X160899608Y-96325081D01*
X160902725Y-96326372D01*
X160937362Y-96361009D01*
X160937361Y-96409992D01*
X160902724Y-96444629D01*
X160878233Y-96449500D01*
X158452403Y-96449500D01*
X158407148Y-96430755D01*
X158159245Y-96182852D01*
X158140500Y-96137597D01*
X158140500Y-95322401D01*
X158159244Y-95277147D01*
X158707147Y-94729243D01*
X158752402Y-94710499D01*
X158849897Y-94710499D01*
X158849900Y-94710499D01*
X158899487Y-94703972D01*
X159008316Y-94653224D01*
X159093224Y-94568316D01*
X159129008Y-94491577D01*
X159165121Y-94458487D01*
X159214058Y-94460623D01*
X159240223Y-94483069D01*
X159294981Y-94565019D01*
X159384456Y-94624805D01*
X159429673Y-94633799D01*
X159463357Y-94640500D01*
X159463360Y-94640500D01*
X159796643Y-94640500D01*
X159822863Y-94635283D01*
X159875544Y-94624805D01*
X159965019Y-94565019D01*
X160024805Y-94475544D01*
X160037230Y-94413081D01*
X160064444Y-94372353D01*
X160112486Y-94362797D01*
X160153214Y-94390011D01*
G37*
%TD.AperFunction*%
%TD*%
M02*
