%TF.GenerationSoftware,KiCad,Pcbnew,10.0.3*%
%TF.CreationDate,2026-09-13T09:01:26-07:00*%
%TF.ProjectId,Eyeliner_PCB_V3,4579656c-696e-4657-925f-5043425f5633,rev?*%
%TF.SameCoordinates,Original*%
%TF.FileFunction,Paste,Bot*%
%TF.FilePolarity,Positive*%
%FSLAX46Y46*%
G04 Gerber Fmt 4.6, Leading zero omitted, Abs format (unit mm)*
G04 Created by KiCad (PCBNEW 10.0.3) date 2026-09-13 09:01:26*
%MOMM*%
%LPD*%
G01*
G04 APERTURE LIST*
G04 Aperture macros list*
%AMRoundRect*
0 Rectangle with rounded corners*
0 $1 Rounding radius*
0 $2 $3 $4 $5 $6 $7 $8 $9 X,Y pos of 4 corners*
0 Add a 4 corners polygon primitive as box body*
4,1,4,$2,$3,$4,$5,$6,$7,$8,$9,$2,$3,0*
0 Add four circle primitives for the rounded corners*
1,1,$1+$1,$2,$3*
1,1,$1+$1,$4,$5*
1,1,$1+$1,$6,$7*
1,1,$1+$1,$8,$9*
0 Add four rect primitives between the rounded corners*
20,1,$1+$1,$2,$3,$4,$5,0*
20,1,$1+$1,$4,$5,$6,$7,0*
20,1,$1+$1,$6,$7,$8,$9,0*
20,1,$1+$1,$8,$9,$2,$3,0*%
G04 Aperture macros list end*
%ADD10C,0.010000*%
%ADD11RoundRect,0.135000X-0.135000X-0.185000X0.135000X-0.185000X0.135000X0.185000X-0.135000X0.185000X0*%
%ADD12RoundRect,0.140000X0.140000X0.170000X-0.140000X0.170000X-0.140000X-0.170000X0.140000X-0.170000X0*%
%ADD13RoundRect,0.135000X0.135000X0.185000X-0.135000X0.185000X-0.135000X-0.185000X0.135000X-0.185000X0*%
%ADD14RoundRect,0.225000X0.250000X-0.225000X0.250000X0.225000X-0.250000X0.225000X-0.250000X-0.225000X0*%
%ADD15RoundRect,0.112500X-0.350000X-0.112500X0.350000X-0.112500X0.350000X0.112500X-0.350000X0.112500X0*%
%ADD16RoundRect,0.150000X-0.150000X-0.625000X0.150000X-0.625000X0.150000X0.625000X-0.150000X0.625000X0*%
%ADD17RoundRect,0.250000X-0.350000X-0.650000X0.350000X-0.650000X0.350000X0.650000X-0.350000X0.650000X0*%
%ADD18RoundRect,0.135000X-0.185000X0.135000X-0.185000X-0.135000X0.185000X-0.135000X0.185000X0.135000X0*%
%ADD19RoundRect,0.087500X0.220971X-0.097227X-0.097227X0.220971X-0.220971X0.097227X0.097227X-0.220971X0*%
%ADD20RoundRect,0.087500X0.220971X0.097227X0.097227X0.220971X-0.220971X-0.097227X-0.097227X-0.220971X0*%
%ADD21RoundRect,0.087500X-0.220971X0.097227X0.097227X-0.220971X0.220971X-0.097227X-0.097227X0.220971X0*%
%ADD22RoundRect,0.087500X-0.220971X-0.097227X-0.097227X-0.220971X0.220971X0.097227X0.097227X0.220971X0*%
%ADD23RoundRect,0.250000X-1.100000X0.325000X-1.100000X-0.325000X1.100000X-0.325000X1.100000X0.325000X0*%
%ADD24RoundRect,0.135000X0.185000X-0.135000X0.185000X0.135000X-0.185000X0.135000X-0.185000X-0.135000X0*%
%ADD25RoundRect,0.250000X-0.650000X1.000000X-0.650000X-1.000000X0.650000X-1.000000X0.650000X1.000000X0*%
%ADD26RoundRect,0.250000X0.650000X-0.325000X0.650000X0.325000X-0.650000X0.325000X-0.650000X-0.325000X0*%
%ADD27RoundRect,0.050000X0.050000X-0.437500X0.050000X0.437500X-0.050000X0.437500X-0.050000X-0.437500X0*%
%ADD28RoundRect,0.050000X0.050000X-0.337500X0.050000X0.337500X-0.050000X0.337500X-0.050000X-0.337500X0*%
%ADD29RoundRect,0.050000X0.337500X-0.050000X0.337500X0.050000X-0.337500X0.050000X-0.337500X-0.050000X0*%
%ADD30R,0.203200X0.660400*%
%ADD31RoundRect,0.140000X-0.140000X-0.170000X0.140000X-0.170000X0.140000X0.170000X-0.140000X0.170000X0*%
%ADD32RoundRect,0.140000X0.170000X-0.140000X0.170000X0.140000X-0.170000X0.140000X-0.170000X-0.140000X0*%
%ADD33RoundRect,0.150000X-0.625000X0.150000X-0.625000X-0.150000X0.625000X-0.150000X0.625000X0.150000X0*%
%ADD34RoundRect,0.250000X-0.650000X0.350000X-0.650000X-0.350000X0.650000X-0.350000X0.650000X0.350000X0*%
%ADD35RoundRect,0.150000X0.625000X-0.150000X0.625000X0.150000X-0.625000X0.150000X-0.625000X-0.150000X0*%
%ADD36RoundRect,0.250000X0.650000X-0.350000X0.650000X0.350000X-0.650000X0.350000X-0.650000X-0.350000X0*%
%ADD37RoundRect,0.437500X-0.437500X-0.562500X0.437500X-0.562500X0.437500X0.562500X-0.437500X0.562500X0*%
%ADD38R,0.700000X0.400000*%
%ADD39R,0.700000X0.250000*%
%ADD40R,0.700000X0.300000*%
%ADD41R,0.250000X0.700000*%
%ADD42R,0.400000X1.000000*%
%ADD43R,0.800000X0.400000*%
%ADD44R,2.400000X0.400000*%
%ADD45R,0.350000X0.600000*%
%ADD46R,0.400000X0.600000*%
G04 APERTURE END LIST*
D10*
%TO.C,D4*%
X152775000Y-94275000D02*
X152775000Y-93575000D01*
X152525000Y-93575000D01*
X152525000Y-94275000D01*
X152775000Y-94275000D01*
G36*
X152775000Y-94275000D02*
G01*
X152525000Y-94275000D01*
X152525000Y-93575000D01*
X152775000Y-93575000D01*
X152775000Y-94275000D01*
G37*
X153075000Y-93225000D02*
X153075000Y-92525000D01*
X152825000Y-92525000D01*
X152825000Y-93225000D01*
X153075000Y-93225000D01*
G36*
X153075000Y-93225000D02*
G01*
X152825000Y-93225000D01*
X152825000Y-92525000D01*
X153075000Y-92525000D01*
X153075000Y-93225000D01*
G37*
X153575000Y-94275000D02*
X153575000Y-93575000D01*
X153325000Y-93575000D01*
X153325000Y-94275000D01*
X153575000Y-94275000D01*
G36*
X153575000Y-94275000D02*
G01*
X153325000Y-94275000D01*
X153325000Y-93575000D01*
X153575000Y-93575000D01*
X153575000Y-94275000D01*
G37*
X153975000Y-93225000D02*
X153975000Y-92525000D01*
X153725000Y-92525000D01*
X153725000Y-93225000D01*
X153975000Y-93225000D01*
G36*
X153975000Y-93225000D02*
G01*
X153725000Y-93225000D01*
X153725000Y-92525000D01*
X153975000Y-92525000D01*
X153975000Y-93225000D01*
G37*
X154375000Y-94275000D02*
X154375000Y-93575000D01*
X154125000Y-93575000D01*
X154125000Y-94275000D01*
X154375000Y-94275000D01*
G36*
X154375000Y-94275000D02*
G01*
X154125000Y-94275000D01*
X154125000Y-93575000D01*
X154375000Y-93575000D01*
X154375000Y-94275000D01*
G37*
X154775000Y-93225000D02*
X154775000Y-92525000D01*
X154525000Y-92525000D01*
X154525000Y-93225000D01*
X154775000Y-93225000D01*
G36*
X154775000Y-93225000D02*
G01*
X154525000Y-93225000D01*
X154525000Y-92525000D01*
X154775000Y-92525000D01*
X154775000Y-93225000D01*
G37*
X155175000Y-94275000D02*
X155175000Y-93575000D01*
X154925000Y-93575000D01*
X154925000Y-94275000D01*
X155175000Y-94275000D01*
G36*
X155175000Y-94275000D02*
G01*
X154925000Y-94275000D01*
X154925000Y-93575000D01*
X155175000Y-93575000D01*
X155175000Y-94275000D01*
G37*
X155675000Y-93225000D02*
X155675000Y-92525000D01*
X155425000Y-92525000D01*
X155425000Y-93225000D01*
X155675000Y-93225000D01*
G36*
X155675000Y-93225000D02*
G01*
X155425000Y-93225000D01*
X155425000Y-92525000D01*
X155675000Y-92525000D01*
X155675000Y-93225000D01*
G37*
X155975000Y-94275000D02*
X155975000Y-93575000D01*
X155725000Y-93575000D01*
X155725000Y-94275000D01*
X155975000Y-94275000D01*
G36*
X155975000Y-94275000D02*
G01*
X155725000Y-94275000D01*
X155725000Y-93575000D01*
X155975000Y-93575000D01*
X155975000Y-94275000D01*
G37*
%TD*%
D11*
%TO.C,R26*%
X147310000Y-79200000D03*
X148330000Y-79200000D03*
%TD*%
D12*
%TO.C,C17*%
X160580000Y-78350000D03*
X159620000Y-78350000D03*
%TD*%
%TO.C,C3*%
X161530000Y-94200000D03*
X160570000Y-94200000D03*
%TD*%
D13*
%TO.C,R24*%
X157930000Y-88650000D03*
X156910000Y-88650000D03*
%TD*%
%TO.C,R2*%
X162910000Y-99500000D03*
X161890000Y-99500000D03*
%TD*%
D11*
%TO.C,R15*%
X148380000Y-100460000D03*
X149400000Y-100460000D03*
%TD*%
D14*
%TO.C,C1*%
X164200000Y-98425000D03*
X164200000Y-96875000D03*
%TD*%
D15*
%TO.C,Q1*%
X154712500Y-77850000D03*
X154712500Y-76550000D03*
X156487500Y-77200000D03*
%TD*%
D16*
%TO.C,LEDs1*%
X158600000Y-76500000D03*
X159600000Y-76500000D03*
X160600000Y-76500000D03*
D17*
X157300000Y-72625000D03*
X161900000Y-72625000D03*
%TD*%
D11*
%TO.C,R20*%
X154920000Y-75530000D03*
X155940000Y-75530000D03*
%TD*%
D18*
%TO.C,R3*%
X163950000Y-94640000D03*
X163950000Y-95660000D03*
%TD*%
D13*
%TO.C,R21*%
X157880000Y-78360000D03*
X156860000Y-78360000D03*
%TD*%
%TO.C,R23*%
X157930000Y-90650000D03*
X156910000Y-90650000D03*
%TD*%
D19*
%TO.C,U4*%
X147552342Y-82491682D03*
X147198788Y-82845235D03*
X146845235Y-83198788D03*
X146491682Y-83552342D03*
D20*
X145908318Y-83198788D03*
X145554765Y-82845235D03*
X145201212Y-82491682D03*
D19*
X144847658Y-81908318D03*
X145201212Y-81554765D03*
X145554765Y-81201212D03*
X145908318Y-80847658D03*
D20*
X146491682Y-81201212D03*
X146845235Y-81554765D03*
X147198788Y-81908318D03*
%TD*%
D21*
%TO.C,U5*%
X157697658Y-81858318D03*
X158051212Y-81504765D03*
X158404765Y-81151212D03*
X158758318Y-80797658D03*
D22*
X159341682Y-81151212D03*
X159695235Y-81504765D03*
X160048788Y-81858318D03*
D21*
X160402342Y-82441682D03*
X160048788Y-82795235D03*
X159695235Y-83148788D03*
X159341682Y-83502342D03*
D22*
X158758318Y-83148788D03*
X158404765Y-82795235D03*
X158051212Y-82441682D03*
%TD*%
D23*
%TO.C,C8*%
X156400000Y-100625000D03*
X156400000Y-103575000D03*
%TD*%
D24*
%TO.C,R29*%
X141810000Y-78580000D03*
X141810000Y-77560000D03*
%TD*%
D25*
%TO.C,D5*%
X163150000Y-101550000D03*
X163150000Y-105550000D03*
%TD*%
D26*
%TO.C,C20*%
X155950000Y-98875000D03*
X155950000Y-95925000D03*
%TD*%
D27*
%TO.C,U3*%
X143250000Y-80662500D03*
D28*
X142850000Y-80762500D03*
D29*
X142187500Y-80500000D03*
X142187499Y-80100000D03*
X142187500Y-79700000D03*
D28*
X142850000Y-79437500D03*
X143250000Y-79437500D03*
D29*
X143912500Y-79700000D03*
X143912501Y-80100000D03*
X143912500Y-80500000D03*
%TD*%
D11*
%TO.C,R17*%
X148380000Y-98460000D03*
X149400000Y-98460000D03*
%TD*%
D18*
%TO.C,R30*%
X141950000Y-75590000D03*
X141950000Y-76610000D03*
%TD*%
D25*
%TO.C,D2*%
X163250000Y-78600000D03*
X163250000Y-82600000D03*
%TD*%
D24*
%TO.C,R19*%
X153500000Y-78360000D03*
X153500000Y-77340000D03*
%TD*%
D30*
%TO.C,U7*%
X151600000Y-78154800D03*
X150799999Y-78154800D03*
X150000001Y-78154800D03*
X149200000Y-78154800D03*
X149599999Y-77545200D03*
X150400000Y-77545200D03*
X151199998Y-77545200D03*
%TD*%
D16*
%TO.C,I2C1*%
X144750000Y-76500000D03*
X145750000Y-76500000D03*
X146750000Y-76500000D03*
X147750000Y-76500000D03*
D17*
X143450000Y-72625000D03*
X149050000Y-72625000D03*
%TD*%
D12*
%TO.C,C16*%
X157900000Y-85640000D03*
X156940000Y-85640000D03*
%TD*%
D23*
%TO.C,C9*%
X149830000Y-102305000D03*
X149830000Y-105255000D03*
%TD*%
D13*
%TO.C,R14*%
X157930000Y-84630000D03*
X156910000Y-84630000D03*
%TD*%
D31*
%TO.C,C15*%
X150990000Y-97460000D03*
X151950000Y-97460000D03*
%TD*%
D32*
%TO.C,C11*%
X148280000Y-81160000D03*
X148280000Y-80200000D03*
%TD*%
D13*
%TO.C,R22*%
X157930000Y-91650000D03*
X156910000Y-91650000D03*
%TD*%
D33*
%TO.C,ESCs1*%
X159700000Y-86650000D03*
X159700000Y-87650000D03*
X159700000Y-88650000D03*
X159700000Y-89650000D03*
X159700000Y-90650000D03*
X159700000Y-91650000D03*
D34*
X163575000Y-85350000D03*
X163575000Y-92950000D03*
%TD*%
D12*
%TO.C,C18*%
X160580000Y-79450000D03*
X159620000Y-79450000D03*
%TD*%
D23*
%TO.C,C7*%
X159700000Y-100625000D03*
X159700000Y-103575000D03*
%TD*%
D35*
%TO.C,Temps1*%
X146540000Y-101460000D03*
X146540000Y-100460000D03*
X146540000Y-99460000D03*
X146540000Y-98460000D03*
D36*
X142665000Y-102760000D03*
X142665000Y-97160000D03*
%TD*%
D13*
%TO.C,R25*%
X157930000Y-87650000D03*
X156910000Y-87650000D03*
%TD*%
D24*
%TO.C,R31*%
X142950000Y-78260000D03*
X142950000Y-77240000D03*
%TD*%
D37*
%TO.C,Receiver1*%
X142707500Y-85670000D03*
X145207500Y-85670000D03*
X147707500Y-85670000D03*
X150207500Y-85670000D03*
%TD*%
D23*
%TO.C,C6*%
X153100000Y-100625000D03*
X153100000Y-103575000D03*
%TD*%
D26*
%TO.C,C19*%
X153550000Y-98875000D03*
X153550000Y-95925000D03*
%TD*%
D38*
%TO.C,U1*%
X162650000Y-95700000D03*
D39*
X162650000Y-96325000D03*
D40*
X162650000Y-96850000D03*
D39*
X162650000Y-97375000D03*
D38*
X162650000Y-98000000D03*
D41*
X161925000Y-98450000D03*
X161425000Y-98450000D03*
D42*
X160350000Y-98300000D03*
D43*
X159000000Y-98000000D03*
D44*
X159800000Y-96850000D03*
D43*
X159000000Y-95700000D03*
D42*
X160350000Y-95400000D03*
D41*
X161425000Y-95250000D03*
X161925000Y-95250000D03*
D45*
X162475000Y-95200000D03*
X162475000Y-98500000D03*
D46*
X159200000Y-98500000D03*
X159200000Y-95200000D03*
%TD*%
D11*
%TO.C,R16*%
X148380000Y-99460000D03*
X149400000Y-99460000D03*
%TD*%
D18*
%TO.C,R27*%
X143260000Y-81970000D03*
X143260000Y-82990000D03*
%TD*%
D12*
%TO.C,C14*%
X157180000Y-83620000D03*
X156220000Y-83620000D03*
%TD*%
D31*
%TO.C,C2*%
X158670000Y-94200000D03*
X159630000Y-94200000D03*
%TD*%
M02*
