%TF.GenerationSoftware,KiCad,Pcbnew,10.0.3*%
%TF.CreationDate,2026-09-13T09:01:26-07:00*%
%TF.ProjectId,Eyeliner_PCB_V3,4579656c-696e-4657-925f-5043425f5633,rev?*%
%TF.SameCoordinates,Original*%
%TF.FileFunction,Soldermask,Bot*%
%TF.FilePolarity,Negative*%
%FSLAX46Y46*%
G04 Gerber Fmt 4.6, Leading zero omitted, Abs format (unit mm)*
G04 Created by KiCad (PCBNEW 10.0.3) date 2026-09-13 09:01:26*
%MOMM*%
%LPD*%
G01*
G04 APERTURE LIST*
G04 APERTURE END LIST*
G36*
X156969017Y-106289561D02*
G01*
X157275139Y-106359431D01*
X157571514Y-106463137D01*
X157854413Y-106599374D01*
X158120280Y-106766430D01*
X158365770Y-106962202D01*
X158587798Y-107184230D01*
X158783570Y-107429720D01*
X158950626Y-107695587D01*
X159086863Y-107978486D01*
X159190569Y-108274861D01*
X159260439Y-108580983D01*
X159295595Y-108893003D01*
X159295595Y-109206997D01*
X159260439Y-109519017D01*
X159190569Y-109825139D01*
X159086863Y-110121514D01*
X158950626Y-110404413D01*
X158783570Y-110670280D01*
X158587798Y-110915770D01*
X158577340Y-110926227D01*
X158575650Y-110928186D01*
X155842827Y-114608105D01*
X155809178Y-114653088D01*
X155807984Y-114654584D01*
X155735291Y-114739962D01*
X155733826Y-114741563D01*
X155655259Y-114821476D01*
X155653694Y-114822957D01*
X155569620Y-114897035D01*
X155567954Y-114898401D01*
X155478795Y-114966277D01*
X155477031Y-114967522D01*
X155383260Y-115028835D01*
X155381405Y-115029956D01*
X155283448Y-115084427D01*
X155281549Y-115085395D01*
X155179950Y-115132717D01*
X155177976Y-115133552D01*
X155073253Y-115173484D01*
X155071251Y-115174166D01*
X154963913Y-115206513D01*
X154961872Y-115207049D01*
X154852497Y-115231633D01*
X154850402Y-115232026D01*
X154739596Y-115248716D01*
X154737453Y-115248960D01*
X154625644Y-115257687D01*
X154623724Y-115257776D01*
X154567804Y-115258582D01*
X154567270Y-115258587D01*
X150522833Y-115259893D01*
X150515749Y-115256962D01*
X150506495Y-115255123D01*
X150286182Y-115255123D01*
X149940731Y-115216200D01*
X149601810Y-115138844D01*
X149273681Y-115024027D01*
X148960471Y-114873193D01*
X148666119Y-114688239D01*
X148394326Y-114471491D01*
X148148509Y-114225674D01*
X147931761Y-113953881D01*
X147746807Y-113659529D01*
X147595973Y-113346319D01*
X147481156Y-113018190D01*
X147403800Y-112679269D01*
X147364877Y-112333818D01*
X147364877Y-111986182D01*
X147403800Y-111640731D01*
X147481156Y-111301810D01*
X147595973Y-110973681D01*
X147746807Y-110660471D01*
X147931761Y-110366119D01*
X148148509Y-110094326D01*
X148394326Y-109848509D01*
X148666119Y-109631761D01*
X148960471Y-109446807D01*
X149273681Y-109295973D01*
X149601810Y-109181156D01*
X149940731Y-109103800D01*
X150286182Y-109064877D01*
X150633818Y-109064877D01*
X150979269Y-109103800D01*
X151318190Y-109181156D01*
X151646319Y-109295973D01*
X151959529Y-109446807D01*
X151962123Y-109448437D01*
X151968473Y-109451213D01*
X151973867Y-109452664D01*
X151995541Y-109466776D01*
X152013686Y-109478590D01*
X152128519Y-109536732D01*
X152253172Y-109568803D01*
X152381806Y-109573299D01*
X152508395Y-109550011D01*
X152627007Y-109500029D01*
X152732085Y-109425695D01*
X152818707Y-109330492D01*
X152846692Y-109292092D01*
X152846692Y-109292091D01*
X152848076Y-109290193D01*
X152850168Y-109288123D01*
X154140067Y-107545016D01*
X154141324Y-107544261D01*
X154149489Y-107536255D01*
X154216430Y-107429720D01*
X154412202Y-107184230D01*
X154634230Y-106962202D01*
X154879720Y-106766430D01*
X155145587Y-106599374D01*
X155428486Y-106463137D01*
X155724861Y-106359431D01*
X156030983Y-106289561D01*
X156343003Y-106254405D01*
X156656997Y-106254405D01*
X156969017Y-106289561D01*
G37*
G36*
X148223868Y-108419182D02*
G01*
X148228282Y-108429735D01*
X148231082Y-109245197D01*
X148222665Y-109265719D01*
X146228810Y-111269604D01*
X146223544Y-111300830D01*
X146236863Y-111328486D01*
X146340569Y-111624861D01*
X146410439Y-111930983D01*
X146445595Y-112243003D01*
X146445595Y-112556997D01*
X146410439Y-112869017D01*
X146340569Y-113175139D01*
X146236863Y-113471514D01*
X146100626Y-113754413D01*
X145933570Y-114020280D01*
X145737798Y-114265770D01*
X145515770Y-114487798D01*
X145270280Y-114683570D01*
X145004413Y-114850626D01*
X144721514Y-114986863D01*
X144425139Y-115090569D01*
X144119017Y-115160439D01*
X143806997Y-115195595D01*
X143493003Y-115195595D01*
X143180983Y-115160439D01*
X142874861Y-115090569D01*
X142578486Y-114986863D01*
X142295587Y-114850626D01*
X142029720Y-114683570D01*
X141784230Y-114487798D01*
X141562202Y-114265770D01*
X141366430Y-114020280D01*
X141199374Y-113754413D01*
X141063137Y-113471514D01*
X140959431Y-113175139D01*
X140889561Y-112869017D01*
X140854405Y-112556997D01*
X140854405Y-112243003D01*
X140889561Y-111930983D01*
X140959431Y-111624861D01*
X141063137Y-111328486D01*
X141199374Y-111045587D01*
X141366430Y-110779720D01*
X141562202Y-110534230D01*
X141784230Y-110312202D01*
X142029720Y-110116430D01*
X142295587Y-109949374D01*
X142578486Y-109813137D01*
X142874861Y-109709431D01*
X143180983Y-109639561D01*
X143493003Y-109604405D01*
X143806997Y-109604405D01*
X144119017Y-109639561D01*
X144149294Y-109646471D01*
X144173933Y-109639368D01*
X145379460Y-108433009D01*
X145399887Y-108424502D01*
X148213285Y-108414841D01*
X148223868Y-108419182D01*
G37*
G36*
X162369017Y-109639561D02*
G01*
X162675139Y-109709431D01*
X162971514Y-109813137D01*
X163254413Y-109949374D01*
X163520280Y-110116430D01*
X163765770Y-110312202D01*
X163987798Y-110534230D01*
X164183570Y-110779720D01*
X164350626Y-111045587D01*
X164486863Y-111328486D01*
X164590569Y-111624861D01*
X164660439Y-111930983D01*
X164695595Y-112243003D01*
X164695595Y-112556997D01*
X164660439Y-112869017D01*
X164590569Y-113175139D01*
X164486863Y-113471514D01*
X164350626Y-113754413D01*
X164183570Y-114020280D01*
X163987798Y-114265770D01*
X163765770Y-114487798D01*
X163520280Y-114683570D01*
X163254413Y-114850626D01*
X162971514Y-114986863D01*
X162675139Y-115090569D01*
X162369017Y-115160439D01*
X162056997Y-115195595D01*
X161743003Y-115195595D01*
X161430983Y-115160439D01*
X161124861Y-115090569D01*
X160828486Y-114986863D01*
X160545587Y-114850626D01*
X160279720Y-114683570D01*
X160034230Y-114487798D01*
X159812202Y-114265770D01*
X159616430Y-114020280D01*
X159449374Y-113754413D01*
X159313137Y-113471514D01*
X159209431Y-113175139D01*
X159139561Y-112869017D01*
X159104405Y-112556997D01*
X159104405Y-112243003D01*
X159139561Y-111930983D01*
X159209431Y-111624861D01*
X159313137Y-111328486D01*
X159449374Y-111045587D01*
X159616430Y-110779720D01*
X159812202Y-110534230D01*
X160034230Y-110312202D01*
X160279720Y-110116430D01*
X160545587Y-109949374D01*
X160828486Y-109813137D01*
X161124861Y-109709431D01*
X161430983Y-109639561D01*
X161743003Y-109604405D01*
X162056997Y-109604405D01*
X162369017Y-109639561D01*
G37*
G36*
X143430000Y-108870000D02*
G01*
X143424617Y-108870000D01*
X140795383Y-108870000D01*
X140790000Y-108870000D01*
X140790000Y-103770000D01*
X143430000Y-103770000D01*
X143430000Y-108870000D01*
G37*
G36*
X148230000Y-107220000D02*
G01*
X148224617Y-107220000D01*
X145395383Y-107220000D01*
X145390000Y-107220000D01*
X145390000Y-103450000D01*
X148230000Y-103450000D01*
X148230000Y-107220000D01*
G37*
G36*
X163804047Y-104300805D02*
G01*
X163855408Y-104306764D01*
X163872954Y-104314511D01*
X163895671Y-104319030D01*
X163919991Y-104335280D01*
X163940793Y-104344465D01*
X163955000Y-104358672D01*
X163976777Y-104373223D01*
X163991327Y-104394999D01*
X164005534Y-104409206D01*
X164014718Y-104430006D01*
X164030970Y-104454329D01*
X164035489Y-104477048D01*
X164043235Y-104494591D01*
X164049192Y-104545940D01*
X164050000Y-104550000D01*
X164050000Y-106550000D01*
X164049192Y-106554059D01*
X164043235Y-106605408D01*
X164035489Y-106622950D01*
X164030970Y-106645671D01*
X164014716Y-106669995D01*
X164005534Y-106690793D01*
X163991329Y-106704997D01*
X163976777Y-106726777D01*
X163954997Y-106741329D01*
X163940793Y-106755534D01*
X163919995Y-106764716D01*
X163895671Y-106780970D01*
X163872950Y-106785489D01*
X163855408Y-106793235D01*
X163804061Y-106799192D01*
X163800000Y-106800000D01*
X162500000Y-106800000D01*
X162495941Y-106799192D01*
X162444591Y-106793235D01*
X162427048Y-106785489D01*
X162404329Y-106780970D01*
X162380006Y-106764718D01*
X162359206Y-106755534D01*
X162344999Y-106741327D01*
X162323223Y-106726777D01*
X162308672Y-106705000D01*
X162294465Y-106690793D01*
X162285280Y-106669991D01*
X162269030Y-106645671D01*
X162264511Y-106622954D01*
X162256764Y-106605408D01*
X162250805Y-106554049D01*
X162250000Y-106550000D01*
X162250000Y-104550000D01*
X162250804Y-104545953D01*
X162256764Y-104494591D01*
X162264511Y-104477043D01*
X162269030Y-104454329D01*
X162285278Y-104430010D01*
X162294465Y-104409206D01*
X162308674Y-104394996D01*
X162323223Y-104373223D01*
X162344996Y-104358674D01*
X162359206Y-104344465D01*
X162380010Y-104335278D01*
X162404329Y-104319030D01*
X162427043Y-104314511D01*
X162444591Y-104306764D01*
X162495952Y-104300805D01*
X162500000Y-104300000D01*
X163800000Y-104300000D01*
X163804047Y-104300805D01*
G37*
G36*
X150934047Y-104680805D02*
G01*
X150985408Y-104686764D01*
X151002954Y-104694511D01*
X151025671Y-104699030D01*
X151049991Y-104715280D01*
X151070793Y-104724465D01*
X151085000Y-104738672D01*
X151106777Y-104753223D01*
X151121327Y-104774999D01*
X151135534Y-104789206D01*
X151144718Y-104810006D01*
X151160970Y-104834329D01*
X151165489Y-104857048D01*
X151173235Y-104874591D01*
X151179192Y-104925940D01*
X151180000Y-104930000D01*
X151180000Y-105580000D01*
X151179192Y-105584059D01*
X151173235Y-105635408D01*
X151165489Y-105652950D01*
X151160970Y-105675671D01*
X151144716Y-105699995D01*
X151135534Y-105720793D01*
X151121329Y-105734997D01*
X151106777Y-105756777D01*
X151084997Y-105771329D01*
X151070793Y-105785534D01*
X151049995Y-105794716D01*
X151025671Y-105810970D01*
X151002950Y-105815489D01*
X150985408Y-105823235D01*
X150934061Y-105829192D01*
X150930000Y-105830000D01*
X148730000Y-105830000D01*
X148725941Y-105829192D01*
X148674591Y-105823235D01*
X148657048Y-105815489D01*
X148634329Y-105810970D01*
X148610006Y-105794718D01*
X148589206Y-105785534D01*
X148574999Y-105771327D01*
X148553223Y-105756777D01*
X148538672Y-105735000D01*
X148524465Y-105720793D01*
X148515280Y-105699991D01*
X148499030Y-105675671D01*
X148494511Y-105652954D01*
X148486764Y-105635408D01*
X148480805Y-105584049D01*
X148480000Y-105580000D01*
X148480000Y-104930000D01*
X148480804Y-104925953D01*
X148486764Y-104874591D01*
X148494511Y-104857043D01*
X148499030Y-104834329D01*
X148515278Y-104810010D01*
X148524465Y-104789206D01*
X148538674Y-104774996D01*
X148553223Y-104753223D01*
X148574996Y-104738674D01*
X148589206Y-104724465D01*
X148610010Y-104715278D01*
X148634329Y-104699030D01*
X148657043Y-104694511D01*
X148674591Y-104686764D01*
X148725952Y-104680805D01*
X148730000Y-104680000D01*
X150930000Y-104680000D01*
X150934047Y-104680805D01*
G37*
G36*
X154204047Y-103000805D02*
G01*
X154255408Y-103006764D01*
X154272954Y-103014511D01*
X154295671Y-103019030D01*
X154319991Y-103035280D01*
X154340793Y-103044465D01*
X154355000Y-103058672D01*
X154376777Y-103073223D01*
X154391327Y-103094999D01*
X154405534Y-103109206D01*
X154414718Y-103130006D01*
X154430970Y-103154329D01*
X154435489Y-103177048D01*
X154443235Y-103194591D01*
X154449192Y-103245940D01*
X154450000Y-103250000D01*
X154450000Y-103900000D01*
X154449192Y-103904059D01*
X154443235Y-103955408D01*
X154435489Y-103972950D01*
X154430970Y-103995671D01*
X154414716Y-104019995D01*
X154405534Y-104040793D01*
X154391329Y-104054997D01*
X154376777Y-104076777D01*
X154354997Y-104091329D01*
X154340793Y-104105534D01*
X154319995Y-104114716D01*
X154295671Y-104130970D01*
X154272950Y-104135489D01*
X154255408Y-104143235D01*
X154204061Y-104149192D01*
X154200000Y-104150000D01*
X152000000Y-104150000D01*
X151995941Y-104149192D01*
X151944591Y-104143235D01*
X151927048Y-104135489D01*
X151904329Y-104130970D01*
X151880006Y-104114718D01*
X151859206Y-104105534D01*
X151844999Y-104091327D01*
X151823223Y-104076777D01*
X151808672Y-104055000D01*
X151794465Y-104040793D01*
X151785280Y-104019991D01*
X151769030Y-103995671D01*
X151764511Y-103972954D01*
X151756764Y-103955408D01*
X151750805Y-103904049D01*
X151750000Y-103900000D01*
X151750000Y-103250000D01*
X151750804Y-103245953D01*
X151756764Y-103194591D01*
X151764511Y-103177043D01*
X151769030Y-103154329D01*
X151785278Y-103130010D01*
X151794465Y-103109206D01*
X151808674Y-103094996D01*
X151823223Y-103073223D01*
X151844996Y-103058674D01*
X151859206Y-103044465D01*
X151880010Y-103035278D01*
X151904329Y-103019030D01*
X151927043Y-103014511D01*
X151944591Y-103006764D01*
X151995952Y-103000805D01*
X152000000Y-103000000D01*
X154200000Y-103000000D01*
X154204047Y-103000805D01*
G37*
G36*
X157504047Y-103000805D02*
G01*
X157555408Y-103006764D01*
X157572954Y-103014511D01*
X157595671Y-103019030D01*
X157619991Y-103035280D01*
X157640793Y-103044465D01*
X157655000Y-103058672D01*
X157676777Y-103073223D01*
X157691327Y-103094999D01*
X157705534Y-103109206D01*
X157714718Y-103130006D01*
X157730970Y-103154329D01*
X157735489Y-103177048D01*
X157743235Y-103194591D01*
X157749192Y-103245940D01*
X157750000Y-103250000D01*
X157750000Y-103900000D01*
X157749192Y-103904059D01*
X157743235Y-103955408D01*
X157735489Y-103972950D01*
X157730970Y-103995671D01*
X157714716Y-104019995D01*
X157705534Y-104040793D01*
X157691329Y-104054997D01*
X157676777Y-104076777D01*
X157654997Y-104091329D01*
X157640793Y-104105534D01*
X157619995Y-104114716D01*
X157595671Y-104130970D01*
X157572950Y-104135489D01*
X157555408Y-104143235D01*
X157504061Y-104149192D01*
X157500000Y-104150000D01*
X155300000Y-104150000D01*
X155295941Y-104149192D01*
X155244591Y-104143235D01*
X155227048Y-104135489D01*
X155204329Y-104130970D01*
X155180006Y-104114718D01*
X155159206Y-104105534D01*
X155144999Y-104091327D01*
X155123223Y-104076777D01*
X155108672Y-104055000D01*
X155094465Y-104040793D01*
X155085280Y-104019991D01*
X155069030Y-103995671D01*
X155064511Y-103972954D01*
X155056764Y-103955408D01*
X155050805Y-103904049D01*
X155050000Y-103900000D01*
X155050000Y-103250000D01*
X155050804Y-103245953D01*
X155056764Y-103194591D01*
X155064511Y-103177043D01*
X155069030Y-103154329D01*
X155085278Y-103130010D01*
X155094465Y-103109206D01*
X155108674Y-103094996D01*
X155123223Y-103073223D01*
X155144996Y-103058674D01*
X155159206Y-103044465D01*
X155180010Y-103035278D01*
X155204329Y-103019030D01*
X155227043Y-103014511D01*
X155244591Y-103006764D01*
X155295952Y-103000805D01*
X155300000Y-103000000D01*
X157500000Y-103000000D01*
X157504047Y-103000805D01*
G37*
G36*
X160804047Y-103000805D02*
G01*
X160855408Y-103006764D01*
X160872954Y-103014511D01*
X160895671Y-103019030D01*
X160919991Y-103035280D01*
X160940793Y-103044465D01*
X160955000Y-103058672D01*
X160976777Y-103073223D01*
X160991327Y-103094999D01*
X161005534Y-103109206D01*
X161014718Y-103130006D01*
X161030970Y-103154329D01*
X161035489Y-103177048D01*
X161043235Y-103194591D01*
X161049192Y-103245940D01*
X161050000Y-103250000D01*
X161050000Y-103900000D01*
X161049192Y-103904059D01*
X161043235Y-103955408D01*
X161035489Y-103972950D01*
X161030970Y-103995671D01*
X161014716Y-104019995D01*
X161005534Y-104040793D01*
X160991329Y-104054997D01*
X160976777Y-104076777D01*
X160954997Y-104091329D01*
X160940793Y-104105534D01*
X160919995Y-104114716D01*
X160895671Y-104130970D01*
X160872950Y-104135489D01*
X160855408Y-104143235D01*
X160804061Y-104149192D01*
X160800000Y-104150000D01*
X158600000Y-104150000D01*
X158595941Y-104149192D01*
X158544591Y-104143235D01*
X158527048Y-104135489D01*
X158504329Y-104130970D01*
X158480006Y-104114718D01*
X158459206Y-104105534D01*
X158444999Y-104091327D01*
X158423223Y-104076777D01*
X158408672Y-104055000D01*
X158394465Y-104040793D01*
X158385280Y-104019991D01*
X158369030Y-103995671D01*
X158364511Y-103972954D01*
X158356764Y-103955408D01*
X158350805Y-103904049D01*
X158350000Y-103900000D01*
X158350000Y-103250000D01*
X158350804Y-103245953D01*
X158356764Y-103194591D01*
X158364511Y-103177043D01*
X158369030Y-103154329D01*
X158385278Y-103130010D01*
X158394465Y-103109206D01*
X158408674Y-103094996D01*
X158423223Y-103073223D01*
X158444996Y-103058674D01*
X158459206Y-103044465D01*
X158480010Y-103035278D01*
X158504329Y-103019030D01*
X158527043Y-103014511D01*
X158544591Y-103006764D01*
X158595952Y-103000805D01*
X158600000Y-103000000D01*
X160800000Y-103000000D01*
X160804047Y-103000805D01*
G37*
G36*
X143319047Y-102160805D02*
G01*
X143370408Y-102166764D01*
X143387954Y-102174511D01*
X143410671Y-102179030D01*
X143434991Y-102195280D01*
X143455793Y-102204465D01*
X143470000Y-102218672D01*
X143491777Y-102233223D01*
X143506327Y-102254999D01*
X143520534Y-102269206D01*
X143529718Y-102290006D01*
X143545970Y-102314329D01*
X143550489Y-102337048D01*
X143558235Y-102354591D01*
X143564192Y-102405940D01*
X143565000Y-102410000D01*
X143565000Y-103110000D01*
X143564192Y-103114059D01*
X143558235Y-103165408D01*
X143550489Y-103182950D01*
X143545970Y-103205671D01*
X143529716Y-103229995D01*
X143520534Y-103250793D01*
X143506329Y-103264997D01*
X143491777Y-103286777D01*
X143469997Y-103301329D01*
X143455793Y-103315534D01*
X143434995Y-103324716D01*
X143410671Y-103340970D01*
X143387950Y-103345489D01*
X143370408Y-103353235D01*
X143319061Y-103359192D01*
X143315000Y-103360000D01*
X142015000Y-103360000D01*
X142010941Y-103359192D01*
X141959591Y-103353235D01*
X141942048Y-103345489D01*
X141919329Y-103340970D01*
X141895006Y-103324718D01*
X141874206Y-103315534D01*
X141859999Y-103301327D01*
X141838223Y-103286777D01*
X141823672Y-103265000D01*
X141809465Y-103250793D01*
X141800280Y-103229991D01*
X141784030Y-103205671D01*
X141779511Y-103182954D01*
X141771764Y-103165408D01*
X141765805Y-103114049D01*
X141765000Y-103110000D01*
X141765000Y-102410000D01*
X141765804Y-102405953D01*
X141771764Y-102354591D01*
X141779511Y-102337043D01*
X141784030Y-102314329D01*
X141800278Y-102290010D01*
X141809465Y-102269206D01*
X141823674Y-102254996D01*
X141838223Y-102233223D01*
X141859996Y-102218674D01*
X141874206Y-102204465D01*
X141895010Y-102195278D01*
X141919329Y-102179030D01*
X141942043Y-102174511D01*
X141959591Y-102166764D01*
X142010952Y-102160805D01*
X142015000Y-102160000D01*
X143315000Y-102160000D01*
X143319047Y-102160805D01*
G37*
G36*
X150934047Y-101730805D02*
G01*
X150985408Y-101736764D01*
X151002954Y-101744511D01*
X151025671Y-101749030D01*
X151049991Y-101765280D01*
X151070793Y-101774465D01*
X151085000Y-101788672D01*
X151106777Y-101803223D01*
X151121327Y-101824999D01*
X151135534Y-101839206D01*
X151144718Y-101860006D01*
X151160970Y-101884329D01*
X151165489Y-101907048D01*
X151173235Y-101924591D01*
X151179192Y-101975940D01*
X151180000Y-101980000D01*
X151180000Y-102630000D01*
X151179192Y-102634059D01*
X151173235Y-102685408D01*
X151165489Y-102702950D01*
X151160970Y-102725671D01*
X151144716Y-102749995D01*
X151135534Y-102770793D01*
X151121329Y-102784997D01*
X151106777Y-102806777D01*
X151084997Y-102821329D01*
X151070793Y-102835534D01*
X151049995Y-102844716D01*
X151025671Y-102860970D01*
X151002950Y-102865489D01*
X150985408Y-102873235D01*
X150934061Y-102879192D01*
X150930000Y-102880000D01*
X148730000Y-102880000D01*
X148725941Y-102879192D01*
X148674591Y-102873235D01*
X148657048Y-102865489D01*
X148634329Y-102860970D01*
X148610006Y-102844718D01*
X148589206Y-102835534D01*
X148574999Y-102821327D01*
X148553223Y-102806777D01*
X148538672Y-102785000D01*
X148524465Y-102770793D01*
X148515280Y-102749991D01*
X148499030Y-102725671D01*
X148494511Y-102702954D01*
X148486764Y-102685408D01*
X148480805Y-102634049D01*
X148480000Y-102630000D01*
X148480000Y-101980000D01*
X148480804Y-101975953D01*
X148486764Y-101924591D01*
X148494511Y-101907043D01*
X148499030Y-101884329D01*
X148515278Y-101860010D01*
X148524465Y-101839206D01*
X148538674Y-101824996D01*
X148553223Y-101803223D01*
X148574996Y-101788674D01*
X148589206Y-101774465D01*
X148610010Y-101765278D01*
X148634329Y-101749030D01*
X148657043Y-101744511D01*
X148674591Y-101736764D01*
X148725952Y-101730805D01*
X148730000Y-101730000D01*
X150930000Y-101730000D01*
X150934047Y-101730805D01*
G37*
G36*
X163804047Y-100300805D02*
G01*
X163855408Y-100306764D01*
X163872954Y-100314511D01*
X163895671Y-100319030D01*
X163919991Y-100335280D01*
X163940793Y-100344465D01*
X163955000Y-100358672D01*
X163976777Y-100373223D01*
X163991327Y-100394999D01*
X164005534Y-100409206D01*
X164014718Y-100430006D01*
X164030970Y-100454329D01*
X164035489Y-100477048D01*
X164043235Y-100494591D01*
X164049192Y-100545940D01*
X164050000Y-100550000D01*
X164050000Y-102550000D01*
X164049192Y-102554059D01*
X164043235Y-102605408D01*
X164035489Y-102622950D01*
X164030970Y-102645671D01*
X164014716Y-102669995D01*
X164005534Y-102690793D01*
X163991329Y-102704997D01*
X163976777Y-102726777D01*
X163954997Y-102741329D01*
X163940793Y-102755534D01*
X163919995Y-102764716D01*
X163895671Y-102780970D01*
X163872950Y-102785489D01*
X163855408Y-102793235D01*
X163804061Y-102799192D01*
X163800000Y-102800000D01*
X162500000Y-102800000D01*
X162495941Y-102799192D01*
X162444591Y-102793235D01*
X162427048Y-102785489D01*
X162404329Y-102780970D01*
X162380006Y-102764718D01*
X162359206Y-102755534D01*
X162344999Y-102741327D01*
X162323223Y-102726777D01*
X162308672Y-102705000D01*
X162294465Y-102690793D01*
X162285280Y-102669991D01*
X162269030Y-102645671D01*
X162264511Y-102622954D01*
X162256764Y-102605408D01*
X162250805Y-102554049D01*
X162250000Y-102550000D01*
X162250000Y-100550000D01*
X162250804Y-100545953D01*
X162256764Y-100494591D01*
X162264511Y-100477043D01*
X162269030Y-100454329D01*
X162285278Y-100430010D01*
X162294465Y-100409206D01*
X162308674Y-100394996D01*
X162323223Y-100373223D01*
X162344996Y-100358674D01*
X162359206Y-100344465D01*
X162380010Y-100335278D01*
X162404329Y-100319030D01*
X162427043Y-100314511D01*
X162444591Y-100306764D01*
X162495952Y-100300805D01*
X162500000Y-100300000D01*
X163800000Y-100300000D01*
X163804047Y-100300805D01*
G37*
G36*
X147222403Y-101171418D02*
G01*
X147271066Y-101203934D01*
X147303582Y-101252597D01*
X147315000Y-101310000D01*
X147315000Y-101610000D01*
X147303582Y-101667403D01*
X147271066Y-101716066D01*
X147222403Y-101748582D01*
X147165000Y-101760000D01*
X145915000Y-101760000D01*
X145857597Y-101748582D01*
X145808934Y-101716066D01*
X145776418Y-101667403D01*
X145765000Y-101610000D01*
X145765000Y-101310000D01*
X145776418Y-101252597D01*
X145808934Y-101203934D01*
X145857597Y-101171418D01*
X145915000Y-101160000D01*
X147165000Y-101160000D01*
X147222403Y-101171418D01*
G37*
G36*
X154204047Y-100050805D02*
G01*
X154255408Y-100056764D01*
X154272954Y-100064511D01*
X154295671Y-100069030D01*
X154319991Y-100085280D01*
X154340793Y-100094465D01*
X154355000Y-100108672D01*
X154376777Y-100123223D01*
X154391327Y-100144999D01*
X154405534Y-100159206D01*
X154414718Y-100180006D01*
X154430970Y-100204329D01*
X154435489Y-100227048D01*
X154443235Y-100244591D01*
X154449192Y-100295940D01*
X154450000Y-100300000D01*
X154450000Y-100950000D01*
X154449192Y-100954059D01*
X154443235Y-101005408D01*
X154435489Y-101022950D01*
X154430970Y-101045671D01*
X154414716Y-101069995D01*
X154405534Y-101090793D01*
X154391329Y-101104997D01*
X154376777Y-101126777D01*
X154354997Y-101141329D01*
X154340793Y-101155534D01*
X154319995Y-101164716D01*
X154295671Y-101180970D01*
X154272950Y-101185489D01*
X154255408Y-101193235D01*
X154204061Y-101199192D01*
X154200000Y-101200000D01*
X152000000Y-101200000D01*
X151995941Y-101199192D01*
X151944591Y-101193235D01*
X151927048Y-101185489D01*
X151904329Y-101180970D01*
X151880006Y-101164718D01*
X151859206Y-101155534D01*
X151844999Y-101141327D01*
X151823223Y-101126777D01*
X151808672Y-101105000D01*
X151794465Y-101090793D01*
X151785280Y-101069991D01*
X151769030Y-101045671D01*
X151764511Y-101022954D01*
X151756764Y-101005408D01*
X151750805Y-100954049D01*
X151750000Y-100950000D01*
X151750000Y-100300000D01*
X151750804Y-100295953D01*
X151756764Y-100244591D01*
X151764511Y-100227043D01*
X151769030Y-100204329D01*
X151785278Y-100180010D01*
X151794465Y-100159206D01*
X151808674Y-100144996D01*
X151823223Y-100123223D01*
X151844996Y-100108674D01*
X151859206Y-100094465D01*
X151880010Y-100085278D01*
X151904329Y-100069030D01*
X151927043Y-100064511D01*
X151944591Y-100056764D01*
X151995952Y-100050805D01*
X152000000Y-100050000D01*
X154200000Y-100050000D01*
X154204047Y-100050805D01*
G37*
G36*
X157504047Y-100050805D02*
G01*
X157555408Y-100056764D01*
X157572954Y-100064511D01*
X157595671Y-100069030D01*
X157619991Y-100085280D01*
X157640793Y-100094465D01*
X157655000Y-100108672D01*
X157676777Y-100123223D01*
X157691327Y-100144999D01*
X157705534Y-100159206D01*
X157714718Y-100180006D01*
X157730970Y-100204329D01*
X157735489Y-100227048D01*
X157743235Y-100244591D01*
X157749192Y-100295940D01*
X157750000Y-100300000D01*
X157750000Y-100950000D01*
X157749192Y-100954059D01*
X157743235Y-101005408D01*
X157735489Y-101022950D01*
X157730970Y-101045671D01*
X157714716Y-101069995D01*
X157705534Y-101090793D01*
X157691329Y-101104997D01*
X157676777Y-101126777D01*
X157654997Y-101141329D01*
X157640793Y-101155534D01*
X157619995Y-101164716D01*
X157595671Y-101180970D01*
X157572950Y-101185489D01*
X157555408Y-101193235D01*
X157504061Y-101199192D01*
X157500000Y-101200000D01*
X155300000Y-101200000D01*
X155295941Y-101199192D01*
X155244591Y-101193235D01*
X155227048Y-101185489D01*
X155204329Y-101180970D01*
X155180006Y-101164718D01*
X155159206Y-101155534D01*
X155144999Y-101141327D01*
X155123223Y-101126777D01*
X155108672Y-101105000D01*
X155094465Y-101090793D01*
X155085280Y-101069991D01*
X155069030Y-101045671D01*
X155064511Y-101022954D01*
X155056764Y-101005408D01*
X155050805Y-100954049D01*
X155050000Y-100950000D01*
X155050000Y-100300000D01*
X155050804Y-100295953D01*
X155056764Y-100244591D01*
X155064511Y-100227043D01*
X155069030Y-100204329D01*
X155085278Y-100180010D01*
X155094465Y-100159206D01*
X155108674Y-100144996D01*
X155123223Y-100123223D01*
X155144996Y-100108674D01*
X155159206Y-100094465D01*
X155180010Y-100085278D01*
X155204329Y-100069030D01*
X155227043Y-100064511D01*
X155244591Y-100056764D01*
X155295952Y-100050805D01*
X155300000Y-100050000D01*
X157500000Y-100050000D01*
X157504047Y-100050805D01*
G37*
G36*
X160804047Y-100050805D02*
G01*
X160855408Y-100056764D01*
X160872954Y-100064511D01*
X160895671Y-100069030D01*
X160919991Y-100085280D01*
X160940793Y-100094465D01*
X160955000Y-100108672D01*
X160976777Y-100123223D01*
X160991327Y-100144999D01*
X161005534Y-100159206D01*
X161014718Y-100180006D01*
X161030970Y-100204329D01*
X161035489Y-100227048D01*
X161043235Y-100244591D01*
X161049192Y-100295940D01*
X161050000Y-100300000D01*
X161050000Y-100950000D01*
X161049192Y-100954059D01*
X161043235Y-101005408D01*
X161035489Y-101022950D01*
X161030970Y-101045671D01*
X161014716Y-101069995D01*
X161005534Y-101090793D01*
X160991329Y-101104997D01*
X160976777Y-101126777D01*
X160954997Y-101141329D01*
X160940793Y-101155534D01*
X160919995Y-101164716D01*
X160895671Y-101180970D01*
X160872950Y-101185489D01*
X160855408Y-101193235D01*
X160804061Y-101199192D01*
X160800000Y-101200000D01*
X158600000Y-101200000D01*
X158595941Y-101199192D01*
X158544591Y-101193235D01*
X158527048Y-101185489D01*
X158504329Y-101180970D01*
X158480006Y-101164718D01*
X158459206Y-101155534D01*
X158444999Y-101141327D01*
X158423223Y-101126777D01*
X158408672Y-101105000D01*
X158394465Y-101090793D01*
X158385280Y-101069991D01*
X158369030Y-101045671D01*
X158364511Y-101022954D01*
X158356764Y-101005408D01*
X158350805Y-100954049D01*
X158350000Y-100950000D01*
X158350000Y-100300000D01*
X158350804Y-100295953D01*
X158356764Y-100244591D01*
X158364511Y-100227043D01*
X158369030Y-100204329D01*
X158385278Y-100180010D01*
X158394465Y-100159206D01*
X158408674Y-100144996D01*
X158423223Y-100123223D01*
X158444996Y-100108674D01*
X158459206Y-100094465D01*
X158480010Y-100085278D01*
X158504329Y-100069030D01*
X158527043Y-100064511D01*
X158544591Y-100056764D01*
X158595952Y-100050805D01*
X158600000Y-100050000D01*
X160800000Y-100050000D01*
X160804047Y-100050805D01*
G37*
G36*
X148566662Y-100150276D02*
G01*
X148610459Y-100179541D01*
X148639724Y-100223338D01*
X148650000Y-100275000D01*
X148650000Y-100645000D01*
X148639724Y-100696662D01*
X148610459Y-100740459D01*
X148566662Y-100769724D01*
X148515000Y-100780000D01*
X148245000Y-100780000D01*
X148193338Y-100769724D01*
X148149541Y-100740459D01*
X148120276Y-100696662D01*
X148110000Y-100645000D01*
X148110000Y-100275000D01*
X148120276Y-100223338D01*
X148149541Y-100179541D01*
X148193338Y-100150276D01*
X148245000Y-100140000D01*
X148515000Y-100140000D01*
X148566662Y-100150276D01*
G37*
G36*
X149586662Y-100150276D02*
G01*
X149630459Y-100179541D01*
X149659724Y-100223338D01*
X149670000Y-100275000D01*
X149670000Y-100645000D01*
X149659724Y-100696662D01*
X149630459Y-100740459D01*
X149586662Y-100769724D01*
X149535000Y-100780000D01*
X149265000Y-100780000D01*
X149213338Y-100769724D01*
X149169541Y-100740459D01*
X149140276Y-100696662D01*
X149130000Y-100645000D01*
X149130000Y-100275000D01*
X149140276Y-100223338D01*
X149169541Y-100179541D01*
X149213338Y-100150276D01*
X149265000Y-100140000D01*
X149535000Y-100140000D01*
X149586662Y-100150276D01*
G37*
G36*
X147222403Y-100171418D02*
G01*
X147271066Y-100203934D01*
X147303582Y-100252597D01*
X147315000Y-100310000D01*
X147315000Y-100610000D01*
X147303582Y-100667403D01*
X147271066Y-100716066D01*
X147222403Y-100748582D01*
X147165000Y-100760000D01*
X145915000Y-100760000D01*
X145857597Y-100748582D01*
X145808934Y-100716066D01*
X145776418Y-100667403D01*
X145765000Y-100610000D01*
X145765000Y-100310000D01*
X145776418Y-100252597D01*
X145808934Y-100203934D01*
X145857597Y-100171418D01*
X145915000Y-100160000D01*
X147165000Y-100160000D01*
X147222403Y-100171418D01*
G37*
G36*
X162076662Y-99190276D02*
G01*
X162120459Y-99219541D01*
X162149724Y-99263338D01*
X162160000Y-99315000D01*
X162160000Y-99685000D01*
X162149724Y-99736662D01*
X162120459Y-99780459D01*
X162076662Y-99809724D01*
X162025000Y-99820000D01*
X161755000Y-99820000D01*
X161703338Y-99809724D01*
X161659541Y-99780459D01*
X161630276Y-99736662D01*
X161620000Y-99685000D01*
X161620000Y-99315000D01*
X161630276Y-99263338D01*
X161659541Y-99219541D01*
X161703338Y-99190276D01*
X161755000Y-99180000D01*
X162025000Y-99180000D01*
X162076662Y-99190276D01*
G37*
G36*
X163096662Y-99190276D02*
G01*
X163140459Y-99219541D01*
X163169724Y-99263338D01*
X163180000Y-99315000D01*
X163180000Y-99685000D01*
X163169724Y-99736662D01*
X163140459Y-99780459D01*
X163096662Y-99809724D01*
X163045000Y-99820000D01*
X162775000Y-99820000D01*
X162723338Y-99809724D01*
X162679541Y-99780459D01*
X162650276Y-99736662D01*
X162640000Y-99685000D01*
X162640000Y-99315000D01*
X162650276Y-99263338D01*
X162679541Y-99219541D01*
X162723338Y-99190276D01*
X162775000Y-99180000D01*
X163045000Y-99180000D01*
X163096662Y-99190276D01*
G37*
G36*
X148566662Y-99150276D02*
G01*
X148610459Y-99179541D01*
X148639724Y-99223338D01*
X148650000Y-99275000D01*
X148650000Y-99645000D01*
X148639724Y-99696662D01*
X148610459Y-99740459D01*
X148566662Y-99769724D01*
X148515000Y-99780000D01*
X148245000Y-99780000D01*
X148193338Y-99769724D01*
X148149541Y-99740459D01*
X148120276Y-99696662D01*
X148110000Y-99645000D01*
X148110000Y-99275000D01*
X148120276Y-99223338D01*
X148149541Y-99179541D01*
X148193338Y-99150276D01*
X148245000Y-99140000D01*
X148515000Y-99140000D01*
X148566662Y-99150276D01*
G37*
G36*
X149586662Y-99150276D02*
G01*
X149630459Y-99179541D01*
X149659724Y-99223338D01*
X149670000Y-99275000D01*
X149670000Y-99645000D01*
X149659724Y-99696662D01*
X149630459Y-99740459D01*
X149586662Y-99769724D01*
X149535000Y-99780000D01*
X149265000Y-99780000D01*
X149213338Y-99769724D01*
X149169541Y-99740459D01*
X149140276Y-99696662D01*
X149130000Y-99645000D01*
X149130000Y-99275000D01*
X149140276Y-99223338D01*
X149169541Y-99179541D01*
X149213338Y-99150276D01*
X149265000Y-99140000D01*
X149535000Y-99140000D01*
X149586662Y-99150276D01*
G37*
G36*
X147222403Y-99171418D02*
G01*
X147271066Y-99203934D01*
X147303582Y-99252597D01*
X147315000Y-99310000D01*
X147315000Y-99610000D01*
X147303582Y-99667403D01*
X147271066Y-99716066D01*
X147222403Y-99748582D01*
X147165000Y-99760000D01*
X145915000Y-99760000D01*
X145857597Y-99748582D01*
X145808934Y-99716066D01*
X145776418Y-99667403D01*
X145765000Y-99610000D01*
X145765000Y-99310000D01*
X145776418Y-99252597D01*
X145808934Y-99203934D01*
X145857597Y-99171418D01*
X145915000Y-99160000D01*
X147165000Y-99160000D01*
X147222403Y-99171418D01*
G37*
G36*
X154204047Y-98300805D02*
G01*
X154255408Y-98306764D01*
X154272954Y-98314511D01*
X154295671Y-98319030D01*
X154319991Y-98335280D01*
X154340793Y-98344465D01*
X154355000Y-98358672D01*
X154376777Y-98373223D01*
X154391327Y-98394999D01*
X154405534Y-98409206D01*
X154414718Y-98430006D01*
X154430970Y-98454329D01*
X154435489Y-98477048D01*
X154443235Y-98494591D01*
X154449192Y-98545940D01*
X154450000Y-98550000D01*
X154450000Y-99200000D01*
X154449192Y-99204059D01*
X154443235Y-99255408D01*
X154435489Y-99272950D01*
X154430970Y-99295671D01*
X154414716Y-99319995D01*
X154405534Y-99340793D01*
X154391329Y-99354997D01*
X154376777Y-99376777D01*
X154354997Y-99391329D01*
X154340793Y-99405534D01*
X154319995Y-99414716D01*
X154295671Y-99430970D01*
X154272950Y-99435489D01*
X154255408Y-99443235D01*
X154204061Y-99449192D01*
X154200000Y-99450000D01*
X152900000Y-99450000D01*
X152895941Y-99449192D01*
X152844591Y-99443235D01*
X152827048Y-99435489D01*
X152804329Y-99430970D01*
X152780006Y-99414718D01*
X152759206Y-99405534D01*
X152744999Y-99391327D01*
X152723223Y-99376777D01*
X152708672Y-99355000D01*
X152694465Y-99340793D01*
X152685280Y-99319991D01*
X152669030Y-99295671D01*
X152664511Y-99272954D01*
X152656764Y-99255408D01*
X152650805Y-99204049D01*
X152650000Y-99200000D01*
X152650000Y-98550000D01*
X152650804Y-98545953D01*
X152656764Y-98494591D01*
X152664511Y-98477043D01*
X152669030Y-98454329D01*
X152685278Y-98430010D01*
X152694465Y-98409206D01*
X152708674Y-98394996D01*
X152723223Y-98373223D01*
X152744996Y-98358674D01*
X152759206Y-98344465D01*
X152780010Y-98335278D01*
X152804329Y-98319030D01*
X152827043Y-98314511D01*
X152844591Y-98306764D01*
X152895952Y-98300805D01*
X152900000Y-98300000D01*
X154200000Y-98300000D01*
X154204047Y-98300805D01*
G37*
G36*
X156604047Y-98300805D02*
G01*
X156655408Y-98306764D01*
X156672954Y-98314511D01*
X156695671Y-98319030D01*
X156719991Y-98335280D01*
X156740793Y-98344465D01*
X156755000Y-98358672D01*
X156776777Y-98373223D01*
X156791327Y-98394999D01*
X156805534Y-98409206D01*
X156814718Y-98430006D01*
X156830970Y-98454329D01*
X156835489Y-98477048D01*
X156843235Y-98494591D01*
X156849192Y-98545940D01*
X156850000Y-98550000D01*
X156850000Y-99200000D01*
X156849192Y-99204059D01*
X156843235Y-99255408D01*
X156835489Y-99272950D01*
X156830970Y-99295671D01*
X156814716Y-99319995D01*
X156805534Y-99340793D01*
X156791329Y-99354997D01*
X156776777Y-99376777D01*
X156754997Y-99391329D01*
X156740793Y-99405534D01*
X156719995Y-99414716D01*
X156695671Y-99430970D01*
X156672950Y-99435489D01*
X156655408Y-99443235D01*
X156604061Y-99449192D01*
X156600000Y-99450000D01*
X155300000Y-99450000D01*
X155295941Y-99449192D01*
X155244591Y-99443235D01*
X155227048Y-99435489D01*
X155204329Y-99430970D01*
X155180006Y-99414718D01*
X155159206Y-99405534D01*
X155144999Y-99391327D01*
X155123223Y-99376777D01*
X155108672Y-99355000D01*
X155094465Y-99340793D01*
X155085280Y-99319991D01*
X155069030Y-99295671D01*
X155064511Y-99272954D01*
X155056764Y-99255408D01*
X155050805Y-99204049D01*
X155050000Y-99200000D01*
X155050000Y-98550000D01*
X155050804Y-98545953D01*
X155056764Y-98494591D01*
X155064511Y-98477043D01*
X155069030Y-98454329D01*
X155085278Y-98430010D01*
X155094465Y-98409206D01*
X155108674Y-98394996D01*
X155123223Y-98373223D01*
X155144996Y-98358674D01*
X155159206Y-98344465D01*
X155180010Y-98335278D01*
X155204329Y-98319030D01*
X155227043Y-98314511D01*
X155244591Y-98306764D01*
X155295952Y-98300805D01*
X155300000Y-98300000D01*
X156600000Y-98300000D01*
X156604047Y-98300805D01*
G37*
G36*
X164536104Y-97992127D02*
G01*
X164609099Y-98040901D01*
X164657873Y-98113896D01*
X164675000Y-98200000D01*
X164675000Y-98650000D01*
X164657873Y-98736104D01*
X164609099Y-98809099D01*
X164536104Y-98857873D01*
X164450000Y-98875000D01*
X163950000Y-98875000D01*
X163863896Y-98857873D01*
X163790901Y-98809099D01*
X163742127Y-98736104D01*
X163725000Y-98650000D01*
X163725000Y-98200000D01*
X163742127Y-98113896D01*
X163790901Y-98040901D01*
X163863896Y-97992127D01*
X163950000Y-97975000D01*
X164450000Y-97975000D01*
X164536104Y-97992127D01*
G37*
G36*
X159400000Y-98200000D02*
G01*
X159400000Y-98800000D01*
X159000000Y-98800000D01*
X159000000Y-98229288D01*
X158970712Y-98200000D01*
X158600000Y-98200000D01*
X158600000Y-97800000D01*
X159400000Y-97800000D01*
X159400000Y-98200000D01*
G37*
G36*
X160550000Y-98800000D02*
G01*
X160150000Y-98800000D01*
X160150000Y-97800000D01*
X160550000Y-97800000D01*
X160550000Y-98800000D01*
G37*
G36*
X161550000Y-98800000D02*
G01*
X161300000Y-98800000D01*
X161300000Y-98100000D01*
X161550000Y-98100000D01*
X161550000Y-98800000D01*
G37*
G36*
X162050000Y-98800000D02*
G01*
X161800000Y-98800000D01*
X161800000Y-98100000D01*
X162050000Y-98100000D01*
X162050000Y-98800000D01*
G37*
G36*
X163000000Y-98200000D02*
G01*
X162679287Y-98200000D01*
X162650000Y-98229287D01*
X162650000Y-98800000D01*
X162300000Y-98800000D01*
X162300000Y-98200000D01*
X162300000Y-97800000D01*
X163000000Y-97800000D01*
X163000000Y-98200000D01*
G37*
G36*
X148566662Y-98150276D02*
G01*
X148610459Y-98179541D01*
X148639724Y-98223338D01*
X148650000Y-98275000D01*
X148650000Y-98645000D01*
X148639724Y-98696662D01*
X148610459Y-98740459D01*
X148566662Y-98769724D01*
X148515000Y-98780000D01*
X148245000Y-98780000D01*
X148193338Y-98769724D01*
X148149541Y-98740459D01*
X148120276Y-98696662D01*
X148110000Y-98645000D01*
X148110000Y-98275000D01*
X148120276Y-98223338D01*
X148149541Y-98179541D01*
X148193338Y-98150276D01*
X148245000Y-98140000D01*
X148515000Y-98140000D01*
X148566662Y-98150276D01*
G37*
G36*
X149586662Y-98150276D02*
G01*
X149630459Y-98179541D01*
X149659724Y-98223338D01*
X149670000Y-98275000D01*
X149670000Y-98645000D01*
X149659724Y-98696662D01*
X149630459Y-98740459D01*
X149586662Y-98769724D01*
X149535000Y-98780000D01*
X149265000Y-98780000D01*
X149213338Y-98769724D01*
X149169541Y-98740459D01*
X149140276Y-98696662D01*
X149130000Y-98645000D01*
X149130000Y-98275000D01*
X149140276Y-98223338D01*
X149169541Y-98179541D01*
X149213338Y-98150276D01*
X149265000Y-98140000D01*
X149535000Y-98140000D01*
X149586662Y-98150276D01*
G37*
G36*
X147222403Y-98171418D02*
G01*
X147271066Y-98203934D01*
X147303582Y-98252597D01*
X147315000Y-98310000D01*
X147315000Y-98610000D01*
X147303582Y-98667403D01*
X147271066Y-98716066D01*
X147222403Y-98748582D01*
X147165000Y-98760000D01*
X145915000Y-98760000D01*
X145857597Y-98748582D01*
X145808934Y-98716066D01*
X145776418Y-98667403D01*
X145765000Y-98610000D01*
X145765000Y-98310000D01*
X145776418Y-98252597D01*
X145808934Y-98203934D01*
X145857597Y-98171418D01*
X145915000Y-98160000D01*
X147165000Y-98160000D01*
X147222403Y-98171418D01*
G37*
G36*
X151183576Y-97160657D02*
G01*
X151228995Y-97191005D01*
X151259343Y-97236424D01*
X151270000Y-97290000D01*
X151270000Y-97630000D01*
X151259343Y-97683576D01*
X151228995Y-97728995D01*
X151183576Y-97759343D01*
X151130000Y-97770000D01*
X150850000Y-97770000D01*
X150796424Y-97759343D01*
X150751005Y-97728995D01*
X150720657Y-97683576D01*
X150710000Y-97630000D01*
X150710000Y-97290000D01*
X150720657Y-97236424D01*
X150751005Y-97191005D01*
X150796424Y-97160657D01*
X150850000Y-97150000D01*
X151130000Y-97150000D01*
X151183576Y-97160657D01*
G37*
G36*
X152143576Y-97160657D02*
G01*
X152188995Y-97191005D01*
X152219343Y-97236424D01*
X152230000Y-97290000D01*
X152230000Y-97630000D01*
X152219343Y-97683576D01*
X152188995Y-97728995D01*
X152143576Y-97759343D01*
X152090000Y-97770000D01*
X151810000Y-97770000D01*
X151756424Y-97759343D01*
X151711005Y-97728995D01*
X151680657Y-97683576D01*
X151670000Y-97630000D01*
X151670000Y-97290000D01*
X151680657Y-97236424D01*
X151711005Y-97191005D01*
X151756424Y-97160657D01*
X151810000Y-97150000D01*
X152090000Y-97150000D01*
X152143576Y-97160657D01*
G37*
G36*
X143319047Y-96560805D02*
G01*
X143370408Y-96566764D01*
X143387954Y-96574511D01*
X143410671Y-96579030D01*
X143434991Y-96595280D01*
X143455793Y-96604465D01*
X143470000Y-96618672D01*
X143491777Y-96633223D01*
X143506327Y-96654999D01*
X143520534Y-96669206D01*
X143529718Y-96690006D01*
X143545970Y-96714329D01*
X143550489Y-96737048D01*
X143558235Y-96754591D01*
X143564192Y-96805940D01*
X143565000Y-96810000D01*
X143565000Y-97510000D01*
X143564192Y-97514059D01*
X143558235Y-97565408D01*
X143550489Y-97582950D01*
X143545970Y-97605671D01*
X143529716Y-97629995D01*
X143520534Y-97650793D01*
X143506329Y-97664997D01*
X143491777Y-97686777D01*
X143469997Y-97701329D01*
X143455793Y-97715534D01*
X143434995Y-97724716D01*
X143410671Y-97740970D01*
X143387950Y-97745489D01*
X143370408Y-97753235D01*
X143319061Y-97759192D01*
X143315000Y-97760000D01*
X142015000Y-97760000D01*
X142010941Y-97759192D01*
X141959591Y-97753235D01*
X141942048Y-97745489D01*
X141919329Y-97740970D01*
X141895006Y-97724718D01*
X141874206Y-97715534D01*
X141859999Y-97701327D01*
X141838223Y-97686777D01*
X141823672Y-97665000D01*
X141809465Y-97650793D01*
X141800280Y-97629991D01*
X141784030Y-97605671D01*
X141779511Y-97582954D01*
X141771764Y-97565408D01*
X141765805Y-97514049D01*
X141765000Y-97510000D01*
X141765000Y-96810000D01*
X141765804Y-96805953D01*
X141771764Y-96754591D01*
X141779511Y-96737043D01*
X141784030Y-96714329D01*
X141800278Y-96690010D01*
X141809465Y-96669206D01*
X141823674Y-96654996D01*
X141838223Y-96633223D01*
X141859996Y-96618674D01*
X141874206Y-96604465D01*
X141895010Y-96595278D01*
X141919329Y-96579030D01*
X141942043Y-96574511D01*
X141959591Y-96566764D01*
X142010952Y-96560805D01*
X142015000Y-96560000D01*
X143315000Y-96560000D01*
X143319047Y-96560805D01*
G37*
G36*
X163000000Y-97500000D02*
G01*
X162300000Y-97500000D01*
X162300000Y-97250000D01*
X163000000Y-97250000D01*
X163000000Y-97500000D01*
G37*
G36*
X164536104Y-96442127D02*
G01*
X164609099Y-96490901D01*
X164657873Y-96563896D01*
X164675000Y-96650000D01*
X164675000Y-97100000D01*
X164657873Y-97186104D01*
X164609099Y-97259099D01*
X164536104Y-97307873D01*
X164450000Y-97325000D01*
X163950000Y-97325000D01*
X163863896Y-97307873D01*
X163790901Y-97259099D01*
X163742127Y-97186104D01*
X163725000Y-97100000D01*
X163725000Y-96650000D01*
X163742127Y-96563896D01*
X163790901Y-96490901D01*
X163863896Y-96442127D01*
X163950000Y-96425000D01*
X164450000Y-96425000D01*
X164536104Y-96442127D01*
G37*
G36*
X161000000Y-97050000D02*
G01*
X158600000Y-97050000D01*
X158600000Y-96650000D01*
X161000000Y-96650000D01*
X161000000Y-97050000D01*
G37*
G36*
X163000000Y-97000000D02*
G01*
X162300000Y-97000000D01*
X162300000Y-96700000D01*
X163000000Y-96700000D01*
X163000000Y-97000000D01*
G37*
G36*
X154204047Y-95350805D02*
G01*
X154255408Y-95356764D01*
X154272954Y-95364511D01*
X154295671Y-95369030D01*
X154319991Y-95385280D01*
X154340793Y-95394465D01*
X154355000Y-95408672D01*
X154376777Y-95423223D01*
X154391327Y-95444999D01*
X154405534Y-95459206D01*
X154414718Y-95480006D01*
X154430970Y-95504329D01*
X154435489Y-95527048D01*
X154443235Y-95544591D01*
X154449192Y-95595940D01*
X154450000Y-95600000D01*
X154450000Y-96250000D01*
X154449192Y-96254059D01*
X154443235Y-96305408D01*
X154435489Y-96322950D01*
X154430970Y-96345671D01*
X154414716Y-96369995D01*
X154405534Y-96390793D01*
X154391329Y-96404997D01*
X154376777Y-96426777D01*
X154354997Y-96441329D01*
X154340793Y-96455534D01*
X154319995Y-96464716D01*
X154295671Y-96480970D01*
X154272950Y-96485489D01*
X154255408Y-96493235D01*
X154204061Y-96499192D01*
X154200000Y-96500000D01*
X152900000Y-96500000D01*
X152895941Y-96499192D01*
X152844591Y-96493235D01*
X152827048Y-96485489D01*
X152804329Y-96480970D01*
X152780006Y-96464718D01*
X152759206Y-96455534D01*
X152744999Y-96441327D01*
X152723223Y-96426777D01*
X152708672Y-96405000D01*
X152694465Y-96390793D01*
X152685280Y-96369991D01*
X152669030Y-96345671D01*
X152664511Y-96322954D01*
X152656764Y-96305408D01*
X152650805Y-96254049D01*
X152650000Y-96250000D01*
X152650000Y-95600000D01*
X152650804Y-95595953D01*
X152656764Y-95544591D01*
X152664511Y-95527043D01*
X152669030Y-95504329D01*
X152685278Y-95480010D01*
X152694465Y-95459206D01*
X152708674Y-95444996D01*
X152723223Y-95423223D01*
X152744996Y-95408674D01*
X152759206Y-95394465D01*
X152780010Y-95385278D01*
X152804329Y-95369030D01*
X152827043Y-95364511D01*
X152844591Y-95356764D01*
X152895952Y-95350805D01*
X152900000Y-95350000D01*
X154200000Y-95350000D01*
X154204047Y-95350805D01*
G37*
G36*
X156604047Y-95350805D02*
G01*
X156655408Y-95356764D01*
X156672954Y-95364511D01*
X156695671Y-95369030D01*
X156719991Y-95385280D01*
X156740793Y-95394465D01*
X156755000Y-95408672D01*
X156776777Y-95423223D01*
X156791327Y-95444999D01*
X156805534Y-95459206D01*
X156814718Y-95480006D01*
X156830970Y-95504329D01*
X156835489Y-95527048D01*
X156843235Y-95544591D01*
X156849192Y-95595940D01*
X156850000Y-95600000D01*
X156850000Y-96250000D01*
X156849192Y-96254059D01*
X156843235Y-96305408D01*
X156835489Y-96322950D01*
X156830970Y-96345671D01*
X156814716Y-96369995D01*
X156805534Y-96390793D01*
X156791329Y-96404997D01*
X156776777Y-96426777D01*
X156754997Y-96441329D01*
X156740793Y-96455534D01*
X156719995Y-96464716D01*
X156695671Y-96480970D01*
X156672950Y-96485489D01*
X156655408Y-96493235D01*
X156604061Y-96499192D01*
X156600000Y-96500000D01*
X155300000Y-96500000D01*
X155295941Y-96499192D01*
X155244591Y-96493235D01*
X155227048Y-96485489D01*
X155204329Y-96480970D01*
X155180006Y-96464718D01*
X155159206Y-96455534D01*
X155144999Y-96441327D01*
X155123223Y-96426777D01*
X155108672Y-96405000D01*
X155094465Y-96390793D01*
X155085280Y-96369991D01*
X155069030Y-96345671D01*
X155064511Y-96322954D01*
X155056764Y-96305408D01*
X155050805Y-96254049D01*
X155050000Y-96250000D01*
X155050000Y-95600000D01*
X155050804Y-95595953D01*
X155056764Y-95544591D01*
X155064511Y-95527043D01*
X155069030Y-95504329D01*
X155085278Y-95480010D01*
X155094465Y-95459206D01*
X155108674Y-95444996D01*
X155123223Y-95423223D01*
X155144996Y-95408674D01*
X155159206Y-95394465D01*
X155180010Y-95385278D01*
X155204329Y-95369030D01*
X155227043Y-95364511D01*
X155244591Y-95356764D01*
X155295952Y-95350805D01*
X155300000Y-95350000D01*
X156600000Y-95350000D01*
X156604047Y-95350805D01*
G37*
G36*
X163000000Y-96450000D02*
G01*
X162300000Y-96450000D01*
X162300000Y-96200000D01*
X163000000Y-96200000D01*
X163000000Y-96450000D01*
G37*
G36*
X164186662Y-95400276D02*
G01*
X164230459Y-95429541D01*
X164259724Y-95473338D01*
X164270000Y-95525000D01*
X164270000Y-95795000D01*
X164259724Y-95846662D01*
X164230459Y-95890459D01*
X164186662Y-95919724D01*
X164135000Y-95930000D01*
X163765000Y-95930000D01*
X163713338Y-95919724D01*
X163669541Y-95890459D01*
X163640276Y-95846662D01*
X163630000Y-95795000D01*
X163630000Y-95525000D01*
X163640276Y-95473338D01*
X163669541Y-95429541D01*
X163713338Y-95400276D01*
X163765000Y-95390000D01*
X164135000Y-95390000D01*
X164186662Y-95400276D01*
G37*
G36*
X159400000Y-95500000D02*
G01*
X159400000Y-95900000D01*
X158600000Y-95900000D01*
X158600000Y-95500000D01*
X158970711Y-95500000D01*
X159000000Y-95470711D01*
X159000000Y-94904922D01*
X159000000Y-94900000D01*
X159400000Y-94900000D01*
X159400000Y-95500000D01*
G37*
G36*
X160550000Y-95900000D02*
G01*
X160150000Y-95900000D01*
X160150000Y-94900000D01*
X160550000Y-94900000D01*
X160550000Y-95900000D01*
G37*
G36*
X162650000Y-95470712D02*
G01*
X162679288Y-95500000D01*
X163000000Y-95500000D01*
X163000000Y-95900000D01*
X162300000Y-95900000D01*
X162300000Y-95500000D01*
X162300000Y-94900000D01*
X162650000Y-94900000D01*
X162650000Y-95470712D01*
G37*
G36*
X161550000Y-95600000D02*
G01*
X161300000Y-95600000D01*
X161300000Y-94900000D01*
X161550000Y-94900000D01*
X161550000Y-95600000D01*
G37*
G36*
X162050000Y-95600000D02*
G01*
X161800000Y-95600000D01*
X161800000Y-94900000D01*
X162050000Y-94900000D01*
X162050000Y-95600000D01*
G37*
G36*
X164186662Y-94380276D02*
G01*
X164230459Y-94409541D01*
X164259724Y-94453338D01*
X164270000Y-94505000D01*
X164270000Y-94775000D01*
X164259724Y-94826662D01*
X164230459Y-94870459D01*
X164186662Y-94899724D01*
X164135000Y-94910000D01*
X163765000Y-94910000D01*
X163713338Y-94899724D01*
X163669541Y-94870459D01*
X163640276Y-94826662D01*
X163630000Y-94775000D01*
X163630000Y-94505000D01*
X163640276Y-94453338D01*
X163669541Y-94409541D01*
X163713338Y-94380276D01*
X163765000Y-94370000D01*
X164135000Y-94370000D01*
X164186662Y-94380276D01*
G37*
G36*
X158863576Y-93900657D02*
G01*
X158908995Y-93931005D01*
X158939343Y-93976424D01*
X158950000Y-94030000D01*
X158950000Y-94370000D01*
X158939343Y-94423576D01*
X158908995Y-94468995D01*
X158863576Y-94499343D01*
X158810000Y-94510000D01*
X158530000Y-94510000D01*
X158476424Y-94499343D01*
X158431005Y-94468995D01*
X158400657Y-94423576D01*
X158390000Y-94370000D01*
X158390000Y-94030000D01*
X158400657Y-93976424D01*
X158431005Y-93931005D01*
X158476424Y-93900657D01*
X158530000Y-93890000D01*
X158810000Y-93890000D01*
X158863576Y-93900657D01*
G37*
G36*
X159823576Y-93900657D02*
G01*
X159868995Y-93931005D01*
X159899343Y-93976424D01*
X159910000Y-94030000D01*
X159910000Y-94370000D01*
X159899343Y-94423576D01*
X159868995Y-94468995D01*
X159823576Y-94499343D01*
X159770000Y-94510000D01*
X159490000Y-94510000D01*
X159436424Y-94499343D01*
X159391005Y-94468995D01*
X159360657Y-94423576D01*
X159350000Y-94370000D01*
X159350000Y-94030000D01*
X159360657Y-93976424D01*
X159391005Y-93931005D01*
X159436424Y-93900657D01*
X159490000Y-93890000D01*
X159770000Y-93890000D01*
X159823576Y-93900657D01*
G37*
G36*
X160763576Y-93900657D02*
G01*
X160808995Y-93931005D01*
X160839343Y-93976424D01*
X160850000Y-94030000D01*
X160850000Y-94370000D01*
X160839343Y-94423576D01*
X160808995Y-94468995D01*
X160763576Y-94499343D01*
X160710000Y-94510000D01*
X160430000Y-94510000D01*
X160376424Y-94499343D01*
X160331005Y-94468995D01*
X160300657Y-94423576D01*
X160290000Y-94370000D01*
X160290000Y-94030000D01*
X160300657Y-93976424D01*
X160331005Y-93931005D01*
X160376424Y-93900657D01*
X160430000Y-93890000D01*
X160710000Y-93890000D01*
X160763576Y-93900657D01*
G37*
G36*
X161723576Y-93900657D02*
G01*
X161768995Y-93931005D01*
X161799343Y-93976424D01*
X161810000Y-94030000D01*
X161810000Y-94370000D01*
X161799343Y-94423576D01*
X161768995Y-94468995D01*
X161723576Y-94499343D01*
X161670000Y-94510000D01*
X161390000Y-94510000D01*
X161336424Y-94499343D01*
X161291005Y-94468995D01*
X161260657Y-94423576D01*
X161250000Y-94370000D01*
X161250000Y-94030000D01*
X161260657Y-93976424D01*
X161291005Y-93931005D01*
X161336424Y-93900657D01*
X161390000Y-93890000D01*
X161670000Y-93890000D01*
X161723576Y-93900657D01*
G37*
G36*
X152750000Y-94125000D02*
G01*
X152550000Y-94125000D01*
X152550000Y-93525000D01*
X152750000Y-93525000D01*
X152750000Y-94125000D01*
G37*
G36*
X153550000Y-94125000D02*
G01*
X153350000Y-94125000D01*
X153350000Y-93525000D01*
X153550000Y-93525000D01*
X153550000Y-94125000D01*
G37*
G36*
X154350000Y-94125000D02*
G01*
X154150000Y-94125000D01*
X154150000Y-93525000D01*
X154350000Y-93525000D01*
X154350000Y-94125000D01*
G37*
G36*
X155150000Y-94125000D02*
G01*
X154950000Y-94125000D01*
X154950000Y-93525000D01*
X155150000Y-93525000D01*
X155150000Y-94125000D01*
G37*
G36*
X155950000Y-94125000D02*
G01*
X155750000Y-94125000D01*
X155750000Y-93525000D01*
X155950000Y-93525000D01*
X155950000Y-94125000D01*
G37*
G36*
X164229047Y-92350805D02*
G01*
X164280408Y-92356764D01*
X164297954Y-92364511D01*
X164320671Y-92369030D01*
X164344991Y-92385280D01*
X164365793Y-92394465D01*
X164380000Y-92408672D01*
X164401777Y-92423223D01*
X164416327Y-92444999D01*
X164430534Y-92459206D01*
X164439718Y-92480006D01*
X164455970Y-92504329D01*
X164460489Y-92527048D01*
X164468235Y-92544591D01*
X164474192Y-92595940D01*
X164475000Y-92600000D01*
X164475000Y-93300000D01*
X164474192Y-93304059D01*
X164468235Y-93355408D01*
X164460489Y-93372950D01*
X164455970Y-93395671D01*
X164439716Y-93419995D01*
X164430534Y-93440793D01*
X164416329Y-93454997D01*
X164401777Y-93476777D01*
X164379997Y-93491329D01*
X164365793Y-93505534D01*
X164344995Y-93514716D01*
X164320671Y-93530970D01*
X164297950Y-93535489D01*
X164280408Y-93543235D01*
X164229061Y-93549192D01*
X164225000Y-93550000D01*
X162925000Y-93550000D01*
X162920941Y-93549192D01*
X162869591Y-93543235D01*
X162852048Y-93535489D01*
X162829329Y-93530970D01*
X162805006Y-93514718D01*
X162784206Y-93505534D01*
X162769999Y-93491327D01*
X162748223Y-93476777D01*
X162733672Y-93455000D01*
X162719465Y-93440793D01*
X162710280Y-93419991D01*
X162694030Y-93395671D01*
X162689511Y-93372954D01*
X162681764Y-93355408D01*
X162675805Y-93304049D01*
X162675000Y-93300000D01*
X162675000Y-92600000D01*
X162675804Y-92595953D01*
X162681764Y-92544591D01*
X162689511Y-92527043D01*
X162694030Y-92504329D01*
X162710278Y-92480010D01*
X162719465Y-92459206D01*
X162733674Y-92444996D01*
X162748223Y-92423223D01*
X162769996Y-92408674D01*
X162784206Y-92394465D01*
X162805010Y-92385278D01*
X162829329Y-92369030D01*
X162852043Y-92364511D01*
X162869591Y-92356764D01*
X162920952Y-92350805D01*
X162925000Y-92350000D01*
X164225000Y-92350000D01*
X164229047Y-92350805D01*
G37*
G36*
X153050000Y-93275000D02*
G01*
X152850000Y-93275000D01*
X152850000Y-92675000D01*
X153050000Y-92675000D01*
X153050000Y-93275000D01*
G37*
G36*
X153950000Y-93275000D02*
G01*
X153750000Y-93275000D01*
X153750000Y-92675000D01*
X153950000Y-92675000D01*
X153950000Y-93275000D01*
G37*
G36*
X154750000Y-93275000D02*
G01*
X154550000Y-93275000D01*
X154550000Y-92675000D01*
X154750000Y-92675000D01*
X154750000Y-93275000D01*
G37*
G36*
X155650000Y-93275000D02*
G01*
X155450000Y-93275000D01*
X155450000Y-92675000D01*
X155650000Y-92675000D01*
X155650000Y-93275000D01*
G37*
G36*
X157096662Y-91340276D02*
G01*
X157140459Y-91369541D01*
X157169724Y-91413338D01*
X157180000Y-91465000D01*
X157180000Y-91835000D01*
X157169724Y-91886662D01*
X157140459Y-91930459D01*
X157096662Y-91959724D01*
X157045000Y-91970000D01*
X156775000Y-91970000D01*
X156723338Y-91959724D01*
X156679541Y-91930459D01*
X156650276Y-91886662D01*
X156640000Y-91835000D01*
X156640000Y-91465000D01*
X156650276Y-91413338D01*
X156679541Y-91369541D01*
X156723338Y-91340276D01*
X156775000Y-91330000D01*
X157045000Y-91330000D01*
X157096662Y-91340276D01*
G37*
G36*
X158116662Y-91340276D02*
G01*
X158160459Y-91369541D01*
X158189724Y-91413338D01*
X158200000Y-91465000D01*
X158200000Y-91835000D01*
X158189724Y-91886662D01*
X158160459Y-91930459D01*
X158116662Y-91959724D01*
X158065000Y-91970000D01*
X157795000Y-91970000D01*
X157743338Y-91959724D01*
X157699541Y-91930459D01*
X157670276Y-91886662D01*
X157660000Y-91835000D01*
X157660000Y-91465000D01*
X157670276Y-91413338D01*
X157699541Y-91369541D01*
X157743338Y-91340276D01*
X157795000Y-91330000D01*
X158065000Y-91330000D01*
X158116662Y-91340276D01*
G37*
G36*
X160382403Y-91361418D02*
G01*
X160431066Y-91393934D01*
X160463582Y-91442597D01*
X160475000Y-91500000D01*
X160475000Y-91800000D01*
X160463582Y-91857403D01*
X160431066Y-91906066D01*
X160382403Y-91938582D01*
X160325000Y-91950000D01*
X159075000Y-91950000D01*
X159017597Y-91938582D01*
X158968934Y-91906066D01*
X158936418Y-91857403D01*
X158925000Y-91800000D01*
X158925000Y-91500000D01*
X158936418Y-91442597D01*
X158968934Y-91393934D01*
X159017597Y-91361418D01*
X159075000Y-91350000D01*
X160325000Y-91350000D01*
X160382403Y-91361418D01*
G37*
G36*
X157096662Y-90340276D02*
G01*
X157140459Y-90369541D01*
X157169724Y-90413338D01*
X157180000Y-90465000D01*
X157180000Y-90835000D01*
X157169724Y-90886662D01*
X157140459Y-90930459D01*
X157096662Y-90959724D01*
X157045000Y-90970000D01*
X156775000Y-90970000D01*
X156723338Y-90959724D01*
X156679541Y-90930459D01*
X156650276Y-90886662D01*
X156640000Y-90835000D01*
X156640000Y-90465000D01*
X156650276Y-90413338D01*
X156679541Y-90369541D01*
X156723338Y-90340276D01*
X156775000Y-90330000D01*
X157045000Y-90330000D01*
X157096662Y-90340276D01*
G37*
G36*
X158116662Y-90340276D02*
G01*
X158160459Y-90369541D01*
X158189724Y-90413338D01*
X158200000Y-90465000D01*
X158200000Y-90835000D01*
X158189724Y-90886662D01*
X158160459Y-90930459D01*
X158116662Y-90959724D01*
X158065000Y-90970000D01*
X157795000Y-90970000D01*
X157743338Y-90959724D01*
X157699541Y-90930459D01*
X157670276Y-90886662D01*
X157660000Y-90835000D01*
X157660000Y-90465000D01*
X157670276Y-90413338D01*
X157699541Y-90369541D01*
X157743338Y-90340276D01*
X157795000Y-90330000D01*
X158065000Y-90330000D01*
X158116662Y-90340276D01*
G37*
G36*
X160382403Y-90361418D02*
G01*
X160431066Y-90393934D01*
X160463582Y-90442597D01*
X160475000Y-90500000D01*
X160475000Y-90800000D01*
X160463582Y-90857403D01*
X160431066Y-90906066D01*
X160382403Y-90938582D01*
X160325000Y-90950000D01*
X159075000Y-90950000D01*
X159017597Y-90938582D01*
X158968934Y-90906066D01*
X158936418Y-90857403D01*
X158925000Y-90800000D01*
X158925000Y-90500000D01*
X158936418Y-90442597D01*
X158968934Y-90393934D01*
X159017597Y-90361418D01*
X159075000Y-90350000D01*
X160325000Y-90350000D01*
X160382403Y-90361418D01*
G37*
G36*
X160382403Y-89361418D02*
G01*
X160431066Y-89393934D01*
X160463582Y-89442597D01*
X160475000Y-89500000D01*
X160475000Y-89800000D01*
X160463582Y-89857403D01*
X160431066Y-89906066D01*
X160382403Y-89938582D01*
X160325000Y-89950000D01*
X159075000Y-89950000D01*
X159017597Y-89938582D01*
X158968934Y-89906066D01*
X158936418Y-89857403D01*
X158925000Y-89800000D01*
X158925000Y-89500000D01*
X158936418Y-89442597D01*
X158968934Y-89393934D01*
X159017597Y-89361418D01*
X159075000Y-89350000D01*
X160325000Y-89350000D01*
X160382403Y-89361418D01*
G37*
G36*
X157096662Y-88340276D02*
G01*
X157140459Y-88369541D01*
X157169724Y-88413338D01*
X157180000Y-88465000D01*
X157180000Y-88835000D01*
X157169724Y-88886662D01*
X157140459Y-88930459D01*
X157096662Y-88959724D01*
X157045000Y-88970000D01*
X156775000Y-88970000D01*
X156723338Y-88959724D01*
X156679541Y-88930459D01*
X156650276Y-88886662D01*
X156640000Y-88835000D01*
X156640000Y-88465000D01*
X156650276Y-88413338D01*
X156679541Y-88369541D01*
X156723338Y-88340276D01*
X156775000Y-88330000D01*
X157045000Y-88330000D01*
X157096662Y-88340276D01*
G37*
G36*
X158116662Y-88340276D02*
G01*
X158160459Y-88369541D01*
X158189724Y-88413338D01*
X158200000Y-88465000D01*
X158200000Y-88835000D01*
X158189724Y-88886662D01*
X158160459Y-88930459D01*
X158116662Y-88959724D01*
X158065000Y-88970000D01*
X157795000Y-88970000D01*
X157743338Y-88959724D01*
X157699541Y-88930459D01*
X157670276Y-88886662D01*
X157660000Y-88835000D01*
X157660000Y-88465000D01*
X157670276Y-88413338D01*
X157699541Y-88369541D01*
X157743338Y-88340276D01*
X157795000Y-88330000D01*
X158065000Y-88330000D01*
X158116662Y-88340276D01*
G37*
G36*
X160382403Y-88361418D02*
G01*
X160431066Y-88393934D01*
X160463582Y-88442597D01*
X160475000Y-88500000D01*
X160475000Y-88800000D01*
X160463582Y-88857403D01*
X160431066Y-88906066D01*
X160382403Y-88938582D01*
X160325000Y-88950000D01*
X159075000Y-88950000D01*
X159017597Y-88938582D01*
X158968934Y-88906066D01*
X158936418Y-88857403D01*
X158925000Y-88800000D01*
X158925000Y-88500000D01*
X158936418Y-88442597D01*
X158968934Y-88393934D01*
X159017597Y-88361418D01*
X159075000Y-88350000D01*
X160325000Y-88350000D01*
X160382403Y-88361418D01*
G37*
G36*
X157096662Y-87340276D02*
G01*
X157140459Y-87369541D01*
X157169724Y-87413338D01*
X157180000Y-87465000D01*
X157180000Y-87835000D01*
X157169724Y-87886662D01*
X157140459Y-87930459D01*
X157096662Y-87959724D01*
X157045000Y-87970000D01*
X156775000Y-87970000D01*
X156723338Y-87959724D01*
X156679541Y-87930459D01*
X156650276Y-87886662D01*
X156640000Y-87835000D01*
X156640000Y-87465000D01*
X156650276Y-87413338D01*
X156679541Y-87369541D01*
X156723338Y-87340276D01*
X156775000Y-87330000D01*
X157045000Y-87330000D01*
X157096662Y-87340276D01*
G37*
G36*
X158116662Y-87340276D02*
G01*
X158160459Y-87369541D01*
X158189724Y-87413338D01*
X158200000Y-87465000D01*
X158200000Y-87835000D01*
X158189724Y-87886662D01*
X158160459Y-87930459D01*
X158116662Y-87959724D01*
X158065000Y-87970000D01*
X157795000Y-87970000D01*
X157743338Y-87959724D01*
X157699541Y-87930459D01*
X157670276Y-87886662D01*
X157660000Y-87835000D01*
X157660000Y-87465000D01*
X157670276Y-87413338D01*
X157699541Y-87369541D01*
X157743338Y-87340276D01*
X157795000Y-87330000D01*
X158065000Y-87330000D01*
X158116662Y-87340276D01*
G37*
G36*
X160382403Y-87361418D02*
G01*
X160431066Y-87393934D01*
X160463582Y-87442597D01*
X160475000Y-87500000D01*
X160475000Y-87800000D01*
X160463582Y-87857403D01*
X160431066Y-87906066D01*
X160382403Y-87938582D01*
X160325000Y-87950000D01*
X159075000Y-87950000D01*
X159017597Y-87938582D01*
X158968934Y-87906066D01*
X158936418Y-87857403D01*
X158925000Y-87800000D01*
X158925000Y-87500000D01*
X158936418Y-87442597D01*
X158968934Y-87393934D01*
X159017597Y-87361418D01*
X159075000Y-87350000D01*
X160325000Y-87350000D01*
X160382403Y-87361418D01*
G37*
G36*
X160382403Y-86361418D02*
G01*
X160431066Y-86393934D01*
X160463582Y-86442597D01*
X160475000Y-86500000D01*
X160475000Y-86800000D01*
X160463582Y-86857403D01*
X160431066Y-86906066D01*
X160382403Y-86938582D01*
X160325000Y-86950000D01*
X159075000Y-86950000D01*
X159017597Y-86938582D01*
X158968934Y-86906066D01*
X158936418Y-86857403D01*
X158925000Y-86800000D01*
X158925000Y-86500000D01*
X158936418Y-86442597D01*
X158968934Y-86393934D01*
X159017597Y-86361418D01*
X159075000Y-86350000D01*
X160325000Y-86350000D01*
X160382403Y-86361418D01*
G37*
G36*
X143226336Y-84677627D02*
G01*
X143232134Y-84679656D01*
X143237036Y-84680183D01*
X143288568Y-84699403D01*
X143349430Y-84720700D01*
X143353273Y-84723536D01*
X143354427Y-84723967D01*
X143394312Y-84753824D01*
X143454359Y-84798141D01*
X143498693Y-84858211D01*
X143528532Y-84898072D01*
X143528961Y-84899224D01*
X143531800Y-84903070D01*
X143553106Y-84963958D01*
X143572316Y-85015463D01*
X143572842Y-85020361D01*
X143574873Y-85026164D01*
X143582500Y-85107500D01*
X143582500Y-86232500D01*
X143574873Y-86313836D01*
X143572842Y-86319638D01*
X143572316Y-86324536D01*
X143553111Y-86376024D01*
X143531800Y-86436930D01*
X143528961Y-86440776D01*
X143528532Y-86441927D01*
X143498745Y-86481717D01*
X143454359Y-86541859D01*
X143394217Y-86586245D01*
X143354427Y-86616032D01*
X143353276Y-86616461D01*
X143349430Y-86619300D01*
X143288524Y-86640611D01*
X143237036Y-86659816D01*
X143232138Y-86660342D01*
X143226336Y-86662373D01*
X143145000Y-86670000D01*
X142270000Y-86670000D01*
X142188664Y-86662373D01*
X142182861Y-86660342D01*
X142177963Y-86659816D01*
X142126458Y-86640606D01*
X142065570Y-86619300D01*
X142061724Y-86616461D01*
X142060572Y-86616032D01*
X142020711Y-86586193D01*
X141960641Y-86541859D01*
X141916324Y-86481812D01*
X141886467Y-86441927D01*
X141886036Y-86440773D01*
X141883200Y-86436930D01*
X141861903Y-86376068D01*
X141842683Y-86324536D01*
X141842156Y-86319634D01*
X141840127Y-86313836D01*
X141832500Y-86232500D01*
X141832500Y-85107500D01*
X141840127Y-85026164D01*
X141842155Y-85020365D01*
X141842683Y-85015463D01*
X141861908Y-84963915D01*
X141883200Y-84903070D01*
X141886036Y-84899227D01*
X141886467Y-84898072D01*
X141916376Y-84858117D01*
X141960641Y-84798141D01*
X142020617Y-84753876D01*
X142060572Y-84723967D01*
X142061727Y-84723536D01*
X142065570Y-84720700D01*
X142126415Y-84699408D01*
X142177963Y-84680183D01*
X142182865Y-84679655D01*
X142188664Y-84677627D01*
X142270000Y-84670000D01*
X143145000Y-84670000D01*
X143226336Y-84677627D01*
G37*
G36*
X145726336Y-84677627D02*
G01*
X145732134Y-84679656D01*
X145737036Y-84680183D01*
X145788568Y-84699403D01*
X145849430Y-84720700D01*
X145853273Y-84723536D01*
X145854427Y-84723967D01*
X145894312Y-84753824D01*
X145954359Y-84798141D01*
X145998693Y-84858211D01*
X146028532Y-84898072D01*
X146028961Y-84899224D01*
X146031800Y-84903070D01*
X146053106Y-84963958D01*
X146072316Y-85015463D01*
X146072842Y-85020361D01*
X146074873Y-85026164D01*
X146082500Y-85107500D01*
X146082500Y-86232500D01*
X146074873Y-86313836D01*
X146072842Y-86319638D01*
X146072316Y-86324536D01*
X146053111Y-86376024D01*
X146031800Y-86436930D01*
X146028961Y-86440776D01*
X146028532Y-86441927D01*
X145998745Y-86481717D01*
X145954359Y-86541859D01*
X145894217Y-86586245D01*
X145854427Y-86616032D01*
X145853276Y-86616461D01*
X145849430Y-86619300D01*
X145788524Y-86640611D01*
X145737036Y-86659816D01*
X145732138Y-86660342D01*
X145726336Y-86662373D01*
X145645000Y-86670000D01*
X144770000Y-86670000D01*
X144688664Y-86662373D01*
X144682861Y-86660342D01*
X144677963Y-86659816D01*
X144626458Y-86640606D01*
X144565570Y-86619300D01*
X144561724Y-86616461D01*
X144560572Y-86616032D01*
X144520711Y-86586193D01*
X144460641Y-86541859D01*
X144416324Y-86481812D01*
X144386467Y-86441927D01*
X144386036Y-86440773D01*
X144383200Y-86436930D01*
X144361903Y-86376068D01*
X144342683Y-86324536D01*
X144342156Y-86319634D01*
X144340127Y-86313836D01*
X144332500Y-86232500D01*
X144332500Y-85107500D01*
X144340127Y-85026164D01*
X144342155Y-85020365D01*
X144342683Y-85015463D01*
X144361908Y-84963915D01*
X144383200Y-84903070D01*
X144386036Y-84899227D01*
X144386467Y-84898072D01*
X144416376Y-84858117D01*
X144460641Y-84798141D01*
X144520617Y-84753876D01*
X144560572Y-84723967D01*
X144561727Y-84723536D01*
X144565570Y-84720700D01*
X144626415Y-84699408D01*
X144677963Y-84680183D01*
X144682865Y-84679655D01*
X144688664Y-84677627D01*
X144770000Y-84670000D01*
X145645000Y-84670000D01*
X145726336Y-84677627D01*
G37*
G36*
X148226336Y-84677627D02*
G01*
X148232134Y-84679656D01*
X148237036Y-84680183D01*
X148288568Y-84699403D01*
X148349430Y-84720700D01*
X148353273Y-84723536D01*
X148354427Y-84723967D01*
X148394312Y-84753824D01*
X148454359Y-84798141D01*
X148498693Y-84858211D01*
X148528532Y-84898072D01*
X148528961Y-84899224D01*
X148531800Y-84903070D01*
X148553106Y-84963958D01*
X148572316Y-85015463D01*
X148572842Y-85020361D01*
X148574873Y-85026164D01*
X148582500Y-85107500D01*
X148582500Y-86232500D01*
X148574873Y-86313836D01*
X148572842Y-86319638D01*
X148572316Y-86324536D01*
X148553111Y-86376024D01*
X148531800Y-86436930D01*
X148528961Y-86440776D01*
X148528532Y-86441927D01*
X148498745Y-86481717D01*
X148454359Y-86541859D01*
X148394217Y-86586245D01*
X148354427Y-86616032D01*
X148353276Y-86616461D01*
X148349430Y-86619300D01*
X148288524Y-86640611D01*
X148237036Y-86659816D01*
X148232138Y-86660342D01*
X148226336Y-86662373D01*
X148145000Y-86670000D01*
X147270000Y-86670000D01*
X147188664Y-86662373D01*
X147182861Y-86660342D01*
X147177963Y-86659816D01*
X147126458Y-86640606D01*
X147065570Y-86619300D01*
X147061724Y-86616461D01*
X147060572Y-86616032D01*
X147020711Y-86586193D01*
X146960641Y-86541859D01*
X146916324Y-86481812D01*
X146886467Y-86441927D01*
X146886036Y-86440773D01*
X146883200Y-86436930D01*
X146861903Y-86376068D01*
X146842683Y-86324536D01*
X146842156Y-86319634D01*
X146840127Y-86313836D01*
X146832500Y-86232500D01*
X146832500Y-85107500D01*
X146840127Y-85026164D01*
X146842155Y-85020365D01*
X146842683Y-85015463D01*
X146861908Y-84963915D01*
X146883200Y-84903070D01*
X146886036Y-84899227D01*
X146886467Y-84898072D01*
X146916376Y-84858117D01*
X146960641Y-84798141D01*
X147020617Y-84753876D01*
X147060572Y-84723967D01*
X147061727Y-84723536D01*
X147065570Y-84720700D01*
X147126415Y-84699408D01*
X147177963Y-84680183D01*
X147182865Y-84679655D01*
X147188664Y-84677627D01*
X147270000Y-84670000D01*
X148145000Y-84670000D01*
X148226336Y-84677627D01*
G37*
G36*
X150726336Y-84677627D02*
G01*
X150732134Y-84679656D01*
X150737036Y-84680183D01*
X150788568Y-84699403D01*
X150849430Y-84720700D01*
X150853273Y-84723536D01*
X150854427Y-84723967D01*
X150894312Y-84753824D01*
X150954359Y-84798141D01*
X150998693Y-84858211D01*
X151028532Y-84898072D01*
X151028961Y-84899224D01*
X151031800Y-84903070D01*
X151053106Y-84963958D01*
X151072316Y-85015463D01*
X151072842Y-85020361D01*
X151074873Y-85026164D01*
X151082500Y-85107500D01*
X151082500Y-86232500D01*
X151074873Y-86313836D01*
X151072842Y-86319638D01*
X151072316Y-86324536D01*
X151053111Y-86376024D01*
X151031800Y-86436930D01*
X151028961Y-86440776D01*
X151028532Y-86441927D01*
X150998745Y-86481717D01*
X150954359Y-86541859D01*
X150894217Y-86586245D01*
X150854427Y-86616032D01*
X150853276Y-86616461D01*
X150849430Y-86619300D01*
X150788524Y-86640611D01*
X150737036Y-86659816D01*
X150732138Y-86660342D01*
X150726336Y-86662373D01*
X150645000Y-86670000D01*
X149770000Y-86670000D01*
X149688664Y-86662373D01*
X149682861Y-86660342D01*
X149677963Y-86659816D01*
X149626458Y-86640606D01*
X149565570Y-86619300D01*
X149561724Y-86616461D01*
X149560572Y-86616032D01*
X149520711Y-86586193D01*
X149460641Y-86541859D01*
X149416324Y-86481812D01*
X149386467Y-86441927D01*
X149386036Y-86440773D01*
X149383200Y-86436930D01*
X149361903Y-86376068D01*
X149342683Y-86324536D01*
X149342156Y-86319634D01*
X149340127Y-86313836D01*
X149332500Y-86232500D01*
X149332500Y-85107500D01*
X149340127Y-85026164D01*
X149342155Y-85020365D01*
X149342683Y-85015463D01*
X149361908Y-84963915D01*
X149383200Y-84903070D01*
X149386036Y-84899227D01*
X149386467Y-84898072D01*
X149416376Y-84858117D01*
X149460641Y-84798141D01*
X149520617Y-84753876D01*
X149560572Y-84723967D01*
X149561727Y-84723536D01*
X149565570Y-84720700D01*
X149626415Y-84699408D01*
X149677963Y-84680183D01*
X149682865Y-84679655D01*
X149688664Y-84677627D01*
X149770000Y-84670000D01*
X150645000Y-84670000D01*
X150726336Y-84677627D01*
G37*
G36*
X157133576Y-85340657D02*
G01*
X157178995Y-85371005D01*
X157209343Y-85416424D01*
X157220000Y-85470000D01*
X157220000Y-85810000D01*
X157209343Y-85863576D01*
X157178995Y-85908995D01*
X157133576Y-85939343D01*
X157080000Y-85950000D01*
X156800000Y-85950000D01*
X156746424Y-85939343D01*
X156701005Y-85908995D01*
X156670657Y-85863576D01*
X156660000Y-85810000D01*
X156660000Y-85470000D01*
X156670657Y-85416424D01*
X156701005Y-85371005D01*
X156746424Y-85340657D01*
X156800000Y-85330000D01*
X157080000Y-85330000D01*
X157133576Y-85340657D01*
G37*
G36*
X158093576Y-85340657D02*
G01*
X158138995Y-85371005D01*
X158169343Y-85416424D01*
X158180000Y-85470000D01*
X158180000Y-85810000D01*
X158169343Y-85863576D01*
X158138995Y-85908995D01*
X158093576Y-85939343D01*
X158040000Y-85950000D01*
X157760000Y-85950000D01*
X157706424Y-85939343D01*
X157661005Y-85908995D01*
X157630657Y-85863576D01*
X157620000Y-85810000D01*
X157620000Y-85470000D01*
X157630657Y-85416424D01*
X157661005Y-85371005D01*
X157706424Y-85340657D01*
X157760000Y-85330000D01*
X158040000Y-85330000D01*
X158093576Y-85340657D01*
G37*
G36*
X164229047Y-84750805D02*
G01*
X164280408Y-84756764D01*
X164297954Y-84764511D01*
X164320671Y-84769030D01*
X164344991Y-84785280D01*
X164365793Y-84794465D01*
X164380000Y-84808672D01*
X164401777Y-84823223D01*
X164416327Y-84844999D01*
X164430534Y-84859206D01*
X164439718Y-84880006D01*
X164455970Y-84904329D01*
X164460489Y-84927048D01*
X164468235Y-84944591D01*
X164474192Y-84995940D01*
X164475000Y-85000000D01*
X164475000Y-85700000D01*
X164474192Y-85704059D01*
X164468235Y-85755408D01*
X164460489Y-85772950D01*
X164455970Y-85795671D01*
X164439716Y-85819995D01*
X164430534Y-85840793D01*
X164416329Y-85854997D01*
X164401777Y-85876777D01*
X164379997Y-85891329D01*
X164365793Y-85905534D01*
X164344995Y-85914716D01*
X164320671Y-85930970D01*
X164297950Y-85935489D01*
X164280408Y-85943235D01*
X164229061Y-85949192D01*
X164225000Y-85950000D01*
X162925000Y-85950000D01*
X162920941Y-85949192D01*
X162869591Y-85943235D01*
X162852048Y-85935489D01*
X162829329Y-85930970D01*
X162805006Y-85914718D01*
X162784206Y-85905534D01*
X162769999Y-85891327D01*
X162748223Y-85876777D01*
X162733672Y-85855000D01*
X162719465Y-85840793D01*
X162710280Y-85819991D01*
X162694030Y-85795671D01*
X162689511Y-85772954D01*
X162681764Y-85755408D01*
X162675805Y-85704049D01*
X162675000Y-85700000D01*
X162675000Y-85000000D01*
X162675804Y-84995953D01*
X162681764Y-84944591D01*
X162689511Y-84927043D01*
X162694030Y-84904329D01*
X162710278Y-84880010D01*
X162719465Y-84859206D01*
X162733674Y-84844996D01*
X162748223Y-84823223D01*
X162769996Y-84808674D01*
X162784206Y-84794465D01*
X162805010Y-84785278D01*
X162829329Y-84769030D01*
X162852043Y-84764511D01*
X162869591Y-84756764D01*
X162920952Y-84750805D01*
X162925000Y-84750000D01*
X164225000Y-84750000D01*
X164229047Y-84750805D01*
G37*
G36*
X157096662Y-84320276D02*
G01*
X157140459Y-84349541D01*
X157169724Y-84393338D01*
X157180000Y-84445000D01*
X157180000Y-84815000D01*
X157169724Y-84866662D01*
X157140459Y-84910459D01*
X157096662Y-84939724D01*
X157045000Y-84950000D01*
X156775000Y-84950000D01*
X156723338Y-84939724D01*
X156679541Y-84910459D01*
X156650276Y-84866662D01*
X156640000Y-84815000D01*
X156640000Y-84445000D01*
X156650276Y-84393338D01*
X156679541Y-84349541D01*
X156723338Y-84320276D01*
X156775000Y-84310000D01*
X157045000Y-84310000D01*
X157096662Y-84320276D01*
G37*
G36*
X158116662Y-84320276D02*
G01*
X158160459Y-84349541D01*
X158189724Y-84393338D01*
X158200000Y-84445000D01*
X158200000Y-84815000D01*
X158189724Y-84866662D01*
X158160459Y-84910459D01*
X158116662Y-84939724D01*
X158065000Y-84950000D01*
X157795000Y-84950000D01*
X157743338Y-84939724D01*
X157699541Y-84910459D01*
X157670276Y-84866662D01*
X157660000Y-84815000D01*
X157660000Y-84445000D01*
X157670276Y-84393338D01*
X157699541Y-84349541D01*
X157743338Y-84320276D01*
X157795000Y-84310000D01*
X158065000Y-84310000D01*
X158116662Y-84320276D01*
G37*
G36*
X156413576Y-83320657D02*
G01*
X156458995Y-83351005D01*
X156489343Y-83396424D01*
X156500000Y-83450000D01*
X156500000Y-83790000D01*
X156489343Y-83843576D01*
X156458995Y-83888995D01*
X156413576Y-83919343D01*
X156360000Y-83930000D01*
X156080000Y-83930000D01*
X156026424Y-83919343D01*
X155981005Y-83888995D01*
X155950657Y-83843576D01*
X155940000Y-83790000D01*
X155940000Y-83450000D01*
X155950657Y-83396424D01*
X155981005Y-83351005D01*
X156026424Y-83320657D01*
X156080000Y-83310000D01*
X156360000Y-83310000D01*
X156413576Y-83320657D01*
G37*
G36*
X157373576Y-83320657D02*
G01*
X157418995Y-83351005D01*
X157449343Y-83396424D01*
X157460000Y-83450000D01*
X157460000Y-83790000D01*
X157449343Y-83843576D01*
X157418995Y-83888995D01*
X157373576Y-83919343D01*
X157320000Y-83930000D01*
X157040000Y-83930000D01*
X156986424Y-83919343D01*
X156941005Y-83888995D01*
X156910657Y-83843576D01*
X156900000Y-83790000D01*
X156900000Y-83450000D01*
X156910657Y-83396424D01*
X156941005Y-83351005D01*
X156986424Y-83320657D01*
X157040000Y-83310000D01*
X157320000Y-83310000D01*
X157373576Y-83320657D01*
G37*
G36*
X146427939Y-83250532D02*
G01*
X146456327Y-83269499D01*
X146774525Y-83587697D01*
X146793492Y-83616085D01*
X146800153Y-83649569D01*
X146793492Y-83683054D01*
X146774525Y-83711441D01*
X146650781Y-83835185D01*
X146622394Y-83854152D01*
X146588909Y-83860813D01*
X146555425Y-83854152D01*
X146527037Y-83835185D01*
X146208839Y-83516987D01*
X146189872Y-83488599D01*
X146183211Y-83455115D01*
X146189872Y-83421630D01*
X146208839Y-83393243D01*
X146262322Y-83339760D01*
X146329099Y-83272982D01*
X146329102Y-83272979D01*
X146332583Y-83269499D01*
X146360970Y-83250532D01*
X146394455Y-83243871D01*
X146427939Y-83250532D01*
G37*
G36*
X163904047Y-81350805D02*
G01*
X163955408Y-81356764D01*
X163972954Y-81364511D01*
X163995671Y-81369030D01*
X164019991Y-81385280D01*
X164040793Y-81394465D01*
X164055000Y-81408672D01*
X164076777Y-81423223D01*
X164091327Y-81444999D01*
X164105534Y-81459206D01*
X164114718Y-81480006D01*
X164130970Y-81504329D01*
X164135489Y-81527048D01*
X164143235Y-81544591D01*
X164149192Y-81595940D01*
X164150000Y-81600000D01*
X164150000Y-83600000D01*
X164149192Y-83604059D01*
X164143235Y-83655408D01*
X164135489Y-83672950D01*
X164130970Y-83695671D01*
X164114716Y-83719995D01*
X164105534Y-83740793D01*
X164091329Y-83754997D01*
X164076777Y-83776777D01*
X164054997Y-83791329D01*
X164040793Y-83805534D01*
X164019995Y-83814716D01*
X163995671Y-83830970D01*
X163972950Y-83835489D01*
X163955408Y-83843235D01*
X163904061Y-83849192D01*
X163900000Y-83850000D01*
X162600000Y-83850000D01*
X162595941Y-83849192D01*
X162544591Y-83843235D01*
X162527048Y-83835489D01*
X162504329Y-83830970D01*
X162480006Y-83814718D01*
X162459206Y-83805534D01*
X162444999Y-83791327D01*
X162423223Y-83776777D01*
X162408672Y-83755000D01*
X162394465Y-83740793D01*
X162385280Y-83719991D01*
X162369030Y-83695671D01*
X162364511Y-83672954D01*
X162356764Y-83655408D01*
X162350805Y-83604049D01*
X162350000Y-83600000D01*
X162350000Y-81600000D01*
X162350804Y-81595953D01*
X162356764Y-81544591D01*
X162364511Y-81527043D01*
X162369030Y-81504329D01*
X162385278Y-81480010D01*
X162394465Y-81459206D01*
X162408674Y-81444996D01*
X162423223Y-81423223D01*
X162444996Y-81408674D01*
X162459206Y-81394465D01*
X162480010Y-81385278D01*
X162504329Y-81369030D01*
X162527043Y-81364511D01*
X162544591Y-81356764D01*
X162595952Y-81350805D01*
X162600000Y-81350000D01*
X163900000Y-81350000D01*
X163904047Y-81350805D01*
G37*
G36*
X159277939Y-83200532D02*
G01*
X159306327Y-83219499D01*
X159624525Y-83537697D01*
X159643492Y-83566085D01*
X159650153Y-83599569D01*
X159643492Y-83633054D01*
X159624525Y-83661441D01*
X159500781Y-83785185D01*
X159472394Y-83804152D01*
X159438909Y-83810813D01*
X159405425Y-83804152D01*
X159377037Y-83785185D01*
X159058839Y-83466987D01*
X159039872Y-83438599D01*
X159033211Y-83405115D01*
X159039872Y-83371630D01*
X159058839Y-83343243D01*
X159106067Y-83296015D01*
X159179099Y-83222982D01*
X159179102Y-83222979D01*
X159182583Y-83219499D01*
X159210970Y-83200532D01*
X159244455Y-83193871D01*
X159277939Y-83200532D01*
G37*
G36*
X146039030Y-82896978D02*
G01*
X146067417Y-82915945D01*
X146191161Y-83039689D01*
X146210128Y-83068076D01*
X146216789Y-83101561D01*
X146210128Y-83135045D01*
X146191161Y-83163433D01*
X145872963Y-83481631D01*
X145844575Y-83500598D01*
X145811091Y-83507259D01*
X145777606Y-83500598D01*
X145749219Y-83481631D01*
X145625475Y-83357887D01*
X145606508Y-83329500D01*
X145599847Y-83296015D01*
X145606508Y-83262531D01*
X145625475Y-83234143D01*
X145943673Y-82915945D01*
X145972061Y-82896978D01*
X146005545Y-82890317D01*
X146039030Y-82896978D01*
G37*
G36*
X146781492Y-82896978D02*
G01*
X146809880Y-82915945D01*
X147128078Y-83234143D01*
X147147045Y-83262531D01*
X147153706Y-83296015D01*
X147147045Y-83329500D01*
X147128078Y-83357887D01*
X147004334Y-83481631D01*
X146975947Y-83500598D01*
X146942462Y-83507259D01*
X146908978Y-83500598D01*
X146880590Y-83481631D01*
X146562392Y-83163433D01*
X146543425Y-83135045D01*
X146536764Y-83101561D01*
X146543425Y-83068076D01*
X146562392Y-83039689D01*
X146615876Y-82986205D01*
X146682652Y-82919428D01*
X146682655Y-82919425D01*
X146686136Y-82915945D01*
X146714523Y-82896978D01*
X146748008Y-82890317D01*
X146781492Y-82896978D01*
G37*
G36*
X158889030Y-82846978D02*
G01*
X158917417Y-82865945D01*
X159041161Y-82989689D01*
X159060128Y-83018076D01*
X159066789Y-83051561D01*
X159060128Y-83085045D01*
X159041161Y-83113433D01*
X158722963Y-83431631D01*
X158694575Y-83450598D01*
X158661091Y-83457259D01*
X158627606Y-83450598D01*
X158599219Y-83431631D01*
X158475475Y-83307887D01*
X158456508Y-83279500D01*
X158449847Y-83246015D01*
X158456508Y-83212531D01*
X158475475Y-83184143D01*
X158793673Y-82865945D01*
X158822061Y-82846978D01*
X158855545Y-82840317D01*
X158889030Y-82846978D01*
G37*
G36*
X159631492Y-82846978D02*
G01*
X159659880Y-82865945D01*
X159978078Y-83184143D01*
X159997045Y-83212531D01*
X160003706Y-83246015D01*
X159997045Y-83279500D01*
X159978078Y-83307887D01*
X159854334Y-83431631D01*
X159825947Y-83450598D01*
X159792462Y-83457259D01*
X159758978Y-83450598D01*
X159730590Y-83431631D01*
X159412392Y-83113433D01*
X159393425Y-83085045D01*
X159386764Y-83051561D01*
X159393425Y-83018076D01*
X159412392Y-82989689D01*
X159459619Y-82942462D01*
X159532652Y-82869428D01*
X159532655Y-82869425D01*
X159536136Y-82865945D01*
X159564523Y-82846978D01*
X159598008Y-82840317D01*
X159631492Y-82846978D01*
G37*
G36*
X143496662Y-82730276D02*
G01*
X143540459Y-82759541D01*
X143569724Y-82803338D01*
X143580000Y-82855000D01*
X143580000Y-83125000D01*
X143569724Y-83176662D01*
X143540459Y-83220459D01*
X143496662Y-83249724D01*
X143445000Y-83260000D01*
X143075000Y-83260000D01*
X143023338Y-83249724D01*
X142979541Y-83220459D01*
X142950276Y-83176662D01*
X142940000Y-83125000D01*
X142940000Y-82855000D01*
X142950276Y-82803338D01*
X142979541Y-82759541D01*
X143023338Y-82730276D01*
X143075000Y-82720000D01*
X143445000Y-82720000D01*
X143496662Y-82730276D01*
G37*
G36*
X145685477Y-82543425D02*
G01*
X145713864Y-82562392D01*
X145837608Y-82686136D01*
X145856575Y-82714523D01*
X145863236Y-82748008D01*
X145856575Y-82781492D01*
X145837608Y-82809880D01*
X145519410Y-83128078D01*
X145491022Y-83147045D01*
X145457538Y-83153706D01*
X145424053Y-83147045D01*
X145395666Y-83128078D01*
X145271922Y-83004334D01*
X145252955Y-82975947D01*
X145246294Y-82942462D01*
X145252955Y-82908978D01*
X145271922Y-82880590D01*
X145590120Y-82562392D01*
X145618508Y-82543425D01*
X145651992Y-82536764D01*
X145685477Y-82543425D01*
G37*
G36*
X147135045Y-82543425D02*
G01*
X147163433Y-82562392D01*
X147481631Y-82880590D01*
X147500598Y-82908978D01*
X147507259Y-82942462D01*
X147500598Y-82975947D01*
X147481631Y-83004334D01*
X147357887Y-83128078D01*
X147329500Y-83147045D01*
X147296015Y-83153706D01*
X147262531Y-83147045D01*
X147234143Y-83128078D01*
X146915945Y-82809880D01*
X146896978Y-82781492D01*
X146890317Y-82748008D01*
X146896978Y-82714523D01*
X146915945Y-82686136D01*
X146969429Y-82632652D01*
X147036205Y-82565875D01*
X147036208Y-82565872D01*
X147039689Y-82562392D01*
X147068076Y-82543425D01*
X147101561Y-82536764D01*
X147135045Y-82543425D01*
G37*
G36*
X158535477Y-82493425D02*
G01*
X158563864Y-82512392D01*
X158687608Y-82636136D01*
X158706575Y-82664523D01*
X158713236Y-82698008D01*
X158706575Y-82731492D01*
X158687608Y-82759880D01*
X158369410Y-83078078D01*
X158341022Y-83097045D01*
X158307538Y-83103706D01*
X158274053Y-83097045D01*
X158245666Y-83078078D01*
X158121922Y-82954334D01*
X158102955Y-82925947D01*
X158096294Y-82892462D01*
X158102955Y-82858978D01*
X158121922Y-82830590D01*
X158440120Y-82512392D01*
X158468508Y-82493425D01*
X158501992Y-82486764D01*
X158535477Y-82493425D01*
G37*
G36*
X159985045Y-82493425D02*
G01*
X160013433Y-82512392D01*
X160331631Y-82830590D01*
X160350598Y-82858978D01*
X160357259Y-82892462D01*
X160350598Y-82925947D01*
X160331631Y-82954334D01*
X160207887Y-83078078D01*
X160179500Y-83097045D01*
X160146015Y-83103706D01*
X160112531Y-83097045D01*
X160084143Y-83078078D01*
X159765945Y-82759880D01*
X159746978Y-82731492D01*
X159740317Y-82698008D01*
X159746978Y-82664523D01*
X159765945Y-82636136D01*
X159813172Y-82588909D01*
X159886205Y-82515875D01*
X159886208Y-82515872D01*
X159889689Y-82512392D01*
X159918076Y-82493425D01*
X159951561Y-82486764D01*
X159985045Y-82493425D01*
G37*
G36*
X145331924Y-82189872D02*
G01*
X145360311Y-82208839D01*
X145484055Y-82332583D01*
X145503022Y-82360970D01*
X145509683Y-82394455D01*
X145503022Y-82427939D01*
X145484055Y-82456327D01*
X145165857Y-82774525D01*
X145137469Y-82793492D01*
X145103985Y-82800153D01*
X145070500Y-82793492D01*
X145042113Y-82774525D01*
X144918369Y-82650781D01*
X144899402Y-82622394D01*
X144892741Y-82588909D01*
X144899402Y-82555425D01*
X144918369Y-82527037D01*
X145236567Y-82208839D01*
X145264955Y-82189872D01*
X145298439Y-82183211D01*
X145331924Y-82189872D01*
G37*
G36*
X147488599Y-82189872D02*
G01*
X147516987Y-82208839D01*
X147835185Y-82527037D01*
X147854152Y-82555425D01*
X147860813Y-82588909D01*
X147854152Y-82622394D01*
X147835185Y-82650781D01*
X147711441Y-82774525D01*
X147683054Y-82793492D01*
X147649569Y-82800153D01*
X147616085Y-82793492D01*
X147587697Y-82774525D01*
X147269499Y-82456327D01*
X147250532Y-82427939D01*
X147243871Y-82394455D01*
X147250532Y-82360970D01*
X147269499Y-82332583D01*
X147322983Y-82279099D01*
X147389759Y-82212322D01*
X147389762Y-82212319D01*
X147393243Y-82208839D01*
X147421630Y-82189872D01*
X147455115Y-82183211D01*
X147488599Y-82189872D01*
G37*
G36*
X158181924Y-82139872D02*
G01*
X158210311Y-82158839D01*
X158334055Y-82282583D01*
X158353022Y-82310970D01*
X158359683Y-82344455D01*
X158353022Y-82377939D01*
X158334055Y-82406327D01*
X158015857Y-82724525D01*
X157987469Y-82743492D01*
X157953985Y-82750153D01*
X157920500Y-82743492D01*
X157892113Y-82724525D01*
X157768369Y-82600781D01*
X157749402Y-82572394D01*
X157742741Y-82538909D01*
X157749402Y-82505425D01*
X157768369Y-82477037D01*
X158086567Y-82158839D01*
X158114955Y-82139872D01*
X158148439Y-82133211D01*
X158181924Y-82139872D01*
G37*
G36*
X160338599Y-82139872D02*
G01*
X160366987Y-82158839D01*
X160685185Y-82477037D01*
X160704152Y-82505425D01*
X160710813Y-82538909D01*
X160704152Y-82572394D01*
X160685185Y-82600781D01*
X160561441Y-82724525D01*
X160533054Y-82743492D01*
X160499569Y-82750153D01*
X160466085Y-82743492D01*
X160437697Y-82724525D01*
X160119499Y-82406327D01*
X160100532Y-82377939D01*
X160093871Y-82344455D01*
X160100532Y-82310970D01*
X160119499Y-82282583D01*
X160173263Y-82228819D01*
X160239759Y-82162322D01*
X160239762Y-82162319D01*
X160243243Y-82158839D01*
X160271630Y-82139872D01*
X160305115Y-82133211D01*
X160338599Y-82139872D01*
G37*
G36*
X143496662Y-81710276D02*
G01*
X143540459Y-81739541D01*
X143569724Y-81783338D01*
X143580000Y-81835000D01*
X143580000Y-82105000D01*
X143569724Y-82156662D01*
X143540459Y-82200459D01*
X143496662Y-82229724D01*
X143445000Y-82240000D01*
X143075000Y-82240000D01*
X143023338Y-82229724D01*
X142979541Y-82200459D01*
X142950276Y-82156662D01*
X142940000Y-82105000D01*
X142940000Y-81835000D01*
X142950276Y-81783338D01*
X142979541Y-81739541D01*
X143023338Y-81710276D01*
X143075000Y-81700000D01*
X143445000Y-81700000D01*
X143496662Y-81710276D01*
G37*
G36*
X144783915Y-81606508D02*
G01*
X144812303Y-81625475D01*
X145130501Y-81943673D01*
X145149468Y-81972061D01*
X145156129Y-82005545D01*
X145149468Y-82039030D01*
X145130501Y-82067417D01*
X145006757Y-82191161D01*
X144978370Y-82210128D01*
X144944885Y-82216789D01*
X144911401Y-82210128D01*
X144883013Y-82191161D01*
X144564815Y-81872963D01*
X144545848Y-81844575D01*
X144539187Y-81811091D01*
X144545848Y-81777606D01*
X144564815Y-81749219D01*
X144618299Y-81695735D01*
X144685075Y-81628958D01*
X144685078Y-81628955D01*
X144688559Y-81625475D01*
X144716946Y-81606508D01*
X144750431Y-81599847D01*
X144783915Y-81606508D01*
G37*
G36*
X147329500Y-81606508D02*
G01*
X147357887Y-81625475D01*
X147481631Y-81749219D01*
X147500598Y-81777606D01*
X147507259Y-81811091D01*
X147500598Y-81844575D01*
X147481631Y-81872963D01*
X147163433Y-82191161D01*
X147135045Y-82210128D01*
X147101561Y-82216789D01*
X147068076Y-82210128D01*
X147039689Y-82191161D01*
X146915945Y-82067417D01*
X146896978Y-82039030D01*
X146890317Y-82005545D01*
X146896978Y-81972061D01*
X146915945Y-81943673D01*
X147234143Y-81625475D01*
X147262531Y-81606508D01*
X147296015Y-81599847D01*
X147329500Y-81606508D01*
G37*
G36*
X157633915Y-81556508D02*
G01*
X157662303Y-81575475D01*
X157980501Y-81893673D01*
X157999468Y-81922061D01*
X158006129Y-81955545D01*
X157999468Y-81989030D01*
X157980501Y-82017417D01*
X157856757Y-82141161D01*
X157828370Y-82160128D01*
X157794885Y-82166789D01*
X157761401Y-82160128D01*
X157733013Y-82141161D01*
X157414815Y-81822963D01*
X157395848Y-81794575D01*
X157389187Y-81761091D01*
X157395848Y-81727606D01*
X157414815Y-81699219D01*
X157462042Y-81651992D01*
X157535075Y-81578958D01*
X157535078Y-81578955D01*
X157538559Y-81575475D01*
X157566946Y-81556508D01*
X157600431Y-81549847D01*
X157633915Y-81556508D01*
G37*
G36*
X160179500Y-81556508D02*
G01*
X160207887Y-81575475D01*
X160331631Y-81699219D01*
X160350598Y-81727606D01*
X160357259Y-81761091D01*
X160350598Y-81794575D01*
X160331631Y-81822963D01*
X160013433Y-82141161D01*
X159985045Y-82160128D01*
X159951561Y-82166789D01*
X159918076Y-82160128D01*
X159889689Y-82141161D01*
X159765945Y-82017417D01*
X159746978Y-81989030D01*
X159740317Y-81955545D01*
X159746978Y-81922061D01*
X159765945Y-81893673D01*
X160084143Y-81575475D01*
X160112531Y-81556508D01*
X160146015Y-81549847D01*
X160179500Y-81556508D01*
G37*
G36*
X145137469Y-81252955D02*
G01*
X145165857Y-81271922D01*
X145484055Y-81590120D01*
X145503022Y-81618508D01*
X145509683Y-81651992D01*
X145503022Y-81685477D01*
X145484055Y-81713864D01*
X145360311Y-81837608D01*
X145331924Y-81856575D01*
X145298439Y-81863236D01*
X145264955Y-81856575D01*
X145236567Y-81837608D01*
X144918369Y-81519410D01*
X144899402Y-81491022D01*
X144892741Y-81457538D01*
X144899402Y-81424053D01*
X144918369Y-81395666D01*
X144971853Y-81342182D01*
X145038629Y-81275405D01*
X145038632Y-81275402D01*
X145042113Y-81271922D01*
X145070500Y-81252955D01*
X145103985Y-81246294D01*
X145137469Y-81252955D01*
G37*
G36*
X146975947Y-81252955D02*
G01*
X147004334Y-81271922D01*
X147128078Y-81395666D01*
X147147045Y-81424053D01*
X147153706Y-81457538D01*
X147147045Y-81491022D01*
X147128078Y-81519410D01*
X146809880Y-81837608D01*
X146781492Y-81856575D01*
X146748008Y-81863236D01*
X146714523Y-81856575D01*
X146686136Y-81837608D01*
X146562392Y-81713864D01*
X146543425Y-81685477D01*
X146536764Y-81651992D01*
X146543425Y-81618508D01*
X146562392Y-81590120D01*
X146880590Y-81271922D01*
X146908978Y-81252955D01*
X146942462Y-81246294D01*
X146975947Y-81252955D01*
G37*
G36*
X157987469Y-81202955D02*
G01*
X158015857Y-81221922D01*
X158334055Y-81540120D01*
X158353022Y-81568508D01*
X158359683Y-81601992D01*
X158353022Y-81635477D01*
X158334055Y-81663864D01*
X158210311Y-81787608D01*
X158181924Y-81806575D01*
X158148439Y-81813236D01*
X158114955Y-81806575D01*
X158086567Y-81787608D01*
X157768369Y-81469410D01*
X157749402Y-81441022D01*
X157742741Y-81407538D01*
X157749402Y-81374053D01*
X157768369Y-81345666D01*
X157828913Y-81285122D01*
X157888629Y-81225405D01*
X157888632Y-81225402D01*
X157892113Y-81221922D01*
X157920500Y-81202955D01*
X157953985Y-81196294D01*
X157987469Y-81202955D01*
G37*
G36*
X159825947Y-81202955D02*
G01*
X159854334Y-81221922D01*
X159978078Y-81345666D01*
X159997045Y-81374053D01*
X160003706Y-81407538D01*
X159997045Y-81441022D01*
X159978078Y-81469410D01*
X159659880Y-81787608D01*
X159631492Y-81806575D01*
X159598008Y-81813236D01*
X159564523Y-81806575D01*
X159536136Y-81787608D01*
X159412392Y-81663864D01*
X159393425Y-81635477D01*
X159386764Y-81601992D01*
X159393425Y-81568508D01*
X159412392Y-81540120D01*
X159730590Y-81221922D01*
X159758978Y-81202955D01*
X159792462Y-81196294D01*
X159825947Y-81202955D01*
G37*
G36*
X145491022Y-80899402D02*
G01*
X145519410Y-80918369D01*
X145837608Y-81236567D01*
X145856575Y-81264955D01*
X145863236Y-81298439D01*
X145856575Y-81331924D01*
X145837608Y-81360311D01*
X145713864Y-81484055D01*
X145685477Y-81503022D01*
X145651992Y-81509683D01*
X145618508Y-81503022D01*
X145590120Y-81484055D01*
X145271922Y-81165857D01*
X145252955Y-81137469D01*
X145246294Y-81103985D01*
X145252955Y-81070500D01*
X145271922Y-81042113D01*
X145325406Y-80988629D01*
X145392182Y-80921852D01*
X145392185Y-80921849D01*
X145395666Y-80918369D01*
X145424053Y-80899402D01*
X145457538Y-80892741D01*
X145491022Y-80899402D01*
G37*
G36*
X146622394Y-80899402D02*
G01*
X146650781Y-80918369D01*
X146774525Y-81042113D01*
X146793492Y-81070500D01*
X146800153Y-81103985D01*
X146793492Y-81137469D01*
X146774525Y-81165857D01*
X146456327Y-81484055D01*
X146427939Y-81503022D01*
X146394455Y-81509683D01*
X146360970Y-81503022D01*
X146332583Y-81484055D01*
X146208839Y-81360311D01*
X146189872Y-81331924D01*
X146183211Y-81298439D01*
X146189872Y-81264955D01*
X146208839Y-81236567D01*
X146527037Y-80918369D01*
X146555425Y-80899402D01*
X146588909Y-80892741D01*
X146622394Y-80899402D01*
G37*
G36*
X150786242Y-79814851D02*
G01*
X150940187Y-79878617D01*
X151078734Y-79971191D01*
X151196559Y-80089016D01*
X151289133Y-80227563D01*
X151352899Y-80381508D01*
X151385407Y-80544935D01*
X151385407Y-80711565D01*
X151352899Y-80874992D01*
X151289133Y-81028937D01*
X151196559Y-81167484D01*
X151078734Y-81285309D01*
X150940187Y-81377883D01*
X150786242Y-81441649D01*
X150622815Y-81474157D01*
X150456185Y-81474157D01*
X150292758Y-81441649D01*
X150138813Y-81377883D01*
X150000266Y-81285309D01*
X149882441Y-81167484D01*
X149789867Y-81028937D01*
X149726101Y-80874992D01*
X149693593Y-80711565D01*
X149693593Y-80544935D01*
X149726101Y-80381508D01*
X149789867Y-80227563D01*
X149882441Y-80089016D01*
X150000266Y-79971191D01*
X150138813Y-79878617D01*
X150292758Y-79814851D01*
X150456185Y-79782343D01*
X150622815Y-79782343D01*
X150786242Y-79814851D01*
G37*
G36*
X153326242Y-79814851D02*
G01*
X153480187Y-79878617D01*
X153618734Y-79971191D01*
X153736559Y-80089016D01*
X153829133Y-80227563D01*
X153892899Y-80381508D01*
X153925407Y-80544935D01*
X153925407Y-80711565D01*
X153892899Y-80874992D01*
X153829133Y-81028937D01*
X153736559Y-81167484D01*
X153618734Y-81285309D01*
X153480187Y-81377883D01*
X153326242Y-81441649D01*
X153162815Y-81474157D01*
X152996185Y-81474157D01*
X152832758Y-81441649D01*
X152678813Y-81377883D01*
X152540266Y-81285309D01*
X152422441Y-81167484D01*
X152329867Y-81028937D01*
X152266101Y-80874992D01*
X152233593Y-80711565D01*
X152233593Y-80544935D01*
X152266101Y-80381508D01*
X152329867Y-80227563D01*
X152422441Y-80089016D01*
X152540266Y-79971191D01*
X152678813Y-79878617D01*
X152832758Y-79814851D01*
X152996185Y-79782343D01*
X153162815Y-79782343D01*
X153326242Y-79814851D01*
G37*
G36*
X158341022Y-80849402D02*
G01*
X158369410Y-80868369D01*
X158687608Y-81186567D01*
X158706575Y-81214955D01*
X158713236Y-81248439D01*
X158706575Y-81281924D01*
X158687608Y-81310311D01*
X158563864Y-81434055D01*
X158535477Y-81453022D01*
X158501992Y-81459683D01*
X158468508Y-81453022D01*
X158440120Y-81434055D01*
X158121922Y-81115857D01*
X158102955Y-81087469D01*
X158096294Y-81053985D01*
X158102955Y-81020500D01*
X158121922Y-80992113D01*
X158169150Y-80944885D01*
X158242182Y-80871852D01*
X158242185Y-80871849D01*
X158245666Y-80868369D01*
X158274053Y-80849402D01*
X158307538Y-80842741D01*
X158341022Y-80849402D01*
G37*
G36*
X159472394Y-80849402D02*
G01*
X159500781Y-80868369D01*
X159624525Y-80992113D01*
X159643492Y-81020500D01*
X159650153Y-81053985D01*
X159643492Y-81087469D01*
X159624525Y-81115857D01*
X159306327Y-81434055D01*
X159277939Y-81453022D01*
X159244455Y-81459683D01*
X159210970Y-81453022D01*
X159182583Y-81434055D01*
X159058839Y-81310311D01*
X159039872Y-81281924D01*
X159033211Y-81248439D01*
X159039872Y-81214955D01*
X159058839Y-81186567D01*
X159377037Y-80868369D01*
X159405425Y-80849402D01*
X159438909Y-80842741D01*
X159472394Y-80849402D01*
G37*
G36*
X148503576Y-80890657D02*
G01*
X148548995Y-80921005D01*
X148579343Y-80966424D01*
X148590000Y-81020000D01*
X148590000Y-81300000D01*
X148579343Y-81353576D01*
X148548995Y-81398995D01*
X148503576Y-81429343D01*
X148450000Y-81440000D01*
X148110000Y-81440000D01*
X148056424Y-81429343D01*
X148011005Y-81398995D01*
X147980657Y-81353576D01*
X147970000Y-81300000D01*
X147970000Y-81020000D01*
X147980657Y-80966424D01*
X148011005Y-80921005D01*
X148056424Y-80890657D01*
X148110000Y-80880000D01*
X148450000Y-80880000D01*
X148503576Y-80890657D01*
G37*
G36*
X145844575Y-80545848D02*
G01*
X145872963Y-80564815D01*
X146191161Y-80883013D01*
X146210128Y-80911401D01*
X146216789Y-80944885D01*
X146210128Y-80978370D01*
X146191161Y-81006757D01*
X146067417Y-81130501D01*
X146039030Y-81149468D01*
X146005545Y-81156129D01*
X145972061Y-81149468D01*
X145943673Y-81130501D01*
X145625475Y-80812303D01*
X145606508Y-80783915D01*
X145599847Y-80750431D01*
X145606508Y-80716946D01*
X145625475Y-80688559D01*
X145678958Y-80635076D01*
X145745735Y-80568298D01*
X145745738Y-80568295D01*
X145749219Y-80564815D01*
X145777606Y-80545848D01*
X145811091Y-80539187D01*
X145844575Y-80545848D01*
G37*
G36*
X142919134Y-80378806D02*
G01*
X142935355Y-80389645D01*
X142946194Y-80405866D01*
X142950000Y-80425000D01*
X142950000Y-81100000D01*
X142946194Y-81119134D01*
X142935355Y-81135355D01*
X142919134Y-81146194D01*
X142900000Y-81150000D01*
X142800000Y-81150000D01*
X142780866Y-81146194D01*
X142764645Y-81135355D01*
X142753806Y-81119134D01*
X142750000Y-81100000D01*
X142750000Y-80425000D01*
X142753806Y-80405866D01*
X142764645Y-80389645D01*
X142780866Y-80378806D01*
X142800000Y-80375000D01*
X142900000Y-80375000D01*
X142919134Y-80378806D01*
G37*
G36*
X143319134Y-80178806D02*
G01*
X143335355Y-80189645D01*
X143346194Y-80205866D01*
X143350000Y-80225000D01*
X143350000Y-81100000D01*
X143346194Y-81119134D01*
X143335355Y-81135355D01*
X143319134Y-81146194D01*
X143300000Y-81150000D01*
X143200000Y-81150000D01*
X143180866Y-81146194D01*
X143164645Y-81135355D01*
X143153806Y-81119134D01*
X143150000Y-81100000D01*
X143150000Y-80225000D01*
X143153806Y-80205866D01*
X143164645Y-80189645D01*
X143180866Y-80178806D01*
X143200000Y-80175000D01*
X143300000Y-80175000D01*
X143319134Y-80178806D01*
G37*
G36*
X158694575Y-80495848D02*
G01*
X158722963Y-80514815D01*
X159041161Y-80833013D01*
X159060128Y-80861401D01*
X159066789Y-80894885D01*
X159060128Y-80928370D01*
X159041161Y-80956757D01*
X158917417Y-81080501D01*
X158889030Y-81099468D01*
X158855545Y-81106129D01*
X158822061Y-81099468D01*
X158793673Y-81080501D01*
X158475475Y-80762303D01*
X158456508Y-80733915D01*
X158449847Y-80700431D01*
X158456508Y-80666946D01*
X158475475Y-80638559D01*
X158529372Y-80584662D01*
X158595735Y-80518298D01*
X158595738Y-80518295D01*
X158599219Y-80514815D01*
X158627606Y-80495848D01*
X158661091Y-80489187D01*
X158694575Y-80495848D01*
G37*
G36*
X142544134Y-80403806D02*
G01*
X142560355Y-80414645D01*
X142571194Y-80430866D01*
X142575000Y-80450000D01*
X142575000Y-80550000D01*
X142571194Y-80569134D01*
X142560355Y-80585355D01*
X142544134Y-80596194D01*
X142525000Y-80600000D01*
X141850000Y-80600000D01*
X141830866Y-80596194D01*
X141814645Y-80585355D01*
X141803806Y-80569134D01*
X141800000Y-80550000D01*
X141800000Y-80450000D01*
X141803806Y-80430866D01*
X141814645Y-80414645D01*
X141830866Y-80403806D01*
X141850000Y-80400000D01*
X142525000Y-80400000D01*
X142544134Y-80403806D01*
G37*
G36*
X144269134Y-80403806D02*
G01*
X144285355Y-80414645D01*
X144296194Y-80430866D01*
X144300000Y-80450000D01*
X144300000Y-80550000D01*
X144296194Y-80569134D01*
X144285355Y-80585355D01*
X144269134Y-80596194D01*
X144250000Y-80600000D01*
X143575000Y-80600000D01*
X143555866Y-80596194D01*
X143539645Y-80585355D01*
X143528806Y-80569134D01*
X143525000Y-80550000D01*
X143525000Y-80450000D01*
X143528806Y-80430866D01*
X143539645Y-80414645D01*
X143555866Y-80403806D01*
X143575000Y-80400000D01*
X144250000Y-80400000D01*
X144269134Y-80403806D01*
G37*
G36*
X148503576Y-79930657D02*
G01*
X148548995Y-79961005D01*
X148579343Y-80006424D01*
X148590000Y-80060000D01*
X148590000Y-80340000D01*
X148579343Y-80393576D01*
X148548995Y-80438995D01*
X148503576Y-80469343D01*
X148450000Y-80480000D01*
X148110000Y-80480000D01*
X148056424Y-80469343D01*
X148011005Y-80438995D01*
X147980657Y-80393576D01*
X147970000Y-80340000D01*
X147970000Y-80060000D01*
X147980657Y-80006424D01*
X148011005Y-79961005D01*
X148056424Y-79930657D01*
X148110000Y-79920000D01*
X148450000Y-79920000D01*
X148503576Y-79930657D01*
G37*
G36*
X142544133Y-80003806D02*
G01*
X142560354Y-80014645D01*
X142571193Y-80030866D01*
X142574999Y-80050000D01*
X142574999Y-80150000D01*
X142571193Y-80169134D01*
X142560354Y-80185355D01*
X142544133Y-80196194D01*
X142524999Y-80200000D01*
X141849999Y-80200000D01*
X141830865Y-80196194D01*
X141814644Y-80185355D01*
X141803805Y-80169134D01*
X141799999Y-80150000D01*
X141799999Y-80050000D01*
X141803805Y-80030866D01*
X141814644Y-80014645D01*
X141830865Y-80003806D01*
X141849999Y-80000000D01*
X142524999Y-80000000D01*
X142544133Y-80003806D01*
G37*
G36*
X144269135Y-80003806D02*
G01*
X144285356Y-80014645D01*
X144296195Y-80030866D01*
X144300001Y-80050000D01*
X144300001Y-80150000D01*
X144296195Y-80169134D01*
X144285356Y-80185355D01*
X144269135Y-80196194D01*
X144250001Y-80200000D01*
X143575001Y-80200000D01*
X143555867Y-80196194D01*
X143539646Y-80185355D01*
X143528807Y-80169134D01*
X143525001Y-80150000D01*
X143525001Y-80050000D01*
X143528807Y-80030866D01*
X143539646Y-80014645D01*
X143555867Y-80003806D01*
X143575001Y-80000000D01*
X144250001Y-80000000D01*
X144269135Y-80003806D01*
G37*
G36*
X163904047Y-77350805D02*
G01*
X163955408Y-77356764D01*
X163972954Y-77364511D01*
X163995671Y-77369030D01*
X164019991Y-77385280D01*
X164040793Y-77394465D01*
X164055000Y-77408672D01*
X164076777Y-77423223D01*
X164091327Y-77444999D01*
X164105534Y-77459206D01*
X164114718Y-77480006D01*
X164130970Y-77504329D01*
X164135489Y-77527048D01*
X164143235Y-77544591D01*
X164149192Y-77595940D01*
X164150000Y-77600000D01*
X164150000Y-79600000D01*
X164149192Y-79604059D01*
X164143235Y-79655408D01*
X164135489Y-79672950D01*
X164130970Y-79695671D01*
X164114716Y-79719995D01*
X164105534Y-79740793D01*
X164091329Y-79754997D01*
X164076777Y-79776777D01*
X164054997Y-79791329D01*
X164040793Y-79805534D01*
X164019995Y-79814716D01*
X163995671Y-79830970D01*
X163972950Y-79835489D01*
X163955408Y-79843235D01*
X163904061Y-79849192D01*
X163900000Y-79850000D01*
X162600000Y-79850000D01*
X162595941Y-79849192D01*
X162544591Y-79843235D01*
X162527048Y-79835489D01*
X162504329Y-79830970D01*
X162480006Y-79814718D01*
X162459206Y-79805534D01*
X162444999Y-79791327D01*
X162423223Y-79776777D01*
X162408672Y-79755000D01*
X162394465Y-79740793D01*
X162385280Y-79719991D01*
X162369030Y-79695671D01*
X162364511Y-79672954D01*
X162356764Y-79655408D01*
X162350805Y-79604049D01*
X162350000Y-79600000D01*
X162350000Y-77600000D01*
X162350804Y-77595953D01*
X162356764Y-77544591D01*
X162364511Y-77527043D01*
X162369030Y-77504329D01*
X162385278Y-77480010D01*
X162394465Y-77459206D01*
X162408674Y-77444996D01*
X162423223Y-77423223D01*
X162444996Y-77408674D01*
X162459206Y-77394465D01*
X162480010Y-77385278D01*
X162504329Y-77369030D01*
X162527043Y-77364511D01*
X162544591Y-77356764D01*
X162595952Y-77350805D01*
X162600000Y-77350000D01*
X163900000Y-77350000D01*
X163904047Y-77350805D01*
G37*
G36*
X142919134Y-79053806D02*
G01*
X142935355Y-79064645D01*
X142946194Y-79080866D01*
X142950000Y-79100000D01*
X142950000Y-79775000D01*
X142946194Y-79794134D01*
X142935355Y-79810355D01*
X142919134Y-79821194D01*
X142900000Y-79825000D01*
X142800000Y-79825000D01*
X142780866Y-79821194D01*
X142764645Y-79810355D01*
X142753806Y-79794134D01*
X142750000Y-79775000D01*
X142750000Y-79100000D01*
X142753806Y-79080866D01*
X142764645Y-79064645D01*
X142780866Y-79053806D01*
X142800000Y-79050000D01*
X142900000Y-79050000D01*
X142919134Y-79053806D01*
G37*
G36*
X143319134Y-79053806D02*
G01*
X143335355Y-79064645D01*
X143346194Y-79080866D01*
X143350000Y-79100000D01*
X143350000Y-79775000D01*
X143346194Y-79794134D01*
X143335355Y-79810355D01*
X143319134Y-79821194D01*
X143300000Y-79825000D01*
X143200000Y-79825000D01*
X143180866Y-79821194D01*
X143164645Y-79810355D01*
X143153806Y-79794134D01*
X143150000Y-79775000D01*
X143150000Y-79100000D01*
X143153806Y-79080866D01*
X143164645Y-79064645D01*
X143180866Y-79053806D01*
X143200000Y-79050000D01*
X143300000Y-79050000D01*
X143319134Y-79053806D01*
G37*
G36*
X142544134Y-79603806D02*
G01*
X142560355Y-79614645D01*
X142571194Y-79630866D01*
X142575000Y-79650000D01*
X142575000Y-79750000D01*
X142571194Y-79769134D01*
X142560355Y-79785355D01*
X142544134Y-79796194D01*
X142525000Y-79800000D01*
X141850000Y-79800000D01*
X141830866Y-79796194D01*
X141814645Y-79785355D01*
X141803806Y-79769134D01*
X141800000Y-79750000D01*
X141800000Y-79650000D01*
X141803806Y-79630866D01*
X141814645Y-79614645D01*
X141830866Y-79603806D01*
X141850000Y-79600000D01*
X142525000Y-79600000D01*
X142544134Y-79603806D01*
G37*
G36*
X144269134Y-79603806D02*
G01*
X144285355Y-79614645D01*
X144296194Y-79630866D01*
X144300000Y-79650000D01*
X144300000Y-79750000D01*
X144296194Y-79769134D01*
X144285355Y-79785355D01*
X144269134Y-79796194D01*
X144250000Y-79800000D01*
X143575000Y-79800000D01*
X143555866Y-79796194D01*
X143539645Y-79785355D01*
X143528806Y-79769134D01*
X143525000Y-79750000D01*
X143525000Y-79650000D01*
X143528806Y-79630866D01*
X143539645Y-79614645D01*
X143555866Y-79603806D01*
X143575000Y-79600000D01*
X144250000Y-79600000D01*
X144269134Y-79603806D01*
G37*
G36*
X159813576Y-79150657D02*
G01*
X159858995Y-79181005D01*
X159889343Y-79226424D01*
X159900000Y-79280000D01*
X159900000Y-79620000D01*
X159889343Y-79673576D01*
X159858995Y-79718995D01*
X159813576Y-79749343D01*
X159760000Y-79760000D01*
X159480000Y-79760000D01*
X159426424Y-79749343D01*
X159381005Y-79718995D01*
X159350657Y-79673576D01*
X159340000Y-79620000D01*
X159340000Y-79280000D01*
X159350657Y-79226424D01*
X159381005Y-79181005D01*
X159426424Y-79150657D01*
X159480000Y-79140000D01*
X159760000Y-79140000D01*
X159813576Y-79150657D01*
G37*
G36*
X160773576Y-79150657D02*
G01*
X160818995Y-79181005D01*
X160849343Y-79226424D01*
X160860000Y-79280000D01*
X160860000Y-79620000D01*
X160849343Y-79673576D01*
X160818995Y-79718995D01*
X160773576Y-79749343D01*
X160720000Y-79760000D01*
X160440000Y-79760000D01*
X160386424Y-79749343D01*
X160341005Y-79718995D01*
X160310657Y-79673576D01*
X160300000Y-79620000D01*
X160300000Y-79280000D01*
X160310657Y-79226424D01*
X160341005Y-79181005D01*
X160386424Y-79150657D01*
X160440000Y-79140000D01*
X160720000Y-79140000D01*
X160773576Y-79150657D01*
G37*
G36*
X147496662Y-78890276D02*
G01*
X147540459Y-78919541D01*
X147569724Y-78963338D01*
X147580000Y-79015000D01*
X147580000Y-79385000D01*
X147569724Y-79436662D01*
X147540459Y-79480459D01*
X147496662Y-79509724D01*
X147445000Y-79520000D01*
X147175000Y-79520000D01*
X147123338Y-79509724D01*
X147079541Y-79480459D01*
X147050276Y-79436662D01*
X147040000Y-79385000D01*
X147040000Y-79015000D01*
X147050276Y-78963338D01*
X147079541Y-78919541D01*
X147123338Y-78890276D01*
X147175000Y-78880000D01*
X147445000Y-78880000D01*
X147496662Y-78890276D01*
G37*
G36*
X148516662Y-78890276D02*
G01*
X148560459Y-78919541D01*
X148589724Y-78963338D01*
X148600000Y-79015000D01*
X148600000Y-79385000D01*
X148589724Y-79436662D01*
X148560459Y-79480459D01*
X148516662Y-79509724D01*
X148465000Y-79520000D01*
X148195000Y-79520000D01*
X148143338Y-79509724D01*
X148099541Y-79480459D01*
X148070276Y-79436662D01*
X148060000Y-79385000D01*
X148060000Y-79015000D01*
X148070276Y-78963338D01*
X148099541Y-78919541D01*
X148143338Y-78890276D01*
X148195000Y-78880000D01*
X148465000Y-78880000D01*
X148516662Y-78890276D01*
G37*
G36*
X142046662Y-78320276D02*
G01*
X142090459Y-78349541D01*
X142119724Y-78393338D01*
X142130000Y-78445000D01*
X142130000Y-78715000D01*
X142119724Y-78766662D01*
X142090459Y-78810459D01*
X142046662Y-78839724D01*
X141995000Y-78850000D01*
X141625000Y-78850000D01*
X141573338Y-78839724D01*
X141529541Y-78810459D01*
X141500276Y-78766662D01*
X141490000Y-78715000D01*
X141490000Y-78445000D01*
X141500276Y-78393338D01*
X141529541Y-78349541D01*
X141573338Y-78320276D01*
X141625000Y-78310000D01*
X141995000Y-78310000D01*
X142046662Y-78320276D01*
G37*
G36*
X157046662Y-78050276D02*
G01*
X157090459Y-78079541D01*
X157119724Y-78123338D01*
X157130000Y-78175000D01*
X157130000Y-78545000D01*
X157119724Y-78596662D01*
X157090459Y-78640459D01*
X157046662Y-78669724D01*
X156995000Y-78680000D01*
X156725000Y-78680000D01*
X156673338Y-78669724D01*
X156629541Y-78640459D01*
X156600276Y-78596662D01*
X156590000Y-78545000D01*
X156590000Y-78175000D01*
X156600276Y-78123338D01*
X156629541Y-78079541D01*
X156673338Y-78050276D01*
X156725000Y-78040000D01*
X156995000Y-78040000D01*
X157046662Y-78050276D01*
G37*
G36*
X158066662Y-78050276D02*
G01*
X158110459Y-78079541D01*
X158139724Y-78123338D01*
X158150000Y-78175000D01*
X158150000Y-78545000D01*
X158139724Y-78596662D01*
X158110459Y-78640459D01*
X158066662Y-78669724D01*
X158015000Y-78680000D01*
X157745000Y-78680000D01*
X157693338Y-78669724D01*
X157649541Y-78640459D01*
X157620276Y-78596662D01*
X157610000Y-78545000D01*
X157610000Y-78175000D01*
X157620276Y-78123338D01*
X157649541Y-78079541D01*
X157693338Y-78050276D01*
X157745000Y-78040000D01*
X158015000Y-78040000D01*
X158066662Y-78050276D01*
G37*
G36*
X159813576Y-78050657D02*
G01*
X159858995Y-78081005D01*
X159889343Y-78126424D01*
X159900000Y-78180000D01*
X159900000Y-78520000D01*
X159889343Y-78573576D01*
X159858995Y-78618995D01*
X159813576Y-78649343D01*
X159760000Y-78660000D01*
X159480000Y-78660000D01*
X159426424Y-78649343D01*
X159381005Y-78618995D01*
X159350657Y-78573576D01*
X159340000Y-78520000D01*
X159340000Y-78180000D01*
X159350657Y-78126424D01*
X159381005Y-78081005D01*
X159426424Y-78050657D01*
X159480000Y-78040000D01*
X159760000Y-78040000D01*
X159813576Y-78050657D01*
G37*
G36*
X160773576Y-78050657D02*
G01*
X160818995Y-78081005D01*
X160849343Y-78126424D01*
X160860000Y-78180000D01*
X160860000Y-78520000D01*
X160849343Y-78573576D01*
X160818995Y-78618995D01*
X160773576Y-78649343D01*
X160720000Y-78660000D01*
X160440000Y-78660000D01*
X160386424Y-78649343D01*
X160341005Y-78618995D01*
X160310657Y-78573576D01*
X160300000Y-78520000D01*
X160300000Y-78180000D01*
X160310657Y-78126424D01*
X160341005Y-78081005D01*
X160386424Y-78050657D01*
X160440000Y-78040000D01*
X160720000Y-78040000D01*
X160773576Y-78050657D01*
G37*
G36*
X153736662Y-78100276D02*
G01*
X153780459Y-78129541D01*
X153809724Y-78173338D01*
X153820000Y-78225000D01*
X153820000Y-78495000D01*
X153809724Y-78546662D01*
X153780459Y-78590459D01*
X153736662Y-78619724D01*
X153685000Y-78630000D01*
X153315000Y-78630000D01*
X153263338Y-78619724D01*
X153219541Y-78590459D01*
X153190276Y-78546662D01*
X153180000Y-78495000D01*
X153180000Y-78225000D01*
X153190276Y-78173338D01*
X153219541Y-78129541D01*
X153263338Y-78100276D01*
X153315000Y-78090000D01*
X153685000Y-78090000D01*
X153736662Y-78100276D01*
G37*
G36*
X143186662Y-78000276D02*
G01*
X143230459Y-78029541D01*
X143259724Y-78073338D01*
X143270000Y-78125000D01*
X143270000Y-78395000D01*
X143259724Y-78446662D01*
X143230459Y-78490459D01*
X143186662Y-78519724D01*
X143135000Y-78530000D01*
X142765000Y-78530000D01*
X142713338Y-78519724D01*
X142669541Y-78490459D01*
X142640276Y-78446662D01*
X142630000Y-78395000D01*
X142630000Y-78125000D01*
X142640276Y-78073338D01*
X142669541Y-78029541D01*
X142713338Y-78000276D01*
X142765000Y-77990000D01*
X143135000Y-77990000D01*
X143186662Y-78000276D01*
G37*
G36*
X149301600Y-78485000D02*
G01*
X149098400Y-78485000D01*
X149098400Y-77824600D01*
X149301600Y-77824600D01*
X149301600Y-78485000D01*
G37*
G36*
X150101601Y-78485000D02*
G01*
X149898401Y-78485000D01*
X149898401Y-77824600D01*
X150101601Y-77824600D01*
X150101601Y-78485000D01*
G37*
G36*
X150901599Y-78485000D02*
G01*
X150698399Y-78485000D01*
X150698399Y-77824600D01*
X150901599Y-77824600D01*
X150901599Y-78485000D01*
G37*
G36*
X151701600Y-78485000D02*
G01*
X151498400Y-78485000D01*
X151498400Y-77824600D01*
X151701600Y-77824600D01*
X151701600Y-78485000D01*
G37*
G36*
X155105552Y-77633564D02*
G01*
X155142050Y-77657950D01*
X155166436Y-77694448D01*
X155175000Y-77737500D01*
X155175000Y-77962500D01*
X155166436Y-78005552D01*
X155142050Y-78042050D01*
X155105552Y-78066436D01*
X155062500Y-78075000D01*
X154362500Y-78075000D01*
X154319448Y-78066436D01*
X154282950Y-78042050D01*
X154258564Y-78005552D01*
X154250000Y-77962500D01*
X154250000Y-77737500D01*
X154258564Y-77694448D01*
X154282950Y-77657950D01*
X154319448Y-77633564D01*
X154362500Y-77625000D01*
X155062500Y-77625000D01*
X155105552Y-77633564D01*
G37*
G36*
X149701599Y-77875400D02*
G01*
X149498399Y-77875400D01*
X149498399Y-77215000D01*
X149701599Y-77215000D01*
X149701599Y-77875400D01*
G37*
G36*
X150501600Y-77875400D02*
G01*
X150298400Y-77875400D01*
X150298400Y-77215000D01*
X150501600Y-77215000D01*
X150501600Y-77875400D01*
G37*
G36*
X151301598Y-77875400D02*
G01*
X151098398Y-77875400D01*
X151098398Y-77215000D01*
X151301598Y-77215000D01*
X151301598Y-77875400D01*
G37*
G36*
X142046662Y-77300276D02*
G01*
X142090459Y-77329541D01*
X142119724Y-77373338D01*
X142130000Y-77425000D01*
X142130000Y-77695000D01*
X142119724Y-77746662D01*
X142090459Y-77790459D01*
X142046662Y-77819724D01*
X141995000Y-77830000D01*
X141625000Y-77830000D01*
X141573338Y-77819724D01*
X141529541Y-77790459D01*
X141500276Y-77746662D01*
X141490000Y-77695000D01*
X141490000Y-77425000D01*
X141500276Y-77373338D01*
X141529541Y-77329541D01*
X141573338Y-77300276D01*
X141625000Y-77290000D01*
X141995000Y-77290000D01*
X142046662Y-77300276D01*
G37*
G36*
X153736662Y-77080276D02*
G01*
X153780459Y-77109541D01*
X153809724Y-77153338D01*
X153820000Y-77205000D01*
X153820000Y-77475000D01*
X153809724Y-77526662D01*
X153780459Y-77570459D01*
X153736662Y-77599724D01*
X153685000Y-77610000D01*
X153315000Y-77610000D01*
X153263338Y-77599724D01*
X153219541Y-77570459D01*
X153190276Y-77526662D01*
X153180000Y-77475000D01*
X153180000Y-77205000D01*
X153190276Y-77153338D01*
X153219541Y-77109541D01*
X153263338Y-77080276D01*
X153315000Y-77070000D01*
X153685000Y-77070000D01*
X153736662Y-77080276D01*
G37*
G36*
X143186662Y-76980276D02*
G01*
X143230459Y-77009541D01*
X143259724Y-77053338D01*
X143270000Y-77105000D01*
X143270000Y-77375000D01*
X143259724Y-77426662D01*
X143230459Y-77470459D01*
X143186662Y-77499724D01*
X143135000Y-77510000D01*
X142765000Y-77510000D01*
X142713338Y-77499724D01*
X142669541Y-77470459D01*
X142640276Y-77426662D01*
X142630000Y-77375000D01*
X142630000Y-77105000D01*
X142640276Y-77053338D01*
X142669541Y-77009541D01*
X142713338Y-76980276D01*
X142765000Y-76970000D01*
X143135000Y-76970000D01*
X143186662Y-76980276D01*
G37*
G36*
X156880552Y-76983564D02*
G01*
X156917050Y-77007950D01*
X156941436Y-77044448D01*
X156950000Y-77087500D01*
X156950000Y-77312500D01*
X156941436Y-77355552D01*
X156917050Y-77392050D01*
X156880552Y-77416436D01*
X156837500Y-77425000D01*
X156137500Y-77425000D01*
X156094448Y-77416436D01*
X156057950Y-77392050D01*
X156033564Y-77355552D01*
X156025000Y-77312500D01*
X156025000Y-77087500D01*
X156033564Y-77044448D01*
X156057950Y-77007950D01*
X156094448Y-76983564D01*
X156137500Y-76975000D01*
X156837500Y-76975000D01*
X156880552Y-76983564D01*
G37*
G36*
X144957403Y-75736418D02*
G01*
X145006066Y-75768934D01*
X145038582Y-75817597D01*
X145050000Y-75875000D01*
X145050000Y-77125000D01*
X145038582Y-77182403D01*
X145006066Y-77231066D01*
X144957403Y-77263582D01*
X144900000Y-77275000D01*
X144600000Y-77275000D01*
X144542597Y-77263582D01*
X144493934Y-77231066D01*
X144461418Y-77182403D01*
X144450000Y-77125000D01*
X144450000Y-75875000D01*
X144461418Y-75817597D01*
X144493934Y-75768934D01*
X144542597Y-75736418D01*
X144600000Y-75725000D01*
X144900000Y-75725000D01*
X144957403Y-75736418D01*
G37*
G36*
X145957403Y-75736418D02*
G01*
X146006066Y-75768934D01*
X146038582Y-75817597D01*
X146050000Y-75875000D01*
X146050000Y-77125000D01*
X146038582Y-77182403D01*
X146006066Y-77231066D01*
X145957403Y-77263582D01*
X145900000Y-77275000D01*
X145600000Y-77275000D01*
X145542597Y-77263582D01*
X145493934Y-77231066D01*
X145461418Y-77182403D01*
X145450000Y-77125000D01*
X145450000Y-75875000D01*
X145461418Y-75817597D01*
X145493934Y-75768934D01*
X145542597Y-75736418D01*
X145600000Y-75725000D01*
X145900000Y-75725000D01*
X145957403Y-75736418D01*
G37*
G36*
X146957403Y-75736418D02*
G01*
X147006066Y-75768934D01*
X147038582Y-75817597D01*
X147050000Y-75875000D01*
X147050000Y-77125000D01*
X147038582Y-77182403D01*
X147006066Y-77231066D01*
X146957403Y-77263582D01*
X146900000Y-77275000D01*
X146600000Y-77275000D01*
X146542597Y-77263582D01*
X146493934Y-77231066D01*
X146461418Y-77182403D01*
X146450000Y-77125000D01*
X146450000Y-75875000D01*
X146461418Y-75817597D01*
X146493934Y-75768934D01*
X146542597Y-75736418D01*
X146600000Y-75725000D01*
X146900000Y-75725000D01*
X146957403Y-75736418D01*
G37*
G36*
X147957403Y-75736418D02*
G01*
X148006066Y-75768934D01*
X148038582Y-75817597D01*
X148050000Y-75875000D01*
X148050000Y-77125000D01*
X148038582Y-77182403D01*
X148006066Y-77231066D01*
X147957403Y-77263582D01*
X147900000Y-77275000D01*
X147600000Y-77275000D01*
X147542597Y-77263582D01*
X147493934Y-77231066D01*
X147461418Y-77182403D01*
X147450000Y-77125000D01*
X147450000Y-75875000D01*
X147461418Y-75817597D01*
X147493934Y-75768934D01*
X147542597Y-75736418D01*
X147600000Y-75725000D01*
X147900000Y-75725000D01*
X147957403Y-75736418D01*
G37*
G36*
X158807403Y-75736418D02*
G01*
X158856066Y-75768934D01*
X158888582Y-75817597D01*
X158900000Y-75875000D01*
X158900000Y-77125000D01*
X158888582Y-77182403D01*
X158856066Y-77231066D01*
X158807403Y-77263582D01*
X158750000Y-77275000D01*
X158450000Y-77275000D01*
X158392597Y-77263582D01*
X158343934Y-77231066D01*
X158311418Y-77182403D01*
X158300000Y-77125000D01*
X158300000Y-75875000D01*
X158311418Y-75817597D01*
X158343934Y-75768934D01*
X158392597Y-75736418D01*
X158450000Y-75725000D01*
X158750000Y-75725000D01*
X158807403Y-75736418D01*
G37*
G36*
X159807403Y-75736418D02*
G01*
X159856066Y-75768934D01*
X159888582Y-75817597D01*
X159900000Y-75875000D01*
X159900000Y-77125000D01*
X159888582Y-77182403D01*
X159856066Y-77231066D01*
X159807403Y-77263582D01*
X159750000Y-77275000D01*
X159450000Y-77275000D01*
X159392597Y-77263582D01*
X159343934Y-77231066D01*
X159311418Y-77182403D01*
X159300000Y-77125000D01*
X159300000Y-75875000D01*
X159311418Y-75817597D01*
X159343934Y-75768934D01*
X159392597Y-75736418D01*
X159450000Y-75725000D01*
X159750000Y-75725000D01*
X159807403Y-75736418D01*
G37*
G36*
X160807403Y-75736418D02*
G01*
X160856066Y-75768934D01*
X160888582Y-75817597D01*
X160900000Y-75875000D01*
X160900000Y-77125000D01*
X160888582Y-77182403D01*
X160856066Y-77231066D01*
X160807403Y-77263582D01*
X160750000Y-77275000D01*
X160450000Y-77275000D01*
X160392597Y-77263582D01*
X160343934Y-77231066D01*
X160311418Y-77182403D01*
X160300000Y-77125000D01*
X160300000Y-75875000D01*
X160311418Y-75817597D01*
X160343934Y-75768934D01*
X160392597Y-75736418D01*
X160450000Y-75725000D01*
X160750000Y-75725000D01*
X160807403Y-75736418D01*
G37*
G36*
X142186662Y-76350276D02*
G01*
X142230459Y-76379541D01*
X142259724Y-76423338D01*
X142270000Y-76475000D01*
X142270000Y-76745000D01*
X142259724Y-76796662D01*
X142230459Y-76840459D01*
X142186662Y-76869724D01*
X142135000Y-76880000D01*
X141765000Y-76880000D01*
X141713338Y-76869724D01*
X141669541Y-76840459D01*
X141640276Y-76796662D01*
X141630000Y-76745000D01*
X141630000Y-76475000D01*
X141640276Y-76423338D01*
X141669541Y-76379541D01*
X141713338Y-76350276D01*
X141765000Y-76340000D01*
X142135000Y-76340000D01*
X142186662Y-76350276D01*
G37*
G36*
X155105552Y-76333564D02*
G01*
X155142050Y-76357950D01*
X155166436Y-76394448D01*
X155175000Y-76437500D01*
X155175000Y-76662500D01*
X155166436Y-76705552D01*
X155142050Y-76742050D01*
X155105552Y-76766436D01*
X155062500Y-76775000D01*
X154362500Y-76775000D01*
X154319448Y-76766436D01*
X154282950Y-76742050D01*
X154258564Y-76705552D01*
X154250000Y-76662500D01*
X154250000Y-76437500D01*
X154258564Y-76394448D01*
X154282950Y-76357950D01*
X154319448Y-76333564D01*
X154362500Y-76325000D01*
X155062500Y-76325000D01*
X155105552Y-76333564D01*
G37*
G36*
X150786242Y-74734851D02*
G01*
X150940187Y-74798617D01*
X151078734Y-74891191D01*
X151196559Y-75009016D01*
X151289133Y-75147563D01*
X151352899Y-75301508D01*
X151385407Y-75464935D01*
X151385407Y-75631565D01*
X151352899Y-75794992D01*
X151289133Y-75948937D01*
X151196559Y-76087484D01*
X151078734Y-76205309D01*
X150940187Y-76297883D01*
X150786242Y-76361649D01*
X150622815Y-76394157D01*
X150456185Y-76394157D01*
X150292758Y-76361649D01*
X150138813Y-76297883D01*
X150000266Y-76205309D01*
X149882441Y-76087484D01*
X149789867Y-75948937D01*
X149726101Y-75794992D01*
X149693593Y-75631565D01*
X149693593Y-75464935D01*
X149726101Y-75301508D01*
X149789867Y-75147563D01*
X149882441Y-75009016D01*
X150000266Y-74891191D01*
X150138813Y-74798617D01*
X150292758Y-74734851D01*
X150456185Y-74702343D01*
X150622815Y-74702343D01*
X150786242Y-74734851D01*
G37*
G36*
X153326242Y-74734851D02*
G01*
X153480187Y-74798617D01*
X153618734Y-74891191D01*
X153736559Y-75009016D01*
X153829133Y-75147563D01*
X153892899Y-75301508D01*
X153925407Y-75464935D01*
X153925407Y-75631565D01*
X153892899Y-75794992D01*
X153829133Y-75948937D01*
X153736559Y-76087484D01*
X153618734Y-76205309D01*
X153480187Y-76297883D01*
X153326242Y-76361649D01*
X153162815Y-76394157D01*
X152996185Y-76394157D01*
X152832758Y-76361649D01*
X152678813Y-76297883D01*
X152540266Y-76205309D01*
X152422441Y-76087484D01*
X152329867Y-75948937D01*
X152266101Y-75794992D01*
X152233593Y-75631565D01*
X152233593Y-75464935D01*
X152266101Y-75301508D01*
X152329867Y-75147563D01*
X152422441Y-75009016D01*
X152540266Y-74891191D01*
X152678813Y-74798617D01*
X152832758Y-74734851D01*
X152996185Y-74702343D01*
X153162815Y-74702343D01*
X153326242Y-74734851D01*
G37*
G36*
X142186662Y-75330276D02*
G01*
X142230459Y-75359541D01*
X142259724Y-75403338D01*
X142270000Y-75455000D01*
X142270000Y-75725000D01*
X142259724Y-75776662D01*
X142230459Y-75820459D01*
X142186662Y-75849724D01*
X142135000Y-75860000D01*
X141765000Y-75860000D01*
X141713338Y-75849724D01*
X141669541Y-75820459D01*
X141640276Y-75776662D01*
X141630000Y-75725000D01*
X141630000Y-75455000D01*
X141640276Y-75403338D01*
X141669541Y-75359541D01*
X141713338Y-75330276D01*
X141765000Y-75320000D01*
X142135000Y-75320000D01*
X142186662Y-75330276D01*
G37*
G36*
X155106662Y-75220276D02*
G01*
X155150459Y-75249541D01*
X155179724Y-75293338D01*
X155190000Y-75345000D01*
X155190000Y-75715000D01*
X155179724Y-75766662D01*
X155150459Y-75810459D01*
X155106662Y-75839724D01*
X155055000Y-75850000D01*
X154785000Y-75850000D01*
X154733338Y-75839724D01*
X154689541Y-75810459D01*
X154660276Y-75766662D01*
X154650000Y-75715000D01*
X154650000Y-75345000D01*
X154660276Y-75293338D01*
X154689541Y-75249541D01*
X154733338Y-75220276D01*
X154785000Y-75210000D01*
X155055000Y-75210000D01*
X155106662Y-75220276D01*
G37*
G36*
X156126662Y-75220276D02*
G01*
X156170459Y-75249541D01*
X156199724Y-75293338D01*
X156210000Y-75345000D01*
X156210000Y-75715000D01*
X156199724Y-75766662D01*
X156170459Y-75810459D01*
X156126662Y-75839724D01*
X156075000Y-75850000D01*
X155805000Y-75850000D01*
X155753338Y-75839724D01*
X155709541Y-75810459D01*
X155680276Y-75766662D01*
X155670000Y-75715000D01*
X155670000Y-75345000D01*
X155680276Y-75293338D01*
X155709541Y-75249541D01*
X155753338Y-75220276D01*
X155805000Y-75210000D01*
X156075000Y-75210000D01*
X156126662Y-75220276D01*
G37*
G36*
X143804047Y-71725805D02*
G01*
X143855408Y-71731764D01*
X143872954Y-71739511D01*
X143895671Y-71744030D01*
X143919991Y-71760280D01*
X143940793Y-71769465D01*
X143955000Y-71783672D01*
X143976777Y-71798223D01*
X143991327Y-71819999D01*
X144005534Y-71834206D01*
X144014718Y-71855006D01*
X144030970Y-71879329D01*
X144035489Y-71902048D01*
X144043235Y-71919591D01*
X144049192Y-71970940D01*
X144050000Y-71975000D01*
X144050000Y-73275000D01*
X144049192Y-73279059D01*
X144043235Y-73330408D01*
X144035489Y-73347950D01*
X144030970Y-73370671D01*
X144014716Y-73394995D01*
X144005534Y-73415793D01*
X143991329Y-73429997D01*
X143976777Y-73451777D01*
X143954997Y-73466329D01*
X143940793Y-73480534D01*
X143919995Y-73489716D01*
X143895671Y-73505970D01*
X143872950Y-73510489D01*
X143855408Y-73518235D01*
X143804061Y-73524192D01*
X143800000Y-73525000D01*
X143100000Y-73525000D01*
X143095941Y-73524192D01*
X143044591Y-73518235D01*
X143027048Y-73510489D01*
X143004329Y-73505970D01*
X142980006Y-73489718D01*
X142959206Y-73480534D01*
X142944999Y-73466327D01*
X142923223Y-73451777D01*
X142908672Y-73430000D01*
X142894465Y-73415793D01*
X142885280Y-73394991D01*
X142869030Y-73370671D01*
X142864511Y-73347954D01*
X142856764Y-73330408D01*
X142850805Y-73279049D01*
X142850000Y-73275000D01*
X142850000Y-71975000D01*
X142850804Y-71970953D01*
X142856764Y-71919591D01*
X142864511Y-71902043D01*
X142869030Y-71879329D01*
X142885278Y-71855010D01*
X142894465Y-71834206D01*
X142908674Y-71819996D01*
X142923223Y-71798223D01*
X142944996Y-71783674D01*
X142959206Y-71769465D01*
X142980010Y-71760278D01*
X143004329Y-71744030D01*
X143027043Y-71739511D01*
X143044591Y-71731764D01*
X143095952Y-71725805D01*
X143100000Y-71725000D01*
X143800000Y-71725000D01*
X143804047Y-71725805D01*
G37*
G36*
X149404047Y-71725805D02*
G01*
X149455408Y-71731764D01*
X149472954Y-71739511D01*
X149495671Y-71744030D01*
X149519991Y-71760280D01*
X149540793Y-71769465D01*
X149555000Y-71783672D01*
X149576777Y-71798223D01*
X149591327Y-71819999D01*
X149605534Y-71834206D01*
X149614718Y-71855006D01*
X149630970Y-71879329D01*
X149635489Y-71902048D01*
X149643235Y-71919591D01*
X149649192Y-71970940D01*
X149650000Y-71975000D01*
X149650000Y-73275000D01*
X149649192Y-73279059D01*
X149643235Y-73330408D01*
X149635489Y-73347950D01*
X149630970Y-73370671D01*
X149614716Y-73394995D01*
X149605534Y-73415793D01*
X149591329Y-73429997D01*
X149576777Y-73451777D01*
X149554997Y-73466329D01*
X149540793Y-73480534D01*
X149519995Y-73489716D01*
X149495671Y-73505970D01*
X149472950Y-73510489D01*
X149455408Y-73518235D01*
X149404061Y-73524192D01*
X149400000Y-73525000D01*
X148700000Y-73525000D01*
X148695941Y-73524192D01*
X148644591Y-73518235D01*
X148627048Y-73510489D01*
X148604329Y-73505970D01*
X148580006Y-73489718D01*
X148559206Y-73480534D01*
X148544999Y-73466327D01*
X148523223Y-73451777D01*
X148508672Y-73430000D01*
X148494465Y-73415793D01*
X148485280Y-73394991D01*
X148469030Y-73370671D01*
X148464511Y-73347954D01*
X148456764Y-73330408D01*
X148450805Y-73279049D01*
X148450000Y-73275000D01*
X148450000Y-71975000D01*
X148450804Y-71970953D01*
X148456764Y-71919591D01*
X148464511Y-71902043D01*
X148469030Y-71879329D01*
X148485278Y-71855010D01*
X148494465Y-71834206D01*
X148508674Y-71819996D01*
X148523223Y-71798223D01*
X148544996Y-71783674D01*
X148559206Y-71769465D01*
X148580010Y-71760278D01*
X148604329Y-71744030D01*
X148627043Y-71739511D01*
X148644591Y-71731764D01*
X148695952Y-71725805D01*
X148700000Y-71725000D01*
X149400000Y-71725000D01*
X149404047Y-71725805D01*
G37*
G36*
X157654047Y-71725805D02*
G01*
X157705408Y-71731764D01*
X157722954Y-71739511D01*
X157745671Y-71744030D01*
X157769991Y-71760280D01*
X157790793Y-71769465D01*
X157805000Y-71783672D01*
X157826777Y-71798223D01*
X157841327Y-71819999D01*
X157855534Y-71834206D01*
X157864718Y-71855006D01*
X157880970Y-71879329D01*
X157885489Y-71902048D01*
X157893235Y-71919591D01*
X157899192Y-71970940D01*
X157900000Y-71975000D01*
X157900000Y-73275000D01*
X157899192Y-73279059D01*
X157893235Y-73330408D01*
X157885489Y-73347950D01*
X157880970Y-73370671D01*
X157864716Y-73394995D01*
X157855534Y-73415793D01*
X157841329Y-73429997D01*
X157826777Y-73451777D01*
X157804997Y-73466329D01*
X157790793Y-73480534D01*
X157769995Y-73489716D01*
X157745671Y-73505970D01*
X157722950Y-73510489D01*
X157705408Y-73518235D01*
X157654061Y-73524192D01*
X157650000Y-73525000D01*
X156950000Y-73525000D01*
X156945941Y-73524192D01*
X156894591Y-73518235D01*
X156877048Y-73510489D01*
X156854329Y-73505970D01*
X156830006Y-73489718D01*
X156809206Y-73480534D01*
X156794999Y-73466327D01*
X156773223Y-73451777D01*
X156758672Y-73430000D01*
X156744465Y-73415793D01*
X156735280Y-73394991D01*
X156719030Y-73370671D01*
X156714511Y-73347954D01*
X156706764Y-73330408D01*
X156700805Y-73279049D01*
X156700000Y-73275000D01*
X156700000Y-71975000D01*
X156700804Y-71970953D01*
X156706764Y-71919591D01*
X156714511Y-71902043D01*
X156719030Y-71879329D01*
X156735278Y-71855010D01*
X156744465Y-71834206D01*
X156758674Y-71819996D01*
X156773223Y-71798223D01*
X156794996Y-71783674D01*
X156809206Y-71769465D01*
X156830010Y-71760278D01*
X156854329Y-71744030D01*
X156877043Y-71739511D01*
X156894591Y-71731764D01*
X156945952Y-71725805D01*
X156950000Y-71725000D01*
X157650000Y-71725000D01*
X157654047Y-71725805D01*
G37*
G36*
X162254047Y-71725805D02*
G01*
X162305408Y-71731764D01*
X162322954Y-71739511D01*
X162345671Y-71744030D01*
X162369991Y-71760280D01*
X162390793Y-71769465D01*
X162405000Y-71783672D01*
X162426777Y-71798223D01*
X162441327Y-71819999D01*
X162455534Y-71834206D01*
X162464718Y-71855006D01*
X162480970Y-71879329D01*
X162485489Y-71902048D01*
X162493235Y-71919591D01*
X162499192Y-71970940D01*
X162500000Y-71975000D01*
X162500000Y-73275000D01*
X162499192Y-73279059D01*
X162493235Y-73330408D01*
X162485489Y-73347950D01*
X162480970Y-73370671D01*
X162464716Y-73394995D01*
X162455534Y-73415793D01*
X162441329Y-73429997D01*
X162426777Y-73451777D01*
X162404997Y-73466329D01*
X162390793Y-73480534D01*
X162369995Y-73489716D01*
X162345671Y-73505970D01*
X162322950Y-73510489D01*
X162305408Y-73518235D01*
X162254061Y-73524192D01*
X162250000Y-73525000D01*
X161550000Y-73525000D01*
X161545941Y-73524192D01*
X161494591Y-73518235D01*
X161477048Y-73510489D01*
X161454329Y-73505970D01*
X161430006Y-73489718D01*
X161409206Y-73480534D01*
X161394999Y-73466327D01*
X161373223Y-73451777D01*
X161358672Y-73430000D01*
X161344465Y-73415793D01*
X161335280Y-73394991D01*
X161319030Y-73370671D01*
X161314511Y-73347954D01*
X161306764Y-73330408D01*
X161300805Y-73279049D01*
X161300000Y-73275000D01*
X161300000Y-71975000D01*
X161300804Y-71970953D01*
X161306764Y-71919591D01*
X161314511Y-71902043D01*
X161319030Y-71879329D01*
X161335278Y-71855010D01*
X161344465Y-71834206D01*
X161358674Y-71819996D01*
X161373223Y-71798223D01*
X161394996Y-71783674D01*
X161409206Y-71769465D01*
X161430010Y-71760278D01*
X161454329Y-71744030D01*
X161477043Y-71739511D01*
X161494591Y-71731764D01*
X161545952Y-71725805D01*
X161550000Y-71725000D01*
X162250000Y-71725000D01*
X162254047Y-71725805D01*
G37*
M02*
