%TF.GenerationSoftware,KiCad,Pcbnew,10.0.3*%
%TF.CreationDate,2026-09-13T09:01:26-07:00*%
%TF.ProjectId,Eyeliner_PCB_V3,4579656c-696e-4657-925f-5043425f5633,rev?*%
%TF.SameCoordinates,Original*%
%TF.FileFunction,Paste,Top*%
%TF.FilePolarity,Positive*%
%FSLAX46Y46*%
G04 Gerber Fmt 4.6, Leading zero omitted, Abs format (unit mm)*
G04 Created by KiCad (PCBNEW 10.0.3) date 2026-09-13 09:01:26*
%MOMM*%
%LPD*%
G01*
G04 APERTURE LIST*
G04 Aperture macros list*
%AMRoundRect*
0 Rectangle with rounded corners*
0 $1 Rounding radius*
0 $2 $3 $4 $5 $6 $7 $8 $9 X,Y pos of 4 corners*
0 Add a 4 corners polygon primitive as box body*
4,1,4,$2,$3,$4,$5,$6,$7,$8,$9,$2,$3,0*
0 Add four circle primitives for the rounded corners*
1,1,$1+$1,$2,$3*
1,1,$1+$1,$4,$5*
1,1,$1+$1,$6,$7*
1,1,$1+$1,$8,$9*
0 Add four rect primitives between the rounded corners*
20,1,$1+$1,$2,$3,$4,$5,0*
20,1,$1+$1,$4,$5,$6,$7,0*
20,1,$1+$1,$6,$7,$8,$9,0*
20,1,$1+$1,$8,$9,$2,$3,0*%
G04 Aperture macros list end*
%ADD10RoundRect,0.250000X-0.312500X-0.625000X0.312500X-0.625000X0.312500X0.625000X-0.312500X0.625000X0*%
%ADD11RoundRect,0.500000X-0.875000X-0.500000X0.875000X-0.500000X0.875000X0.500000X-0.875000X0.500000X0*%
%ADD12RoundRect,0.140000X-0.140000X-0.170000X0.140000X-0.170000X0.140000X0.170000X-0.140000X0.170000X0*%
%ADD13RoundRect,0.135000X-0.185000X0.135000X-0.185000X-0.135000X0.185000X-0.135000X0.185000X0.135000X0*%
%ADD14RoundRect,0.250000X1.125000X-1.275000X1.125000X1.275000X-1.125000X1.275000X-1.125000X-1.275000X0*%
%ADD15RoundRect,0.250000X0.350000X-0.850000X0.350000X0.850000X-0.350000X0.850000X-0.350000X-0.850000X0*%
%ADD16RoundRect,0.135000X0.135000X0.185000X-0.135000X0.185000X-0.135000X-0.185000X0.135000X-0.185000X0*%
%ADD17R,2.895600X3.251200*%
%ADD18RoundRect,0.250000X-0.650000X1.000000X-0.650000X-1.000000X0.650000X-1.000000X0.650000X1.000000X0*%
%ADD19RoundRect,0.075000X-0.200000X0.075000X-0.200000X-0.075000X0.200000X-0.075000X0.200000X0.075000X0*%
%ADD20RoundRect,0.135000X-0.135000X-0.185000X0.135000X-0.185000X0.135000X0.185000X-0.135000X0.185000X0*%
%ADD21R,3.100000X1.900000*%
%ADD22RoundRect,0.135000X0.185000X-0.135000X0.185000X0.135000X-0.185000X0.135000X-0.185000X-0.135000X0*%
%ADD23RoundRect,0.050000X0.250000X-0.100000X0.250000X0.100000X-0.250000X0.100000X-0.250000X-0.100000X0*%
%ADD24RoundRect,0.250000X1.100000X-0.325000X1.100000X0.325000X-1.100000X0.325000X-1.100000X-0.325000X0*%
G04 APERTURE END LIST*
D10*
%TO.C,R8*%
X141437500Y-107150000D03*
X144362500Y-107150000D03*
%TD*%
D11*
%TO.C,U2*%
X143754500Y-76560250D03*
X143754500Y-79100250D03*
X143754500Y-81640250D03*
X143754500Y-84180250D03*
X143754500Y-86720250D03*
X143754500Y-89260250D03*
X143754500Y-91800250D03*
X159919500Y-91800250D03*
X159919500Y-89260250D03*
X159919500Y-86720250D03*
X159919500Y-84180250D03*
X159919500Y-81640250D03*
X159919500Y-79100250D03*
X159919500Y-76560250D03*
%TD*%
D12*
%TO.C,C5*%
X150460000Y-104210000D03*
X151420000Y-104210000D03*
%TD*%
%TO.C,C13*%
X162170000Y-85350000D03*
X163130000Y-85350000D03*
%TD*%
D13*
%TO.C,R9*%
X141760000Y-81030000D03*
X141760000Y-82050000D03*
%TD*%
%TO.C,R4*%
X164050000Y-93190000D03*
X164050000Y-94210000D03*
%TD*%
%TO.C,R13*%
X141550000Y-83390000D03*
X141550000Y-84410000D03*
%TD*%
%TO.C,R1*%
X150610000Y-99042500D03*
X150610000Y-100062500D03*
%TD*%
D14*
%TO.C,Q2*%
X143425000Y-99925000D03*
X146475000Y-99925000D03*
X143425000Y-96575000D03*
X146475000Y-96575000D03*
D15*
X142670000Y-104550000D03*
X147230000Y-104550000D03*
%TD*%
D12*
%TO.C,C10*%
X162170000Y-86400000D03*
X163130000Y-86400000D03*
%TD*%
D16*
%TO.C,R6*%
X150460000Y-105240000D03*
X149440000Y-105240000D03*
%TD*%
D17*
%TO.C,L1*%
X163060100Y-100300000D03*
X153839900Y-100300000D03*
%TD*%
D18*
%TO.C,D3*%
X163250000Y-79150000D03*
X163250000Y-83150000D03*
%TD*%
D19*
%TO.C,U6*%
X150215000Y-95300000D03*
X150215000Y-95800000D03*
X150215000Y-96300000D03*
X150215000Y-96800000D03*
X150215000Y-97300000D03*
X150985000Y-97300000D03*
X150985000Y-96800000D03*
X150985000Y-96300000D03*
X150985000Y-95800000D03*
X150985000Y-95300000D03*
%TD*%
D20*
%TO.C,R5*%
X161990000Y-94150000D03*
X163010000Y-94150000D03*
%TD*%
D21*
%TO.C,J1*%
X150450000Y-108500000D03*
%TD*%
D13*
%TO.C,R7*%
X141500000Y-88340000D03*
X141500000Y-89360000D03*
%TD*%
%TO.C,R12*%
X141500000Y-86340000D03*
X141500000Y-87360000D03*
%TD*%
D22*
%TO.C,R28*%
X141550000Y-76610000D03*
X141550000Y-75590000D03*
%TD*%
D13*
%TO.C,R18*%
X152250000Y-95240000D03*
X152250000Y-96260000D03*
%TD*%
D23*
%TO.C,D1*%
X149330000Y-99750000D03*
X149330000Y-99050000D03*
%TD*%
D24*
%TO.C,C4*%
X163390000Y-91875000D03*
X163390000Y-88925000D03*
%TD*%
D12*
%TO.C,C12*%
X162170000Y-87450000D03*
X163130000Y-87450000D03*
%TD*%
M02*
