M48
; DRILL file KiCad 10.0.3 date 2026-09-13T09:01:27
; FORMAT={-:-/ absolute / metric / decimal}
; #@! TF.CreationDate,2026-09-13T09:01:27-07:00
; #@! TF.GenerationSoftware,Kicad,Pcbnew,10.0.3
; #@! TF.FileFunction,Plated,1,2,PTH
FMAT,2
METRIC
; #@! TA.AperFunction,Plated,PTH,ViaDrill
T1C0.200
; #@! TA.AperFunction,Plated,PTH,ViaDrill
T2C0.450
; #@! TA.AperFunction,Plated,PTH,ComponentDrill
T3C1.000
; #@! TA.AperFunction,Plated,PTH,ComponentDrill
T4C3.200
%
G90
G05
T1
X141.21Y-104.01
X141.21Y-104.61
X141.21Y-105.21
X141.21Y-105.81
X141.21Y-106.41
X141.21Y-107.01
X141.21Y-107.61
X141.21Y-108.21
X141.41Y-82.72
X141.5Y-79.95
X141.55Y-76.61
X141.63Y-79.23
X141.675Y-77.275
X141.75Y-84.275
X141.77Y-82.05
X141.81Y-104.01
X141.81Y-104.61
X141.81Y-105.21
X141.81Y-105.81
X141.81Y-106.41
X141.81Y-107.01
X141.81Y-107.61
X141.81Y-108.21
X142.075Y-85.5
X142.29Y-79.42
X142.41Y-104.01
X142.41Y-104.61
X142.41Y-105.21
X142.41Y-105.81
X142.41Y-106.41
X142.41Y-107.01
X142.41Y-107.61
X142.41Y-108.21
X143.01Y-104.01
X143.01Y-104.61
X143.01Y-105.21
X143.01Y-105.81
X143.01Y-106.41
X143.01Y-107.01
X143.01Y-107.61
X143.01Y-108.21
X143.755Y-89.26
X144.362Y-106.55
X144.362Y-107.15
X144.362Y-107.75
X145.104Y-109.194
X145.14Y-75.07
X145.531Y-108.771
X145.597Y-83.51
X145.6Y-78.71
X145.95Y-104.0
X145.95Y-104.6
X145.95Y-105.2
X145.95Y-105.8
X145.95Y-106.4
X145.95Y-107.0
X145.953Y-109.194
X146.1Y-82.3
X146.225Y-79.65
X146.3Y-79.0
X146.377Y-108.77
X146.377Y-109.619
X146.377Y-110.467
X146.41Y-83.54
X146.55Y-104.0
X146.55Y-104.6
X146.55Y-105.2
X146.55Y-105.8
X146.55Y-106.4
X146.55Y-107.0
X146.64Y-80.88
X146.801Y-109.194
X146.801Y-110.043
X147.022Y-83.022
X147.06Y-74.67
X147.15Y-104.0
X147.15Y-104.6
X147.15Y-105.2
X147.15Y-105.8
X147.15Y-106.4
X147.15Y-107.0
X147.226Y-108.77
X147.226Y-109.619
X147.65Y-109.194
X147.69Y-82.35
X147.707Y-85.67
X147.75Y-104.0
X147.75Y-104.6
X147.75Y-105.2
X147.75Y-105.8
X147.75Y-106.4
X147.75Y-107.0
X148.1Y-80.35
X148.43Y-79.35
X148.43Y-81.27
X148.52Y-83.68
X148.87Y-96.02
X149.04Y-84.64
X149.11Y-94.46
X149.26Y-79.33
X149.85Y-107.86
X149.96Y-82.51
X150.01Y-95.8
X150.01Y-96.8
X150.45Y-107.86
X150.99Y-97.39
X151.05Y-107.86
X151.12Y-95.8
X151.13Y-96.8
X151.2Y-77.545
X151.675Y-79.75
X151.97Y-91.19
X152.25Y-83.4
X152.25Y-84.9
X152.71Y-103.22
X152.71Y-103.93
X153.43Y-95.57
X153.43Y-96.28
X153.49Y-103.22
X153.5Y-78.36
X153.5Y-103.92
X153.62Y-91.18
X153.9Y-83.4
X153.9Y-84.89
X154.21Y-95.57
X154.22Y-96.27
X155.56Y-95.57
X155.56Y-96.28
X156.01Y-103.22
X156.01Y-103.93
X156.34Y-95.57
X156.35Y-96.27
X156.7Y-81.21
X156.79Y-103.22
X156.8Y-103.92
X156.91Y-87.65
X156.91Y-88.65
X156.91Y-90.65
X156.91Y-91.65
X157.44Y-101.74
X157.47Y-89.89
X157.47Y-99.48
X158.31Y-101.75
X158.34Y-99.49
X158.92Y-95.41
X159.12Y-101.75
X159.15Y-99.49
X159.31Y-103.22
X159.31Y-103.93
X159.5Y-80.82
X159.63Y-94.2
X159.8Y-96.85
X159.919Y-84.18
X160.09Y-103.22
X160.1Y-103.92
X160.51Y-82.42
X160.57Y-94.2
X161.425Y-95.25
X162.6Y-79.25
X162.76Y-105.19
X162.76Y-105.9
X163.11Y-96.86
X163.25Y-79.25
X163.54Y-105.19
X163.55Y-105.89
X163.9Y-79.25
X164.05Y-94.21
T2
X153.15Y-82.682
X156.62Y-80.28
X160.6Y-76.5
X162.32Y-91.75
X163.95Y-95.66
T3
X150.54Y-75.548
X150.54Y-80.628
X153.079Y-75.548
X153.079Y-80.628
T4
X143.65Y-112.4
X156.5Y-109.05
X161.9Y-112.4
M30
