%TF.GenerationSoftware,KiCad,Pcbnew,8.0.6*%
%TF.CreationDate,2025-10-25T17:28:24-05:00*%
%TF.ProjectId,Eyeliner-PCB-V2,4579656c-696e-4657-922d-5043422d5632,rev?*%
%TF.SameCoordinates,Original*%
%TF.FileFunction,Copper,L3,Inr*%
%TF.FilePolarity,Positive*%
%FSLAX46Y46*%
G04 Gerber Fmt 4.6, Leading zero omitted, Abs format (unit mm)*
G04 Created by KiCad (PCBNEW 8.0.6) date 2025-10-25 17:28:24*
%MOMM*%
%LPD*%
G01*
G04 APERTURE LIST*
G04 Aperture macros list*
%AMRoundRect*
0 Rectangle with rounded corners*
0 $1 Rounding radius*
0 $2 $3 $4 $5 $6 $7 $8 $9 X,Y pos of 4 corners*
0 Add a 4 corners polygon primitive as box body*
4,1,4,$2,$3,$4,$5,$6,$7,$8,$9,$2,$3,0*
0 Add four circle primitives for the rounded corners*
1,1,$1+$1,$2,$3*
1,1,$1+$1,$4,$5*
1,1,$1+$1,$6,$7*
1,1,$1+$1,$8,$9*
0 Add four rect primitives between the rounded corners*
20,1,$1+$1,$2,$3,$4,$5,0*
20,1,$1+$1,$4,$5,$6,$7,0*
20,1,$1+$1,$6,$7,$8,$9,0*
20,1,$1+$1,$8,$9,$2,$3,0*%
G04 Aperture macros list end*
%TA.AperFunction,ComponentPad*%
%ADD10C,6.000000*%
%TD*%
%TA.AperFunction,ComponentPad*%
%ADD11R,6.000000X6.000000*%
%TD*%
%TA.AperFunction,ComponentPad*%
%ADD12R,6.000000X14.000000*%
%TD*%
%TA.AperFunction,ComponentPad*%
%ADD13C,0.900000*%
%TD*%
%TA.AperFunction,ComponentPad*%
%ADD14C,1.400000*%
%TD*%
%TA.AperFunction,HeatsinkPad*%
%ADD15C,0.500000*%
%TD*%
%TA.AperFunction,ComponentPad*%
%ADD16O,1.700000X1.950000*%
%TD*%
%TA.AperFunction,ComponentPad*%
%ADD17RoundRect,0.250000X0.600000X0.725000X-0.600000X0.725000X-0.600000X-0.725000X0.600000X-0.725000X0*%
%TD*%
%TA.AperFunction,ComponentPad*%
%ADD18RoundRect,0.250000X0.725000X-0.600000X0.725000X0.600000X-0.725000X0.600000X-0.725000X-0.600000X0*%
%TD*%
%TA.AperFunction,ComponentPad*%
%ADD19O,1.950000X1.700000*%
%TD*%
%TA.AperFunction,ViaPad*%
%ADD20C,0.600000*%
%TD*%
%TA.AperFunction,Conductor*%
%ADD21C,0.200000*%
%TD*%
G04 APERTURE END LIST*
D10*
%TO.N,GND*%
%TO.C,J3*%
X145300000Y-158775000D03*
D11*
%TO.N,SWITCH INPUT*%
X138100000Y-158775000D03*
%TD*%
D12*
%TO.N,4S_VCC*%
%TO.C,VCC_PAD_2*%
X124000000Y-145250000D03*
%TD*%
%TO.N,4S_VCC*%
%TO.C,VCC_PAD_1*%
X124000000Y-130250000D03*
%TD*%
D13*
%TO.N,INT_1*%
%TO.C,Seeed_Studio_ESP32-S3_Plus1*%
X145279050Y-90010000D03*
D14*
X145279050Y-91280000D03*
D13*
%TO.N,INT_2*%
X142739050Y-90010000D03*
D14*
X142739050Y-91280000D03*
D13*
%TO.N,CS_1*%
X140199050Y-90010000D03*
D14*
X140199050Y-91280000D03*
D13*
%TO.N,CS_2*%
X137659050Y-90010000D03*
D14*
X137659050Y-91280000D03*
D13*
%TO.N,2*%
X135119050Y-90010000D03*
D14*
X135119050Y-91280000D03*
D13*
%TO.N,3*%
X132579050Y-90010000D03*
D14*
X132579050Y-91280000D03*
D13*
%TO.N,LED_1*%
X130039050Y-90010000D03*
D14*
X130039050Y-91280000D03*
%TO.N,LED_2*%
X130039050Y-106520000D03*
D13*
X130039050Y-107790000D03*
D14*
%TO.N,SCK*%
X132579050Y-106520000D03*
D13*
X132579050Y-107790000D03*
D14*
%TO.N,MISO*%
X135119050Y-106520000D03*
D13*
X135119050Y-107790000D03*
D14*
%TO.N,MOSI*%
X137659050Y-106520000D03*
D13*
X137659050Y-107790000D03*
D14*
%TO.N,VCC 3V3*%
X140199050Y-106520000D03*
D13*
X140199050Y-107790000D03*
D14*
%TO.N,GND*%
X142739050Y-106520000D03*
D13*
X142739050Y-107790000D03*
D14*
%TO.N,VCC 5V*%
X145279050Y-106520000D03*
D13*
X145279050Y-107790000D03*
%TO.N,ESC_1*%
X144009050Y-90010000D03*
%TO.N,ESC_2*%
X141469050Y-90010000D03*
%TO.N,4*%
X138929050Y-90010000D03*
%TO.N,Receiver_TX*%
X136389050Y-90010000D03*
%TO.N,Receiver_RX*%
X133849050Y-90010000D03*
%TO.N,6*%
X131309050Y-90010000D03*
%TO.N,1*%
X131309050Y-107790000D03*
%TO.N,5*%
X133849050Y-107790000D03*
%TO.N,7*%
X136389050Y-107790000D03*
%TD*%
D15*
%TO.N,GND*%
%TO.C,Logic_Side_Regulator1*%
X142100000Y-116400000D03*
X142100000Y-117430000D03*
X142100000Y-118460000D03*
%TD*%
D16*
%TO.N,GND*%
%TO.C,J2*%
X126550000Y-74950000D03*
%TO.N,6*%
X129050000Y-74950000D03*
%TO.N,3*%
X131550000Y-74950000D03*
%TO.N,2*%
X134050000Y-74950000D03*
%TO.N,1*%
X136550000Y-74950000D03*
%TO.N,5*%
X139050000Y-74950000D03*
%TO.N,7*%
X141550000Y-74950000D03*
%TO.N,4*%
X144050000Y-74950000D03*
D17*
%TO.N,VCC 5V*%
X146550000Y-74950000D03*
%TD*%
D18*
%TO.N,GND*%
%TO.C,J1*%
X123375000Y-105750000D03*
D19*
%TO.N,LED_2*%
X123375000Y-103250000D03*
%TO.N,LED_1*%
X123375000Y-100750000D03*
%TO.N,VCC 5V*%
X123375000Y-98250000D03*
%TD*%
D12*
%TO.N,GND*%
%TO.C,GND_PAD_2*%
X146400000Y-145000000D03*
%TD*%
%TO.N,GND*%
%TO.C,GND_PAD_1*%
X146400000Y-130250000D03*
%TD*%
D20*
%TO.N,SWITCH INPUT*%
X127300000Y-156900000D03*
X131300000Y-156900000D03*
X130300000Y-156900000D03*
X129300000Y-156900000D03*
X132300000Y-155100000D03*
X128300000Y-155100000D03*
X130300000Y-156000000D03*
X131300000Y-156000000D03*
X127300000Y-155100000D03*
X132300000Y-156900000D03*
X128300000Y-156900000D03*
X129300000Y-156000000D03*
X131300000Y-155100000D03*
X127300000Y-156000000D03*
X130300000Y-155100000D03*
X129300000Y-155100000D03*
X132300000Y-156000000D03*
X128300000Y-156000000D03*
%TO.N,4S_VCC*%
X132300000Y-161900000D03*
X128300000Y-161900000D03*
X127300000Y-161900000D03*
X131300000Y-161900000D03*
X130300000Y-161900000D03*
X129300000Y-161900000D03*
X132300000Y-161000000D03*
X131300000Y-160100000D03*
X127300000Y-160100000D03*
X132300000Y-160100000D03*
X128300000Y-161000000D03*
X127300000Y-161000000D03*
X129300000Y-161000000D03*
X131300000Y-161000000D03*
X130300000Y-161000000D03*
X128300000Y-160100000D03*
X130300000Y-160100000D03*
X129300000Y-160100000D03*
%TO.N,GND*%
X134700000Y-113450000D03*
X138475000Y-115267500D03*
%TO.N,VCC 3V3*%
X138350000Y-113950000D03*
X147275000Y-114967657D03*
X129600000Y-97400000D03*
X126800000Y-94200000D03*
%TO.N,VCC 5V*%
X130850000Y-82050000D03*
%TO.N,INT_2*%
X137300000Y-113900000D03*
%TO.N,INT_1*%
X146625432Y-113800000D03*
%TO.N,VCC 3V3*%
X144800000Y-110137500D03*
X142300000Y-110137500D03*
%TO.N,4S_VCC*%
X134700000Y-117750000D03*
X138475000Y-118392500D03*
%TO.N,VCC 5V*%
X145875000Y-118392500D03*
%TO.N,MOSI*%
X148550000Y-108750000D03*
%TO.N,CS_2*%
X139875000Y-109600000D03*
%TO.N,CS_1*%
X149000000Y-109500000D03*
%TO.N,SCK*%
X139200000Y-108925000D03*
X148075000Y-109500000D03*
%TO.N,VCC 3V3*%
X140275000Y-113725000D03*
X149175000Y-113775000D03*
%TO.N,MISO*%
X136950000Y-111050000D03*
X146837500Y-109897500D03*
%TO.N,VCC 3V3*%
X134550000Y-93700000D03*
%TO.N,CS_1*%
X137650000Y-93700000D03*
%TO.N,CS_2*%
X137650000Y-96300000D03*
%TO.N,VCC 3V3*%
X134550000Y-96300000D03*
X135650000Y-104200000D03*
%TO.N,SCK*%
X132550000Y-104200000D03*
%TD*%
D21*
%TO.N,INT_2*%
X137500000Y-113900000D02*
X141862500Y-109537500D01*
X137300000Y-113900000D02*
X137500000Y-113900000D01*
X141862500Y-109537500D02*
X142312500Y-109537500D01*
X144000000Y-107850000D02*
X144000000Y-92540950D01*
X142312500Y-109537500D02*
X144000000Y-107850000D01*
X144000000Y-92540950D02*
X142739050Y-91280000D01*
%TO.N,INT_1*%
X146625432Y-113800000D02*
X146625432Y-110958097D01*
X146625432Y-110958097D02*
X147475000Y-110108529D01*
X147475000Y-110108529D02*
X147475000Y-93475950D01*
X147475000Y-93475950D02*
X145279050Y-91280000D01*
%TO.N,LED_1*%
X123375000Y-100750000D02*
X130039050Y-94085950D01*
X130039050Y-94085950D02*
X130039050Y-91280000D01*
%TO.N,LED_2*%
X123375000Y-103250000D02*
X126769050Y-103250000D01*
X126769050Y-103250000D02*
X130039050Y-106520000D01*
%TO.N,6*%
X129050000Y-74950000D02*
X129050000Y-87350000D01*
X129050000Y-87350000D02*
X131309050Y-89609050D01*
X131309050Y-89609050D02*
X131309050Y-90010000D01*
%TO.N,4*%
X138929050Y-90010000D02*
X138929050Y-80070950D01*
X138929050Y-80070950D02*
X144050000Y-74950000D01*
%TO.N,2*%
X135119050Y-90010000D02*
X135119050Y-76019050D01*
X135119050Y-76019050D02*
X134050000Y-74950000D01*
%TO.N,3*%
X132579050Y-90010000D02*
X132579050Y-75979050D01*
X132579050Y-75979050D02*
X131550000Y-74950000D01*
%TO.N,SCK*%
X139200000Y-108925000D02*
X133714050Y-108925000D01*
X133714050Y-108925000D02*
X132579050Y-107790000D01*
%TO.N,CS_2*%
X137659050Y-91280000D02*
X136959050Y-91980000D01*
X136959050Y-91980000D02*
X136959050Y-95609050D01*
X136959050Y-95609050D02*
X137650000Y-96300000D01*
%TO.N,CS_1*%
X137650000Y-93700000D02*
X137779050Y-93700000D01*
X137779050Y-93700000D02*
X140199050Y-91280000D01*
%TO.N,CS_2*%
X139875000Y-109600000D02*
X141739050Y-107735950D01*
X141739050Y-107735950D02*
X141739050Y-100389050D01*
X141739050Y-100389050D02*
X137650000Y-96300000D01*
%TO.N,VCC 3V3*%
X140199050Y-106520000D02*
X140199050Y-107790000D01*
%TD*%
%TA.AperFunction,Conductor*%
%TO.N,GND*%
G36*
X149417539Y-120725185D02*
G01*
X149463294Y-120777989D01*
X149474500Y-120829500D01*
X149474500Y-162675500D01*
X149454815Y-162742539D01*
X149402011Y-162788294D01*
X149350500Y-162799500D01*
X142229500Y-162799500D01*
X142162461Y-162779815D01*
X142116706Y-162727011D01*
X142105500Y-162675500D01*
X142105500Y-153524010D01*
X142105500Y-153524000D01*
X142093947Y-153416544D01*
X142082741Y-153365033D01*
X142082637Y-153364722D01*
X142048616Y-153262502D01*
X142048613Y-153262496D01*
X141970828Y-153141462D01*
X141970825Y-153141457D01*
X141970820Y-153141451D01*
X141925076Y-153088659D01*
X141925072Y-153088656D01*
X141925070Y-153088653D01*
X141816336Y-152994433D01*
X141816333Y-152994431D01*
X141816331Y-152994430D01*
X141685465Y-152934664D01*
X141685460Y-152934662D01*
X141685459Y-152934662D01*
X141618420Y-152914977D01*
X141618422Y-152914977D01*
X141618417Y-152914976D01*
X141570944Y-152908150D01*
X141476000Y-152894500D01*
X141475998Y-152894500D01*
X137374309Y-152894500D01*
X137307270Y-152874815D01*
X137261515Y-152822011D01*
X137250311Y-152771126D01*
X137171387Y-137144415D01*
X137105753Y-124148863D01*
X137105753Y-124148858D01*
X137102566Y-124094687D01*
X137099582Y-124068263D01*
X137090601Y-124014714D01*
X137090600Y-124014712D01*
X137090600Y-124014710D01*
X137039552Y-123880199D01*
X137039551Y-123880198D01*
X137039550Y-123880195D01*
X137005715Y-123819064D01*
X136918834Y-123704377D01*
X134100107Y-120917681D01*
X134066272Y-120856550D01*
X134070859Y-120786831D01*
X134112410Y-120730659D01*
X134177733Y-120705869D01*
X134187286Y-120705500D01*
X149350500Y-120705500D01*
X149417539Y-120725185D01*
G37*
%TD.AperFunction*%
%TA.AperFunction,Conductor*%
G36*
X138527173Y-114976510D02*
G01*
X138554237Y-114982687D01*
X138590620Y-114995418D01*
X138615636Y-115007466D01*
X138648266Y-115027969D01*
X138669975Y-115045281D01*
X138697216Y-115072522D01*
X138714529Y-115094231D01*
X138735033Y-115126863D01*
X138747081Y-115151881D01*
X138759808Y-115188253D01*
X138765986Y-115215321D01*
X138770301Y-115253611D01*
X138770301Y-115281382D01*
X138765986Y-115319676D01*
X138759808Y-115346744D01*
X138747081Y-115383117D01*
X138735032Y-115408136D01*
X138714529Y-115440766D01*
X138697217Y-115462475D01*
X138669975Y-115489717D01*
X138648266Y-115507029D01*
X138615636Y-115527532D01*
X138590618Y-115539581D01*
X138554243Y-115552309D01*
X138527172Y-115558487D01*
X138488882Y-115562801D01*
X138461116Y-115562801D01*
X138422826Y-115558487D01*
X138395755Y-115552309D01*
X138359380Y-115539581D01*
X138334362Y-115527532D01*
X138301732Y-115507029D01*
X138280023Y-115489717D01*
X138252781Y-115462475D01*
X138235469Y-115440766D01*
X138214966Y-115408136D01*
X138202918Y-115383119D01*
X138190190Y-115346745D01*
X138184011Y-115319675D01*
X138179696Y-115281370D01*
X138179697Y-115253611D01*
X138184010Y-115215329D01*
X138190186Y-115188261D01*
X138202919Y-115151873D01*
X138214961Y-115126868D01*
X138256590Y-115060619D01*
X138256598Y-115060602D01*
X138257049Y-115059885D01*
X138309384Y-115013594D01*
X138321073Y-115008821D01*
X138395755Y-114982688D01*
X138422822Y-114976510D01*
X138461118Y-114972196D01*
X138488880Y-114972196D01*
X138527173Y-114976510D01*
G37*
%TD.AperFunction*%
%TA.AperFunction,Conductor*%
G36*
X134752173Y-113159010D02*
G01*
X134779237Y-113165187D01*
X134815620Y-113177918D01*
X134840636Y-113189966D01*
X134873266Y-113210469D01*
X134894975Y-113227781D01*
X134922218Y-113255024D01*
X134939527Y-113276728D01*
X134960033Y-113309361D01*
X134972081Y-113334380D01*
X134974456Y-113341168D01*
X134974455Y-113341168D01*
X134984809Y-113370759D01*
X134990987Y-113397827D01*
X134995301Y-113436115D01*
X134995301Y-113463882D01*
X134990987Y-113502172D01*
X134984809Y-113529243D01*
X134972081Y-113565618D01*
X134960032Y-113590636D01*
X134939529Y-113623266D01*
X134922217Y-113644975D01*
X134894975Y-113672217D01*
X134873266Y-113689529D01*
X134840636Y-113710032D01*
X134815618Y-113722081D01*
X134779243Y-113734809D01*
X134752172Y-113740987D01*
X134713882Y-113745301D01*
X134686116Y-113745301D01*
X134647826Y-113740987D01*
X134620755Y-113734809D01*
X134584380Y-113722081D01*
X134559362Y-113710032D01*
X134526732Y-113689529D01*
X134505023Y-113672217D01*
X134477783Y-113644977D01*
X134460471Y-113623269D01*
X134439964Y-113590633D01*
X134427919Y-113565623D01*
X134415188Y-113529240D01*
X134409012Y-113502175D01*
X134404697Y-113463875D01*
X134404697Y-113436111D01*
X134409010Y-113397829D01*
X134409011Y-113397827D01*
X134409010Y-113397825D01*
X134415188Y-113370759D01*
X134427919Y-113334373D01*
X134439966Y-113309361D01*
X134460469Y-113276731D01*
X134477777Y-113255026D01*
X134505026Y-113227777D01*
X134526731Y-113210469D01*
X134559361Y-113189966D01*
X134584373Y-113177919D01*
X134620761Y-113165186D01*
X134647822Y-113159010D01*
X134686118Y-113154696D01*
X134713880Y-113154696D01*
X134752173Y-113159010D01*
G37*
%TD.AperFunction*%
%TA.AperFunction,Conductor*%
G36*
X142793319Y-106127710D02*
G01*
X142849033Y-106139552D01*
X142873689Y-106147563D01*
X142982622Y-106196064D01*
X142992381Y-106200933D01*
X143012516Y-106212115D01*
X143067752Y-106234533D01*
X143185917Y-106266495D01*
X143275500Y-106266494D01*
X143342538Y-106286178D01*
X143388294Y-106338981D01*
X143399500Y-106390494D01*
X143399500Y-107549902D01*
X143379815Y-107616941D01*
X143363181Y-107637583D01*
X142976777Y-108023986D01*
X142915454Y-108057471D01*
X142845762Y-108052487D01*
X142802871Y-108025419D01*
X142769618Y-107993244D01*
X142768995Y-107992631D01*
X142768910Y-107992558D01*
X142768902Y-107992551D01*
X142768901Y-107992550D01*
X142665637Y-107917871D01*
X142656086Y-107910218D01*
X142598010Y-107858767D01*
X142598009Y-107858766D01*
X142592226Y-107853643D01*
X142517320Y-107798684D01*
X142517319Y-107798683D01*
X142478428Y-107775319D01*
X142478427Y-107775318D01*
X142478421Y-107775315D01*
X142409727Y-107742218D01*
X142357876Y-107695385D01*
X142339550Y-107630508D01*
X142339550Y-106279925D01*
X142359235Y-106212886D01*
X142412039Y-106167131D01*
X142455288Y-106156201D01*
X142594428Y-106146915D01*
X142684782Y-106127709D01*
X142710563Y-106125000D01*
X142767539Y-106125000D01*
X142793319Y-106127710D01*
G37*
%TD.AperFunction*%
%TA.AperFunction,Conductor*%
G36*
X122957504Y-104571007D02*
G01*
X123143713Y-104600500D01*
X123143714Y-104600500D01*
X123606286Y-104600500D01*
X123606287Y-104600500D01*
X123786888Y-104571895D01*
X123856178Y-104580849D01*
X123909340Y-104625409D01*
X123991316Y-104747921D01*
X124030092Y-104791032D01*
X124030112Y-104791075D01*
X124030468Y-104791450D01*
X124038031Y-104799859D01*
X124038069Y-104799901D01*
X124040396Y-104801842D01*
X124048631Y-104809368D01*
X124061886Y-104822623D01*
X124061894Y-104822630D01*
X124125713Y-104873092D01*
X124128246Y-104875148D01*
X124148542Y-104892085D01*
X124153959Y-104895426D01*
X124153961Y-104895427D01*
X124156308Y-104896874D01*
X124156310Y-104896876D01*
X124240659Y-104948902D01*
X124263244Y-104966760D01*
X124283238Y-104986754D01*
X124301096Y-105009339D01*
X124315946Y-105033415D01*
X124328112Y-105059506D01*
X124338469Y-105090760D01*
X124344121Y-105117150D01*
X124344356Y-105119448D01*
X124344999Y-105132063D01*
X124344999Y-106367933D01*
X124344356Y-106380542D01*
X124344121Y-106382841D01*
X124338470Y-106409236D01*
X124328113Y-106440491D01*
X124315946Y-106466583D01*
X124301096Y-106490659D01*
X124283238Y-106513244D01*
X124263244Y-106533238D01*
X124240659Y-106551096D01*
X124216583Y-106565946D01*
X124190492Y-106578112D01*
X124159238Y-106588469D01*
X124132848Y-106594121D01*
X124131399Y-106594269D01*
X124130548Y-106594356D01*
X124117935Y-106594999D01*
X122632065Y-106594999D01*
X122619456Y-106594356D01*
X122617157Y-106594121D01*
X122590762Y-106588470D01*
X122559507Y-106578113D01*
X122533415Y-106565946D01*
X122509339Y-106551096D01*
X122486754Y-106533238D01*
X122466760Y-106513244D01*
X122448901Y-106490657D01*
X122434051Y-106466580D01*
X122421886Y-106440493D01*
X122411528Y-106409237D01*
X122405872Y-106382798D01*
X122405639Y-106380511D01*
X122405000Y-106367943D01*
X122405000Y-105132058D01*
X122405642Y-105119458D01*
X122405876Y-105117167D01*
X122411525Y-105090772D01*
X122421889Y-105059496D01*
X122434049Y-105033417D01*
X122448906Y-105009332D01*
X122466754Y-104986759D01*
X122486756Y-104966757D01*
X122509330Y-104948907D01*
X122601494Y-104892062D01*
X122620591Y-104879681D01*
X122629804Y-104873409D01*
X122648264Y-104860226D01*
X122750004Y-104758489D01*
X122791876Y-104702556D01*
X122791882Y-104702548D01*
X122829281Y-104634054D01*
X122878684Y-104584650D01*
X122946956Y-104569797D01*
X122957504Y-104571007D01*
G37*
%TD.AperFunction*%
%TA.AperFunction,Conductor*%
G36*
X126626137Y-73981525D02*
G01*
X126738241Y-73999280D01*
X126757130Y-74003815D01*
X126865092Y-74038894D01*
X126883056Y-74046335D01*
X126984194Y-74097868D01*
X127000774Y-74108028D01*
X127060205Y-74151207D01*
X127092585Y-74174732D01*
X127107381Y-74187369D01*
X127187629Y-74267617D01*
X127200266Y-74282413D01*
X127290721Y-74406915D01*
X127290723Y-74406917D01*
X127317642Y-74440815D01*
X127329006Y-74453931D01*
X127331539Y-74456854D01*
X127361286Y-74488351D01*
X127361288Y-74488353D01*
X127465721Y-74564224D01*
X127477685Y-74572916D01*
X127477689Y-74572918D01*
X127539473Y-74605518D01*
X127539477Y-74605519D01*
X127539480Y-74605521D01*
X127617172Y-74633242D01*
X127673696Y-74674309D01*
X127699045Y-74739418D01*
X127699500Y-74750029D01*
X127699500Y-75148269D01*
X127679815Y-75215308D01*
X127627011Y-75261063D01*
X127603586Y-75269046D01*
X127571617Y-75276480D01*
X127571615Y-75276480D01*
X127446329Y-75347232D01*
X127391000Y-75389897D01*
X127390994Y-75389903D01*
X127290734Y-75493068D01*
X127290721Y-75493084D01*
X127200263Y-75617589D01*
X127187626Y-75632384D01*
X127107389Y-75712621D01*
X127092592Y-75725259D01*
X127000764Y-75791974D01*
X126984175Y-75802140D01*
X126883062Y-75853660D01*
X126865086Y-75861106D01*
X126757145Y-75896179D01*
X126738225Y-75900721D01*
X126682186Y-75909597D01*
X126626145Y-75918473D01*
X126606749Y-75920000D01*
X126493251Y-75920000D01*
X126473853Y-75918473D01*
X126361774Y-75900721D01*
X126342853Y-75896179D01*
X126234912Y-75861106D01*
X126216936Y-75853660D01*
X126115815Y-75802136D01*
X126099226Y-75791970D01*
X126007411Y-75725264D01*
X125992614Y-75712626D01*
X125912369Y-75632381D01*
X125899732Y-75617585D01*
X125833031Y-75525778D01*
X125822868Y-75509194D01*
X125771336Y-75408058D01*
X125763895Y-75390094D01*
X125728817Y-75282135D01*
X125724281Y-75263243D01*
X125706525Y-75151129D01*
X125705000Y-75131743D01*
X125705000Y-74768254D01*
X125706525Y-74748869D01*
X125724282Y-74636751D01*
X125728816Y-74617865D01*
X125763896Y-74509899D01*
X125771334Y-74491943D01*
X125822871Y-74390797D01*
X125833024Y-74374228D01*
X125899735Y-74282407D01*
X125912363Y-74267622D01*
X125992622Y-74187363D01*
X126007407Y-74174735D01*
X126099228Y-74108024D01*
X126115797Y-74097871D01*
X126216941Y-74046335D01*
X126234901Y-74038896D01*
X126342867Y-74003815D01*
X126361769Y-73999278D01*
X126444708Y-73986142D01*
X126444710Y-73986142D01*
X126473859Y-73981526D01*
X126493254Y-73980000D01*
X126606753Y-73980000D01*
X126626137Y-73981525D01*
G37*
%TD.AperFunction*%
%TD*%
%TA.AperFunction,Conductor*%
%TO.N,4S_VCC*%
G36*
X127816091Y-115419685D02*
G01*
X127836229Y-115435817D01*
X130825001Y-118390626D01*
X136563440Y-124063856D01*
X136597275Y-124124987D01*
X136600259Y-124151411D01*
X136665893Y-137146968D01*
X136744797Y-152769876D01*
X136725453Y-152837012D01*
X136672880Y-152883033D01*
X136620800Y-152894500D01*
X126724000Y-152894500D01*
X126723991Y-152894500D01*
X126723990Y-152894501D01*
X126616549Y-152906052D01*
X126616537Y-152906054D01*
X126565027Y-152917260D01*
X126462502Y-152951383D01*
X126462496Y-152951386D01*
X126341462Y-153029171D01*
X126341451Y-153029179D01*
X126288659Y-153074923D01*
X126194433Y-153183664D01*
X126194430Y-153183668D01*
X126134664Y-153314534D01*
X126114976Y-153381582D01*
X126101325Y-153476528D01*
X126094500Y-153524000D01*
X126094500Y-158076000D01*
X126094501Y-158076009D01*
X126106052Y-158183450D01*
X126106054Y-158183462D01*
X126117260Y-158234972D01*
X126151383Y-158337497D01*
X126151386Y-158337503D01*
X126229171Y-158458537D01*
X126229179Y-158458548D01*
X126274923Y-158511340D01*
X126274926Y-158511343D01*
X126274930Y-158511347D01*
X126383664Y-158605567D01*
X126514541Y-158665338D01*
X126581580Y-158685023D01*
X126581584Y-158685024D01*
X126724000Y-158705500D01*
X132670500Y-158705500D01*
X132737539Y-158725185D01*
X132783294Y-158777989D01*
X132794500Y-158829500D01*
X132794500Y-162675500D01*
X132774815Y-162742539D01*
X132722011Y-162788294D01*
X132670500Y-162799500D01*
X120974500Y-162799500D01*
X120907461Y-162779815D01*
X120861706Y-162727011D01*
X120850500Y-162675500D01*
X120850500Y-115524000D01*
X120870185Y-115456961D01*
X120922989Y-115411206D01*
X120974500Y-115400000D01*
X127749052Y-115400000D01*
X127816091Y-115419685D01*
G37*
%TD.AperFunction*%
%TD*%
%TA.AperFunction,Conductor*%
%TO.N,SWITCH INPUT*%
G36*
X141543039Y-153419685D02*
G01*
X141588794Y-153472489D01*
X141600000Y-153524000D01*
X141600000Y-162675500D01*
X141580315Y-162742539D01*
X141527511Y-162788294D01*
X141476000Y-162799500D01*
X133424000Y-162799500D01*
X133356961Y-162779815D01*
X133311206Y-162727011D01*
X133300000Y-162675500D01*
X133300000Y-158200000D01*
X126724000Y-158200000D01*
X126656961Y-158180315D01*
X126611206Y-158127511D01*
X126600000Y-158076000D01*
X126600000Y-153524000D01*
X126619685Y-153456961D01*
X126672489Y-153411206D01*
X126724000Y-153400000D01*
X141476000Y-153400000D01*
X141543039Y-153419685D01*
G37*
%TD.AperFunction*%
%TD*%
%TA.AperFunction,Conductor*%
%TO.N,VCC 3V3*%
G36*
X149417539Y-65520185D02*
G01*
X149463294Y-65572989D01*
X149474500Y-65624500D01*
X149474500Y-78816163D01*
X149454815Y-78883202D01*
X149402011Y-78928957D01*
X149332853Y-78938901D01*
X149269297Y-78909876D01*
X149247398Y-78885054D01*
X149232139Y-78862218D01*
X149232136Y-78862214D01*
X149092785Y-78722863D01*
X149092781Y-78722860D01*
X148928920Y-78613371D01*
X148928907Y-78613364D01*
X148746839Y-78537950D01*
X148746829Y-78537947D01*
X148553543Y-78499500D01*
X148553541Y-78499500D01*
X148356459Y-78499500D01*
X148356457Y-78499500D01*
X148163170Y-78537947D01*
X148163160Y-78537950D01*
X147981092Y-78613364D01*
X147981079Y-78613371D01*
X147817218Y-78722860D01*
X147817214Y-78722863D01*
X147677863Y-78862214D01*
X147677860Y-78862218D01*
X147568371Y-79026079D01*
X147568364Y-79026092D01*
X147492950Y-79208160D01*
X147492947Y-79208170D01*
X147454500Y-79401456D01*
X147454500Y-79401459D01*
X147454500Y-79598541D01*
X147454500Y-79598543D01*
X147454499Y-79598543D01*
X147492947Y-79791829D01*
X147492950Y-79791839D01*
X147568364Y-79973907D01*
X147568371Y-79973920D01*
X147677860Y-80137781D01*
X147677863Y-80137785D01*
X147817214Y-80277136D01*
X147817218Y-80277139D01*
X147981079Y-80386628D01*
X147981092Y-80386635D01*
X148163160Y-80462049D01*
X148163165Y-80462051D01*
X148163169Y-80462051D01*
X148163170Y-80462052D01*
X148356456Y-80500500D01*
X148356459Y-80500500D01*
X148553543Y-80500500D01*
X148683582Y-80474632D01*
X148746835Y-80462051D01*
X148928914Y-80386632D01*
X149092782Y-80277139D01*
X149232139Y-80137782D01*
X149247397Y-80114947D01*
X149301009Y-80070141D01*
X149370333Y-80061432D01*
X149433361Y-80091586D01*
X149470081Y-80151029D01*
X149474500Y-80183836D01*
X149474500Y-83096095D01*
X149454815Y-83163134D01*
X149402011Y-83208889D01*
X149332853Y-83218833D01*
X149269297Y-83189808D01*
X149247398Y-83164986D01*
X149212139Y-83112218D01*
X149212136Y-83112214D01*
X149072785Y-82972863D01*
X149072781Y-82972860D01*
X148908920Y-82863371D01*
X148908907Y-82863364D01*
X148726839Y-82787950D01*
X148726829Y-82787947D01*
X148533543Y-82749500D01*
X148533541Y-82749500D01*
X148336459Y-82749500D01*
X148336457Y-82749500D01*
X148143170Y-82787947D01*
X148143160Y-82787950D01*
X147961092Y-82863364D01*
X147961079Y-82863371D01*
X147797218Y-82972860D01*
X147797214Y-82972863D01*
X147657863Y-83112214D01*
X147657860Y-83112218D01*
X147548371Y-83276079D01*
X147548364Y-83276092D01*
X147472950Y-83458160D01*
X147472947Y-83458170D01*
X147434500Y-83651456D01*
X147434500Y-83651459D01*
X147434500Y-83848541D01*
X147434500Y-83848543D01*
X147434499Y-83848543D01*
X147472947Y-84041829D01*
X147472950Y-84041839D01*
X147548364Y-84223907D01*
X147548371Y-84223920D01*
X147657860Y-84387781D01*
X147657863Y-84387785D01*
X147797214Y-84527136D01*
X147797218Y-84527139D01*
X147961079Y-84636628D01*
X147961092Y-84636635D01*
X148143160Y-84712049D01*
X148143165Y-84712051D01*
X148143169Y-84712051D01*
X148143170Y-84712052D01*
X148336456Y-84750500D01*
X148336459Y-84750500D01*
X148533543Y-84750500D01*
X148663582Y-84724632D01*
X148726835Y-84712051D01*
X148908914Y-84636632D01*
X149072782Y-84527139D01*
X149212139Y-84387782D01*
X149247397Y-84335013D01*
X149301009Y-84290208D01*
X149370334Y-84281501D01*
X149433362Y-84311655D01*
X149470082Y-84371098D01*
X149474500Y-84403904D01*
X149474500Y-108286310D01*
X149454815Y-108353349D01*
X149402011Y-108399104D01*
X149332853Y-108409048D01*
X149269297Y-108380023D01*
X149245507Y-108352283D01*
X149179817Y-108247739D01*
X149052262Y-108120184D01*
X148899523Y-108024211D01*
X148729254Y-107964631D01*
X148729249Y-107964630D01*
X148550004Y-107944435D01*
X148549996Y-107944435D01*
X148370750Y-107964630D01*
X148370742Y-107964632D01*
X148240454Y-108010222D01*
X148170675Y-108013783D01*
X148110048Y-107979054D01*
X148077821Y-107917061D01*
X148075500Y-107893180D01*
X148075500Y-93396895D01*
X148075499Y-93396891D01*
X148040287Y-93265472D01*
X148034577Y-93244166D01*
X148034577Y-93244165D01*
X147986398Y-93160717D01*
X147955520Y-93107234D01*
X147843716Y-92995430D01*
X147839385Y-92991099D01*
X147839374Y-92991089D01*
X146220829Y-91372544D01*
X146187344Y-91311221D01*
X146184510Y-91284863D01*
X146184510Y-91280002D01*
X146184510Y-91280000D01*
X146164724Y-91091744D01*
X146106229Y-90911716D01*
X146011583Y-90747784D01*
X145884921Y-90607112D01*
X145831251Y-90568119D01*
X145788588Y-90512792D01*
X145782609Y-90443178D01*
X145802086Y-90397368D01*
X145859270Y-90314523D01*
X145915287Y-90166818D01*
X145934328Y-90010000D01*
X145915287Y-89853182D01*
X145859270Y-89705477D01*
X145769533Y-89575470D01*
X145651290Y-89470717D01*
X145651288Y-89470716D01*
X145651287Y-89470715D01*
X145511415Y-89397303D01*
X145358036Y-89359500D01*
X145358035Y-89359500D01*
X145200065Y-89359500D01*
X145200064Y-89359500D01*
X145046684Y-89397303D01*
X144906812Y-89470715D01*
X144788566Y-89575471D01*
X144746100Y-89636994D01*
X144691817Y-89680984D01*
X144622368Y-89688644D01*
X144559804Y-89657541D01*
X144542000Y-89636994D01*
X144503547Y-89581286D01*
X144499533Y-89575470D01*
X144381290Y-89470717D01*
X144381288Y-89470716D01*
X144381287Y-89470715D01*
X144241415Y-89397303D01*
X144088036Y-89359500D01*
X144088035Y-89359500D01*
X143930065Y-89359500D01*
X143930064Y-89359500D01*
X143776684Y-89397303D01*
X143636812Y-89470715D01*
X143518566Y-89575471D01*
X143476100Y-89636994D01*
X143421817Y-89680984D01*
X143352368Y-89688644D01*
X143289804Y-89657541D01*
X143272000Y-89636994D01*
X143233547Y-89581286D01*
X143229533Y-89575470D01*
X143111290Y-89470717D01*
X143111288Y-89470716D01*
X143111287Y-89470715D01*
X142971415Y-89397303D01*
X142818036Y-89359500D01*
X142818035Y-89359500D01*
X142660065Y-89359500D01*
X142660064Y-89359500D01*
X142506684Y-89397303D01*
X142366812Y-89470715D01*
X142248566Y-89575471D01*
X142206100Y-89636994D01*
X142151817Y-89680984D01*
X142082368Y-89688644D01*
X142019804Y-89657541D01*
X142002000Y-89636994D01*
X141963547Y-89581286D01*
X141959533Y-89575470D01*
X141841290Y-89470717D01*
X141841288Y-89470716D01*
X141841287Y-89470715D01*
X141701415Y-89397303D01*
X141548036Y-89359500D01*
X141548035Y-89359500D01*
X141390065Y-89359500D01*
X141390064Y-89359500D01*
X141236684Y-89397303D01*
X141096812Y-89470715D01*
X140978566Y-89575471D01*
X140936100Y-89636994D01*
X140881817Y-89680984D01*
X140812368Y-89688644D01*
X140749804Y-89657541D01*
X140732000Y-89636994D01*
X140693547Y-89581286D01*
X140689533Y-89575470D01*
X140571290Y-89470717D01*
X140571288Y-89470716D01*
X140571287Y-89470715D01*
X140431415Y-89397303D01*
X140278036Y-89359500D01*
X140278035Y-89359500D01*
X140120065Y-89359500D01*
X140120064Y-89359500D01*
X139966684Y-89397303D01*
X139826811Y-89470715D01*
X139826809Y-89470717D01*
X139735776Y-89551364D01*
X139672543Y-89581085D01*
X139603279Y-89571901D01*
X139549977Y-89526728D01*
X139529557Y-89459909D01*
X139529550Y-89458548D01*
X139529550Y-80371046D01*
X139549235Y-80304007D01*
X139565864Y-80283370D01*
X143471133Y-76378100D01*
X143532454Y-76344617D01*
X143597126Y-76347851D01*
X143733757Y-76392246D01*
X143943713Y-76425500D01*
X143943714Y-76425500D01*
X144156286Y-76425500D01*
X144156287Y-76425500D01*
X144366243Y-76392246D01*
X144568412Y-76326557D01*
X144757816Y-76230051D01*
X144880451Y-76140952D01*
X144929784Y-76105110D01*
X144929784Y-76105109D01*
X144929792Y-76105104D01*
X145068604Y-75966291D01*
X145129923Y-75932809D01*
X145199615Y-75937793D01*
X145255549Y-75979664D01*
X145261821Y-75988878D01*
X145265185Y-75994333D01*
X145265186Y-75994334D01*
X145357288Y-76143656D01*
X145481344Y-76267712D01*
X145630666Y-76359814D01*
X145797203Y-76414999D01*
X145899991Y-76425500D01*
X147200008Y-76425499D01*
X147302797Y-76414999D01*
X147469334Y-76359814D01*
X147618656Y-76267712D01*
X147742712Y-76143656D01*
X147834814Y-75994334D01*
X147889999Y-75827797D01*
X147900500Y-75725009D01*
X147900499Y-74174992D01*
X147889999Y-74072203D01*
X147834814Y-73905666D01*
X147742712Y-73756344D01*
X147618656Y-73632288D01*
X147469334Y-73540186D01*
X147302797Y-73485001D01*
X147302795Y-73485000D01*
X147200010Y-73474500D01*
X145899998Y-73474500D01*
X145899981Y-73474501D01*
X145797203Y-73485000D01*
X145797200Y-73485001D01*
X145630668Y-73540185D01*
X145630663Y-73540187D01*
X145481342Y-73632289D01*
X145357289Y-73756342D01*
X145261821Y-73911121D01*
X145209873Y-73957845D01*
X145140910Y-73969068D01*
X145076828Y-73941224D01*
X145068601Y-73933705D01*
X144929786Y-73794890D01*
X144757820Y-73669951D01*
X144568414Y-73573444D01*
X144568413Y-73573443D01*
X144568412Y-73573443D01*
X144366243Y-73507754D01*
X144366241Y-73507753D01*
X144366240Y-73507753D01*
X144204957Y-73482208D01*
X144156287Y-73474500D01*
X143943713Y-73474500D01*
X143895042Y-73482208D01*
X143733760Y-73507753D01*
X143531585Y-73573444D01*
X143342179Y-73669951D01*
X143170213Y-73794890D01*
X143019894Y-73945209D01*
X143019890Y-73945214D01*
X142900318Y-74109793D01*
X142844989Y-74152459D01*
X142775375Y-74158438D01*
X142713580Y-74125833D01*
X142699682Y-74109793D01*
X142580109Y-73945214D01*
X142580105Y-73945209D01*
X142429786Y-73794890D01*
X142257820Y-73669951D01*
X142068414Y-73573444D01*
X142068413Y-73573443D01*
X142068412Y-73573443D01*
X141866243Y-73507754D01*
X141866241Y-73507753D01*
X141866240Y-73507753D01*
X141704957Y-73482208D01*
X141656287Y-73474500D01*
X141443713Y-73474500D01*
X141395042Y-73482208D01*
X141233760Y-73507753D01*
X141031585Y-73573444D01*
X140842179Y-73669951D01*
X140670213Y-73794890D01*
X140519894Y-73945209D01*
X140519890Y-73945214D01*
X140400318Y-74109793D01*
X140344989Y-74152459D01*
X140275375Y-74158438D01*
X140213580Y-74125833D01*
X140199682Y-74109793D01*
X140080109Y-73945214D01*
X140080105Y-73945209D01*
X139929786Y-73794890D01*
X139757820Y-73669951D01*
X139568414Y-73573444D01*
X139568413Y-73573443D01*
X139568412Y-73573443D01*
X139366243Y-73507754D01*
X139366241Y-73507753D01*
X139366240Y-73507753D01*
X139204957Y-73482208D01*
X139156287Y-73474500D01*
X138943713Y-73474500D01*
X138895042Y-73482208D01*
X138733760Y-73507753D01*
X138531585Y-73573444D01*
X138342179Y-73669951D01*
X138170213Y-73794890D01*
X138019894Y-73945209D01*
X138019890Y-73945214D01*
X137900318Y-74109793D01*
X137844989Y-74152459D01*
X137775375Y-74158438D01*
X137713580Y-74125833D01*
X137699682Y-74109793D01*
X137580109Y-73945214D01*
X137580105Y-73945209D01*
X137429786Y-73794890D01*
X137257820Y-73669951D01*
X137068414Y-73573444D01*
X137068413Y-73573443D01*
X137068412Y-73573443D01*
X136866243Y-73507754D01*
X136866241Y-73507753D01*
X136866240Y-73507753D01*
X136704957Y-73482208D01*
X136656287Y-73474500D01*
X136443713Y-73474500D01*
X136395042Y-73482208D01*
X136233760Y-73507753D01*
X136031585Y-73573444D01*
X135842179Y-73669951D01*
X135670213Y-73794890D01*
X135519894Y-73945209D01*
X135519890Y-73945214D01*
X135400318Y-74109793D01*
X135344989Y-74152459D01*
X135275375Y-74158438D01*
X135213580Y-74125833D01*
X135199682Y-74109793D01*
X135080109Y-73945214D01*
X135080105Y-73945209D01*
X134929786Y-73794890D01*
X134757820Y-73669951D01*
X134568414Y-73573444D01*
X134568413Y-73573443D01*
X134568412Y-73573443D01*
X134366243Y-73507754D01*
X134366241Y-73507753D01*
X134366240Y-73507753D01*
X134204957Y-73482208D01*
X134156287Y-73474500D01*
X133943713Y-73474500D01*
X133895042Y-73482208D01*
X133733760Y-73507753D01*
X133531585Y-73573444D01*
X133342179Y-73669951D01*
X133170213Y-73794890D01*
X133019894Y-73945209D01*
X133019890Y-73945214D01*
X132900318Y-74109793D01*
X132844989Y-74152459D01*
X132775375Y-74158438D01*
X132713580Y-74125833D01*
X132699682Y-74109793D01*
X132580109Y-73945214D01*
X132580105Y-73945209D01*
X132429786Y-73794890D01*
X132257820Y-73669951D01*
X132068414Y-73573444D01*
X132068413Y-73573443D01*
X132068412Y-73573443D01*
X131866243Y-73507754D01*
X131866241Y-73507753D01*
X131866240Y-73507753D01*
X131704957Y-73482208D01*
X131656287Y-73474500D01*
X131443713Y-73474500D01*
X131395042Y-73482208D01*
X131233760Y-73507753D01*
X131031585Y-73573444D01*
X130842179Y-73669951D01*
X130670213Y-73794890D01*
X130519894Y-73945209D01*
X130519890Y-73945214D01*
X130400318Y-74109793D01*
X130344989Y-74152459D01*
X130275375Y-74158438D01*
X130213580Y-74125833D01*
X130199682Y-74109793D01*
X130080109Y-73945214D01*
X130080105Y-73945209D01*
X129929786Y-73794890D01*
X129757820Y-73669951D01*
X129568414Y-73573444D01*
X129568413Y-73573443D01*
X129568412Y-73573443D01*
X129366243Y-73507754D01*
X129366241Y-73507753D01*
X129366240Y-73507753D01*
X129204957Y-73482208D01*
X129156287Y-73474500D01*
X128943713Y-73474500D01*
X128895042Y-73482208D01*
X128733760Y-73507753D01*
X128531585Y-73573444D01*
X128342179Y-73669951D01*
X128170213Y-73794890D01*
X128019894Y-73945209D01*
X128019890Y-73945214D01*
X127900318Y-74109793D01*
X127844989Y-74152459D01*
X127775375Y-74158438D01*
X127713580Y-74125833D01*
X127699682Y-74109793D01*
X127580109Y-73945214D01*
X127580105Y-73945209D01*
X127429786Y-73794890D01*
X127257820Y-73669951D01*
X127068414Y-73573444D01*
X127068413Y-73573443D01*
X127068412Y-73573443D01*
X126866243Y-73507754D01*
X126866241Y-73507753D01*
X126866240Y-73507753D01*
X126704957Y-73482208D01*
X126656287Y-73474500D01*
X126443713Y-73474500D01*
X126395042Y-73482208D01*
X126233760Y-73507753D01*
X126031585Y-73573444D01*
X125842179Y-73669951D01*
X125670213Y-73794890D01*
X125519890Y-73945213D01*
X125394951Y-74117179D01*
X125298444Y-74306585D01*
X125232753Y-74508760D01*
X125199500Y-74718713D01*
X125199500Y-75181286D01*
X125232753Y-75391239D01*
X125298444Y-75593414D01*
X125394951Y-75782820D01*
X125519890Y-75954786D01*
X125670213Y-76105109D01*
X125842179Y-76230048D01*
X125842181Y-76230049D01*
X125842184Y-76230051D01*
X126031588Y-76326557D01*
X126233757Y-76392246D01*
X126443713Y-76425500D01*
X126443714Y-76425500D01*
X126656286Y-76425500D01*
X126656287Y-76425500D01*
X126866243Y-76392246D01*
X127068412Y-76326557D01*
X127257816Y-76230051D01*
X127279789Y-76214086D01*
X127429786Y-76105109D01*
X127429788Y-76105106D01*
X127429792Y-76105104D01*
X127580104Y-75954792D01*
X127699683Y-75790204D01*
X127755011Y-75747540D01*
X127824624Y-75741561D01*
X127886420Y-75774166D01*
X127900313Y-75790199D01*
X128003925Y-75932809D01*
X128019896Y-75954792D01*
X128170213Y-76105109D01*
X128342184Y-76230051D01*
X128342184Y-76230052D01*
X128381793Y-76250233D01*
X128432590Y-76298206D01*
X128449500Y-76360718D01*
X128449500Y-87263330D01*
X128449499Y-87263348D01*
X128449499Y-87429054D01*
X128449498Y-87429054D01*
X128490423Y-87581785D01*
X128519358Y-87631900D01*
X128519359Y-87631904D01*
X128519360Y-87631904D01*
X128569479Y-87718714D01*
X128569481Y-87718717D01*
X128688349Y-87837585D01*
X128688355Y-87837590D01*
X130005327Y-89154562D01*
X130038812Y-89215885D01*
X130033828Y-89285577D01*
X129991956Y-89341510D01*
X129947321Y-89362640D01*
X129806683Y-89397304D01*
X129666812Y-89470715D01*
X129548566Y-89575471D01*
X129458831Y-89705475D01*
X129458830Y-89705476D01*
X129402812Y-89853181D01*
X129383772Y-90009999D01*
X129383772Y-90010000D01*
X129402812Y-90166818D01*
X129458830Y-90314523D01*
X129458831Y-90314524D01*
X129516010Y-90397363D01*
X129537893Y-90463718D01*
X129520427Y-90531369D01*
X129486846Y-90568120D01*
X129470387Y-90580078D01*
X129433177Y-90607113D01*
X129306516Y-90747785D01*
X129211871Y-90911715D01*
X129211868Y-90911722D01*
X129153377Y-91091740D01*
X129153376Y-91091744D01*
X129133590Y-91280000D01*
X129153376Y-91468256D01*
X129153377Y-91468259D01*
X129211868Y-91648277D01*
X129211871Y-91648284D01*
X129306517Y-91812216D01*
X129386409Y-91900945D01*
X129406700Y-91923480D01*
X129436930Y-91986471D01*
X129438550Y-92006452D01*
X129438550Y-93785852D01*
X129418865Y-93852891D01*
X129402231Y-93873533D01*
X125061079Y-98214684D01*
X124999756Y-98248169D01*
X124930064Y-98243185D01*
X124874131Y-98201313D01*
X124850925Y-98146401D01*
X124850500Y-98143717D01*
X124850500Y-98143713D01*
X124817246Y-97933757D01*
X124751557Y-97731588D01*
X124655051Y-97542184D01*
X124655049Y-97542181D01*
X124655048Y-97542179D01*
X124530109Y-97370213D01*
X124379786Y-97219890D01*
X124207820Y-97094951D01*
X124018414Y-96998444D01*
X124018413Y-96998443D01*
X124018412Y-96998443D01*
X123816243Y-96932754D01*
X123816241Y-96932753D01*
X123816240Y-96932753D01*
X123654957Y-96907208D01*
X123606287Y-96899500D01*
X123143713Y-96899500D01*
X123095042Y-96907208D01*
X122933760Y-96932753D01*
X122731585Y-96998444D01*
X122542179Y-97094951D01*
X122370213Y-97219890D01*
X122219890Y-97370213D01*
X122094951Y-97542179D01*
X121998444Y-97731585D01*
X121932753Y-97933760D01*
X121899500Y-98143713D01*
X121899500Y-98356286D01*
X121932753Y-98566239D01*
X121998444Y-98768414D01*
X122094951Y-98957820D01*
X122219890Y-99129786D01*
X122370209Y-99280105D01*
X122370214Y-99280109D01*
X122534793Y-99399682D01*
X122577459Y-99455011D01*
X122583438Y-99524625D01*
X122550833Y-99586420D01*
X122534793Y-99600318D01*
X122370214Y-99719890D01*
X122370209Y-99719894D01*
X122219890Y-99870213D01*
X122094951Y-100042179D01*
X121998444Y-100231585D01*
X121932753Y-100433760D01*
X121899500Y-100643713D01*
X121899500Y-100856286D01*
X121932753Y-101066239D01*
X121998444Y-101268414D01*
X122094951Y-101457820D01*
X122219890Y-101629786D01*
X122370209Y-101780105D01*
X122370214Y-101780109D01*
X122534793Y-101899682D01*
X122577459Y-101955011D01*
X122583438Y-102024625D01*
X122550833Y-102086420D01*
X122534793Y-102100318D01*
X122370214Y-102219890D01*
X122370209Y-102219894D01*
X122219890Y-102370213D01*
X122094951Y-102542179D01*
X121998444Y-102731585D01*
X121932753Y-102933760D01*
X121899500Y-103143713D01*
X121899500Y-103356287D01*
X121932754Y-103566243D01*
X121975479Y-103697737D01*
X121998444Y-103768414D01*
X122094951Y-103957820D01*
X122219890Y-104129786D01*
X122358705Y-104268601D01*
X122392190Y-104329924D01*
X122387206Y-104399616D01*
X122345334Y-104455549D01*
X122336121Y-104461821D01*
X122181342Y-104557289D01*
X122057289Y-104681342D01*
X121965187Y-104830663D01*
X121965186Y-104830666D01*
X121910001Y-104997203D01*
X121910001Y-104997204D01*
X121910000Y-104997204D01*
X121899500Y-105099983D01*
X121899500Y-106400001D01*
X121899501Y-106400018D01*
X121910000Y-106502796D01*
X121910001Y-106502799D01*
X121965185Y-106669331D01*
X121965186Y-106669334D01*
X122057288Y-106818656D01*
X122181344Y-106942712D01*
X122330666Y-107034814D01*
X122497203Y-107089999D01*
X122599991Y-107100500D01*
X124150008Y-107100499D01*
X124252797Y-107089999D01*
X124419334Y-107034814D01*
X124568656Y-106942712D01*
X124692712Y-106818656D01*
X124784814Y-106669334D01*
X124839999Y-106502797D01*
X124850500Y-106400009D01*
X124850499Y-105099992D01*
X124839999Y-104997203D01*
X124784814Y-104830666D01*
X124692712Y-104681344D01*
X124568656Y-104557288D01*
X124419334Y-104465186D01*
X124419333Y-104465185D01*
X124413878Y-104461821D01*
X124367154Y-104409873D01*
X124355931Y-104340910D01*
X124383775Y-104276828D01*
X124391272Y-104268623D01*
X124530104Y-104129792D01*
X124655051Y-103957816D01*
X124655349Y-103957230D01*
X124675235Y-103918205D01*
X124723209Y-103867409D01*
X124785719Y-103850500D01*
X126468953Y-103850500D01*
X126535992Y-103870185D01*
X126556634Y-103886819D01*
X129097271Y-106427456D01*
X129130756Y-106488779D01*
X129133590Y-106515137D01*
X129133590Y-106519997D01*
X129133590Y-106520000D01*
X129153376Y-106708256D01*
X129153377Y-106708259D01*
X129211868Y-106888277D01*
X129211871Y-106888284D01*
X129306517Y-107052216D01*
X129433179Y-107192888D01*
X129486845Y-107231878D01*
X129529511Y-107287207D01*
X129535490Y-107356820D01*
X129516010Y-107402635D01*
X129458833Y-107485470D01*
X129458830Y-107485476D01*
X129402812Y-107633181D01*
X129383772Y-107789999D01*
X129383772Y-107790000D01*
X129402812Y-107946818D01*
X129428209Y-108013783D01*
X129458830Y-108094523D01*
X129548567Y-108224530D01*
X129666810Y-108329283D01*
X129666812Y-108329284D01*
X129806684Y-108402696D01*
X129960064Y-108440500D01*
X129960065Y-108440500D01*
X130118035Y-108440500D01*
X130271415Y-108402696D01*
X130314614Y-108380023D01*
X130411290Y-108329283D01*
X130529533Y-108224530D01*
X130547009Y-108199211D01*
X130572000Y-108163006D01*
X130626282Y-108119015D01*
X130695731Y-108111355D01*
X130758296Y-108142458D01*
X130776100Y-108163006D01*
X130818564Y-108224527D01*
X130818566Y-108224529D01*
X130818567Y-108224530D01*
X130936810Y-108329283D01*
X130936812Y-108329284D01*
X131076684Y-108402696D01*
X131230064Y-108440500D01*
X131230065Y-108440500D01*
X131388035Y-108440500D01*
X131541415Y-108402696D01*
X131584614Y-108380023D01*
X131681290Y-108329283D01*
X131799533Y-108224530D01*
X131817009Y-108199211D01*
X131842000Y-108163006D01*
X131896282Y-108119015D01*
X131965731Y-108111355D01*
X132028296Y-108142458D01*
X132046100Y-108163006D01*
X132088564Y-108224527D01*
X132088566Y-108224529D01*
X132088567Y-108224530D01*
X132206810Y-108329283D01*
X132321195Y-108389317D01*
X132351244Y-108411429D01*
X133229189Y-109289374D01*
X133229199Y-109289385D01*
X133233529Y-109293715D01*
X133233530Y-109293716D01*
X133345334Y-109405520D01*
X133345336Y-109405521D01*
X133345340Y-109405524D01*
X133482259Y-109484573D01*
X133482266Y-109484577D01*
X133594069Y-109514534D01*
X133634992Y-109525500D01*
X133634993Y-109525500D01*
X138617588Y-109525500D01*
X138684627Y-109545185D01*
X138694903Y-109552555D01*
X138697736Y-109554814D01*
X138697738Y-109554816D01*
X138850478Y-109650789D01*
X139015412Y-109708502D01*
X139072187Y-109749223D01*
X139091497Y-109784586D01*
X139118017Y-109860376D01*
X139149210Y-109949521D01*
X139149211Y-109949522D01*
X139245184Y-110102262D01*
X139372738Y-110229816D01*
X139438193Y-110270944D01*
X139522966Y-110324211D01*
X139525478Y-110325789D01*
X139695745Y-110385368D01*
X139695750Y-110385369D01*
X139861967Y-110404097D01*
X139926381Y-110431163D01*
X139965937Y-110488758D01*
X139968074Y-110558595D01*
X139935765Y-110614998D01*
X137482723Y-113068040D01*
X137421400Y-113101525D01*
X137381159Y-113103579D01*
X137300003Y-113094435D01*
X137299996Y-113094435D01*
X137120750Y-113114630D01*
X137120745Y-113114631D01*
X136950476Y-113174211D01*
X136797737Y-113270184D01*
X136670184Y-113397737D01*
X136574211Y-113550476D01*
X136514631Y-113720745D01*
X136514630Y-113720750D01*
X136494435Y-113899996D01*
X136494435Y-113900003D01*
X136514630Y-114079249D01*
X136514631Y-114079254D01*
X136574211Y-114249523D01*
X136653572Y-114375824D01*
X136670184Y-114402262D01*
X136797738Y-114529816D01*
X136822570Y-114545419D01*
X136944565Y-114622074D01*
X136950478Y-114625789D01*
X137092087Y-114675340D01*
X137120745Y-114685368D01*
X137120750Y-114685369D01*
X137299996Y-114705565D01*
X137300000Y-114705565D01*
X137300004Y-114705565D01*
X137479249Y-114685369D01*
X137479252Y-114685368D01*
X137479255Y-114685368D01*
X137649522Y-114625789D01*
X137657602Y-114620712D01*
X137724838Y-114601709D01*
X137791674Y-114622074D01*
X137836890Y-114675340D01*
X137846130Y-114744596D01*
X137828572Y-114791675D01*
X137749211Y-114917976D01*
X137689631Y-115088245D01*
X137689630Y-115088250D01*
X137669435Y-115267496D01*
X137669435Y-115267503D01*
X137689630Y-115446749D01*
X137689631Y-115446754D01*
X137749211Y-115617023D01*
X137845184Y-115769762D01*
X137972738Y-115897316D01*
X138125478Y-115993289D01*
X138295745Y-116052868D01*
X138295750Y-116052869D01*
X138474996Y-116073065D01*
X138475000Y-116073065D01*
X138475004Y-116073065D01*
X138654249Y-116052869D01*
X138654252Y-116052868D01*
X138654255Y-116052868D01*
X138824522Y-115993289D01*
X138977262Y-115897316D01*
X139104816Y-115769762D01*
X139200789Y-115617022D01*
X139260368Y-115446755D01*
X139280565Y-115267500D01*
X139260368Y-115088245D01*
X139200789Y-114917978D01*
X139198903Y-114914977D01*
X139104815Y-114765237D01*
X138977262Y-114637684D01*
X138824523Y-114541711D01*
X138654254Y-114482131D01*
X138654249Y-114482130D01*
X138475004Y-114461935D01*
X138474996Y-114461935D01*
X138295750Y-114482130D01*
X138295745Y-114482131D01*
X138125475Y-114541712D01*
X138117388Y-114546793D01*
X138050151Y-114565789D01*
X137983317Y-114545419D01*
X137938105Y-114492149D01*
X137928870Y-114422893D01*
X137946428Y-114375824D01*
X138025785Y-114249528D01*
X138025786Y-114249527D01*
X138025786Y-114249526D01*
X138025789Y-114249522D01*
X138030477Y-114236122D01*
X138059835Y-114189398D01*
X142074917Y-110174319D01*
X142136240Y-110140834D01*
X142162598Y-110138000D01*
X142225831Y-110138000D01*
X142225847Y-110138001D01*
X142233443Y-110138001D01*
X142391554Y-110138001D01*
X142391557Y-110138001D01*
X142544285Y-110097077D01*
X142618345Y-110054318D01*
X142681216Y-110018020D01*
X142793020Y-109906216D01*
X142793020Y-109906214D01*
X142803224Y-109896011D01*
X142803228Y-109896006D01*
X144358506Y-108340728D01*
X144358511Y-108340724D01*
X144368714Y-108330520D01*
X144368716Y-108330520D01*
X144480520Y-108218716D01*
X144520953Y-108148682D01*
X144571517Y-108100469D01*
X144640124Y-108087245D01*
X144704989Y-108113212D01*
X144730388Y-108140243D01*
X144788567Y-108224530D01*
X144906810Y-108329283D01*
X144906812Y-108329284D01*
X145046684Y-108402696D01*
X145200064Y-108440500D01*
X145200065Y-108440500D01*
X145358035Y-108440500D01*
X145511415Y-108402696D01*
X145554614Y-108380023D01*
X145651290Y-108329283D01*
X145769533Y-108224530D01*
X145859270Y-108094523D01*
X145915287Y-107946818D01*
X145934328Y-107790000D01*
X145915287Y-107633182D01*
X145859270Y-107485477D01*
X145802088Y-107402635D01*
X145780206Y-107336282D01*
X145797671Y-107268630D01*
X145831250Y-107231881D01*
X145884921Y-107192888D01*
X146011583Y-107052216D01*
X146106229Y-106888284D01*
X146164724Y-106708256D01*
X146184510Y-106520000D01*
X146164724Y-106331744D01*
X146106229Y-106151716D01*
X146011583Y-105987784D01*
X145884921Y-105847112D01*
X145884920Y-105847111D01*
X145731784Y-105735851D01*
X145731779Y-105735848D01*
X145558857Y-105658857D01*
X145558852Y-105658855D01*
X145413051Y-105627865D01*
X145373696Y-105619500D01*
X145184404Y-105619500D01*
X145151947Y-105626398D01*
X144999247Y-105658855D01*
X144999242Y-105658857D01*
X144826320Y-105735848D01*
X144826316Y-105735851D01*
X144797384Y-105756871D01*
X144731577Y-105780350D01*
X144663523Y-105764523D01*
X144614829Y-105714417D01*
X144600500Y-105656552D01*
X144600500Y-92630010D01*
X144600501Y-92629997D01*
X144600501Y-92461894D01*
X144559576Y-92309164D01*
X144559573Y-92309159D01*
X144480524Y-92172240D01*
X144480518Y-92172232D01*
X143680829Y-91372543D01*
X143647344Y-91311220D01*
X143644510Y-91284862D01*
X143644510Y-91280002D01*
X143644510Y-91280000D01*
X143624724Y-91091744D01*
X143566229Y-90911716D01*
X143471583Y-90747784D01*
X143406573Y-90675583D01*
X143376343Y-90612592D01*
X143384968Y-90543256D01*
X143429710Y-90489591D01*
X143496362Y-90468633D01*
X143563764Y-90487038D01*
X143580950Y-90499796D01*
X143636809Y-90549282D01*
X143636811Y-90549284D01*
X143776684Y-90622696D01*
X143930064Y-90660500D01*
X143930065Y-90660500D01*
X144088035Y-90660500D01*
X144241415Y-90622696D01*
X144381287Y-90549285D01*
X144381288Y-90549283D01*
X144381290Y-90549283D01*
X144437152Y-90499794D01*
X144500381Y-90470075D01*
X144569645Y-90479257D01*
X144622948Y-90524429D01*
X144643369Y-90591248D01*
X144624422Y-90658500D01*
X144611527Y-90675582D01*
X144546516Y-90747785D01*
X144451871Y-90911715D01*
X144451868Y-90911722D01*
X144393377Y-91091740D01*
X144393376Y-91091744D01*
X144373590Y-91280000D01*
X144393376Y-91468256D01*
X144393377Y-91468259D01*
X144451868Y-91648277D01*
X144451871Y-91648284D01*
X144546517Y-91812216D01*
X144626409Y-91900945D01*
X144673179Y-91952888D01*
X144826315Y-92064148D01*
X144826320Y-92064151D01*
X144999242Y-92141142D01*
X144999247Y-92141144D01*
X145184404Y-92180500D01*
X145278953Y-92180500D01*
X145345992Y-92200185D01*
X145366634Y-92216819D01*
X146838181Y-93688366D01*
X146871666Y-93749689D01*
X146874500Y-93776047D01*
X146874500Y-108976952D01*
X146854815Y-109043991D01*
X146802011Y-109089746D01*
X146764384Y-109100172D01*
X146658249Y-109112130D01*
X146658245Y-109112131D01*
X146487976Y-109171711D01*
X146335237Y-109267684D01*
X146207684Y-109395237D01*
X146111711Y-109547976D01*
X146052131Y-109718245D01*
X146052130Y-109718250D01*
X146031935Y-109897496D01*
X146031935Y-109897503D01*
X146052130Y-110076749D01*
X146052131Y-110076754D01*
X146111711Y-110247024D01*
X146170330Y-110340313D01*
X146198640Y-110385369D01*
X146204020Y-110393930D01*
X146223021Y-110461167D01*
X146202654Y-110528002D01*
X146186709Y-110547583D01*
X146144913Y-110589379D01*
X146144911Y-110589382D01*
X146099462Y-110668104D01*
X146099461Y-110668105D01*
X146065855Y-110726312D01*
X146024931Y-110879040D01*
X146024931Y-110879042D01*
X146024931Y-111047143D01*
X146024932Y-111047156D01*
X146024932Y-113217587D01*
X146005247Y-113284626D01*
X145997882Y-113294896D01*
X145995618Y-113297734D01*
X145899643Y-113450476D01*
X145840063Y-113620745D01*
X145840062Y-113620750D01*
X145819867Y-113799996D01*
X145819867Y-113800003D01*
X145840062Y-113979249D01*
X145840063Y-113979254D01*
X145899643Y-114149523D01*
X145953584Y-114235369D01*
X145995616Y-114302262D01*
X146123170Y-114429816D01*
X146275910Y-114525789D01*
X146446177Y-114585368D01*
X146446182Y-114585369D01*
X146625428Y-114605565D01*
X146625432Y-114605565D01*
X146625436Y-114605565D01*
X146804681Y-114585369D01*
X146804684Y-114585368D01*
X146804687Y-114585368D01*
X146974954Y-114525789D01*
X147127694Y-114429816D01*
X147255248Y-114302262D01*
X147351221Y-114149522D01*
X147410800Y-113979255D01*
X147410801Y-113979249D01*
X147430997Y-113800003D01*
X147430997Y-113799996D01*
X147410801Y-113620750D01*
X147410800Y-113620745D01*
X147351221Y-113450478D01*
X147255248Y-113297738D01*
X147255246Y-113297736D01*
X147255245Y-113297734D01*
X147252982Y-113294896D01*
X147252091Y-113292715D01*
X147251543Y-113291842D01*
X147251696Y-113291745D01*
X147226576Y-113230209D01*
X147225932Y-113217587D01*
X147225932Y-111258194D01*
X147245617Y-111191155D01*
X147262251Y-111170513D01*
X147562019Y-110870745D01*
X147955520Y-110477245D01*
X148021923Y-110362229D01*
X148072489Y-110314015D01*
X148115427Y-110301010D01*
X148254249Y-110285369D01*
X148254252Y-110285368D01*
X148254255Y-110285368D01*
X148424522Y-110225789D01*
X148471527Y-110196254D01*
X148538764Y-110177253D01*
X148603473Y-110196254D01*
X148650475Y-110225788D01*
X148820745Y-110285368D01*
X148820750Y-110285369D01*
X148999996Y-110305565D01*
X149000000Y-110305565D01*
X149000004Y-110305565D01*
X149179249Y-110285369D01*
X149179251Y-110285368D01*
X149179255Y-110285368D01*
X149179258Y-110285366D01*
X149179262Y-110285366D01*
X149309545Y-110239778D01*
X149379324Y-110236216D01*
X149439951Y-110270944D01*
X149472179Y-110332938D01*
X149474500Y-110356819D01*
X149474500Y-120076000D01*
X149454815Y-120143039D01*
X149402011Y-120188794D01*
X149350500Y-120200000D01*
X133425125Y-120200000D01*
X133358086Y-120180315D01*
X133337946Y-120164181D01*
X133248751Y-120076000D01*
X131180395Y-118031147D01*
X130896012Y-117749996D01*
X133894435Y-117749996D01*
X133894435Y-117750003D01*
X133914630Y-117929249D01*
X133914631Y-117929254D01*
X133974211Y-118099523D01*
X134045668Y-118213245D01*
X134070184Y-118252262D01*
X134197738Y-118379816D01*
X134350478Y-118475789D01*
X134520745Y-118535368D01*
X134520750Y-118535369D01*
X134699996Y-118555565D01*
X134700000Y-118555565D01*
X134700004Y-118555565D01*
X134879249Y-118535369D01*
X134879252Y-118535368D01*
X134879255Y-118535368D01*
X135049522Y-118475789D01*
X135182082Y-118392496D01*
X137669435Y-118392496D01*
X137669435Y-118392503D01*
X137689630Y-118571749D01*
X137689631Y-118571754D01*
X137749211Y-118742023D01*
X137832141Y-118874004D01*
X137845184Y-118894762D01*
X137972738Y-119022316D01*
X138125478Y-119118289D01*
X138295745Y-119177868D01*
X138295750Y-119177869D01*
X138474996Y-119198065D01*
X138475000Y-119198065D01*
X138475004Y-119198065D01*
X138654249Y-119177869D01*
X138654252Y-119177868D01*
X138654255Y-119177868D01*
X138824522Y-119118289D01*
X138977262Y-119022316D01*
X139104816Y-118894762D01*
X139200789Y-118742022D01*
X139260368Y-118571755D01*
X139280565Y-118392500D01*
X139264764Y-118252262D01*
X139260369Y-118213250D01*
X139260368Y-118213245D01*
X139220575Y-118099523D01*
X139200789Y-118042978D01*
X139171592Y-117996512D01*
X139129328Y-117929249D01*
X139104816Y-117890238D01*
X138977262Y-117762684D01*
X138957069Y-117749996D01*
X138824523Y-117666711D01*
X138654254Y-117607131D01*
X138654249Y-117607130D01*
X138475004Y-117586935D01*
X138474996Y-117586935D01*
X138295750Y-117607130D01*
X138295745Y-117607131D01*
X138125476Y-117666711D01*
X137972737Y-117762684D01*
X137845184Y-117890237D01*
X137749211Y-118042976D01*
X137689631Y-118213245D01*
X137689630Y-118213250D01*
X137669435Y-118392496D01*
X135182082Y-118392496D01*
X135202262Y-118379816D01*
X135329816Y-118252262D01*
X135425789Y-118099522D01*
X135485368Y-117929255D01*
X135485369Y-117929249D01*
X135505565Y-117750003D01*
X135505565Y-117749996D01*
X135485369Y-117570750D01*
X135485368Y-117570745D01*
X135425788Y-117400476D01*
X135329815Y-117247737D01*
X135202262Y-117120184D01*
X135049523Y-117024211D01*
X134879254Y-116964631D01*
X134879249Y-116964630D01*
X134700004Y-116944435D01*
X134699996Y-116944435D01*
X134520750Y-116964630D01*
X134520745Y-116964631D01*
X134350476Y-117024211D01*
X134197737Y-117120184D01*
X134070184Y-117247737D01*
X133974211Y-117400476D01*
X133914631Y-117570745D01*
X133914630Y-117570750D01*
X133894435Y-117749996D01*
X130896012Y-117749996D01*
X129530499Y-116400000D01*
X141644867Y-116400000D01*
X141663302Y-116528225D01*
X141717117Y-116646061D01*
X141717118Y-116646063D01*
X141801951Y-116743967D01*
X141905767Y-116810685D01*
X141951521Y-116863488D01*
X141961465Y-116932646D01*
X141932440Y-116996202D01*
X141905768Y-117019313D01*
X141852962Y-117053249D01*
X141801950Y-117086033D01*
X141717118Y-117183937D01*
X141717117Y-117183938D01*
X141663302Y-117301774D01*
X141644867Y-117430000D01*
X141663302Y-117558225D01*
X141676414Y-117586935D01*
X141717118Y-117676063D01*
X141801951Y-117773967D01*
X141905767Y-117840685D01*
X141951521Y-117893488D01*
X141961465Y-117962646D01*
X141932440Y-118026202D01*
X141905768Y-118049313D01*
X141852962Y-118083249D01*
X141801950Y-118116033D01*
X141717118Y-118213937D01*
X141717117Y-118213938D01*
X141663302Y-118331774D01*
X141644867Y-118460000D01*
X141663302Y-118588225D01*
X141717117Y-118706061D01*
X141717118Y-118706063D01*
X141801951Y-118803967D01*
X141910931Y-118874004D01*
X141981628Y-118894762D01*
X142035225Y-118910499D01*
X142035227Y-118910500D01*
X142035228Y-118910500D01*
X142164773Y-118910500D01*
X142164773Y-118910499D01*
X142289069Y-118874004D01*
X142398049Y-118803967D01*
X142482882Y-118706063D01*
X142536697Y-118588226D01*
X142555133Y-118460000D01*
X142545427Y-118392496D01*
X145069435Y-118392496D01*
X145069435Y-118392503D01*
X145089630Y-118571749D01*
X145089631Y-118571754D01*
X145149211Y-118742023D01*
X145232141Y-118874004D01*
X145245184Y-118894762D01*
X145372738Y-119022316D01*
X145525478Y-119118289D01*
X145695745Y-119177868D01*
X145695750Y-119177869D01*
X145874996Y-119198065D01*
X145875000Y-119198065D01*
X145875004Y-119198065D01*
X146054249Y-119177869D01*
X146054252Y-119177868D01*
X146054255Y-119177868D01*
X146224522Y-119118289D01*
X146377262Y-119022316D01*
X146504816Y-118894762D01*
X146600789Y-118742022D01*
X146660368Y-118571755D01*
X146680565Y-118392500D01*
X146664764Y-118252262D01*
X146660369Y-118213250D01*
X146660368Y-118213245D01*
X146620575Y-118099523D01*
X146600789Y-118042978D01*
X146571592Y-117996512D01*
X146529328Y-117929249D01*
X146504816Y-117890238D01*
X146377262Y-117762684D01*
X146357069Y-117749996D01*
X146224523Y-117666711D01*
X146054254Y-117607131D01*
X146054249Y-117607130D01*
X145875004Y-117586935D01*
X145874996Y-117586935D01*
X145695750Y-117607130D01*
X145695745Y-117607131D01*
X145525476Y-117666711D01*
X145372737Y-117762684D01*
X145245184Y-117890237D01*
X145149211Y-118042976D01*
X145089631Y-118213245D01*
X145089630Y-118213250D01*
X145069435Y-118392496D01*
X142545427Y-118392496D01*
X142536697Y-118331774D01*
X142482882Y-118213937D01*
X142398049Y-118116033D01*
X142294230Y-118049313D01*
X142248478Y-117996512D01*
X142238534Y-117927354D01*
X142267558Y-117863798D01*
X142294227Y-117840689D01*
X142398049Y-117773967D01*
X142482882Y-117676063D01*
X142536697Y-117558226D01*
X142555133Y-117430000D01*
X142536697Y-117301774D01*
X142482882Y-117183937D01*
X142398049Y-117086033D01*
X142294230Y-117019313D01*
X142248478Y-116966512D01*
X142238534Y-116897354D01*
X142267558Y-116833798D01*
X142294227Y-116810689D01*
X142398049Y-116743967D01*
X142482882Y-116646063D01*
X142536697Y-116528226D01*
X142555133Y-116400000D01*
X142536697Y-116271774D01*
X142482882Y-116153937D01*
X142398049Y-116056033D01*
X142289069Y-115985996D01*
X142289065Y-115985994D01*
X142289064Y-115985994D01*
X142164774Y-115949500D01*
X142164772Y-115949500D01*
X142035228Y-115949500D01*
X142035226Y-115949500D01*
X141910935Y-115985994D01*
X141910932Y-115985995D01*
X141910931Y-115985996D01*
X141859677Y-116018934D01*
X141801950Y-116056033D01*
X141717118Y-116153937D01*
X141717117Y-116153938D01*
X141663302Y-116271774D01*
X141644867Y-116400000D01*
X129530499Y-116400000D01*
X128191623Y-115076338D01*
X128152270Y-115041294D01*
X128132132Y-115025162D01*
X128089388Y-114994433D01*
X127958514Y-114934663D01*
X127891469Y-114914976D01*
X127829406Y-114906053D01*
X127749052Y-114894500D01*
X120974500Y-114894500D01*
X120907461Y-114874815D01*
X120861706Y-114822011D01*
X120850500Y-114770500D01*
X120850500Y-113449996D01*
X133894435Y-113449996D01*
X133894435Y-113450003D01*
X133914630Y-113629249D01*
X133914631Y-113629254D01*
X133974211Y-113799523D01*
X134037347Y-113900003D01*
X134070184Y-113952262D01*
X134197738Y-114079816D01*
X134350478Y-114175789D01*
X134520745Y-114235368D01*
X134520750Y-114235369D01*
X134699996Y-114255565D01*
X134700000Y-114255565D01*
X134700004Y-114255565D01*
X134879249Y-114235369D01*
X134879252Y-114235368D01*
X134879255Y-114235368D01*
X135049522Y-114175789D01*
X135202262Y-114079816D01*
X135329816Y-113952262D01*
X135425789Y-113799522D01*
X135485368Y-113629255D01*
X135485369Y-113629249D01*
X135505565Y-113450003D01*
X135505565Y-113449996D01*
X135485369Y-113270750D01*
X135485368Y-113270745D01*
X135451589Y-113174211D01*
X135425789Y-113100478D01*
X135329816Y-112947738D01*
X135202262Y-112820184D01*
X135049523Y-112724211D01*
X134879254Y-112664631D01*
X134879249Y-112664630D01*
X134700004Y-112644435D01*
X134699996Y-112644435D01*
X134520750Y-112664630D01*
X134520745Y-112664631D01*
X134350476Y-112724211D01*
X134197737Y-112820184D01*
X134070184Y-112947737D01*
X133974211Y-113100476D01*
X133914631Y-113270745D01*
X133914630Y-113270750D01*
X133894435Y-113449996D01*
X120850500Y-113449996D01*
X120850500Y-111049996D01*
X136144435Y-111049996D01*
X136144435Y-111050003D01*
X136164630Y-111229249D01*
X136164631Y-111229254D01*
X136224211Y-111399523D01*
X136320184Y-111552262D01*
X136447738Y-111679816D01*
X136600478Y-111775789D01*
X136770745Y-111835368D01*
X136770750Y-111835369D01*
X136949996Y-111855565D01*
X136950000Y-111855565D01*
X136950004Y-111855565D01*
X137129249Y-111835369D01*
X137129252Y-111835368D01*
X137129255Y-111835368D01*
X137299522Y-111775789D01*
X137452262Y-111679816D01*
X137579816Y-111552262D01*
X137675789Y-111399522D01*
X137735368Y-111229255D01*
X137735369Y-111229249D01*
X137755565Y-111050003D01*
X137755565Y-111049996D01*
X137735369Y-110870750D01*
X137735368Y-110870745D01*
X137675789Y-110700478D01*
X137579816Y-110547738D01*
X137452262Y-110420184D01*
X137410479Y-110393930D01*
X137299523Y-110324211D01*
X137129254Y-110264631D01*
X137129249Y-110264630D01*
X136950004Y-110244435D01*
X136949996Y-110244435D01*
X136770750Y-110264630D01*
X136770745Y-110264631D01*
X136600476Y-110324211D01*
X136447737Y-110420184D01*
X136320184Y-110547737D01*
X136224211Y-110700476D01*
X136164631Y-110870745D01*
X136164630Y-110870750D01*
X136144435Y-111049996D01*
X120850500Y-111049996D01*
X120850500Y-65624500D01*
X120870185Y-65557461D01*
X120922989Y-65511706D01*
X120974500Y-65500500D01*
X149350500Y-65500500D01*
X149417539Y-65520185D01*
G37*
%TD.AperFunction*%
%TA.AperFunction,Conductor*%
G36*
X135943764Y-90487038D02*
G01*
X135960950Y-90499796D01*
X136016809Y-90549282D01*
X136016811Y-90549284D01*
X136156684Y-90622696D01*
X136310064Y-90660500D01*
X136310065Y-90660500D01*
X136468035Y-90660500D01*
X136621415Y-90622696D01*
X136761287Y-90549285D01*
X136761288Y-90549283D01*
X136761290Y-90549283D01*
X136817152Y-90499794D01*
X136880381Y-90470075D01*
X136949645Y-90479257D01*
X137002948Y-90524429D01*
X137023369Y-90591248D01*
X137004422Y-90658500D01*
X136991527Y-90675582D01*
X136926516Y-90747785D01*
X136831871Y-90911715D01*
X136831868Y-90911722D01*
X136773377Y-91091740D01*
X136773376Y-91091744D01*
X136753590Y-91280000D01*
X136753590Y-91280002D01*
X136753590Y-91284862D01*
X136733905Y-91351901D01*
X136717271Y-91372543D01*
X136478531Y-91611282D01*
X136478529Y-91611284D01*
X136463339Y-91637594D01*
X136456919Y-91648716D01*
X136399473Y-91748215D01*
X136358549Y-91900943D01*
X136358549Y-91900945D01*
X136358549Y-92069046D01*
X136358550Y-92069059D01*
X136358550Y-95522380D01*
X136358549Y-95522398D01*
X136358549Y-95688104D01*
X136358548Y-95688104D01*
X136399474Y-95840839D01*
X136399475Y-95840840D01*
X136413695Y-95865469D01*
X136413696Y-95865470D01*
X136478527Y-95977762D01*
X136478531Y-95977767D01*
X136597399Y-96096635D01*
X136597405Y-96096640D01*
X136819298Y-96318533D01*
X136852783Y-96379856D01*
X136854837Y-96392330D01*
X136864630Y-96479249D01*
X136924210Y-96649521D01*
X136924211Y-96649522D01*
X137020184Y-96802262D01*
X137147738Y-96929816D01*
X137300478Y-97025789D01*
X137470745Y-97085368D01*
X137557669Y-97095161D01*
X137622080Y-97122226D01*
X137631465Y-97130700D01*
X141102231Y-100601466D01*
X141135716Y-100662789D01*
X141138550Y-100689147D01*
X141138550Y-107435852D01*
X141118865Y-107502891D01*
X141102231Y-107523533D01*
X140083778Y-108541985D01*
X140022455Y-108575470D01*
X139952763Y-108570486D01*
X139896830Y-108528614D01*
X139891103Y-108520276D01*
X139829816Y-108422738D01*
X139702262Y-108295184D01*
X139626754Y-108247739D01*
X139549523Y-108199211D01*
X139379254Y-108139631D01*
X139379249Y-108139630D01*
X139200004Y-108119435D01*
X139199996Y-108119435D01*
X139020750Y-108139630D01*
X139020745Y-108139631D01*
X138850476Y-108199211D01*
X138697736Y-108295185D01*
X138694903Y-108297445D01*
X138692724Y-108298334D01*
X138691842Y-108298889D01*
X138691744Y-108298734D01*
X138630217Y-108323855D01*
X138617588Y-108324500D01*
X138316791Y-108324500D01*
X138249752Y-108304815D01*
X138203997Y-108252011D01*
X138194053Y-108182853D01*
X138214741Y-108130061D01*
X138239266Y-108094529D01*
X138239266Y-108094528D01*
X138239270Y-108094523D01*
X138295287Y-107946818D01*
X138314328Y-107790000D01*
X138295287Y-107633182D01*
X138239270Y-107485477D01*
X138182088Y-107402635D01*
X138160206Y-107336282D01*
X138177671Y-107268630D01*
X138211250Y-107231881D01*
X138264921Y-107192888D01*
X138391583Y-107052216D01*
X138486229Y-106888284D01*
X138544724Y-106708256D01*
X138564510Y-106520000D01*
X138544724Y-106331744D01*
X138486229Y-106151716D01*
X138391583Y-105987784D01*
X138264921Y-105847112D01*
X138264920Y-105847111D01*
X138111784Y-105735851D01*
X138111779Y-105735848D01*
X137938857Y-105658857D01*
X137938852Y-105658855D01*
X137793051Y-105627865D01*
X137753696Y-105619500D01*
X137564404Y-105619500D01*
X137531947Y-105626398D01*
X137379247Y-105658855D01*
X137379242Y-105658857D01*
X137206320Y-105735848D01*
X137206315Y-105735851D01*
X137053179Y-105847111D01*
X136926516Y-105987785D01*
X136831871Y-106151715D01*
X136831868Y-106151722D01*
X136773377Y-106331740D01*
X136773376Y-106331744D01*
X136753590Y-106520000D01*
X136773376Y-106708256D01*
X136773377Y-106708259D01*
X136831868Y-106888277D01*
X136831871Y-106888284D01*
X136926517Y-107052216D01*
X136960536Y-107089998D01*
X136991526Y-107124416D01*
X137021756Y-107187408D01*
X137013131Y-107256743D01*
X136968389Y-107310408D01*
X136901737Y-107331366D01*
X136834335Y-107312961D01*
X136817154Y-107300208D01*
X136761290Y-107250717D01*
X136761287Y-107250714D01*
X136621415Y-107177303D01*
X136468036Y-107139500D01*
X136468035Y-107139500D01*
X136310065Y-107139500D01*
X136310064Y-107139500D01*
X136156684Y-107177303D01*
X136016811Y-107250715D01*
X136016809Y-107250717D01*
X135960949Y-107300204D01*
X135897716Y-107329925D01*
X135828452Y-107320741D01*
X135775149Y-107275568D01*
X135754730Y-107208749D01*
X135773678Y-107141497D01*
X135786571Y-107124418D01*
X135851583Y-107052216D01*
X135946229Y-106888284D01*
X136004724Y-106708256D01*
X136024510Y-106520000D01*
X136004724Y-106331744D01*
X135946229Y-106151716D01*
X135851583Y-105987784D01*
X135724921Y-105847112D01*
X135724920Y-105847111D01*
X135571784Y-105735851D01*
X135571779Y-105735848D01*
X135398857Y-105658857D01*
X135398852Y-105658855D01*
X135253051Y-105627865D01*
X135213696Y-105619500D01*
X135024404Y-105619500D01*
X134991947Y-105626398D01*
X134839247Y-105658855D01*
X134839242Y-105658857D01*
X134666320Y-105735848D01*
X134666315Y-105735851D01*
X134513179Y-105847111D01*
X134386516Y-105987785D01*
X134291871Y-106151715D01*
X134291868Y-106151722D01*
X134233377Y-106331740D01*
X134233376Y-106331744D01*
X134213590Y-106520000D01*
X134233376Y-106708256D01*
X134233377Y-106708259D01*
X134291868Y-106888277D01*
X134291871Y-106888284D01*
X134386517Y-107052216D01*
X134420536Y-107089998D01*
X134451526Y-107124416D01*
X134481756Y-107187408D01*
X134473131Y-107256743D01*
X134428389Y-107310408D01*
X134361737Y-107331366D01*
X134294335Y-107312961D01*
X134277154Y-107300208D01*
X134221290Y-107250717D01*
X134221287Y-107250714D01*
X134081415Y-107177303D01*
X133928036Y-107139500D01*
X133928035Y-107139500D01*
X133770065Y-107139500D01*
X133770064Y-107139500D01*
X133616684Y-107177303D01*
X133476811Y-107250715D01*
X133476809Y-107250717D01*
X133420949Y-107300204D01*
X133357716Y-107329925D01*
X133288452Y-107320741D01*
X133235149Y-107275568D01*
X133214730Y-107208749D01*
X133233678Y-107141497D01*
X133246571Y-107124418D01*
X133311583Y-107052216D01*
X133406229Y-106888284D01*
X133464724Y-106708256D01*
X133484510Y-106520000D01*
X133464724Y-106331744D01*
X133406229Y-106151716D01*
X133311583Y-105987784D01*
X133184921Y-105847112D01*
X133184920Y-105847111D01*
X133031784Y-105735851D01*
X133031779Y-105735848D01*
X132858857Y-105658857D01*
X132858852Y-105658855D01*
X132713051Y-105627865D01*
X132673696Y-105619500D01*
X132484404Y-105619500D01*
X132451947Y-105626398D01*
X132299247Y-105658855D01*
X132299242Y-105658857D01*
X132126320Y-105735848D01*
X132126315Y-105735851D01*
X131973179Y-105847111D01*
X131846516Y-105987785D01*
X131751871Y-106151715D01*
X131751868Y-106151722D01*
X131693377Y-106331740D01*
X131693376Y-106331744D01*
X131673590Y-106520000D01*
X131693376Y-106708256D01*
X131693377Y-106708259D01*
X131751868Y-106888277D01*
X131751871Y-106888284D01*
X131846517Y-107052216D01*
X131880536Y-107089998D01*
X131911526Y-107124416D01*
X131941756Y-107187408D01*
X131933131Y-107256743D01*
X131888389Y-107310408D01*
X131821737Y-107331366D01*
X131754335Y-107312961D01*
X131737154Y-107300208D01*
X131681290Y-107250717D01*
X131681287Y-107250714D01*
X131541415Y-107177303D01*
X131388036Y-107139500D01*
X131388035Y-107139500D01*
X131230065Y-107139500D01*
X131230064Y-107139500D01*
X131076684Y-107177303D01*
X130936811Y-107250715D01*
X130936809Y-107250717D01*
X130880949Y-107300204D01*
X130817716Y-107329925D01*
X130748452Y-107320741D01*
X130695149Y-107275568D01*
X130674730Y-107208749D01*
X130693678Y-107141497D01*
X130706571Y-107124418D01*
X130771583Y-107052216D01*
X130866229Y-106888284D01*
X130924724Y-106708256D01*
X130944510Y-106520000D01*
X130924724Y-106331744D01*
X130866229Y-106151716D01*
X130771583Y-105987784D01*
X130644921Y-105847112D01*
X130644920Y-105847111D01*
X130491784Y-105735851D01*
X130491779Y-105735848D01*
X130318857Y-105658857D01*
X130318852Y-105658855D01*
X130173051Y-105627865D01*
X130133696Y-105619500D01*
X130133695Y-105619500D01*
X130039147Y-105619500D01*
X129972108Y-105599815D01*
X129951466Y-105583181D01*
X128568281Y-104199996D01*
X131744435Y-104199996D01*
X131744435Y-104200003D01*
X131764630Y-104379249D01*
X131764631Y-104379254D01*
X131824211Y-104549523D01*
X131829091Y-104557289D01*
X131920184Y-104702262D01*
X132047738Y-104829816D01*
X132200478Y-104925789D01*
X132370745Y-104985368D01*
X132370750Y-104985369D01*
X132549996Y-105005565D01*
X132550000Y-105005565D01*
X132550004Y-105005565D01*
X132729249Y-104985369D01*
X132729252Y-104985368D01*
X132729255Y-104985368D01*
X132899522Y-104925789D01*
X133052262Y-104829816D01*
X133179816Y-104702262D01*
X133275789Y-104549522D01*
X133335368Y-104379255D01*
X133335369Y-104379249D01*
X133355565Y-104200003D01*
X133355565Y-104199996D01*
X133335369Y-104020750D01*
X133335368Y-104020745D01*
X133275789Y-103850478D01*
X133179816Y-103697738D01*
X133052262Y-103570184D01*
X133045984Y-103566239D01*
X132899523Y-103474211D01*
X132729254Y-103414631D01*
X132729249Y-103414630D01*
X132550004Y-103394435D01*
X132549996Y-103394435D01*
X132370750Y-103414630D01*
X132370745Y-103414631D01*
X132200476Y-103474211D01*
X132047737Y-103570184D01*
X131920184Y-103697737D01*
X131824211Y-103850476D01*
X131764631Y-104020745D01*
X131764630Y-104020750D01*
X131744435Y-104199996D01*
X128568281Y-104199996D01*
X127256640Y-102888355D01*
X127256638Y-102888352D01*
X127137767Y-102769481D01*
X127137766Y-102769480D01*
X127050954Y-102719360D01*
X127050954Y-102719359D01*
X127050950Y-102719358D01*
X127000835Y-102690423D01*
X126848107Y-102649499D01*
X126689993Y-102649499D01*
X126682397Y-102649499D01*
X126682381Y-102649500D01*
X124785719Y-102649500D01*
X124718680Y-102629815D01*
X124675235Y-102581795D01*
X124655052Y-102542185D01*
X124655051Y-102542184D01*
X124530109Y-102370213D01*
X124379792Y-102219896D01*
X124379784Y-102219890D01*
X124215204Y-102100316D01*
X124172540Y-102044989D01*
X124166561Y-101975376D01*
X124199166Y-101913580D01*
X124215199Y-101899686D01*
X124379792Y-101780104D01*
X124530104Y-101629792D01*
X124530106Y-101629788D01*
X124530109Y-101629786D01*
X124655048Y-101457820D01*
X124655047Y-101457820D01*
X124655051Y-101457816D01*
X124751557Y-101268412D01*
X124817246Y-101066243D01*
X124850500Y-100856287D01*
X124850500Y-100643713D01*
X124817246Y-100433757D01*
X124772851Y-100297126D01*
X124770857Y-100227290D01*
X124803100Y-100171133D01*
X130397556Y-94576678D01*
X130397561Y-94576674D01*
X130407764Y-94566470D01*
X130407766Y-94566470D01*
X130519570Y-94454666D01*
X130591652Y-94329816D01*
X130598627Y-94317735D01*
X130639551Y-94165007D01*
X130639551Y-94006893D01*
X130639551Y-93999298D01*
X130639550Y-93999280D01*
X130639550Y-92006452D01*
X130659235Y-91939413D01*
X130671400Y-91923480D01*
X130771583Y-91812216D01*
X130866229Y-91648284D01*
X130924724Y-91468256D01*
X130944510Y-91280000D01*
X130924724Y-91091744D01*
X130866229Y-90911716D01*
X130771583Y-90747784D01*
X130706573Y-90675583D01*
X130676343Y-90612592D01*
X130684968Y-90543256D01*
X130729710Y-90489591D01*
X130796362Y-90468633D01*
X130863764Y-90487038D01*
X130880950Y-90499796D01*
X130936809Y-90549282D01*
X130936811Y-90549284D01*
X131076684Y-90622696D01*
X131230064Y-90660500D01*
X131230065Y-90660500D01*
X131388035Y-90660500D01*
X131541415Y-90622696D01*
X131681287Y-90549285D01*
X131681288Y-90549283D01*
X131681290Y-90549283D01*
X131737152Y-90499794D01*
X131800381Y-90470075D01*
X131869645Y-90479257D01*
X131922948Y-90524429D01*
X131943369Y-90591248D01*
X131924422Y-90658500D01*
X131911527Y-90675582D01*
X131846516Y-90747785D01*
X131751871Y-90911715D01*
X131751868Y-90911722D01*
X131693377Y-91091740D01*
X131693376Y-91091744D01*
X131673590Y-91280000D01*
X131693376Y-91468256D01*
X131693377Y-91468259D01*
X131751868Y-91648277D01*
X131751871Y-91648284D01*
X131846517Y-91812216D01*
X131926409Y-91900945D01*
X131973179Y-91952888D01*
X132126315Y-92064148D01*
X132126320Y-92064151D01*
X132299242Y-92141142D01*
X132299247Y-92141144D01*
X132484404Y-92180500D01*
X132484405Y-92180500D01*
X132673694Y-92180500D01*
X132673696Y-92180500D01*
X132858853Y-92141144D01*
X133031780Y-92064151D01*
X133184921Y-91952888D01*
X133311583Y-91812216D01*
X133406229Y-91648284D01*
X133464724Y-91468256D01*
X133484510Y-91280000D01*
X133464724Y-91091744D01*
X133406229Y-90911716D01*
X133311583Y-90747784D01*
X133246573Y-90675583D01*
X133216343Y-90612592D01*
X133224968Y-90543256D01*
X133269710Y-90489591D01*
X133336362Y-90468633D01*
X133403764Y-90487038D01*
X133420950Y-90499796D01*
X133476809Y-90549282D01*
X133476811Y-90549284D01*
X133616684Y-90622696D01*
X133770064Y-90660500D01*
X133770065Y-90660500D01*
X133928035Y-90660500D01*
X134081415Y-90622696D01*
X134221287Y-90549285D01*
X134221288Y-90549283D01*
X134221290Y-90549283D01*
X134277152Y-90499794D01*
X134340381Y-90470075D01*
X134409645Y-90479257D01*
X134462948Y-90524429D01*
X134483369Y-90591248D01*
X134464422Y-90658500D01*
X134451527Y-90675582D01*
X134386516Y-90747785D01*
X134291871Y-90911715D01*
X134291868Y-90911722D01*
X134233377Y-91091740D01*
X134233376Y-91091744D01*
X134213590Y-91280000D01*
X134233376Y-91468256D01*
X134233377Y-91468259D01*
X134291868Y-91648277D01*
X134291871Y-91648284D01*
X134386517Y-91812216D01*
X134466409Y-91900945D01*
X134513179Y-91952888D01*
X134666315Y-92064148D01*
X134666320Y-92064151D01*
X134839242Y-92141142D01*
X134839247Y-92141144D01*
X135024404Y-92180500D01*
X135024405Y-92180500D01*
X135213694Y-92180500D01*
X135213696Y-92180500D01*
X135398853Y-92141144D01*
X135571780Y-92064151D01*
X135724921Y-91952888D01*
X135851583Y-91812216D01*
X135946229Y-91648284D01*
X136004724Y-91468256D01*
X136024510Y-91280000D01*
X136004724Y-91091744D01*
X135946229Y-90911716D01*
X135851583Y-90747784D01*
X135786573Y-90675583D01*
X135756343Y-90612592D01*
X135764968Y-90543256D01*
X135809710Y-90489591D01*
X135876362Y-90468633D01*
X135943764Y-90487038D01*
G37*
%TD.AperFunction*%
%TD*%
M02*
