%TF.GenerationSoftware,KiCad,Pcbnew,8.0.6*%
%TF.CreationDate,2025-10-25T17:28:24-05:00*%
%TF.ProjectId,Eyeliner-PCB-V2,4579656c-696e-4657-922d-5043422d5632,rev?*%
%TF.SameCoordinates,Original*%
%TF.FileFunction,Copper,L1,Top*%
%TF.FilePolarity,Positive*%
%FSLAX46Y46*%
G04 Gerber Fmt 4.6, Leading zero omitted, Abs format (unit mm)*
G04 Created by KiCad (PCBNEW 8.0.6) date 2025-10-25 17:28:24*
%MOMM*%
%LPD*%
G01*
G04 APERTURE LIST*
G04 Aperture macros list*
%AMRoundRect*
0 Rectangle with rounded corners*
0 $1 Rounding radius*
0 $2 $3 $4 $5 $6 $7 $8 $9 X,Y pos of 4 corners*
0 Add a 4 corners polygon primitive as box body*
4,1,4,$2,$3,$4,$5,$6,$7,$8,$9,$2,$3,0*
0 Add four circle primitives for the rounded corners*
1,1,$1+$1,$2,$3*
1,1,$1+$1,$4,$5*
1,1,$1+$1,$6,$7*
1,1,$1+$1,$8,$9*
0 Add four rect primitives between the rounded corners*
20,1,$1+$1,$2,$3,$4,$5,0*
20,1,$1+$1,$4,$5,$6,$7,0*
20,1,$1+$1,$6,$7,$8,$9,0*
20,1,$1+$1,$8,$9,$2,$3,0*%
G04 Aperture macros list end*
%TA.AperFunction,EtchedComponent*%
%ADD10C,0.000000*%
%TD*%
%TA.AperFunction,SMDPad,CuDef*%
%ADD11C,1.000000*%
%TD*%
%TA.AperFunction,SMDPad,CuDef*%
%ADD12RoundRect,0.087500X-0.225000X-0.087500X0.225000X-0.087500X0.225000X0.087500X-0.225000X0.087500X0*%
%TD*%
%TA.AperFunction,SMDPad,CuDef*%
%ADD13RoundRect,0.087500X-0.087500X-0.225000X0.087500X-0.225000X0.087500X0.225000X-0.087500X0.225000X0*%
%TD*%
%TA.AperFunction,ComponentPad*%
%ADD14R,2.000000X2.000000*%
%TD*%
%TA.AperFunction,ComponentPad*%
%ADD15C,6.000000*%
%TD*%
%TA.AperFunction,ComponentPad*%
%ADD16R,6.000000X6.000000*%
%TD*%
%TA.AperFunction,ComponentPad*%
%ADD17R,6.000000X14.000000*%
%TD*%
%TA.AperFunction,ComponentPad*%
%ADD18C,0.900000*%
%TD*%
%TA.AperFunction,ComponentPad*%
%ADD19C,1.400000*%
%TD*%
%TA.AperFunction,SMDPad,CuDef*%
%ADD20RoundRect,0.250000X-0.625000X0.400000X-0.625000X-0.400000X0.625000X-0.400000X0.625000X0.400000X0*%
%TD*%
%TA.AperFunction,SMDPad,CuDef*%
%ADD21RoundRect,0.112500X-0.287500X-0.112500X0.287500X-0.112500X0.287500X0.112500X-0.287500X0.112500X0*%
%TD*%
%TA.AperFunction,HeatsinkPad*%
%ADD22C,0.500000*%
%TD*%
%TA.AperFunction,HeatsinkPad*%
%ADD23R,0.700000X2.900000*%
%TD*%
%TA.AperFunction,ComponentPad*%
%ADD24O,1.700000X1.950000*%
%TD*%
%TA.AperFunction,ComponentPad*%
%ADD25RoundRect,0.250000X0.600000X0.725000X-0.600000X0.725000X-0.600000X-0.725000X0.600000X-0.725000X0*%
%TD*%
%TA.AperFunction,ComponentPad*%
%ADD26RoundRect,0.250000X0.725000X-0.600000X0.725000X0.600000X-0.725000X0.600000X-0.725000X-0.600000X0*%
%TD*%
%TA.AperFunction,ComponentPad*%
%ADD27O,1.950000X1.700000*%
%TD*%
%TA.AperFunction,SMDPad,CuDef*%
%ADD28R,6.000000X5.000000*%
%TD*%
%TA.AperFunction,SMDPad,CuDef*%
%ADD29RoundRect,0.150000X-0.200000X0.150000X-0.200000X-0.150000X0.200000X-0.150000X0.200000X0.150000X0*%
%TD*%
%TA.AperFunction,SMDPad,CuDef*%
%ADD30RoundRect,0.250000X-1.750000X-1.000000X1.750000X-1.000000X1.750000X1.000000X-1.750000X1.000000X0*%
%TD*%
%TA.AperFunction,SMDPad,CuDef*%
%ADD31RoundRect,0.250000X1.000000X-1.750000X1.000000X1.750000X-1.000000X1.750000X-1.000000X-1.750000X0*%
%TD*%
%TA.AperFunction,SMDPad,CuDef*%
%ADD32RoundRect,0.437500X0.562500X-0.437500X0.562500X0.437500X-0.562500X0.437500X-0.562500X-0.437500X0*%
%TD*%
%TA.AperFunction,ViaPad*%
%ADD33C,0.600000*%
%TD*%
%TA.AperFunction,Conductor*%
%ADD34C,0.200000*%
%TD*%
%TA.AperFunction,Conductor*%
%ADD35C,0.300000*%
%TD*%
%TA.AperFunction,Conductor*%
%ADD36C,0.500000*%
%TD*%
G04 APERTURE END LIST*
%TA.AperFunction,EtchedComponent*%
%TO.C,Seeed_Studio_ESP32-S3_Plus1*%
G36*
X129587250Y-89959200D02*
G01*
X130490850Y-89959200D01*
X130490850Y-90822800D01*
X129587250Y-90822800D01*
X129587250Y-89959200D01*
G37*
%TD.AperFunction*%
%TA.AperFunction,EtchedComponent*%
G36*
X129587250Y-106977200D02*
G01*
X130490850Y-106977200D01*
X130490850Y-107840800D01*
X129587250Y-107840800D01*
X129587250Y-106977200D01*
G37*
%TD.AperFunction*%
%TA.AperFunction,EtchedComponent*%
G36*
X132127250Y-89959200D02*
G01*
X133030850Y-89959200D01*
X133030850Y-90822800D01*
X132127250Y-90822800D01*
X132127250Y-89959200D01*
G37*
%TD.AperFunction*%
%TA.AperFunction,EtchedComponent*%
G36*
X132127250Y-106977200D02*
G01*
X133030850Y-106977200D01*
X133030850Y-107840800D01*
X132127250Y-107840800D01*
X132127250Y-106977200D01*
G37*
%TD.AperFunction*%
%TA.AperFunction,EtchedComponent*%
G36*
X134667250Y-89959200D02*
G01*
X135570850Y-89959200D01*
X135570850Y-90822800D01*
X134667250Y-90822800D01*
X134667250Y-89959200D01*
G37*
%TD.AperFunction*%
%TA.AperFunction,EtchedComponent*%
G36*
X134667250Y-106977200D02*
G01*
X135570850Y-106977200D01*
X135570850Y-107840800D01*
X134667250Y-107840800D01*
X134667250Y-106977200D01*
G37*
%TD.AperFunction*%
%TA.AperFunction,EtchedComponent*%
G36*
X137207250Y-89959200D02*
G01*
X138110850Y-89959200D01*
X138110850Y-90822800D01*
X137207250Y-90822800D01*
X137207250Y-89959200D01*
G37*
%TD.AperFunction*%
%TA.AperFunction,EtchedComponent*%
G36*
X137207250Y-106977200D02*
G01*
X138110850Y-106977200D01*
X138110850Y-107840800D01*
X137207250Y-107840800D01*
X137207250Y-106977200D01*
G37*
%TD.AperFunction*%
%TA.AperFunction,EtchedComponent*%
G36*
X139747250Y-89959200D02*
G01*
X140650850Y-89959200D01*
X140650850Y-90822800D01*
X139747250Y-90822800D01*
X139747250Y-89959200D01*
G37*
%TD.AperFunction*%
%TA.AperFunction,EtchedComponent*%
G36*
X139747250Y-106977200D02*
G01*
X140650850Y-106977200D01*
X140650850Y-107840800D01*
X139747250Y-107840800D01*
X139747250Y-106977200D01*
G37*
%TD.AperFunction*%
%TA.AperFunction,EtchedComponent*%
G36*
X142287250Y-89959200D02*
G01*
X143190850Y-89959200D01*
X143190850Y-90822800D01*
X142287250Y-90822800D01*
X142287250Y-89959200D01*
G37*
%TD.AperFunction*%
%TA.AperFunction,EtchedComponent*%
G36*
X142287250Y-106977200D02*
G01*
X143190850Y-106977200D01*
X143190850Y-107840800D01*
X142287250Y-107840800D01*
X142287250Y-106977200D01*
G37*
%TD.AperFunction*%
%TA.AperFunction,EtchedComponent*%
G36*
X144827250Y-89959200D02*
G01*
X145730850Y-89959200D01*
X145730850Y-90822800D01*
X144827250Y-90822800D01*
X144827250Y-89959200D01*
G37*
%TD.AperFunction*%
%TA.AperFunction,EtchedComponent*%
G36*
X144827250Y-106977200D02*
G01*
X145730850Y-106977200D01*
X145730850Y-107840800D01*
X144827250Y-107840800D01*
X144827250Y-106977200D01*
G37*
%TD.AperFunction*%
D10*
%TA.AperFunction,EtchedComponent*%
G36*
X131462679Y-106997731D02*
G01*
X131583228Y-107059155D01*
X131681830Y-107157757D01*
X131760850Y-107400954D01*
X131760850Y-107840800D01*
X130857250Y-107840800D01*
X130857250Y-107405002D01*
X130877781Y-107275371D01*
X130939205Y-107154822D01*
X131037807Y-107056220D01*
X131281004Y-106977200D01*
X131333048Y-106977200D01*
X131462679Y-106997731D01*
G37*
%TD.AperFunction*%
%TA.AperFunction,EtchedComponent*%
G36*
X131760850Y-90394998D02*
G01*
X131740319Y-90524629D01*
X131678895Y-90645178D01*
X131580293Y-90743780D01*
X131337096Y-90822800D01*
X131285052Y-90822800D01*
X131155421Y-90802269D01*
X131034872Y-90740845D01*
X130936270Y-90642243D01*
X130857250Y-90399046D01*
X130857250Y-89959200D01*
X131760850Y-89959200D01*
X131760850Y-90394998D01*
G37*
%TD.AperFunction*%
%TA.AperFunction,EtchedComponent*%
G36*
X134002679Y-106997731D02*
G01*
X134123228Y-107059155D01*
X134221830Y-107157757D01*
X134300850Y-107400954D01*
X134300850Y-107840800D01*
X133397250Y-107840800D01*
X133397250Y-107405002D01*
X133417781Y-107275371D01*
X133479205Y-107154822D01*
X133577807Y-107056220D01*
X133821004Y-106977200D01*
X133873048Y-106977200D01*
X134002679Y-106997731D01*
G37*
%TD.AperFunction*%
%TA.AperFunction,EtchedComponent*%
G36*
X134300850Y-90394998D02*
G01*
X134280319Y-90524629D01*
X134218895Y-90645178D01*
X134120293Y-90743780D01*
X133877096Y-90822800D01*
X133825052Y-90822800D01*
X133695421Y-90802269D01*
X133574872Y-90740845D01*
X133476270Y-90642243D01*
X133397250Y-90399046D01*
X133397250Y-89959200D01*
X134300850Y-89959200D01*
X134300850Y-90394998D01*
G37*
%TD.AperFunction*%
%TA.AperFunction,EtchedComponent*%
G36*
X136542679Y-106997731D02*
G01*
X136663228Y-107059155D01*
X136761830Y-107157757D01*
X136840850Y-107400954D01*
X136840850Y-107840800D01*
X135937250Y-107840800D01*
X135937250Y-107405002D01*
X135957781Y-107275371D01*
X136019205Y-107154822D01*
X136117807Y-107056220D01*
X136361004Y-106977200D01*
X136413048Y-106977200D01*
X136542679Y-106997731D01*
G37*
%TD.AperFunction*%
%TA.AperFunction,EtchedComponent*%
G36*
X136840850Y-90394998D02*
G01*
X136820319Y-90524629D01*
X136758895Y-90645178D01*
X136660293Y-90743780D01*
X136417096Y-90822800D01*
X136365052Y-90822800D01*
X136235421Y-90802269D01*
X136114872Y-90740845D01*
X136016270Y-90642243D01*
X135937250Y-90399046D01*
X135937250Y-89959200D01*
X136840850Y-89959200D01*
X136840850Y-90394998D01*
G37*
%TD.AperFunction*%
%TA.AperFunction,EtchedComponent*%
G36*
X139380850Y-90394998D02*
G01*
X139360319Y-90524629D01*
X139298895Y-90645178D01*
X139200293Y-90743780D01*
X138957096Y-90822800D01*
X138905052Y-90822800D01*
X138775421Y-90802269D01*
X138654872Y-90740845D01*
X138556270Y-90642243D01*
X138477250Y-90399046D01*
X138477250Y-89959200D01*
X139380850Y-89959200D01*
X139380850Y-90394998D01*
G37*
%TD.AperFunction*%
%TA.AperFunction,EtchedComponent*%
G36*
X141920850Y-90394998D02*
G01*
X141900319Y-90524629D01*
X141838895Y-90645178D01*
X141740293Y-90743780D01*
X141497096Y-90822800D01*
X141445052Y-90822800D01*
X141315421Y-90802269D01*
X141194872Y-90740845D01*
X141096270Y-90642243D01*
X141017250Y-90399046D01*
X141017250Y-89959200D01*
X141920850Y-89959200D01*
X141920850Y-90394998D01*
G37*
%TD.AperFunction*%
%TA.AperFunction,EtchedComponent*%
G36*
X144460850Y-90394998D02*
G01*
X144440319Y-90524629D01*
X144378895Y-90645178D01*
X144280293Y-90743780D01*
X144037096Y-90822800D01*
X143985052Y-90822800D01*
X143855421Y-90802269D01*
X143734872Y-90740845D01*
X143636270Y-90642243D01*
X143557250Y-90399046D01*
X143557250Y-89959200D01*
X144460850Y-89959200D01*
X144460850Y-90394998D01*
G37*
%TD.AperFunction*%
%TD*%
D11*
%TO.P,REF\u002A\u002A,*%
%TO.N,*%
X133700000Y-79200000D03*
%TD*%
%TO.P,REF\u002A\u002A,*%
%TO.N,*%
X122500000Y-161100000D03*
%TD*%
%TO.P,REF\u002A\u002A,*%
%TO.N,*%
X122300000Y-66900000D03*
%TD*%
D12*
%TO.P,Accelerometer_1,1,SDO/TA0*%
%TO.N,MISO*%
X146837500Y-111050000D03*
%TO.P,Accelerometer_1,2,SDX*%
%TO.N,VCC 3V3*%
X146837500Y-111550000D03*
%TO.P,Accelerometer_1,3,SCX*%
X146837500Y-112050000D03*
%TO.P,Accelerometer_1,4,INT1*%
%TO.N,INT_1*%
X146837500Y-112550000D03*
D13*
%TO.P,Accelerometer_1,5,VDDIO*%
%TO.N,VCC 3V3*%
X147500000Y-112712500D03*
%TO.P,Accelerometer_1,6,GND*%
%TO.N,GND*%
X148000000Y-112712500D03*
%TO.P,Accelerometer_1,7,GND*%
X148500000Y-112712500D03*
D12*
%TO.P,Accelerometer_1,8,VDD*%
%TO.N,VCC 3V3*%
X149162500Y-112550000D03*
%TO.P,Accelerometer_1,9,INT2*%
%TO.N,unconnected-(Accelerometer_1-INT2-Pad9)*%
X149162500Y-112050000D03*
%TO.P,Accelerometer_1,10,OCS_AUX*%
%TO.N,VCC 3V3*%
X149162500Y-111550000D03*
%TO.P,Accelerometer_1,11,SDO_AUX*%
X149162500Y-111050000D03*
D13*
%TO.P,Accelerometer_1,12,CS*%
%TO.N,CS_1*%
X148500000Y-110887500D03*
%TO.P,Accelerometer_1,13,SCL*%
%TO.N,SCK*%
X148000000Y-110887500D03*
%TO.P,Accelerometer_1,14,SDA*%
%TO.N,MOSI*%
X147500000Y-110887500D03*
%TD*%
D12*
%TO.P,Accelerometer_2,1,SDO/TA0*%
%TO.N,MISO*%
X137937500Y-111050000D03*
%TO.P,Accelerometer_2,2,SDX*%
%TO.N,VCC 3V3*%
X137937500Y-111550000D03*
%TO.P,Accelerometer_2,3,SCX*%
X137937500Y-112050000D03*
%TO.P,Accelerometer_2,4,INT1*%
%TO.N,INT_2*%
X137937500Y-112550000D03*
D13*
%TO.P,Accelerometer_2,5,VDDIO*%
%TO.N,VCC 3V3*%
X138600000Y-112712500D03*
%TO.P,Accelerometer_2,6,GND*%
%TO.N,GND*%
X139100000Y-112712500D03*
%TO.P,Accelerometer_2,7,GND*%
X139600000Y-112712500D03*
D12*
%TO.P,Accelerometer_2,8,VDD*%
%TO.N,VCC 3V3*%
X140262500Y-112550000D03*
%TO.P,Accelerometer_2,9,INT2*%
%TO.N,unconnected-(Accelerometer_2-INT2-Pad9)*%
X140262500Y-112050000D03*
%TO.P,Accelerometer_2,10,OCS_AUX*%
%TO.N,VCC 3V3*%
X140262500Y-111550000D03*
%TO.P,Accelerometer_2,11,SDO_AUX*%
X140262500Y-111050000D03*
D13*
%TO.P,Accelerometer_2,12,CS*%
%TO.N,CS_2*%
X139600000Y-110887500D03*
%TO.P,Accelerometer_2,13,SCL*%
%TO.N,SCK*%
X139100000Y-110887500D03*
%TO.P,Accelerometer_2,14,SDA*%
%TO.N,MOSI*%
X138600000Y-110887500D03*
%TD*%
D14*
%TO.P,ESC2,1,PWM*%
%TO.N,Net-(ESC2-PWM)*%
X148455000Y-79500000D03*
%TD*%
%TO.P,ESC1,1,PWM*%
%TO.N,Net-(ESC1-PWM)*%
X148435000Y-83750000D03*
%TD*%
D15*
%TO.P,J3,N,NEG*%
%TO.N,GND*%
X145300000Y-158775000D03*
D16*
%TO.P,J3,P,POS*%
%TO.N,SWITCH INPUT*%
X138100000Y-158775000D03*
%TD*%
D17*
%TO.P,VCC_PAD_2,1,VCC*%
%TO.N,4S_VCC*%
X124000000Y-145250000D03*
%TD*%
%TO.P,VCC_PAD_1,1,VCC*%
%TO.N,4S_VCC*%
X124000000Y-130250000D03*
%TD*%
D18*
%TO.P,Seeed_Studio_ESP32-S3_Plus1,1,GPIO1_D0/A0*%
%TO.N,INT_1*%
X145279050Y-90010000D03*
D19*
X145279050Y-91280000D03*
D18*
%TO.P,Seeed_Studio_ESP32-S3_Plus1,2,GPIO2_D1/A1*%
%TO.N,INT_2*%
X142739050Y-90010000D03*
D19*
X142739050Y-91280000D03*
D18*
%TO.P,Seeed_Studio_ESP32-S3_Plus1,3,GPIO3_D2/A2*%
%TO.N,CS_1*%
X140199050Y-90010000D03*
D19*
X140199050Y-91280000D03*
D18*
%TO.P,Seeed_Studio_ESP32-S3_Plus1,4,GPIO4_D3/A3*%
%TO.N,CS_2*%
X137659050Y-90010000D03*
D19*
X137659050Y-91280000D03*
D18*
%TO.P,Seeed_Studio_ESP32-S3_Plus1,5,GPIO5_D4/A4/I2C_SDA*%
%TO.N,2*%
X135119050Y-90010000D03*
D19*
X135119050Y-91280000D03*
D18*
%TO.P,Seeed_Studio_ESP32-S3_Plus1,6,GPIO6_D5/A5/I2C_SCL*%
%TO.N,3*%
X132579050Y-90010000D03*
D19*
X132579050Y-91280000D03*
D18*
%TO.P,Seeed_Studio_ESP32-S3_Plus1,7,U0TXD_D6/TX*%
%TO.N,LED_1*%
X130039050Y-90010000D03*
D19*
X130039050Y-91280000D03*
%TO.P,Seeed_Studio_ESP32-S3_Plus1,8,U0RXD_D7/RX*%
%TO.N,LED_2*%
X130039050Y-106520000D03*
D18*
X130039050Y-107790000D03*
D19*
%TO.P,Seeed_Studio_ESP32-S3_Plus1,9,GPIO7_D8/A8/SCK*%
%TO.N,SCK*%
X132579050Y-106520000D03*
D18*
X132579050Y-107790000D03*
D19*
%TO.P,Seeed_Studio_ESP32-S3_Plus1,10,GPIO8_D9/A9/MISO*%
%TO.N,MISO*%
X135119050Y-106520000D03*
D18*
X135119050Y-107790000D03*
D19*
%TO.P,Seeed_Studio_ESP32-S3_Plus1,11,GPIO9_D10/A10/MOSI*%
%TO.N,MOSI*%
X137659050Y-106520000D03*
D18*
X137659050Y-107790000D03*
D19*
%TO.P,Seeed_Studio_ESP32-S3_Plus1,12,VCC_3V3*%
%TO.N,VCC 3V3*%
X140199050Y-106520000D03*
D18*
X140199050Y-107790000D03*
D19*
%TO.P,Seeed_Studio_ESP32-S3_Plus1,13,GND*%
%TO.N,GND*%
X142739050Y-106520000D03*
D18*
X142739050Y-107790000D03*
D19*
%TO.P,Seeed_Studio_ESP32-S3_Plus1,14,VBUS*%
%TO.N,VCC 5V*%
X145279050Y-106520000D03*
D18*
X145279050Y-107790000D03*
%TO.P,Seeed_Studio_ESP32-S3_Plus1,15,GPIO38_DVP_VSYNC/I2S_SD*%
%TO.N,ESC_1*%
X144009050Y-90010000D03*
%TO.P,Seeed_Studio_ESP32-S3_Plus1,16,GPIO39_CAM_SCL/I2S_SCK*%
%TO.N,ESC_2*%
X141469050Y-90010000D03*
%TO.P,Seeed_Studio_ESP32-S3_Plus1,17,GPIO40_CAM_SDA/I2S_WS*%
%TO.N,4*%
X138929050Y-90010000D03*
%TO.P,Seeed_Studio_ESP32-S3_Plus1,18,GPIO41_PDM_DATA/RX1*%
%TO.N,Receiver_TX*%
X136389050Y-90010000D03*
%TO.P,Seeed_Studio_ESP32-S3_Plus1,19,GPIO42_PDM_CLK/TX1*%
%TO.N,Receiver_RX*%
X133849050Y-90010000D03*
%TO.P,Seeed_Studio_ESP32-S3_Plus1,20,GPIO10_XMCLK/ADC_BAT*%
%TO.N,6*%
X131309050Y-90010000D03*
%TO.P,Seeed_Studio_ESP32-S3_Plus1,21,GPIO11_DVP_Y8/SPI_MOSI1*%
%TO.N,1*%
X131309050Y-107790000D03*
%TO.P,Seeed_Studio_ESP32-S3_Plus1,22,GPIO12_DVP_Y7/SPI_MISO1*%
%TO.N,5*%
X133849050Y-107790000D03*
%TO.P,Seeed_Studio_ESP32-S3_Plus1,23,GPIO13_DVP_PCLK/SPI_SCK1*%
%TO.N,7*%
X136389050Y-107790000D03*
%TD*%
D20*
%TO.P,R_esc_1,1*%
%TO.N,Net-(ESC1-PWM)*%
X143950000Y-84450000D03*
%TO.P,R_esc_1,2*%
%TO.N,ESC_1*%
X143950000Y-87550000D03*
%TD*%
D21*
%TO.P,Logic_Side_Regulator1,1,GND*%
%TO.N,GND*%
X140750000Y-116230000D03*
%TO.P,Logic_Side_Regulator1,2,MODE/SYNC*%
X140750000Y-116830000D03*
%TO.P,Logic_Side_Regulator1,3,VIN*%
%TO.N,4S_VCC*%
X140750000Y-117430000D03*
%TO.P,Logic_Side_Regulator1,4,EN*%
X140750000Y-118030000D03*
%TO.P,Logic_Side_Regulator1,5,PG*%
%TO.N,unconnected-(Logic_Side_Regulator1-PG-Pad5)*%
X140750000Y-118630000D03*
%TO.P,Logic_Side_Regulator1,6,VOUT*%
%TO.N,VCC 5V*%
X143800000Y-118630000D03*
%TO.P,Logic_Side_Regulator1,7,FB*%
X143800000Y-118030000D03*
%TO.P,Logic_Side_Regulator1,8*%
%TO.N,unconnected-(Logic_Side_Regulator1-Pad8)*%
X143800000Y-117430000D03*
%TO.P,Logic_Side_Regulator1,9*%
%TO.N,unconnected-(Logic_Side_Regulator1-Pad9)*%
X143800000Y-116830000D03*
%TO.P,Logic_Side_Regulator1,10*%
%TO.N,unconnected-(Logic_Side_Regulator1-Pad10)*%
X143800000Y-116230000D03*
D22*
%TO.P,Logic_Side_Regulator1,11,GND*%
%TO.N,GND*%
X142100000Y-116400000D03*
X142100000Y-117430000D03*
D23*
X142100000Y-117430000D03*
D22*
X142100000Y-118460000D03*
%TD*%
D24*
%TO.P,J2,9,Pin_9*%
%TO.N,GND*%
X126550000Y-74950000D03*
%TO.P,J2,8,Pin_8*%
%TO.N,6*%
X129050000Y-74950000D03*
%TO.P,J2,7,Pin_7*%
%TO.N,3*%
X131550000Y-74950000D03*
%TO.P,J2,6,Pin_6*%
%TO.N,2*%
X134050000Y-74950000D03*
%TO.P,J2,5,Pin_5*%
%TO.N,1*%
X136550000Y-74950000D03*
%TO.P,J2,4,Pin_4*%
%TO.N,5*%
X139050000Y-74950000D03*
%TO.P,J2,3,Pin_3*%
%TO.N,7*%
X141550000Y-74950000D03*
%TO.P,J2,2,Pin_2*%
%TO.N,4*%
X144050000Y-74950000D03*
D25*
%TO.P,J2,1,Pin_1*%
%TO.N,VCC 5V*%
X146550000Y-74950000D03*
%TD*%
D26*
%TO.P,J1,1,Pin_1*%
%TO.N,GND*%
X123375000Y-105750000D03*
D27*
%TO.P,J1,2,Pin_2*%
%TO.N,LED_2*%
X123375000Y-103250000D03*
%TO.P,J1,3,Pin_3*%
%TO.N,LED_1*%
X123375000Y-100750000D03*
%TO.P,J1,4,Pin_4*%
%TO.N,VCC 5V*%
X123375000Y-98250000D03*
%TD*%
D17*
%TO.P,GND_PAD_2,1,GND*%
%TO.N,GND*%
X146400000Y-145000000D03*
%TD*%
%TO.P,GND_PAD_1,1,GND*%
%TO.N,GND*%
X146400000Y-130250000D03*
%TD*%
D28*
%TO.P,Fingertech_Switch1,OUT,OUT*%
%TO.N,4S_VCC*%
X129800000Y-160175000D03*
%TD*%
D29*
%TO.P,D2,1,K*%
%TO.N,ESC_1*%
X145950000Y-87900000D03*
%TO.P,D2,2,A*%
%TO.N,GND*%
X145950000Y-86500000D03*
%TD*%
D30*
%TO.P,C_esc_4,2*%
%TO.N,GND*%
X140650000Y-148600000D03*
%TO.P,C_esc_4,1*%
%TO.N,4S_VCC*%
X132650000Y-148600000D03*
%TD*%
%TO.P,C_esc_3,1*%
%TO.N,4S_VCC*%
X132650000Y-137100000D03*
%TO.P,C_esc_3,2*%
%TO.N,GND*%
X140650000Y-137100000D03*
%TD*%
%TO.P,C_esc_2,1*%
%TO.N,4S_VCC*%
X132600000Y-125600000D03*
%TO.P,C_esc_2,2*%
%TO.N,GND*%
X140600000Y-125600000D03*
%TD*%
D31*
%TO.P,C_esc_1,1*%
%TO.N,4S_VCC*%
X126200000Y-119600000D03*
%TO.P,C_esc_1,2*%
%TO.N,GND*%
X126200000Y-111600000D03*
%TD*%
D32*
%TO.P,BetaFPV_ELRS_Lite1,1,RX*%
%TO.N,Receiver_RX*%
X130850000Y-87050000D03*
%TO.P,BetaFPV_ELRS_Lite1,2,TX*%
%TO.N,Receiver_TX*%
X130850000Y-84550000D03*
%TO.P,BetaFPV_ELRS_Lite1,3,5V*%
%TO.N,VCC 5V*%
X130850000Y-82050000D03*
%TO.P,BetaFPV_ELRS_Lite1,4,GND*%
%TO.N,GND*%
X130850000Y-79550000D03*
%TD*%
D33*
%TO.N,SWITCH INPUT*%
X127300000Y-156900000D03*
X131300000Y-156900000D03*
X130300000Y-156900000D03*
X129300000Y-156900000D03*
X132300000Y-155100000D03*
X128300000Y-155100000D03*
X130300000Y-156000000D03*
X131300000Y-156000000D03*
X127300000Y-155100000D03*
X132300000Y-156900000D03*
X128300000Y-156900000D03*
X129300000Y-156000000D03*
X131300000Y-155100000D03*
X127300000Y-156000000D03*
X130300000Y-155100000D03*
X129300000Y-155100000D03*
X132300000Y-156000000D03*
X128300000Y-156000000D03*
%TO.N,4S_VCC*%
X132300000Y-161900000D03*
X128300000Y-161900000D03*
X127300000Y-161900000D03*
X131300000Y-161900000D03*
X130300000Y-161900000D03*
X129300000Y-161900000D03*
X132300000Y-161000000D03*
X131300000Y-160100000D03*
X127300000Y-160100000D03*
X132300000Y-160100000D03*
X128300000Y-161000000D03*
X127300000Y-161000000D03*
X129300000Y-161000000D03*
X131300000Y-161000000D03*
X130300000Y-161000000D03*
X128300000Y-160100000D03*
X130300000Y-160100000D03*
X129300000Y-160100000D03*
%TO.N,GND*%
X134700000Y-113450000D03*
X138475000Y-115267500D03*
%TO.N,VCC 3V3*%
X138350000Y-113950000D03*
X147275000Y-114967657D03*
X129600000Y-97400000D03*
X126800000Y-94200000D03*
%TO.N,VCC 5V*%
X130850000Y-82050000D03*
%TO.N,INT_2*%
X137300000Y-113900000D03*
%TO.N,INT_1*%
X146625432Y-113800000D03*
%TO.N,VCC 3V3*%
X144800000Y-110137500D03*
X142300000Y-110137500D03*
%TO.N,4S_VCC*%
X134700000Y-117750000D03*
X138475000Y-118392500D03*
%TO.N,VCC 5V*%
X145875000Y-118392500D03*
%TO.N,MOSI*%
X148550000Y-108750000D03*
%TO.N,CS_2*%
X139875000Y-109600000D03*
%TO.N,CS_1*%
X149000000Y-109500000D03*
%TO.N,SCK*%
X139200000Y-108925000D03*
X148075000Y-109500000D03*
%TO.N,VCC 3V3*%
X140275000Y-113725000D03*
X149175000Y-113775000D03*
%TO.N,MISO*%
X136950000Y-111050000D03*
X146837500Y-109897500D03*
%TO.N,VCC 3V3*%
X134550000Y-93700000D03*
%TO.N,CS_1*%
X137650000Y-93700000D03*
%TO.N,CS_2*%
X137650000Y-96300000D03*
%TO.N,VCC 3V3*%
X134550000Y-96300000D03*
X135650000Y-104200000D03*
%TO.N,SCK*%
X132550000Y-104200000D03*
%TD*%
D34*
%TO.N,Net-(ESC1-PWM)*%
X148735000Y-83750000D02*
X144650000Y-83750000D01*
X144650000Y-83750000D02*
X143950000Y-84450000D01*
%TO.N,VCC 5V*%
X145279050Y-107790000D02*
X145875000Y-108385950D01*
X145875000Y-108385950D02*
X145875000Y-118392500D01*
%TO.N,GND*%
X139600000Y-112712500D02*
X139600000Y-114800000D01*
X148500000Y-112712500D02*
X148500000Y-115500000D01*
%TO.N,VCC 3V3*%
X138600000Y-113700000D02*
X138600000Y-112712500D01*
X138350000Y-113950000D02*
X138600000Y-113700000D01*
%TO.N,INT_2*%
X137300000Y-113900000D02*
X137300000Y-113187500D01*
X137300000Y-113187500D02*
X137937500Y-112550000D01*
%TO.N,INT_1*%
X146625432Y-113800000D02*
X146625432Y-112762068D01*
X146625432Y-112762068D02*
X146837500Y-112550000D01*
%TO.N,VCC 3V3*%
X147275000Y-114967657D02*
X147225432Y-114918089D01*
X147225432Y-114918089D02*
X147225432Y-113025000D01*
X147225432Y-113025000D02*
X147500000Y-112750432D01*
X147500000Y-112750432D02*
X147500000Y-112712500D01*
%TO.N,GND*%
X139100000Y-112712500D02*
X139600000Y-112712500D01*
X148000000Y-112712500D02*
X148500000Y-112712500D01*
D35*
%TO.N,VCC 5V*%
X143800000Y-118630000D02*
X145637500Y-118630000D01*
X145637500Y-118630000D02*
X145875000Y-118392500D01*
%TO.N,4S_VCC*%
X138475000Y-118392500D02*
X138837500Y-118030000D01*
X138837500Y-118030000D02*
X140750000Y-118030000D01*
D36*
X134700000Y-117750000D02*
X137832500Y-117750000D01*
X137832500Y-117750000D02*
X138475000Y-118392500D01*
X138475000Y-118392500D02*
X138475000Y-119725000D01*
X138475000Y-119725000D02*
X132600000Y-125600000D01*
X134700000Y-117750000D02*
X134700000Y-123500000D01*
D34*
X134700000Y-123500000D02*
X132600000Y-125600000D01*
%TO.N,Receiver_TX*%
X130850000Y-84550000D02*
X131750000Y-84550000D01*
X131750000Y-84550000D02*
X136389050Y-89189050D01*
X136389050Y-89189050D02*
X136389050Y-90010000D01*
%TO.N,Receiver_RX*%
X130850000Y-87050000D02*
X131750000Y-87050000D01*
X131750000Y-87050000D02*
X133849050Y-89149050D01*
X133849050Y-89149050D02*
X133849050Y-90010000D01*
%TO.N,ESC_1*%
X143950000Y-87550000D02*
X145600000Y-87550000D01*
X145600000Y-87550000D02*
X145950000Y-87900000D01*
X144009050Y-90010000D02*
X144009050Y-87609050D01*
X144009050Y-87609050D02*
X143950000Y-87550000D01*
D35*
%TO.N,VCC 5V*%
X143800000Y-118030000D02*
X143800000Y-118630000D01*
%TO.N,4S_VCC*%
X140750000Y-117430000D02*
X140750000Y-118030000D01*
D34*
%TO.N,MOSI*%
X148650000Y-108750000D02*
X148550000Y-108750000D01*
X148700000Y-108650000D02*
X148650000Y-108750000D01*
X148450000Y-108750000D02*
X148700000Y-108650000D01*
X147975000Y-108750000D02*
X148450000Y-108750000D01*
X147475000Y-109250000D02*
X147975000Y-108750000D01*
X147475000Y-110862500D02*
X147475000Y-109250000D01*
X147500000Y-110887500D02*
X147475000Y-110862500D01*
%TO.N,CS_2*%
X139875000Y-109600000D02*
X139600000Y-109875000D01*
X139600000Y-109875000D02*
X139600000Y-110887500D01*
%TO.N,SCK*%
X139200000Y-108925000D02*
X139100000Y-109025000D01*
X139100000Y-109025000D02*
X139100000Y-110887500D01*
%TO.N,CS_1*%
X148923529Y-109500000D02*
X148500000Y-109923529D01*
X149000000Y-109500000D02*
X148923529Y-109500000D01*
X148500000Y-109923529D02*
X148500000Y-110887500D01*
%TO.N,SCK*%
X148075000Y-109500000D02*
X148000000Y-109575000D01*
X148000000Y-109575000D02*
X148000000Y-110887500D01*
%TO.N,MOSI*%
X138600000Y-110887500D02*
X138600000Y-108700000D01*
X138600000Y-108700000D02*
X137690000Y-107790000D01*
X137690000Y-107790000D02*
X137659050Y-107790000D01*
%TO.N,VCC 3V3*%
X140262500Y-113712500D02*
X140275000Y-113725000D01*
X140262500Y-112550000D02*
X140262500Y-113712500D01*
X137937500Y-112050000D02*
X138350432Y-112050000D01*
X138350432Y-112050000D02*
X138600000Y-112299568D01*
X138600000Y-112299568D02*
X138600000Y-112712500D01*
X137937500Y-111550000D02*
X137937500Y-112050000D01*
X140262500Y-111550000D02*
X137937500Y-111550000D01*
X140262500Y-111050000D02*
X140262500Y-111550000D01*
X149175000Y-113775000D02*
X149175000Y-112925432D01*
X149175000Y-112925432D02*
X149162500Y-112912932D01*
X149162500Y-112912932D02*
X149162500Y-112550000D01*
X149162500Y-111050000D02*
X149162500Y-111550000D01*
X146837500Y-111550000D02*
X148900000Y-111550000D01*
X146837500Y-112050000D02*
X146837500Y-111550000D01*
X147500000Y-112712500D02*
X147500000Y-112349568D01*
X147500000Y-112349568D02*
X147200432Y-112050000D01*
X147200432Y-112050000D02*
X146837500Y-112050000D01*
%TO.N,MOSI*%
X137659050Y-108179050D02*
X137659050Y-107790000D01*
%TO.N,MISO*%
X146837500Y-109897500D02*
X146837500Y-111050000D01*
X137937500Y-111050000D02*
X136950000Y-111050000D01*
%TO.N,MOSI*%
X138600000Y-110887500D02*
X138600000Y-110200000D01*
%TD*%
%TA.AperFunction,Conductor*%
%TO.N,GND*%
G36*
X149417539Y-65520185D02*
G01*
X149463294Y-65572989D01*
X149474500Y-65624500D01*
X149474500Y-77875500D01*
X149454815Y-77942539D01*
X149402011Y-77988294D01*
X149350500Y-77999500D01*
X147407129Y-77999500D01*
X147407123Y-77999501D01*
X147347516Y-78005908D01*
X147212671Y-78056202D01*
X147212664Y-78056206D01*
X147097455Y-78142452D01*
X147097452Y-78142455D01*
X147011206Y-78257664D01*
X147011202Y-78257671D01*
X146960908Y-78392517D01*
X146954501Y-78452116D01*
X146954500Y-78452135D01*
X146954500Y-80547870D01*
X146954501Y-80547876D01*
X146960908Y-80607483D01*
X147011202Y-80742328D01*
X147011206Y-80742335D01*
X147097452Y-80857544D01*
X147097455Y-80857547D01*
X147212664Y-80943793D01*
X147212671Y-80943797D01*
X147347517Y-80994091D01*
X147347516Y-80994091D01*
X147354444Y-80994835D01*
X147407127Y-81000500D01*
X149350500Y-81000499D01*
X149417539Y-81020184D01*
X149463294Y-81072987D01*
X149474500Y-81124499D01*
X149474500Y-82125500D01*
X149454815Y-82192539D01*
X149402011Y-82238294D01*
X149350500Y-82249500D01*
X147387129Y-82249500D01*
X147387123Y-82249501D01*
X147327516Y-82255908D01*
X147192671Y-82306202D01*
X147192664Y-82306206D01*
X147077455Y-82392452D01*
X147077452Y-82392455D01*
X146991206Y-82507664D01*
X146991202Y-82507671D01*
X146940908Y-82642517D01*
X146934501Y-82702116D01*
X146934500Y-82702135D01*
X146934500Y-83025500D01*
X146914815Y-83092539D01*
X146862011Y-83138294D01*
X146810500Y-83149500D01*
X144570937Y-83149500D01*
X144552579Y-83154419D01*
X144552580Y-83154420D01*
X144418214Y-83190423D01*
X144418209Y-83190426D01*
X144281288Y-83269476D01*
X144275552Y-83273878D01*
X144210382Y-83299070D01*
X144200068Y-83299500D01*
X143274998Y-83299500D01*
X143274980Y-83299501D01*
X143172203Y-83310000D01*
X143172200Y-83310001D01*
X143005668Y-83365185D01*
X143005663Y-83365187D01*
X142856342Y-83457289D01*
X142732289Y-83581342D01*
X142640187Y-83730663D01*
X142640186Y-83730666D01*
X142585001Y-83897203D01*
X142585001Y-83897204D01*
X142585000Y-83897204D01*
X142574500Y-83999983D01*
X142574500Y-84900001D01*
X142574501Y-84900019D01*
X142585000Y-85002796D01*
X142585001Y-85002799D01*
X142601687Y-85053152D01*
X142640186Y-85169334D01*
X142732288Y-85318656D01*
X142856344Y-85442712D01*
X143005666Y-85534814D01*
X143172203Y-85589999D01*
X143274991Y-85600500D01*
X144625008Y-85600499D01*
X144727797Y-85589999D01*
X144894334Y-85534814D01*
X145043656Y-85442712D01*
X145167712Y-85318656D01*
X145259814Y-85169334D01*
X145314999Y-85002797D01*
X145325500Y-84900009D01*
X145325499Y-84474499D01*
X145345183Y-84407461D01*
X145397987Y-84361706D01*
X145449499Y-84350500D01*
X146810501Y-84350500D01*
X146877540Y-84370185D01*
X146923295Y-84422989D01*
X146934501Y-84474500D01*
X146934501Y-84797876D01*
X146940908Y-84857483D01*
X146991202Y-84992328D01*
X146991206Y-84992335D01*
X147077452Y-85107544D01*
X147077455Y-85107547D01*
X147192664Y-85193793D01*
X147192671Y-85193797D01*
X147327517Y-85244091D01*
X147327516Y-85244091D01*
X147334444Y-85244835D01*
X147387127Y-85250500D01*
X149350500Y-85250499D01*
X149417539Y-85270184D01*
X149463294Y-85322987D01*
X149474500Y-85374499D01*
X149474500Y-108286310D01*
X149454815Y-108353349D01*
X149402011Y-108399104D01*
X149332853Y-108409048D01*
X149269297Y-108380023D01*
X149245507Y-108352283D01*
X149179817Y-108247739D01*
X149052262Y-108120184D01*
X148899523Y-108024211D01*
X148729254Y-107964631D01*
X148729249Y-107964630D01*
X148550004Y-107944435D01*
X148549996Y-107944435D01*
X148370750Y-107964630D01*
X148370745Y-107964631D01*
X148200476Y-108024211D01*
X148047737Y-108120184D01*
X148044903Y-108122445D01*
X148042724Y-108123334D01*
X148041842Y-108123889D01*
X148041744Y-108123734D01*
X147980216Y-108148854D01*
X147967589Y-108149499D01*
X147895943Y-108149499D01*
X147819579Y-108169961D01*
X147743214Y-108190423D01*
X147743209Y-108190426D01*
X147606290Y-108269475D01*
X147606282Y-108269481D01*
X147099217Y-108776546D01*
X147099214Y-108776548D01*
X147099215Y-108776549D01*
X146994478Y-108881285D01*
X146955097Y-108949499D01*
X146955096Y-108949500D01*
X146915418Y-109018223D01*
X146915190Y-109018775D01*
X146914873Y-109019168D01*
X146911360Y-109025253D01*
X146910410Y-109024704D01*
X146871340Y-109073171D01*
X146814521Y-109094523D01*
X146658249Y-109112130D01*
X146658245Y-109112131D01*
X146640455Y-109118357D01*
X146570676Y-109121918D01*
X146510048Y-109087189D01*
X146477821Y-109025196D01*
X146475500Y-109001315D01*
X146475500Y-108475010D01*
X146475501Y-108474997D01*
X146475501Y-108306894D01*
X146475501Y-108306893D01*
X146434577Y-108154166D01*
X146367946Y-108038756D01*
X146355524Y-108017240D01*
X146355518Y-108017232D01*
X146267669Y-107929383D01*
X146234184Y-107868060D01*
X146231350Y-107841702D01*
X146231350Y-106911310D01*
X146231350Y-106911308D01*
X146197242Y-106784014D01*
X146183139Y-106759587D01*
X146166667Y-106691690D01*
X146167202Y-106684677D01*
X146184510Y-106520000D01*
X146164724Y-106331744D01*
X146106229Y-106151716D01*
X146011583Y-105987784D01*
X145884921Y-105847112D01*
X145884920Y-105847111D01*
X145731784Y-105735851D01*
X145731779Y-105735848D01*
X145558857Y-105658857D01*
X145558852Y-105658855D01*
X145413051Y-105627865D01*
X145373696Y-105619500D01*
X145184404Y-105619500D01*
X145151947Y-105626398D01*
X144999247Y-105658855D01*
X144999242Y-105658857D01*
X144826320Y-105735848D01*
X144826315Y-105735851D01*
X144673179Y-105847111D01*
X144546516Y-105987785D01*
X144451871Y-106151715D01*
X144451868Y-106151722D01*
X144393377Y-106331740D01*
X144393376Y-106331744D01*
X144378012Y-106477923D01*
X144373590Y-106520000D01*
X144390892Y-106684630D01*
X144378322Y-106753359D01*
X144374961Y-106759586D01*
X144360858Y-106784014D01*
X144360858Y-106784015D01*
X144326750Y-106911308D01*
X144326750Y-107906691D01*
X144360858Y-108033987D01*
X144393804Y-108091050D01*
X144426750Y-108148114D01*
X144519936Y-108241300D01*
X144634064Y-108307192D01*
X144761358Y-108341300D01*
X144893142Y-108341300D01*
X144899143Y-108341300D01*
X144956769Y-108355504D01*
X145003485Y-108380023D01*
X145021188Y-108389314D01*
X145051243Y-108411429D01*
X145238181Y-108598366D01*
X145271666Y-108659689D01*
X145274500Y-108686047D01*
X145274500Y-109280680D01*
X145254815Y-109347719D01*
X145202011Y-109393474D01*
X145132853Y-109403418D01*
X145109546Y-109397722D01*
X144979257Y-109352132D01*
X144979249Y-109352130D01*
X144800004Y-109331935D01*
X144799996Y-109331935D01*
X144620750Y-109352130D01*
X144620745Y-109352131D01*
X144450476Y-109411711D01*
X144297737Y-109507684D01*
X144170184Y-109635237D01*
X144074211Y-109787976D01*
X144014631Y-109958245D01*
X144014630Y-109958250D01*
X143994435Y-110137496D01*
X143994435Y-110137503D01*
X144014630Y-110316749D01*
X144014631Y-110316754D01*
X144074211Y-110487023D01*
X144126023Y-110569480D01*
X144170184Y-110639762D01*
X144297738Y-110767316D01*
X144450478Y-110863289D01*
X144579524Y-110908444D01*
X144620745Y-110922868D01*
X144620750Y-110922869D01*
X144799996Y-110943065D01*
X144800000Y-110943065D01*
X144800004Y-110943065D01*
X144979249Y-110922869D01*
X144979251Y-110922868D01*
X144979255Y-110922868D01*
X144979258Y-110922866D01*
X144979262Y-110922866D01*
X145109545Y-110877278D01*
X145179324Y-110873716D01*
X145239951Y-110908444D01*
X145272179Y-110970438D01*
X145274500Y-110994319D01*
X145274500Y-117810087D01*
X145254815Y-117877126D01*
X145247450Y-117887396D01*
X145245183Y-117890238D01*
X145225559Y-117921471D01*
X145173225Y-117967763D01*
X145120565Y-117979500D01*
X144554963Y-117979500D01*
X144487924Y-117959815D01*
X144442169Y-117907011D01*
X144433346Y-117879692D01*
X144425502Y-117840261D01*
X144425501Y-117840260D01*
X144425501Y-117840256D01*
X144384524Y-117741331D01*
X144377056Y-117671863D01*
X144386702Y-117641480D01*
X144394499Y-117624760D01*
X144400500Y-117579179D01*
X144400499Y-117280822D01*
X144400350Y-117279692D01*
X144394499Y-117235243D01*
X144394499Y-117235240D01*
X144369860Y-117182403D01*
X144359369Y-117113327D01*
X144369858Y-117077601D01*
X144394499Y-117024760D01*
X144400500Y-116979179D01*
X144400499Y-116680822D01*
X144394499Y-116635240D01*
X144369860Y-116582403D01*
X144359369Y-116513327D01*
X144369858Y-116477601D01*
X144394499Y-116424760D01*
X144400500Y-116379179D01*
X144400499Y-116080822D01*
X144394499Y-116035240D01*
X144347850Y-115935201D01*
X144269799Y-115857150D01*
X144169760Y-115810501D01*
X144169758Y-115810500D01*
X144124188Y-115804501D01*
X144124185Y-115804500D01*
X144124179Y-115804500D01*
X144124172Y-115804500D01*
X143475819Y-115804500D01*
X143430243Y-115810500D01*
X143430236Y-115810502D01*
X143330200Y-115857150D01*
X143252150Y-115935200D01*
X143205500Y-116035241D01*
X143199501Y-116080811D01*
X143199500Y-116080827D01*
X143199500Y-116379180D01*
X143205500Y-116424756D01*
X143205503Y-116424766D01*
X143230138Y-116477596D01*
X143240630Y-116546673D01*
X143230139Y-116582404D01*
X143205500Y-116635243D01*
X143199501Y-116680811D01*
X143199500Y-116680827D01*
X143199500Y-116979180D01*
X143205500Y-117024756D01*
X143205503Y-117024766D01*
X143230138Y-117077596D01*
X143240630Y-117146673D01*
X143230139Y-117182404D01*
X143205500Y-117235243D01*
X143199501Y-117280811D01*
X143199500Y-117280827D01*
X143199500Y-117579180D01*
X143205500Y-117624756D01*
X143205503Y-117624766D01*
X143213295Y-117641476D01*
X143223787Y-117710553D01*
X143215474Y-117741332D01*
X143174500Y-117840251D01*
X143174497Y-117840261D01*
X143149500Y-117965928D01*
X143149500Y-117965931D01*
X143149500Y-118694069D01*
X143149500Y-118694071D01*
X143149499Y-118694071D01*
X143174497Y-118819738D01*
X143174499Y-118819744D01*
X143223533Y-118938124D01*
X143223538Y-118938133D01*
X143294723Y-119044668D01*
X143294726Y-119044672D01*
X143385327Y-119135273D01*
X143385331Y-119135276D01*
X143491866Y-119206461D01*
X143491872Y-119206464D01*
X143491873Y-119206465D01*
X143610256Y-119255501D01*
X143610260Y-119255501D01*
X143610261Y-119255502D01*
X143735928Y-119280500D01*
X143735931Y-119280500D01*
X145701571Y-119280500D01*
X145786115Y-119263682D01*
X145827244Y-119255501D01*
X145945627Y-119206465D01*
X145950013Y-119203534D01*
X146005020Y-119183414D01*
X146054255Y-119177868D01*
X146224522Y-119118289D01*
X146377262Y-119022316D01*
X146504816Y-118894762D01*
X146600789Y-118742022D01*
X146660368Y-118571755D01*
X146661979Y-118557461D01*
X146680565Y-118392503D01*
X146680565Y-118392496D01*
X146660369Y-118213250D01*
X146660368Y-118213245D01*
X146618667Y-118094071D01*
X146600789Y-118042978D01*
X146591944Y-118028902D01*
X146504813Y-117890234D01*
X146502550Y-117887396D01*
X146501659Y-117885215D01*
X146501111Y-117884342D01*
X146501264Y-117884245D01*
X146476144Y-117822709D01*
X146475500Y-117810087D01*
X146475500Y-115599597D01*
X146495185Y-115532558D01*
X146547989Y-115486803D01*
X146617147Y-115476859D01*
X146680703Y-115505884D01*
X146687181Y-115511916D01*
X146772738Y-115597473D01*
X146925478Y-115693446D01*
X147095745Y-115753025D01*
X147095750Y-115753026D01*
X147274996Y-115773222D01*
X147275000Y-115773222D01*
X147275004Y-115773222D01*
X147454249Y-115753026D01*
X147454252Y-115753025D01*
X147454255Y-115753025D01*
X147624522Y-115693446D01*
X147777262Y-115597473D01*
X147904816Y-115469919D01*
X148000789Y-115317179D01*
X148060368Y-115146912D01*
X148068320Y-115076338D01*
X148080565Y-114967660D01*
X148080565Y-114967653D01*
X148060369Y-114788407D01*
X148060368Y-114788402D01*
X148031382Y-114705565D01*
X148000789Y-114618135D01*
X147904816Y-114465395D01*
X147862251Y-114422830D01*
X147828766Y-114361507D01*
X147825932Y-114335149D01*
X147825932Y-113325098D01*
X147845617Y-113258059D01*
X147862251Y-113237416D01*
X147893745Y-113205922D01*
X147980520Y-113119148D01*
X148059577Y-112982217D01*
X148100501Y-112829489D01*
X148100501Y-112671374D01*
X148100501Y-112663779D01*
X148100500Y-112663761D01*
X148100500Y-112274500D01*
X148120185Y-112207461D01*
X148172989Y-112161706D01*
X148224500Y-112150500D01*
X148486814Y-112150500D01*
X148553853Y-112170185D01*
X148599608Y-112222989D01*
X148609552Y-112292147D01*
X148604587Y-112310247D01*
X148605027Y-112310365D01*
X148562000Y-112470943D01*
X148562000Y-112826262D01*
X148561999Y-112826280D01*
X148561999Y-112833875D01*
X148561999Y-112991989D01*
X148570275Y-113022874D01*
X148574500Y-113054968D01*
X148574500Y-113192587D01*
X148554815Y-113259626D01*
X148547450Y-113269896D01*
X148545186Y-113272734D01*
X148449211Y-113425476D01*
X148389631Y-113595745D01*
X148389630Y-113595750D01*
X148369435Y-113774996D01*
X148369435Y-113775003D01*
X148389630Y-113954249D01*
X148389631Y-113954254D01*
X148449211Y-114124523D01*
X148513767Y-114227262D01*
X148545184Y-114277262D01*
X148672738Y-114404816D01*
X148825478Y-114500789D01*
X148995745Y-114560368D01*
X148995750Y-114560369D01*
X149174996Y-114580565D01*
X149175000Y-114580565D01*
X149175004Y-114580565D01*
X149336617Y-114562356D01*
X149405439Y-114574411D01*
X149456818Y-114621760D01*
X149474500Y-114685576D01*
X149474500Y-162675500D01*
X149454815Y-162742539D01*
X149402011Y-162788294D01*
X149350500Y-162799500D01*
X142229500Y-162799500D01*
X142162461Y-162779815D01*
X142116706Y-162727011D01*
X142105500Y-162675500D01*
X142105500Y-153524010D01*
X142105500Y-153524000D01*
X142093947Y-153416544D01*
X142082741Y-153365033D01*
X142082637Y-153364722D01*
X142048616Y-153262502D01*
X142048613Y-153262496D01*
X141970828Y-153141462D01*
X141970825Y-153141457D01*
X141970820Y-153141451D01*
X141925076Y-153088659D01*
X141925072Y-153088656D01*
X141925070Y-153088653D01*
X141816336Y-152994433D01*
X141816333Y-152994431D01*
X141816331Y-152994430D01*
X141685465Y-152934664D01*
X141685460Y-152934662D01*
X141685459Y-152934662D01*
X141618420Y-152914977D01*
X141618422Y-152914977D01*
X141618417Y-152914976D01*
X141570944Y-152908150D01*
X141476000Y-152894500D01*
X141475998Y-152894500D01*
X137374309Y-152894500D01*
X137307270Y-152874815D01*
X137261515Y-152822011D01*
X137250311Y-152771126D01*
X137171387Y-137144415D01*
X137105753Y-124148863D01*
X137105753Y-124148858D01*
X137102566Y-124094687D01*
X137099582Y-124068263D01*
X137090601Y-124014714D01*
X137090600Y-124014712D01*
X137090600Y-124014710D01*
X137039552Y-123880199D01*
X137039551Y-123880198D01*
X137039550Y-123880195D01*
X137005715Y-123819064D01*
X136918834Y-123704377D01*
X136322705Y-123115022D01*
X136288871Y-123053893D01*
X136293458Y-122984174D01*
X136322202Y-122939164D01*
X139057952Y-120203415D01*
X139085205Y-120162627D01*
X139140084Y-120080495D01*
X139163518Y-120023920D01*
X139196659Y-119943912D01*
X139225500Y-119798917D01*
X139225500Y-119651082D01*
X139225500Y-118804500D01*
X139245185Y-118737461D01*
X139297989Y-118691706D01*
X139349500Y-118680500D01*
X140027765Y-118680500D01*
X140094804Y-118700185D01*
X140140559Y-118752989D01*
X140150703Y-118788312D01*
X140155501Y-118824760D01*
X140155502Y-118824762D01*
X140155502Y-118824763D01*
X140202150Y-118924799D01*
X140280201Y-119002850D01*
X140380240Y-119049499D01*
X140425821Y-119055500D01*
X141074178Y-119055499D01*
X141074180Y-119055499D01*
X141089372Y-119053499D01*
X141119760Y-119049499D01*
X141219799Y-119002850D01*
X141297850Y-118924799D01*
X141344499Y-118824760D01*
X141350500Y-118779179D01*
X141350499Y-118480822D01*
X141344499Y-118435240D01*
X141336705Y-118418525D01*
X141326212Y-118349448D01*
X141334522Y-118318675D01*
X141375501Y-118219744D01*
X141400500Y-118094069D01*
X141400500Y-117365931D01*
X141400500Y-117365928D01*
X141375502Y-117240261D01*
X141375501Y-117240260D01*
X141375501Y-117240256D01*
X141326465Y-117121873D01*
X141326464Y-117121872D01*
X141326461Y-117121866D01*
X141255276Y-117015331D01*
X141255273Y-117015327D01*
X141164672Y-116924726D01*
X141164668Y-116924723D01*
X141058133Y-116853538D01*
X141058124Y-116853533D01*
X140939744Y-116804499D01*
X140939738Y-116804497D01*
X140814071Y-116779500D01*
X140814069Y-116779500D01*
X140685931Y-116779500D01*
X140685929Y-116779500D01*
X140560261Y-116804497D01*
X140560255Y-116804499D01*
X140441875Y-116853533D01*
X140441866Y-116853538D01*
X140335331Y-116924723D01*
X140335327Y-116924726D01*
X140244726Y-117015327D01*
X140244723Y-117015331D01*
X140173538Y-117121866D01*
X140173533Y-117121875D01*
X140124499Y-117240255D01*
X140124497Y-117240261D01*
X140116654Y-117279692D01*
X140084269Y-117341603D01*
X140023553Y-117376177D01*
X139995037Y-117379500D01*
X138773429Y-117379500D01*
X138647755Y-117404498D01*
X138642622Y-117406056D01*
X138572755Y-117406680D01*
X138518945Y-117375077D01*
X138310915Y-117167047D01*
X138310910Y-117167043D01*
X138225538Y-117110001D01*
X138225537Y-117110001D01*
X138187995Y-117084916D01*
X138187993Y-117084915D01*
X138187990Y-117084913D01*
X138051417Y-117028343D01*
X138051407Y-117028340D01*
X137906420Y-116999500D01*
X137906418Y-116999500D01*
X134999972Y-116999500D01*
X134959017Y-116992542D01*
X134879254Y-116964631D01*
X134879249Y-116964630D01*
X134700004Y-116944435D01*
X134699996Y-116944435D01*
X134520750Y-116964630D01*
X134520745Y-116964631D01*
X134350476Y-117024211D01*
X134197737Y-117120184D01*
X134070184Y-117247737D01*
X133974211Y-117400476D01*
X133914631Y-117570745D01*
X133914630Y-117570750D01*
X133894435Y-117749996D01*
X133894435Y-117750003D01*
X133914630Y-117929249D01*
X133914631Y-117929254D01*
X133942542Y-118009017D01*
X133949500Y-118049972D01*
X133949500Y-120471824D01*
X133929815Y-120538863D01*
X133877011Y-120584618D01*
X133807853Y-120594562D01*
X133744297Y-120565537D01*
X133738321Y-120560005D01*
X131180395Y-118031147D01*
X130521258Y-117379500D01*
X128191623Y-115076338D01*
X128152270Y-115041294D01*
X128132132Y-115025162D01*
X128089388Y-114994433D01*
X128030765Y-114967660D01*
X127958514Y-114934663D01*
X127891469Y-114914976D01*
X127829406Y-114906053D01*
X127749052Y-114894500D01*
X120974500Y-114894500D01*
X120907461Y-114874815D01*
X120861706Y-114822011D01*
X120850500Y-114770500D01*
X120850500Y-106911308D01*
X129086750Y-106911308D01*
X129086750Y-107906691D01*
X129120858Y-108033987D01*
X129153804Y-108091050D01*
X129186750Y-108148114D01*
X129279936Y-108241300D01*
X129394064Y-108307192D01*
X129521358Y-108341300D01*
X129653142Y-108341300D01*
X129659143Y-108341300D01*
X129716769Y-108355504D01*
X129806685Y-108402696D01*
X129842117Y-108411429D01*
X129960064Y-108440500D01*
X129960065Y-108440500D01*
X130118035Y-108440500D01*
X130271415Y-108402696D01*
X130361331Y-108355504D01*
X130418957Y-108341300D01*
X130556740Y-108341300D01*
X130556742Y-108341300D01*
X130634676Y-108320417D01*
X130704525Y-108322080D01*
X130712231Y-108325059D01*
X130714826Y-108325820D01*
X130714834Y-108325824D01*
X130857250Y-108346300D01*
X130938670Y-108346300D01*
X130996295Y-108360503D01*
X131076685Y-108402696D01*
X131112117Y-108411429D01*
X131230064Y-108440500D01*
X131230065Y-108440500D01*
X131388035Y-108440500D01*
X131541415Y-108402696D01*
X131621804Y-108360503D01*
X131679430Y-108346300D01*
X131760850Y-108346300D01*
X131832790Y-108341155D01*
X131908186Y-108319015D01*
X131975215Y-108318218D01*
X132061358Y-108341300D01*
X132193142Y-108341300D01*
X132199143Y-108341300D01*
X132256769Y-108355504D01*
X132346685Y-108402696D01*
X132382117Y-108411429D01*
X132500064Y-108440500D01*
X132500065Y-108440500D01*
X132658035Y-108440500D01*
X132811415Y-108402696D01*
X132901331Y-108355504D01*
X132958957Y-108341300D01*
X133096740Y-108341300D01*
X133096742Y-108341300D01*
X133174676Y-108320417D01*
X133244525Y-108322080D01*
X133252231Y-108325059D01*
X133254826Y-108325820D01*
X133254834Y-108325824D01*
X133397250Y-108346300D01*
X133478670Y-108346300D01*
X133536295Y-108360503D01*
X133616685Y-108402696D01*
X133652117Y-108411429D01*
X133770064Y-108440500D01*
X133770065Y-108440500D01*
X133928035Y-108440500D01*
X134081415Y-108402696D01*
X134161804Y-108360503D01*
X134219430Y-108346300D01*
X134300850Y-108346300D01*
X134372790Y-108341155D01*
X134448186Y-108319015D01*
X134515215Y-108318218D01*
X134601358Y-108341300D01*
X134733142Y-108341300D01*
X134739143Y-108341300D01*
X134796769Y-108355504D01*
X134886685Y-108402696D01*
X134922117Y-108411429D01*
X135040064Y-108440500D01*
X135040065Y-108440500D01*
X135198035Y-108440500D01*
X135351415Y-108402696D01*
X135441331Y-108355504D01*
X135498957Y-108341300D01*
X135636740Y-108341300D01*
X135636742Y-108341300D01*
X135714676Y-108320417D01*
X135784525Y-108322080D01*
X135792231Y-108325059D01*
X135794826Y-108325820D01*
X135794834Y-108325824D01*
X135937250Y-108346300D01*
X136018670Y-108346300D01*
X136076295Y-108360503D01*
X136156685Y-108402696D01*
X136192117Y-108411429D01*
X136310064Y-108440500D01*
X136310065Y-108440500D01*
X136468035Y-108440500D01*
X136621415Y-108402696D01*
X136701804Y-108360503D01*
X136759430Y-108346300D01*
X136840850Y-108346300D01*
X136910777Y-108341299D01*
X136912791Y-108341155D01*
X136929274Y-108336314D01*
X136946703Y-108331196D01*
X137016572Y-108331195D01*
X137075351Y-108368968D01*
X137094082Y-108404271D01*
X137096364Y-108403327D01*
X137099472Y-108410830D01*
X137099473Y-108410834D01*
X137099474Y-108410837D01*
X137099476Y-108410840D01*
X137178525Y-108547759D01*
X137178529Y-108547764D01*
X137178530Y-108547766D01*
X137290334Y-108659570D01*
X137290336Y-108659571D01*
X137290340Y-108659574D01*
X137427259Y-108738623D01*
X137427266Y-108738627D01*
X137579993Y-108779550D01*
X137579995Y-108779550D01*
X137738103Y-108779550D01*
X137738107Y-108779550D01*
X137741670Y-108778595D01*
X137744794Y-108778669D01*
X137746163Y-108778489D01*
X137746191Y-108778702D01*
X137811516Y-108780252D01*
X137861451Y-108810686D01*
X137963181Y-108912416D01*
X137996666Y-108973739D01*
X137999500Y-109000097D01*
X137999500Y-110325500D01*
X137979815Y-110392539D01*
X137927011Y-110438294D01*
X137875500Y-110449500D01*
X137532412Y-110449500D01*
X137465373Y-110429815D01*
X137455097Y-110422445D01*
X137452263Y-110420185D01*
X137452262Y-110420184D01*
X137364245Y-110364879D01*
X137299523Y-110324211D01*
X137129254Y-110264631D01*
X137129249Y-110264630D01*
X136950004Y-110244435D01*
X136949996Y-110244435D01*
X136770750Y-110264630D01*
X136770745Y-110264631D01*
X136600476Y-110324211D01*
X136447737Y-110420184D01*
X136320184Y-110547737D01*
X136224211Y-110700476D01*
X136164631Y-110870745D01*
X136164630Y-110870750D01*
X136144435Y-111049996D01*
X136144435Y-111050003D01*
X136164630Y-111229249D01*
X136164631Y-111229254D01*
X136224211Y-111399523D01*
X136320184Y-111552262D01*
X136447738Y-111679816D01*
X136600478Y-111775789D01*
X136617611Y-111781784D01*
X136770745Y-111835368D01*
X136770750Y-111835369D01*
X136949996Y-111855565D01*
X136950000Y-111855565D01*
X136950004Y-111855565D01*
X137129249Y-111835369D01*
X137129250Y-111835368D01*
X137129255Y-111835368D01*
X137172045Y-111820394D01*
X137241822Y-111816832D01*
X137302450Y-111851560D01*
X137334678Y-111913553D01*
X137337000Y-111937436D01*
X137337000Y-112129058D01*
X137354862Y-112195722D01*
X137353199Y-112265572D01*
X137322768Y-112315495D01*
X136931286Y-112706978D01*
X136819481Y-112818782D01*
X136819479Y-112818785D01*
X136810767Y-112833875D01*
X136772551Y-112900068D01*
X136740423Y-112955715D01*
X136699499Y-113108443D01*
X136699499Y-113108445D01*
X136699499Y-113276546D01*
X136699500Y-113276559D01*
X136699500Y-113317587D01*
X136679815Y-113384626D01*
X136672450Y-113394896D01*
X136670186Y-113397734D01*
X136574211Y-113550476D01*
X136514631Y-113720745D01*
X136514630Y-113720750D01*
X136494435Y-113899996D01*
X136494435Y-113900003D01*
X136514630Y-114079249D01*
X136514631Y-114079254D01*
X136574211Y-114249523D01*
X136644576Y-114361507D01*
X136670184Y-114402262D01*
X136797738Y-114529816D01*
X136880758Y-114581981D01*
X136938296Y-114618135D01*
X136950478Y-114625789D01*
X137093367Y-114675788D01*
X137120745Y-114685368D01*
X137120750Y-114685369D01*
X137299996Y-114705565D01*
X137300000Y-114705565D01*
X137300004Y-114705565D01*
X137479249Y-114685369D01*
X137479252Y-114685368D01*
X137479255Y-114685368D01*
X137649522Y-114625789D01*
X137719239Y-114581981D01*
X137786476Y-114562981D01*
X137851183Y-114581980D01*
X138000478Y-114675789D01*
X138028448Y-114685576D01*
X138170745Y-114735368D01*
X138170750Y-114735369D01*
X138349996Y-114755565D01*
X138350000Y-114755565D01*
X138350004Y-114755565D01*
X138529249Y-114735369D01*
X138529252Y-114735368D01*
X138529255Y-114735368D01*
X138699522Y-114675789D01*
X138852262Y-114579816D01*
X138979816Y-114452262D01*
X139075789Y-114299522D01*
X139135368Y-114129255D01*
X139135902Y-114124522D01*
X139147321Y-114023164D01*
X139155155Y-113953634D01*
X139158600Y-113935426D01*
X139159574Y-113931787D01*
X139159577Y-113931784D01*
X139197151Y-113791557D01*
X139200500Y-113779058D01*
X139200500Y-113620943D01*
X139200500Y-112633443D01*
X139200500Y-112274500D01*
X139220185Y-112207461D01*
X139272989Y-112161706D01*
X139324500Y-112150500D01*
X139586814Y-112150500D01*
X139653853Y-112170185D01*
X139699608Y-112222989D01*
X139709552Y-112292147D01*
X139704587Y-112310247D01*
X139705027Y-112310365D01*
X139662000Y-112470943D01*
X139662000Y-113160251D01*
X139642994Y-113226223D01*
X139549211Y-113375476D01*
X139489631Y-113545745D01*
X139489630Y-113545750D01*
X139469435Y-113724996D01*
X139469435Y-113725003D01*
X139489630Y-113904249D01*
X139489631Y-113904254D01*
X139549211Y-114074523D01*
X139583598Y-114129249D01*
X139645184Y-114227262D01*
X139772738Y-114354816D01*
X139863080Y-114411582D01*
X139880981Y-114422830D01*
X139925478Y-114450789D01*
X139929688Y-114452262D01*
X140095745Y-114510368D01*
X140095750Y-114510369D01*
X140274996Y-114530565D01*
X140275000Y-114530565D01*
X140275004Y-114530565D01*
X140454249Y-114510369D01*
X140454252Y-114510368D01*
X140454255Y-114510368D01*
X140624522Y-114450789D01*
X140777262Y-114354816D01*
X140904816Y-114227262D01*
X141000789Y-114074522D01*
X141060368Y-113904255D01*
X141060847Y-113900003D01*
X141080565Y-113725003D01*
X141080565Y-113724996D01*
X141060369Y-113545750D01*
X141060368Y-113545745D01*
X141008578Y-113397738D01*
X141000789Y-113375478D01*
X140996355Y-113368422D01*
X140938626Y-113276546D01*
X140904816Y-113222738D01*
X140899319Y-113217241D01*
X140865834Y-113155918D01*
X140863000Y-113129560D01*
X140863000Y-112470945D01*
X140863000Y-112470943D01*
X140822077Y-112318216D01*
X140790504Y-112263531D01*
X140774032Y-112195632D01*
X140774719Y-112187235D01*
X140775499Y-112180510D01*
X140775500Y-112180505D01*
X140775499Y-111919496D01*
X140774717Y-111912756D01*
X140786545Y-111843897D01*
X140790492Y-111836490D01*
X140822077Y-111781784D01*
X140863000Y-111629057D01*
X140863000Y-110970943D01*
X140822077Y-110818216D01*
X140822073Y-110818209D01*
X140743024Y-110681290D01*
X140743018Y-110681282D01*
X140631217Y-110569481D01*
X140631209Y-110569475D01*
X140494290Y-110490426D01*
X140494285Y-110490423D01*
X140454252Y-110479696D01*
X140396008Y-110464090D01*
X140336350Y-110427726D01*
X140305821Y-110364879D01*
X140314116Y-110295503D01*
X140358601Y-110241625D01*
X140362110Y-110239336D01*
X140377262Y-110229816D01*
X140469582Y-110137496D01*
X141494435Y-110137496D01*
X141494435Y-110137503D01*
X141514630Y-110316749D01*
X141514631Y-110316754D01*
X141574211Y-110487023D01*
X141626023Y-110569480D01*
X141670184Y-110639762D01*
X141797738Y-110767316D01*
X141950478Y-110863289D01*
X142079524Y-110908444D01*
X142120745Y-110922868D01*
X142120750Y-110922869D01*
X142299996Y-110943065D01*
X142300000Y-110943065D01*
X142300004Y-110943065D01*
X142479249Y-110922869D01*
X142479252Y-110922868D01*
X142479255Y-110922868D01*
X142649522Y-110863289D01*
X142802262Y-110767316D01*
X142929816Y-110639762D01*
X143025789Y-110487022D01*
X143085368Y-110316755D01*
X143087905Y-110294241D01*
X143105565Y-110137503D01*
X143105565Y-110137496D01*
X143085369Y-109958250D01*
X143085368Y-109958245D01*
X143025788Y-109787976D01*
X142929815Y-109635237D01*
X142802262Y-109507684D01*
X142649523Y-109411711D01*
X142479254Y-109352131D01*
X142479249Y-109352130D01*
X142300004Y-109331935D01*
X142299996Y-109331935D01*
X142120750Y-109352130D01*
X142120745Y-109352131D01*
X141950476Y-109411711D01*
X141797737Y-109507684D01*
X141670184Y-109635237D01*
X141574211Y-109787976D01*
X141514631Y-109958245D01*
X141514630Y-109958250D01*
X141494435Y-110137496D01*
X140469582Y-110137496D01*
X140504816Y-110102262D01*
X140600789Y-109949522D01*
X140660368Y-109779255D01*
X140680565Y-109600000D01*
X140660368Y-109420745D01*
X140600789Y-109250478D01*
X140504816Y-109097738D01*
X140377262Y-108970184D01*
X140285325Y-108912416D01*
X140224521Y-108874210D01*
X140135376Y-108843017D01*
X140059587Y-108816497D01*
X140002813Y-108775777D01*
X139983502Y-108740413D01*
X139931398Y-108591510D01*
X139927838Y-108521733D01*
X139962567Y-108461105D01*
X140024560Y-108428878D01*
X140078112Y-108430159D01*
X140120065Y-108440500D01*
X140120067Y-108440500D01*
X140278035Y-108440500D01*
X140431415Y-108402696D01*
X140521331Y-108355504D01*
X140578957Y-108341300D01*
X140716740Y-108341300D01*
X140716742Y-108341300D01*
X140844036Y-108307192D01*
X140958164Y-108241300D01*
X141051350Y-108148114D01*
X141117242Y-108033986D01*
X141151350Y-107906692D01*
X141151350Y-106911308D01*
X141117242Y-106784014D01*
X141103139Y-106759587D01*
X141086667Y-106691690D01*
X141087202Y-106684677D01*
X141104510Y-106520000D01*
X141084724Y-106331744D01*
X141026229Y-106151716D01*
X140931583Y-105987784D01*
X140804921Y-105847112D01*
X140804920Y-105847111D01*
X140651784Y-105735851D01*
X140651779Y-105735848D01*
X140478857Y-105658857D01*
X140478852Y-105658855D01*
X140333051Y-105627865D01*
X140293696Y-105619500D01*
X140104404Y-105619500D01*
X140071947Y-105626398D01*
X139919247Y-105658855D01*
X139919242Y-105658857D01*
X139746320Y-105735848D01*
X139746315Y-105735851D01*
X139593179Y-105847111D01*
X139466516Y-105987785D01*
X139371871Y-106151715D01*
X139371868Y-106151722D01*
X139313377Y-106331740D01*
X139313376Y-106331744D01*
X139298012Y-106477923D01*
X139293590Y-106520000D01*
X139310892Y-106684630D01*
X139298322Y-106753359D01*
X139294961Y-106759586D01*
X139280858Y-106784014D01*
X139280858Y-106784015D01*
X139246750Y-106911308D01*
X139246750Y-107906691D01*
X139263420Y-107968906D01*
X139261757Y-108038756D01*
X139222594Y-108096618D01*
X139158365Y-108124122D01*
X139157529Y-108124219D01*
X139020745Y-108139631D01*
X138996591Y-108148083D01*
X138926812Y-108151644D01*
X138867957Y-108118722D01*
X138647669Y-107898434D01*
X138614184Y-107837111D01*
X138611350Y-107810753D01*
X138611350Y-106911310D01*
X138611350Y-106911308D01*
X138577242Y-106784014D01*
X138563139Y-106759587D01*
X138546667Y-106691690D01*
X138547202Y-106684677D01*
X138564510Y-106520000D01*
X138544724Y-106331744D01*
X138486229Y-106151716D01*
X138391583Y-105987784D01*
X138264921Y-105847112D01*
X138264920Y-105847111D01*
X138111784Y-105735851D01*
X138111779Y-105735848D01*
X137938857Y-105658857D01*
X137938852Y-105658855D01*
X137793051Y-105627865D01*
X137753696Y-105619500D01*
X137564404Y-105619500D01*
X137531947Y-105626398D01*
X137379247Y-105658855D01*
X137379242Y-105658857D01*
X137206320Y-105735848D01*
X137206315Y-105735851D01*
X137053179Y-105847111D01*
X136926516Y-105987785D01*
X136831871Y-106151715D01*
X136831868Y-106151722D01*
X136773377Y-106331740D01*
X136773376Y-106331744D01*
X136767317Y-106389393D01*
X136740732Y-106454007D01*
X136683434Y-106493991D01*
X136624600Y-106498904D01*
X136557893Y-106488339D01*
X136492124Y-106477923D01*
X136492116Y-106477922D01*
X136492114Y-106477922D01*
X136413055Y-106471700D01*
X136413048Y-106471700D01*
X136361004Y-106471700D01*
X136360976Y-106471700D01*
X136346570Y-106471905D01*
X136204795Y-106496440D01*
X136173699Y-106506544D01*
X136103858Y-106508538D01*
X136044026Y-106472456D01*
X136013199Y-106409755D01*
X136012066Y-106401606D01*
X136004724Y-106331744D01*
X135946229Y-106151716D01*
X135851583Y-105987784D01*
X135724921Y-105847112D01*
X135724920Y-105847111D01*
X135571784Y-105735851D01*
X135571779Y-105735848D01*
X135398857Y-105658857D01*
X135398852Y-105658855D01*
X135253051Y-105627865D01*
X135213696Y-105619500D01*
X135024404Y-105619500D01*
X134991947Y-105626398D01*
X134839247Y-105658855D01*
X134839242Y-105658857D01*
X134666320Y-105735848D01*
X134666315Y-105735851D01*
X134513179Y-105847111D01*
X134386516Y-105987785D01*
X134291871Y-106151715D01*
X134291868Y-106151722D01*
X134233377Y-106331740D01*
X134233376Y-106331744D01*
X134227317Y-106389393D01*
X134200732Y-106454007D01*
X134143434Y-106493991D01*
X134084600Y-106498904D01*
X134017893Y-106488339D01*
X133952124Y-106477923D01*
X133952116Y-106477922D01*
X133952114Y-106477922D01*
X133873055Y-106471700D01*
X133873048Y-106471700D01*
X133821004Y-106471700D01*
X133820976Y-106471700D01*
X133806570Y-106471905D01*
X133664795Y-106496440D01*
X133633699Y-106506544D01*
X133563858Y-106508538D01*
X133504026Y-106472456D01*
X133473199Y-106409755D01*
X133472066Y-106401606D01*
X133464724Y-106331744D01*
X133406229Y-106151716D01*
X133311583Y-105987784D01*
X133184921Y-105847112D01*
X133184920Y-105847111D01*
X133031784Y-105735851D01*
X133031779Y-105735848D01*
X132858857Y-105658857D01*
X132858852Y-105658855D01*
X132713051Y-105627865D01*
X132673696Y-105619500D01*
X132484404Y-105619500D01*
X132451947Y-105626398D01*
X132299247Y-105658855D01*
X132299242Y-105658857D01*
X132126320Y-105735848D01*
X132126315Y-105735851D01*
X131973179Y-105847111D01*
X131846516Y-105987785D01*
X131751871Y-106151715D01*
X131751868Y-106151722D01*
X131693377Y-106331740D01*
X131693376Y-106331744D01*
X131687317Y-106389393D01*
X131660732Y-106454007D01*
X131603434Y-106493991D01*
X131544600Y-106498904D01*
X131477893Y-106488339D01*
X131412124Y-106477923D01*
X131412116Y-106477922D01*
X131412114Y-106477922D01*
X131333055Y-106471700D01*
X131333048Y-106471700D01*
X131281004Y-106471700D01*
X131280976Y-106471700D01*
X131266570Y-106471905D01*
X131124795Y-106496440D01*
X131093699Y-106506544D01*
X131023858Y-106508538D01*
X130964026Y-106472456D01*
X130933199Y-106409755D01*
X130932066Y-106401606D01*
X130924724Y-106331744D01*
X130866229Y-106151716D01*
X130771583Y-105987784D01*
X130644921Y-105847112D01*
X130644920Y-105847111D01*
X130491784Y-105735851D01*
X130491779Y-105735848D01*
X130318857Y-105658857D01*
X130318852Y-105658855D01*
X130173051Y-105627865D01*
X130133696Y-105619500D01*
X129944404Y-105619500D01*
X129911947Y-105626398D01*
X129759247Y-105658855D01*
X129759242Y-105658857D01*
X129586320Y-105735848D01*
X129586315Y-105735851D01*
X129433179Y-105847111D01*
X129306516Y-105987785D01*
X129211871Y-106151715D01*
X129211868Y-106151722D01*
X129153377Y-106331740D01*
X129153376Y-106331744D01*
X129138012Y-106477923D01*
X129133590Y-106520000D01*
X129150892Y-106684630D01*
X129138322Y-106753359D01*
X129134961Y-106759586D01*
X129120858Y-106784014D01*
X129120858Y-106784015D01*
X129086750Y-106911308D01*
X120850500Y-106911308D01*
X120850500Y-98143713D01*
X121899500Y-98143713D01*
X121899500Y-98356286D01*
X121932753Y-98566239D01*
X121998444Y-98768414D01*
X122094951Y-98957820D01*
X122219890Y-99129786D01*
X122370209Y-99280105D01*
X122370214Y-99280109D01*
X122534793Y-99399682D01*
X122577459Y-99455011D01*
X122583438Y-99524625D01*
X122550833Y-99586420D01*
X122534793Y-99600318D01*
X122370214Y-99719890D01*
X122370209Y-99719894D01*
X122219890Y-99870213D01*
X122094951Y-100042179D01*
X121998444Y-100231585D01*
X121932753Y-100433760D01*
X121899500Y-100643713D01*
X121899500Y-100856286D01*
X121932753Y-101066239D01*
X121998444Y-101268414D01*
X122094951Y-101457820D01*
X122219890Y-101629786D01*
X122370209Y-101780105D01*
X122370214Y-101780109D01*
X122534793Y-101899682D01*
X122577459Y-101955011D01*
X122583438Y-102024625D01*
X122550833Y-102086420D01*
X122534793Y-102100318D01*
X122370214Y-102219890D01*
X122370209Y-102219894D01*
X122219890Y-102370213D01*
X122094951Y-102542179D01*
X121998444Y-102731585D01*
X121932753Y-102933760D01*
X121899500Y-103143713D01*
X121899500Y-103356287D01*
X121932754Y-103566243D01*
X121975479Y-103697737D01*
X121998444Y-103768414D01*
X122094951Y-103957820D01*
X122219890Y-104129786D01*
X122370213Y-104280109D01*
X122542179Y-104405048D01*
X122542181Y-104405049D01*
X122542184Y-104405051D01*
X122731588Y-104501557D01*
X122933757Y-104567246D01*
X123143713Y-104600500D01*
X123143714Y-104600500D01*
X123606286Y-104600500D01*
X123606287Y-104600500D01*
X123816243Y-104567246D01*
X124018412Y-104501557D01*
X124207816Y-104405051D01*
X124243330Y-104379249D01*
X124379786Y-104280109D01*
X124379788Y-104280106D01*
X124379792Y-104280104D01*
X124459900Y-104199996D01*
X131744435Y-104199996D01*
X131744435Y-104200003D01*
X131764630Y-104379249D01*
X131764631Y-104379254D01*
X131824211Y-104549523D01*
X131920184Y-104702262D01*
X132047738Y-104829816D01*
X132200478Y-104925789D01*
X132370745Y-104985368D01*
X132370750Y-104985369D01*
X132549996Y-105005565D01*
X132550000Y-105005565D01*
X132550004Y-105005565D01*
X132729249Y-104985369D01*
X132729252Y-104985368D01*
X132729255Y-104985368D01*
X132899522Y-104925789D01*
X133052262Y-104829816D01*
X133179816Y-104702262D01*
X133275789Y-104549522D01*
X133335368Y-104379255D01*
X133355565Y-104200000D01*
X133355565Y-104199996D01*
X134844435Y-104199996D01*
X134844435Y-104200003D01*
X134864630Y-104379249D01*
X134864631Y-104379254D01*
X134924211Y-104549523D01*
X135020184Y-104702262D01*
X135147738Y-104829816D01*
X135300478Y-104925789D01*
X135470745Y-104985368D01*
X135470750Y-104985369D01*
X135649996Y-105005565D01*
X135650000Y-105005565D01*
X135650004Y-105005565D01*
X135829249Y-104985369D01*
X135829252Y-104985368D01*
X135829255Y-104985368D01*
X135999522Y-104925789D01*
X136152262Y-104829816D01*
X136279816Y-104702262D01*
X136375789Y-104549522D01*
X136435368Y-104379255D01*
X136455565Y-104200000D01*
X136435368Y-104020745D01*
X136375789Y-103850478D01*
X136279816Y-103697738D01*
X136152262Y-103570184D01*
X136145984Y-103566239D01*
X135999523Y-103474211D01*
X135829254Y-103414631D01*
X135829249Y-103414630D01*
X135650004Y-103394435D01*
X135649996Y-103394435D01*
X135470750Y-103414630D01*
X135470745Y-103414631D01*
X135300476Y-103474211D01*
X135147737Y-103570184D01*
X135020184Y-103697737D01*
X134924211Y-103850476D01*
X134864631Y-104020745D01*
X134864630Y-104020750D01*
X134844435Y-104199996D01*
X133355565Y-104199996D01*
X133335368Y-104020745D01*
X133275789Y-103850478D01*
X133179816Y-103697738D01*
X133052262Y-103570184D01*
X133045984Y-103566239D01*
X132899523Y-103474211D01*
X132729254Y-103414631D01*
X132729249Y-103414630D01*
X132550004Y-103394435D01*
X132549996Y-103394435D01*
X132370750Y-103414630D01*
X132370745Y-103414631D01*
X132200476Y-103474211D01*
X132047737Y-103570184D01*
X131920184Y-103697737D01*
X131824211Y-103850476D01*
X131764631Y-104020745D01*
X131764630Y-104020750D01*
X131744435Y-104199996D01*
X124459900Y-104199996D01*
X124530104Y-104129792D01*
X124530106Y-104129788D01*
X124530109Y-104129786D01*
X124655048Y-103957820D01*
X124655047Y-103957820D01*
X124655051Y-103957816D01*
X124751557Y-103768412D01*
X124817246Y-103566243D01*
X124850500Y-103356287D01*
X124850500Y-103143713D01*
X124817246Y-102933757D01*
X124751557Y-102731588D01*
X124655051Y-102542184D01*
X124655049Y-102542181D01*
X124655048Y-102542179D01*
X124530109Y-102370213D01*
X124379792Y-102219896D01*
X124379784Y-102219890D01*
X124215204Y-102100316D01*
X124172540Y-102044989D01*
X124166561Y-101975376D01*
X124199166Y-101913580D01*
X124215199Y-101899686D01*
X124379792Y-101780104D01*
X124530104Y-101629792D01*
X124530106Y-101629788D01*
X124530109Y-101629786D01*
X124655048Y-101457820D01*
X124655047Y-101457820D01*
X124655051Y-101457816D01*
X124751557Y-101268412D01*
X124817246Y-101066243D01*
X124850500Y-100856287D01*
X124850500Y-100643713D01*
X124817246Y-100433757D01*
X124751557Y-100231588D01*
X124655051Y-100042184D01*
X124655049Y-100042181D01*
X124655048Y-100042179D01*
X124530109Y-99870213D01*
X124379792Y-99719896D01*
X124379784Y-99719890D01*
X124215204Y-99600316D01*
X124172540Y-99544989D01*
X124166561Y-99475376D01*
X124199166Y-99413580D01*
X124215199Y-99399686D01*
X124379792Y-99280104D01*
X124530104Y-99129792D01*
X124530106Y-99129788D01*
X124530109Y-99129786D01*
X124655048Y-98957820D01*
X124655047Y-98957820D01*
X124655051Y-98957816D01*
X124751557Y-98768412D01*
X124817246Y-98566243D01*
X124850500Y-98356287D01*
X124850500Y-98143713D01*
X124817246Y-97933757D01*
X124751557Y-97731588D01*
X124655051Y-97542184D01*
X124655049Y-97542181D01*
X124655048Y-97542179D01*
X124551747Y-97399996D01*
X128794435Y-97399996D01*
X128794435Y-97400003D01*
X128814630Y-97579249D01*
X128814631Y-97579254D01*
X128874211Y-97749523D01*
X128970184Y-97902262D01*
X129097738Y-98029816D01*
X129250478Y-98125789D01*
X129301702Y-98143713D01*
X129420745Y-98185368D01*
X129420750Y-98185369D01*
X129599996Y-98205565D01*
X129600000Y-98205565D01*
X129600004Y-98205565D01*
X129779249Y-98185369D01*
X129779252Y-98185368D01*
X129779255Y-98185368D01*
X129949522Y-98125789D01*
X130102262Y-98029816D01*
X130229816Y-97902262D01*
X130325789Y-97749522D01*
X130385368Y-97579255D01*
X130389545Y-97542184D01*
X130405565Y-97400003D01*
X130405565Y-97399996D01*
X130385369Y-97220750D01*
X130385368Y-97220745D01*
X130337998Y-97085369D01*
X130325789Y-97050478D01*
X130229816Y-96897738D01*
X130102262Y-96770184D01*
X129949523Y-96674211D01*
X129779254Y-96614631D01*
X129779249Y-96614630D01*
X129600004Y-96594435D01*
X129599996Y-96594435D01*
X129420750Y-96614630D01*
X129420745Y-96614631D01*
X129250476Y-96674211D01*
X129097737Y-96770184D01*
X128970184Y-96897737D01*
X128874211Y-97050476D01*
X128814631Y-97220745D01*
X128814630Y-97220750D01*
X128794435Y-97399996D01*
X124551747Y-97399996D01*
X124530109Y-97370213D01*
X124379786Y-97219890D01*
X124207820Y-97094951D01*
X124018414Y-96998444D01*
X124018413Y-96998443D01*
X124018412Y-96998443D01*
X123816243Y-96932754D01*
X123816241Y-96932753D01*
X123816240Y-96932753D01*
X123654957Y-96907208D01*
X123606287Y-96899500D01*
X123143713Y-96899500D01*
X123095042Y-96907208D01*
X122933760Y-96932753D01*
X122731585Y-96998444D01*
X122542179Y-97094951D01*
X122370213Y-97219890D01*
X122219890Y-97370213D01*
X122094951Y-97542179D01*
X121998444Y-97731585D01*
X121932753Y-97933760D01*
X121899500Y-98143713D01*
X120850500Y-98143713D01*
X120850500Y-96299996D01*
X133744435Y-96299996D01*
X133744435Y-96300003D01*
X133764630Y-96479249D01*
X133764631Y-96479254D01*
X133824211Y-96649523D01*
X133839724Y-96674211D01*
X133920184Y-96802262D01*
X134047738Y-96929816D01*
X134200478Y-97025789D01*
X134370745Y-97085368D01*
X134370750Y-97085369D01*
X134549996Y-97105565D01*
X134550000Y-97105565D01*
X134550004Y-97105565D01*
X134729249Y-97085369D01*
X134729252Y-97085368D01*
X134729255Y-97085368D01*
X134899522Y-97025789D01*
X135052262Y-96929816D01*
X135179816Y-96802262D01*
X135275789Y-96649522D01*
X135335368Y-96479255D01*
X135355565Y-96300000D01*
X135355565Y-96299996D01*
X136844435Y-96299996D01*
X136844435Y-96300003D01*
X136864630Y-96479249D01*
X136864631Y-96479254D01*
X136924211Y-96649523D01*
X136939724Y-96674211D01*
X137020184Y-96802262D01*
X137147738Y-96929816D01*
X137300478Y-97025789D01*
X137470745Y-97085368D01*
X137470750Y-97085369D01*
X137649996Y-97105565D01*
X137650000Y-97105565D01*
X137650004Y-97105565D01*
X137829249Y-97085369D01*
X137829252Y-97085368D01*
X137829255Y-97085368D01*
X137999522Y-97025789D01*
X138152262Y-96929816D01*
X138279816Y-96802262D01*
X138375789Y-96649522D01*
X138435368Y-96479255D01*
X138455565Y-96300000D01*
X138435368Y-96120745D01*
X138375789Y-95950478D01*
X138279816Y-95797738D01*
X138152262Y-95670184D01*
X137999523Y-95574211D01*
X137829254Y-95514631D01*
X137829249Y-95514630D01*
X137650004Y-95494435D01*
X137649996Y-95494435D01*
X137470750Y-95514630D01*
X137470745Y-95514631D01*
X137300476Y-95574211D01*
X137147737Y-95670184D01*
X137020184Y-95797737D01*
X136924211Y-95950476D01*
X136864631Y-96120745D01*
X136864630Y-96120750D01*
X136844435Y-96299996D01*
X135355565Y-96299996D01*
X135335368Y-96120745D01*
X135275789Y-95950478D01*
X135179816Y-95797738D01*
X135052262Y-95670184D01*
X134899523Y-95574211D01*
X134729254Y-95514631D01*
X134729249Y-95514630D01*
X134550004Y-95494435D01*
X134549996Y-95494435D01*
X134370750Y-95514630D01*
X134370745Y-95514631D01*
X134200476Y-95574211D01*
X134047737Y-95670184D01*
X133920184Y-95797737D01*
X133824211Y-95950476D01*
X133764631Y-96120745D01*
X133764630Y-96120750D01*
X133744435Y-96299996D01*
X120850500Y-96299996D01*
X120850500Y-94199996D01*
X125994435Y-94199996D01*
X125994435Y-94200003D01*
X126014630Y-94379249D01*
X126014631Y-94379254D01*
X126074211Y-94549523D01*
X126170184Y-94702262D01*
X126297738Y-94829816D01*
X126450478Y-94925789D01*
X126620745Y-94985368D01*
X126620750Y-94985369D01*
X126799996Y-95005565D01*
X126800000Y-95005565D01*
X126800004Y-95005565D01*
X126979249Y-94985369D01*
X126979252Y-94985368D01*
X126979255Y-94985368D01*
X127149522Y-94925789D01*
X127302262Y-94829816D01*
X127429816Y-94702262D01*
X127525789Y-94549522D01*
X127585368Y-94379255D01*
X127585369Y-94379249D01*
X127605565Y-94200003D01*
X127605565Y-94199996D01*
X127585369Y-94020750D01*
X127585368Y-94020745D01*
X127525789Y-93850478D01*
X127431235Y-93699996D01*
X133744435Y-93699996D01*
X133744435Y-93700003D01*
X133764630Y-93879249D01*
X133764631Y-93879254D01*
X133824211Y-94049523D01*
X133918760Y-94199996D01*
X133920184Y-94202262D01*
X134047738Y-94329816D01*
X134200478Y-94425789D01*
X134370745Y-94485368D01*
X134370750Y-94485369D01*
X134549996Y-94505565D01*
X134550000Y-94505565D01*
X134550004Y-94505565D01*
X134729249Y-94485369D01*
X134729252Y-94485368D01*
X134729255Y-94485368D01*
X134899522Y-94425789D01*
X135052262Y-94329816D01*
X135179816Y-94202262D01*
X135275789Y-94049522D01*
X135335368Y-93879255D01*
X135335369Y-93879249D01*
X135355565Y-93700003D01*
X135355565Y-93699996D01*
X136844435Y-93699996D01*
X136844435Y-93700003D01*
X136864630Y-93879249D01*
X136864631Y-93879254D01*
X136924211Y-94049523D01*
X137018760Y-94199996D01*
X137020184Y-94202262D01*
X137147738Y-94329816D01*
X137300478Y-94425789D01*
X137470745Y-94485368D01*
X137470750Y-94485369D01*
X137649996Y-94505565D01*
X137650000Y-94505565D01*
X137650004Y-94505565D01*
X137829249Y-94485369D01*
X137829252Y-94485368D01*
X137829255Y-94485368D01*
X137999522Y-94425789D01*
X138152262Y-94329816D01*
X138279816Y-94202262D01*
X138375789Y-94049522D01*
X138435368Y-93879255D01*
X138435369Y-93879249D01*
X138455565Y-93700003D01*
X138455565Y-93699996D01*
X138435369Y-93520750D01*
X138435368Y-93520745D01*
X138375788Y-93350476D01*
X138279815Y-93197737D01*
X138152262Y-93070184D01*
X137999523Y-92974211D01*
X137829254Y-92914631D01*
X137829249Y-92914630D01*
X137650004Y-92894435D01*
X137649996Y-92894435D01*
X137470750Y-92914630D01*
X137470745Y-92914631D01*
X137300476Y-92974211D01*
X137147737Y-93070184D01*
X137020184Y-93197737D01*
X136924211Y-93350476D01*
X136864631Y-93520745D01*
X136864630Y-93520750D01*
X136844435Y-93699996D01*
X135355565Y-93699996D01*
X135335369Y-93520750D01*
X135335368Y-93520745D01*
X135275788Y-93350476D01*
X135179815Y-93197737D01*
X135052262Y-93070184D01*
X134899523Y-92974211D01*
X134729254Y-92914631D01*
X134729249Y-92914630D01*
X134550004Y-92894435D01*
X134549996Y-92894435D01*
X134370750Y-92914630D01*
X134370745Y-92914631D01*
X134200476Y-92974211D01*
X134047737Y-93070184D01*
X133920184Y-93197737D01*
X133824211Y-93350476D01*
X133764631Y-93520745D01*
X133764630Y-93520750D01*
X133744435Y-93699996D01*
X127431235Y-93699996D01*
X127429816Y-93697738D01*
X127302262Y-93570184D01*
X127149523Y-93474211D01*
X126979254Y-93414631D01*
X126979249Y-93414630D01*
X126800004Y-93394435D01*
X126799996Y-93394435D01*
X126620750Y-93414630D01*
X126620745Y-93414631D01*
X126450476Y-93474211D01*
X126297737Y-93570184D01*
X126170184Y-93697737D01*
X126074211Y-93850476D01*
X126014631Y-94020745D01*
X126014630Y-94020750D01*
X125994435Y-94199996D01*
X120850500Y-94199996D01*
X120850500Y-89893308D01*
X129086750Y-89893308D01*
X129086750Y-90888691D01*
X129120858Y-91015985D01*
X129120860Y-91015990D01*
X129134959Y-91040411D01*
X129151430Y-91108311D01*
X129150892Y-91115369D01*
X129135678Y-91260136D01*
X129133590Y-91280000D01*
X129153376Y-91468256D01*
X129153377Y-91468259D01*
X129211868Y-91648277D01*
X129211871Y-91648284D01*
X129306517Y-91812216D01*
X129433179Y-91952888D01*
X129586315Y-92064148D01*
X129586320Y-92064151D01*
X129759242Y-92141142D01*
X129759247Y-92141144D01*
X129944404Y-92180500D01*
X129944405Y-92180500D01*
X130133694Y-92180500D01*
X130133696Y-92180500D01*
X130318853Y-92141144D01*
X130491780Y-92064151D01*
X130644921Y-91952888D01*
X130771583Y-91812216D01*
X130866229Y-91648284D01*
X130924724Y-91468256D01*
X130930783Y-91410605D01*
X130957366Y-91345993D01*
X131014663Y-91306008D01*
X131073500Y-91301095D01*
X131076342Y-91301545D01*
X131076345Y-91301546D01*
X131205976Y-91322077D01*
X131205987Y-91322077D01*
X131205988Y-91322078D01*
X131216312Y-91322890D01*
X131285052Y-91328300D01*
X131285060Y-91328300D01*
X131337124Y-91328300D01*
X131350134Y-91328113D01*
X131351532Y-91328094D01*
X131493305Y-91303559D01*
X131524398Y-91293455D01*
X131594236Y-91291459D01*
X131654070Y-91327538D01*
X131684899Y-91390238D01*
X131686035Y-91398410D01*
X131693376Y-91468256D01*
X131693377Y-91468259D01*
X131751868Y-91648277D01*
X131751871Y-91648284D01*
X131846517Y-91812216D01*
X131973179Y-91952888D01*
X132126315Y-92064148D01*
X132126320Y-92064151D01*
X132299242Y-92141142D01*
X132299247Y-92141144D01*
X132484404Y-92180500D01*
X132484405Y-92180500D01*
X132673694Y-92180500D01*
X132673696Y-92180500D01*
X132858853Y-92141144D01*
X133031780Y-92064151D01*
X133184921Y-91952888D01*
X133311583Y-91812216D01*
X133406229Y-91648284D01*
X133464724Y-91468256D01*
X133470783Y-91410605D01*
X133497366Y-91345993D01*
X133554663Y-91306008D01*
X133613500Y-91301095D01*
X133616342Y-91301545D01*
X133616345Y-91301546D01*
X133745976Y-91322077D01*
X133745987Y-91322077D01*
X133745988Y-91322078D01*
X133756312Y-91322890D01*
X133825052Y-91328300D01*
X133825060Y-91328300D01*
X133877124Y-91328300D01*
X133890134Y-91328113D01*
X133891532Y-91328094D01*
X134033305Y-91303559D01*
X134064398Y-91293455D01*
X134134236Y-91291459D01*
X134194070Y-91327538D01*
X134224899Y-91390238D01*
X134226035Y-91398410D01*
X134233376Y-91468256D01*
X134233377Y-91468259D01*
X134291868Y-91648277D01*
X134291871Y-91648284D01*
X134386517Y-91812216D01*
X134513179Y-91952888D01*
X134666315Y-92064148D01*
X134666320Y-92064151D01*
X134839242Y-92141142D01*
X134839247Y-92141144D01*
X135024404Y-92180500D01*
X135024405Y-92180500D01*
X135213694Y-92180500D01*
X135213696Y-92180500D01*
X135398853Y-92141144D01*
X135571780Y-92064151D01*
X135724921Y-91952888D01*
X135851583Y-91812216D01*
X135946229Y-91648284D01*
X136004724Y-91468256D01*
X136010783Y-91410605D01*
X136037366Y-91345993D01*
X136094663Y-91306008D01*
X136153500Y-91301095D01*
X136156342Y-91301545D01*
X136156345Y-91301546D01*
X136285976Y-91322077D01*
X136285987Y-91322077D01*
X136285988Y-91322078D01*
X136296312Y-91322890D01*
X136365052Y-91328300D01*
X136365060Y-91328300D01*
X136417124Y-91328300D01*
X136430134Y-91328113D01*
X136431532Y-91328094D01*
X136573305Y-91303559D01*
X136604398Y-91293455D01*
X136674236Y-91291459D01*
X136734070Y-91327538D01*
X136764899Y-91390238D01*
X136766035Y-91398410D01*
X136773376Y-91468256D01*
X136773377Y-91468259D01*
X136831868Y-91648277D01*
X136831871Y-91648284D01*
X136926517Y-91812216D01*
X137053179Y-91952888D01*
X137206315Y-92064148D01*
X137206320Y-92064151D01*
X137379242Y-92141142D01*
X137379247Y-92141144D01*
X137564404Y-92180500D01*
X137564405Y-92180500D01*
X137753694Y-92180500D01*
X137753696Y-92180500D01*
X137938853Y-92141144D01*
X138111780Y-92064151D01*
X138264921Y-91952888D01*
X138391583Y-91812216D01*
X138486229Y-91648284D01*
X138544724Y-91468256D01*
X138550783Y-91410605D01*
X138577366Y-91345993D01*
X138634663Y-91306008D01*
X138693500Y-91301095D01*
X138696342Y-91301545D01*
X138696345Y-91301546D01*
X138825976Y-91322077D01*
X138825987Y-91322077D01*
X138825988Y-91322078D01*
X138836312Y-91322890D01*
X138905052Y-91328300D01*
X138905060Y-91328300D01*
X138957124Y-91328300D01*
X138970134Y-91328113D01*
X138971532Y-91328094D01*
X139113305Y-91303559D01*
X139144398Y-91293455D01*
X139214236Y-91291459D01*
X139274070Y-91327538D01*
X139304899Y-91390238D01*
X139306035Y-91398410D01*
X139313376Y-91468256D01*
X139313377Y-91468259D01*
X139371868Y-91648277D01*
X139371871Y-91648284D01*
X139466517Y-91812216D01*
X139593179Y-91952888D01*
X139746315Y-92064148D01*
X139746320Y-92064151D01*
X139919242Y-92141142D01*
X139919247Y-92141144D01*
X140104404Y-92180500D01*
X140104405Y-92180500D01*
X140293694Y-92180500D01*
X140293696Y-92180500D01*
X140478853Y-92141144D01*
X140651780Y-92064151D01*
X140804921Y-91952888D01*
X140931583Y-91812216D01*
X141026229Y-91648284D01*
X141084724Y-91468256D01*
X141090783Y-91410605D01*
X141117366Y-91345993D01*
X141174663Y-91306008D01*
X141233500Y-91301095D01*
X141236342Y-91301545D01*
X141236345Y-91301546D01*
X141365976Y-91322077D01*
X141365987Y-91322077D01*
X141365988Y-91322078D01*
X141376312Y-91322890D01*
X141445052Y-91328300D01*
X141445060Y-91328300D01*
X141497124Y-91328300D01*
X141510134Y-91328113D01*
X141511532Y-91328094D01*
X141653305Y-91303559D01*
X141684398Y-91293455D01*
X141754236Y-91291459D01*
X141814070Y-91327538D01*
X141844899Y-91390238D01*
X141846035Y-91398410D01*
X141853376Y-91468256D01*
X141853377Y-91468259D01*
X141911868Y-91648277D01*
X141911871Y-91648284D01*
X142006517Y-91812216D01*
X142133179Y-91952888D01*
X142286315Y-92064148D01*
X142286320Y-92064151D01*
X142459242Y-92141142D01*
X142459247Y-92141144D01*
X142644404Y-92180500D01*
X142644405Y-92180500D01*
X142833694Y-92180500D01*
X142833696Y-92180500D01*
X143018853Y-92141144D01*
X143191780Y-92064151D01*
X143344921Y-91952888D01*
X143471583Y-91812216D01*
X143566229Y-91648284D01*
X143624724Y-91468256D01*
X143630783Y-91410605D01*
X143657366Y-91345993D01*
X143714663Y-91306008D01*
X143773500Y-91301095D01*
X143776342Y-91301545D01*
X143776345Y-91301546D01*
X143905976Y-91322077D01*
X143905987Y-91322077D01*
X143905988Y-91322078D01*
X143916312Y-91322890D01*
X143985052Y-91328300D01*
X143985060Y-91328300D01*
X144037124Y-91328300D01*
X144050134Y-91328113D01*
X144051532Y-91328094D01*
X144193305Y-91303559D01*
X144224398Y-91293455D01*
X144294236Y-91291459D01*
X144354070Y-91327538D01*
X144384899Y-91390238D01*
X144386035Y-91398410D01*
X144393376Y-91468256D01*
X144393377Y-91468259D01*
X144451868Y-91648277D01*
X144451871Y-91648284D01*
X144546517Y-91812216D01*
X144673179Y-91952888D01*
X144826315Y-92064148D01*
X144826320Y-92064151D01*
X144999242Y-92141142D01*
X144999247Y-92141144D01*
X145184404Y-92180500D01*
X145184405Y-92180500D01*
X145373694Y-92180500D01*
X145373696Y-92180500D01*
X145558853Y-92141144D01*
X145731780Y-92064151D01*
X145884921Y-91952888D01*
X146011583Y-91812216D01*
X146106229Y-91648284D01*
X146164724Y-91468256D01*
X146184510Y-91280000D01*
X146167206Y-91115367D01*
X146179775Y-91046642D01*
X146183129Y-91040429D01*
X146197242Y-91015986D01*
X146231350Y-90888692D01*
X146231350Y-89893308D01*
X146197242Y-89766014D01*
X146131350Y-89651886D01*
X146038164Y-89558700D01*
X145981100Y-89525754D01*
X145924037Y-89492808D01*
X145854496Y-89474175D01*
X145796742Y-89458700D01*
X145796741Y-89458700D01*
X145658957Y-89458700D01*
X145601331Y-89444496D01*
X145511413Y-89397303D01*
X145358036Y-89359500D01*
X145358035Y-89359500D01*
X145200065Y-89359500D01*
X145200064Y-89359500D01*
X145046686Y-89397303D01*
X145046685Y-89397303D01*
X144956769Y-89444496D01*
X144899143Y-89458700D01*
X144893142Y-89458700D01*
X144761358Y-89458700D01*
X144761356Y-89458700D01*
X144753302Y-89459761D01*
X144752971Y-89457251D01*
X144695786Y-89455887D01*
X144637926Y-89416721D01*
X144610426Y-89352490D01*
X144609550Y-89337777D01*
X144609550Y-88814056D01*
X144629235Y-88747017D01*
X144682039Y-88701262D01*
X144720946Y-88690698D01*
X144727797Y-88689999D01*
X144894334Y-88634814D01*
X145043656Y-88542712D01*
X145095530Y-88490837D01*
X145156851Y-88457353D01*
X145226543Y-88462337D01*
X145270891Y-88490838D01*
X145348129Y-88568076D01*
X145348133Y-88568079D01*
X145348135Y-88568081D01*
X145489602Y-88651744D01*
X145531224Y-88663836D01*
X145647426Y-88697597D01*
X145647429Y-88697597D01*
X145647431Y-88697598D01*
X145684306Y-88700500D01*
X145684314Y-88700500D01*
X146215686Y-88700500D01*
X146215694Y-88700500D01*
X146252569Y-88697598D01*
X146252571Y-88697597D01*
X146252573Y-88697597D01*
X146294191Y-88685505D01*
X146410398Y-88651744D01*
X146551865Y-88568081D01*
X146668081Y-88451865D01*
X146751744Y-88310398D01*
X146797598Y-88152569D01*
X146800500Y-88115694D01*
X146800500Y-87684306D01*
X146797598Y-87647431D01*
X146793999Y-87635044D01*
X146751745Y-87489606D01*
X146751744Y-87489603D01*
X146751744Y-87489602D01*
X146668081Y-87348135D01*
X146668079Y-87348133D01*
X146668076Y-87348129D01*
X146551870Y-87231923D01*
X146551862Y-87231917D01*
X146410396Y-87148255D01*
X146410393Y-87148254D01*
X146252573Y-87102402D01*
X146252567Y-87102401D01*
X146215701Y-87099500D01*
X146215694Y-87099500D01*
X146049931Y-87099500D01*
X145982892Y-87079815D01*
X145974443Y-87073875D01*
X145968718Y-87069482D01*
X145968716Y-87069480D01*
X145881904Y-87019360D01*
X145881904Y-87019359D01*
X145881900Y-87019358D01*
X145831785Y-86990423D01*
X145679057Y-86949499D01*
X145520943Y-86949499D01*
X145513347Y-86949499D01*
X145513331Y-86949500D01*
X145388733Y-86949500D01*
X145321694Y-86929815D01*
X145275939Y-86877011D01*
X145271028Y-86864506D01*
X145262106Y-86837583D01*
X145259814Y-86830666D01*
X145167712Y-86681344D01*
X145043656Y-86557288D01*
X144894334Y-86465186D01*
X144727797Y-86410001D01*
X144727795Y-86410000D01*
X144625010Y-86399500D01*
X143274998Y-86399500D01*
X143274981Y-86399501D01*
X143172203Y-86410000D01*
X143172200Y-86410001D01*
X143005668Y-86465185D01*
X143005663Y-86465187D01*
X142856342Y-86557289D01*
X142732289Y-86681342D01*
X142640187Y-86830663D01*
X142640185Y-86830668D01*
X142624829Y-86877011D01*
X142585001Y-86997203D01*
X142585001Y-86997204D01*
X142585000Y-86997204D01*
X142574500Y-87099983D01*
X142574500Y-88000001D01*
X142574501Y-88000019D01*
X142585000Y-88102796D01*
X142585001Y-88102799D01*
X142640185Y-88269331D01*
X142640187Y-88269336D01*
X142665511Y-88310393D01*
X142732288Y-88418656D01*
X142856344Y-88542712D01*
X143005666Y-88634814D01*
X143172203Y-88689999D01*
X143274991Y-88700500D01*
X143284543Y-88700499D01*
X143351581Y-88720178D01*
X143397340Y-88772979D01*
X143408550Y-88824499D01*
X143408550Y-89337777D01*
X143388865Y-89404816D01*
X143336061Y-89450571D01*
X143266903Y-89460515D01*
X143260406Y-89459182D01*
X143256743Y-89458700D01*
X143256742Y-89458700D01*
X143256740Y-89458700D01*
X143118957Y-89458700D01*
X143061331Y-89444496D01*
X142971413Y-89397303D01*
X142818036Y-89359500D01*
X142818035Y-89359500D01*
X142660065Y-89359500D01*
X142660064Y-89359500D01*
X142506686Y-89397303D01*
X142506685Y-89397303D01*
X142416769Y-89444496D01*
X142359143Y-89458700D01*
X142221356Y-89458700D01*
X142143422Y-89479582D01*
X142073572Y-89477919D01*
X142065867Y-89474939D01*
X142063264Y-89474175D01*
X141920850Y-89453700D01*
X141839430Y-89453700D01*
X141781804Y-89439496D01*
X141701415Y-89397304D01*
X141701414Y-89397303D01*
X141701413Y-89397303D01*
X141548036Y-89359500D01*
X141548035Y-89359500D01*
X141390065Y-89359500D01*
X141390064Y-89359500D01*
X141236686Y-89397303D01*
X141197293Y-89417978D01*
X141156295Y-89439496D01*
X141098670Y-89453700D01*
X141017247Y-89453700D01*
X140945307Y-89458845D01*
X140869911Y-89480983D01*
X140802885Y-89481781D01*
X140716743Y-89458700D01*
X140716742Y-89458700D01*
X140578957Y-89458700D01*
X140521331Y-89444496D01*
X140431413Y-89397303D01*
X140278036Y-89359500D01*
X140278035Y-89359500D01*
X140120065Y-89359500D01*
X140120064Y-89359500D01*
X139966686Y-89397303D01*
X139966685Y-89397303D01*
X139876769Y-89444496D01*
X139819143Y-89458700D01*
X139681356Y-89458700D01*
X139603422Y-89479582D01*
X139533572Y-89477919D01*
X139525867Y-89474939D01*
X139523264Y-89474175D01*
X139380850Y-89453700D01*
X139299430Y-89453700D01*
X139241804Y-89439496D01*
X139161415Y-89397304D01*
X139161414Y-89397303D01*
X139161413Y-89397303D01*
X139008036Y-89359500D01*
X139008035Y-89359500D01*
X138850065Y-89359500D01*
X138850064Y-89359500D01*
X138696686Y-89397303D01*
X138657293Y-89417978D01*
X138616295Y-89439496D01*
X138558670Y-89453700D01*
X138477247Y-89453700D01*
X138405307Y-89458845D01*
X138329911Y-89480983D01*
X138262885Y-89481781D01*
X138176743Y-89458700D01*
X138176742Y-89458700D01*
X138038957Y-89458700D01*
X137981331Y-89444496D01*
X137891413Y-89397303D01*
X137738036Y-89359500D01*
X137738035Y-89359500D01*
X137580065Y-89359500D01*
X137580064Y-89359500D01*
X137426686Y-89397303D01*
X137426685Y-89397303D01*
X137336769Y-89444496D01*
X137279143Y-89458700D01*
X137273142Y-89458700D01*
X137141358Y-89458700D01*
X137141356Y-89458700D01*
X137133302Y-89459761D01*
X137132971Y-89457251D01*
X137075786Y-89455887D01*
X137017926Y-89416721D01*
X136990426Y-89352490D01*
X136989550Y-89337777D01*
X136989550Y-89109995D01*
X136989550Y-89109993D01*
X136948627Y-88957266D01*
X136896596Y-88867145D01*
X136869574Y-88820340D01*
X136869571Y-88820336D01*
X136869570Y-88820334D01*
X136757766Y-88708530D01*
X136757765Y-88708529D01*
X136753435Y-88704199D01*
X136753424Y-88704189D01*
X132386818Y-84337583D01*
X132353333Y-84276260D01*
X132350499Y-84249902D01*
X132350499Y-84046857D01*
X132350498Y-84046847D01*
X132344055Y-83964956D01*
X132293022Y-83774499D01*
X132203506Y-83598814D01*
X132079420Y-83445580D01*
X132018644Y-83396364D01*
X131978934Y-83338879D01*
X131976606Y-83269048D01*
X132012401Y-83209044D01*
X132018637Y-83203640D01*
X132079420Y-83154420D01*
X132203506Y-83001186D01*
X132293022Y-82825501D01*
X132344055Y-82635044D01*
X132350500Y-82553153D01*
X132350499Y-81546848D01*
X132344055Y-81464956D01*
X132293022Y-81274499D01*
X132203506Y-81098814D01*
X132079420Y-80945580D01*
X131926186Y-80821494D01*
X131750501Y-80731978D01*
X131750500Y-80731977D01*
X131750499Y-80731977D01*
X131560042Y-80680944D01*
X131491041Y-80675514D01*
X131478153Y-80674500D01*
X131478151Y-80674500D01*
X130221857Y-80674500D01*
X130221838Y-80674501D01*
X130139957Y-80680944D01*
X129949500Y-80731977D01*
X129773815Y-80821493D01*
X129620580Y-80945580D01*
X129496493Y-81098815D01*
X129406977Y-81274500D01*
X129355944Y-81464957D01*
X129355944Y-81464958D01*
X129349500Y-81546841D01*
X129349500Y-82553142D01*
X129349501Y-82553161D01*
X129355944Y-82635042D01*
X129373920Y-82702127D01*
X129406978Y-82825501D01*
X129496494Y-83001186D01*
X129620580Y-83154420D01*
X129665040Y-83190423D01*
X129681354Y-83203634D01*
X129721066Y-83261122D01*
X129723393Y-83330953D01*
X129687597Y-83390956D01*
X129681354Y-83396366D01*
X129620580Y-83445580D01*
X129496493Y-83598815D01*
X129406977Y-83774500D01*
X129355944Y-83964957D01*
X129355944Y-83964958D01*
X129349500Y-84046841D01*
X129349500Y-85053142D01*
X129349501Y-85053161D01*
X129355944Y-85135042D01*
X129405144Y-85318656D01*
X129406978Y-85325501D01*
X129496494Y-85501186D01*
X129620580Y-85654420D01*
X129665192Y-85690546D01*
X129681354Y-85703634D01*
X129721066Y-85761122D01*
X129723393Y-85830953D01*
X129687597Y-85890956D01*
X129681354Y-85896366D01*
X129620580Y-85945580D01*
X129496493Y-86098815D01*
X129406977Y-86274500D01*
X129355944Y-86464957D01*
X129355944Y-86464958D01*
X129349500Y-86546841D01*
X129349500Y-87553142D01*
X129349501Y-87553161D01*
X129355944Y-87635042D01*
X129369147Y-87684313D01*
X129406978Y-87825501D01*
X129496494Y-88001186D01*
X129620580Y-88154420D01*
X129773814Y-88278506D01*
X129949499Y-88368022D01*
X130139956Y-88419055D01*
X130221847Y-88425500D01*
X131478152Y-88425499D01*
X131560044Y-88419055D01*
X131750501Y-88368022D01*
X131926186Y-88278506D01*
X131951634Y-88257898D01*
X132016117Y-88231008D01*
X132084906Y-88243248D01*
X132117349Y-88266584D01*
X133097784Y-89247019D01*
X133131269Y-89308342D01*
X133126285Y-89378034D01*
X133084413Y-89433967D01*
X133018949Y-89458384D01*
X133010103Y-89458700D01*
X132958957Y-89458700D01*
X132901331Y-89444496D01*
X132811413Y-89397303D01*
X132658036Y-89359500D01*
X132658035Y-89359500D01*
X132500065Y-89359500D01*
X132500064Y-89359500D01*
X132346686Y-89397303D01*
X132346685Y-89397303D01*
X132256769Y-89444496D01*
X132199143Y-89458700D01*
X132061356Y-89458700D01*
X131983422Y-89479582D01*
X131913572Y-89477919D01*
X131905867Y-89474939D01*
X131903264Y-89474175D01*
X131760850Y-89453700D01*
X131679430Y-89453700D01*
X131621804Y-89439496D01*
X131541415Y-89397304D01*
X131541414Y-89397303D01*
X131541413Y-89397303D01*
X131388036Y-89359500D01*
X131388035Y-89359500D01*
X131230065Y-89359500D01*
X131230064Y-89359500D01*
X131076686Y-89397303D01*
X131037293Y-89417978D01*
X130996295Y-89439496D01*
X130938670Y-89453700D01*
X130857247Y-89453700D01*
X130785307Y-89458845D01*
X130709911Y-89480983D01*
X130642885Y-89481781D01*
X130556743Y-89458700D01*
X130556742Y-89458700D01*
X130418957Y-89458700D01*
X130361331Y-89444496D01*
X130271413Y-89397303D01*
X130118036Y-89359500D01*
X130118035Y-89359500D01*
X129960065Y-89359500D01*
X129960064Y-89359500D01*
X129806686Y-89397303D01*
X129806685Y-89397303D01*
X129716769Y-89444496D01*
X129659143Y-89458700D01*
X129521358Y-89458700D01*
X129394062Y-89492808D01*
X129279936Y-89558700D01*
X129279933Y-89558702D01*
X129186752Y-89651883D01*
X129186750Y-89651886D01*
X129120858Y-89766012D01*
X129086750Y-89893308D01*
X120850500Y-89893308D01*
X120850500Y-79199994D01*
X132194357Y-79199994D01*
X132194357Y-79200005D01*
X132214890Y-79447812D01*
X132214892Y-79447824D01*
X132275936Y-79688881D01*
X132375826Y-79916606D01*
X132511833Y-80124782D01*
X132511836Y-80124785D01*
X132680256Y-80307738D01*
X132876491Y-80460474D01*
X133095190Y-80578828D01*
X133330386Y-80659571D01*
X133575665Y-80700500D01*
X133824335Y-80700500D01*
X134069614Y-80659571D01*
X134304810Y-80578828D01*
X134523509Y-80460474D01*
X134719744Y-80307738D01*
X134888164Y-80124785D01*
X135024173Y-79916607D01*
X135124063Y-79688881D01*
X135185108Y-79447821D01*
X135205643Y-79200000D01*
X135185108Y-78952179D01*
X135124063Y-78711119D01*
X135024173Y-78483393D01*
X134964801Y-78392517D01*
X134888166Y-78275217D01*
X134866557Y-78251744D01*
X134719744Y-78092262D01*
X134523509Y-77939526D01*
X134523507Y-77939525D01*
X134523506Y-77939524D01*
X134304811Y-77821172D01*
X134304802Y-77821169D01*
X134069616Y-77740429D01*
X133824335Y-77699500D01*
X133575665Y-77699500D01*
X133330383Y-77740429D01*
X133095197Y-77821169D01*
X133095188Y-77821172D01*
X132876493Y-77939524D01*
X132680257Y-78092261D01*
X132511833Y-78275217D01*
X132375826Y-78483393D01*
X132275936Y-78711118D01*
X132214892Y-78952175D01*
X132214890Y-78952187D01*
X132194357Y-79199994D01*
X120850500Y-79199994D01*
X120850500Y-74718713D01*
X127699500Y-74718713D01*
X127699500Y-75181286D01*
X127732753Y-75391239D01*
X127798444Y-75593414D01*
X127894951Y-75782820D01*
X128019890Y-75954786D01*
X128170213Y-76105109D01*
X128342179Y-76230048D01*
X128342181Y-76230049D01*
X128342184Y-76230051D01*
X128531588Y-76326557D01*
X128733757Y-76392246D01*
X128943713Y-76425500D01*
X128943714Y-76425500D01*
X129156286Y-76425500D01*
X129156287Y-76425500D01*
X129366243Y-76392246D01*
X129568412Y-76326557D01*
X129757816Y-76230051D01*
X129779789Y-76214086D01*
X129929786Y-76105109D01*
X129929788Y-76105106D01*
X129929792Y-76105104D01*
X130080104Y-75954792D01*
X130199683Y-75790204D01*
X130255011Y-75747540D01*
X130324624Y-75741561D01*
X130386420Y-75774166D01*
X130400313Y-75790199D01*
X130503925Y-75932809D01*
X130519896Y-75954792D01*
X130670213Y-76105109D01*
X130842179Y-76230048D01*
X130842181Y-76230049D01*
X130842184Y-76230051D01*
X131031588Y-76326557D01*
X131233757Y-76392246D01*
X131443713Y-76425500D01*
X131443714Y-76425500D01*
X131656286Y-76425500D01*
X131656287Y-76425500D01*
X131866243Y-76392246D01*
X132068412Y-76326557D01*
X132257816Y-76230051D01*
X132279789Y-76214086D01*
X132429786Y-76105109D01*
X132429788Y-76105106D01*
X132429792Y-76105104D01*
X132580104Y-75954792D01*
X132699683Y-75790204D01*
X132755011Y-75747540D01*
X132824624Y-75741561D01*
X132886420Y-75774166D01*
X132900313Y-75790199D01*
X133003925Y-75932809D01*
X133019896Y-75954792D01*
X133170213Y-76105109D01*
X133342179Y-76230048D01*
X133342181Y-76230049D01*
X133342184Y-76230051D01*
X133531588Y-76326557D01*
X133733757Y-76392246D01*
X133943713Y-76425500D01*
X133943714Y-76425500D01*
X134156286Y-76425500D01*
X134156287Y-76425500D01*
X134366243Y-76392246D01*
X134568412Y-76326557D01*
X134757816Y-76230051D01*
X134779789Y-76214086D01*
X134929786Y-76105109D01*
X134929788Y-76105106D01*
X134929792Y-76105104D01*
X135080104Y-75954792D01*
X135199683Y-75790204D01*
X135255011Y-75747540D01*
X135324624Y-75741561D01*
X135386420Y-75774166D01*
X135400313Y-75790199D01*
X135503925Y-75932809D01*
X135519896Y-75954792D01*
X135670213Y-76105109D01*
X135842179Y-76230048D01*
X135842181Y-76230049D01*
X135842184Y-76230051D01*
X136031588Y-76326557D01*
X136233757Y-76392246D01*
X136443713Y-76425500D01*
X136443714Y-76425500D01*
X136656286Y-76425500D01*
X136656287Y-76425500D01*
X136866243Y-76392246D01*
X137068412Y-76326557D01*
X137257816Y-76230051D01*
X137279789Y-76214086D01*
X137429786Y-76105109D01*
X137429788Y-76105106D01*
X137429792Y-76105104D01*
X137580104Y-75954792D01*
X137699683Y-75790204D01*
X137755011Y-75747540D01*
X137824624Y-75741561D01*
X137886420Y-75774166D01*
X137900313Y-75790199D01*
X138003925Y-75932809D01*
X138019896Y-75954792D01*
X138170213Y-76105109D01*
X138342179Y-76230048D01*
X138342181Y-76230049D01*
X138342184Y-76230051D01*
X138531588Y-76326557D01*
X138733757Y-76392246D01*
X138943713Y-76425500D01*
X138943714Y-76425500D01*
X139156286Y-76425500D01*
X139156287Y-76425500D01*
X139366243Y-76392246D01*
X139568412Y-76326557D01*
X139757816Y-76230051D01*
X139779789Y-76214086D01*
X139929786Y-76105109D01*
X139929788Y-76105106D01*
X139929792Y-76105104D01*
X140080104Y-75954792D01*
X140199683Y-75790204D01*
X140255011Y-75747540D01*
X140324624Y-75741561D01*
X140386420Y-75774166D01*
X140400313Y-75790199D01*
X140503925Y-75932809D01*
X140519896Y-75954792D01*
X140670213Y-76105109D01*
X140842179Y-76230048D01*
X140842181Y-76230049D01*
X140842184Y-76230051D01*
X141031588Y-76326557D01*
X141233757Y-76392246D01*
X141443713Y-76425500D01*
X141443714Y-76425500D01*
X141656286Y-76425500D01*
X141656287Y-76425500D01*
X141866243Y-76392246D01*
X142068412Y-76326557D01*
X142257816Y-76230051D01*
X142279789Y-76214086D01*
X142429786Y-76105109D01*
X142429788Y-76105106D01*
X142429792Y-76105104D01*
X142580104Y-75954792D01*
X142699683Y-75790204D01*
X142755011Y-75747540D01*
X142824624Y-75741561D01*
X142886420Y-75774166D01*
X142900313Y-75790199D01*
X143003925Y-75932809D01*
X143019896Y-75954792D01*
X143170213Y-76105109D01*
X143342179Y-76230048D01*
X143342181Y-76230049D01*
X143342184Y-76230051D01*
X143531588Y-76326557D01*
X143733757Y-76392246D01*
X143943713Y-76425500D01*
X143943714Y-76425500D01*
X144156286Y-76425500D01*
X144156287Y-76425500D01*
X144366243Y-76392246D01*
X144568412Y-76326557D01*
X144757816Y-76230051D01*
X144929792Y-76105104D01*
X145068604Y-75966291D01*
X145129923Y-75932809D01*
X145199615Y-75937793D01*
X145255549Y-75979664D01*
X145261821Y-75988878D01*
X145265185Y-75994333D01*
X145265186Y-75994334D01*
X145357288Y-76143656D01*
X145481344Y-76267712D01*
X145630666Y-76359814D01*
X145797203Y-76414999D01*
X145899991Y-76425500D01*
X147200008Y-76425499D01*
X147302797Y-76414999D01*
X147469334Y-76359814D01*
X147618656Y-76267712D01*
X147742712Y-76143656D01*
X147834814Y-75994334D01*
X147889999Y-75827797D01*
X147900500Y-75725009D01*
X147900499Y-74174992D01*
X147889999Y-74072203D01*
X147834814Y-73905666D01*
X147742712Y-73756344D01*
X147618656Y-73632288D01*
X147469334Y-73540186D01*
X147302797Y-73485001D01*
X147302795Y-73485000D01*
X147200010Y-73474500D01*
X145899998Y-73474500D01*
X145899981Y-73474501D01*
X145797203Y-73485000D01*
X145797200Y-73485001D01*
X145630668Y-73540185D01*
X145630663Y-73540187D01*
X145481342Y-73632289D01*
X145357289Y-73756342D01*
X145261821Y-73911121D01*
X145209873Y-73957845D01*
X145140910Y-73969068D01*
X145076828Y-73941224D01*
X145068601Y-73933705D01*
X144929786Y-73794890D01*
X144757820Y-73669951D01*
X144568414Y-73573444D01*
X144568413Y-73573443D01*
X144568412Y-73573443D01*
X144366243Y-73507754D01*
X144366241Y-73507753D01*
X144366240Y-73507753D01*
X144204957Y-73482208D01*
X144156287Y-73474500D01*
X143943713Y-73474500D01*
X143895042Y-73482208D01*
X143733760Y-73507753D01*
X143531585Y-73573444D01*
X143342179Y-73669951D01*
X143170213Y-73794890D01*
X143019894Y-73945209D01*
X143019890Y-73945214D01*
X142900318Y-74109793D01*
X142844989Y-74152459D01*
X142775375Y-74158438D01*
X142713580Y-74125833D01*
X142699682Y-74109793D01*
X142580109Y-73945214D01*
X142580105Y-73945209D01*
X142429786Y-73794890D01*
X142257820Y-73669951D01*
X142068414Y-73573444D01*
X142068413Y-73573443D01*
X142068412Y-73573443D01*
X141866243Y-73507754D01*
X141866241Y-73507753D01*
X141866240Y-73507753D01*
X141704957Y-73482208D01*
X141656287Y-73474500D01*
X141443713Y-73474500D01*
X141395042Y-73482208D01*
X141233760Y-73507753D01*
X141031585Y-73573444D01*
X140842179Y-73669951D01*
X140670213Y-73794890D01*
X140519894Y-73945209D01*
X140519890Y-73945214D01*
X140400318Y-74109793D01*
X140344989Y-74152459D01*
X140275375Y-74158438D01*
X140213580Y-74125833D01*
X140199682Y-74109793D01*
X140080109Y-73945214D01*
X140080105Y-73945209D01*
X139929786Y-73794890D01*
X139757820Y-73669951D01*
X139568414Y-73573444D01*
X139568413Y-73573443D01*
X139568412Y-73573443D01*
X139366243Y-73507754D01*
X139366241Y-73507753D01*
X139366240Y-73507753D01*
X139204957Y-73482208D01*
X139156287Y-73474500D01*
X138943713Y-73474500D01*
X138895042Y-73482208D01*
X138733760Y-73507753D01*
X138531585Y-73573444D01*
X138342179Y-73669951D01*
X138170213Y-73794890D01*
X138019894Y-73945209D01*
X138019890Y-73945214D01*
X137900318Y-74109793D01*
X137844989Y-74152459D01*
X137775375Y-74158438D01*
X137713580Y-74125833D01*
X137699682Y-74109793D01*
X137580109Y-73945214D01*
X137580105Y-73945209D01*
X137429786Y-73794890D01*
X137257820Y-73669951D01*
X137068414Y-73573444D01*
X137068413Y-73573443D01*
X137068412Y-73573443D01*
X136866243Y-73507754D01*
X136866241Y-73507753D01*
X136866240Y-73507753D01*
X136704957Y-73482208D01*
X136656287Y-73474500D01*
X136443713Y-73474500D01*
X136395042Y-73482208D01*
X136233760Y-73507753D01*
X136031585Y-73573444D01*
X135842179Y-73669951D01*
X135670213Y-73794890D01*
X135519894Y-73945209D01*
X135519890Y-73945214D01*
X135400318Y-74109793D01*
X135344989Y-74152459D01*
X135275375Y-74158438D01*
X135213580Y-74125833D01*
X135199682Y-74109793D01*
X135080109Y-73945214D01*
X135080105Y-73945209D01*
X134929786Y-73794890D01*
X134757820Y-73669951D01*
X134568414Y-73573444D01*
X134568413Y-73573443D01*
X134568412Y-73573443D01*
X134366243Y-73507754D01*
X134366241Y-73507753D01*
X134366240Y-73507753D01*
X134204957Y-73482208D01*
X134156287Y-73474500D01*
X133943713Y-73474500D01*
X133895042Y-73482208D01*
X133733760Y-73507753D01*
X133531585Y-73573444D01*
X133342179Y-73669951D01*
X133170213Y-73794890D01*
X133019894Y-73945209D01*
X133019890Y-73945214D01*
X132900318Y-74109793D01*
X132844989Y-74152459D01*
X132775375Y-74158438D01*
X132713580Y-74125833D01*
X132699682Y-74109793D01*
X132580109Y-73945214D01*
X132580105Y-73945209D01*
X132429786Y-73794890D01*
X132257820Y-73669951D01*
X132068414Y-73573444D01*
X132068413Y-73573443D01*
X132068412Y-73573443D01*
X131866243Y-73507754D01*
X131866241Y-73507753D01*
X131866240Y-73507753D01*
X131704957Y-73482208D01*
X131656287Y-73474500D01*
X131443713Y-73474500D01*
X131395042Y-73482208D01*
X131233760Y-73507753D01*
X131031585Y-73573444D01*
X130842179Y-73669951D01*
X130670213Y-73794890D01*
X130519894Y-73945209D01*
X130519890Y-73945214D01*
X130400318Y-74109793D01*
X130344989Y-74152459D01*
X130275375Y-74158438D01*
X130213580Y-74125833D01*
X130199682Y-74109793D01*
X130080109Y-73945214D01*
X130080105Y-73945209D01*
X129929786Y-73794890D01*
X129757820Y-73669951D01*
X129568414Y-73573444D01*
X129568413Y-73573443D01*
X129568412Y-73573443D01*
X129366243Y-73507754D01*
X129366241Y-73507753D01*
X129366240Y-73507753D01*
X129204957Y-73482208D01*
X129156287Y-73474500D01*
X128943713Y-73474500D01*
X128895042Y-73482208D01*
X128733760Y-73507753D01*
X128531585Y-73573444D01*
X128342179Y-73669951D01*
X128170213Y-73794890D01*
X128019890Y-73945213D01*
X127894951Y-74117179D01*
X127798444Y-74306585D01*
X127732753Y-74508760D01*
X127699500Y-74718713D01*
X120850500Y-74718713D01*
X120850500Y-67841289D01*
X120870185Y-67774250D01*
X120922989Y-67728495D01*
X120992147Y-67718551D01*
X121055703Y-67747576D01*
X121078309Y-67773468D01*
X121111833Y-67824782D01*
X121111836Y-67824785D01*
X121280256Y-68007738D01*
X121476491Y-68160474D01*
X121695190Y-68278828D01*
X121930386Y-68359571D01*
X122175665Y-68400500D01*
X122424335Y-68400500D01*
X122669614Y-68359571D01*
X122904810Y-68278828D01*
X123123509Y-68160474D01*
X123319744Y-68007738D01*
X123488164Y-67824785D01*
X123624173Y-67616607D01*
X123724063Y-67388881D01*
X123785108Y-67147821D01*
X123805643Y-66900000D01*
X123785108Y-66652179D01*
X123724063Y-66411119D01*
X123624173Y-66183393D01*
X123488166Y-65975217D01*
X123469014Y-65954413D01*
X123319744Y-65792262D01*
X123319739Y-65792258D01*
X123319737Y-65792256D01*
X123229926Y-65722353D01*
X123189113Y-65665643D01*
X123185438Y-65595870D01*
X123220070Y-65535187D01*
X123282011Y-65502860D01*
X123306088Y-65500500D01*
X149350500Y-65500500D01*
X149417539Y-65520185D01*
G37*
%TD.AperFunction*%
%TD*%
%TA.AperFunction,Conductor*%
%TO.N,4S_VCC*%
G36*
X127816091Y-115419685D02*
G01*
X127836229Y-115435817D01*
X130825001Y-118390626D01*
X136563440Y-124063856D01*
X136597275Y-124124987D01*
X136600259Y-124151411D01*
X136665893Y-137146968D01*
X136744797Y-152769876D01*
X136725453Y-152837012D01*
X136672880Y-152883033D01*
X136620800Y-152894500D01*
X126724000Y-152894500D01*
X126723991Y-152894500D01*
X126723990Y-152894501D01*
X126616549Y-152906052D01*
X126616537Y-152906054D01*
X126565027Y-152917260D01*
X126462502Y-152951383D01*
X126462496Y-152951386D01*
X126341462Y-153029171D01*
X126341451Y-153029179D01*
X126288659Y-153074923D01*
X126194433Y-153183664D01*
X126194430Y-153183668D01*
X126134664Y-153314534D01*
X126114976Y-153381582D01*
X126094500Y-153524001D01*
X126094500Y-157052812D01*
X126112506Y-157186526D01*
X126129858Y-157249787D01*
X126129863Y-157249801D01*
X126182598Y-157373985D01*
X126182601Y-157373990D01*
X126182602Y-157373992D01*
X126251111Y-157459017D01*
X126272874Y-157486027D01*
X126322392Y-157532135D01*
X126323594Y-157533295D01*
X126324008Y-157533640D01*
X126324010Y-157533642D01*
X126324013Y-157533645D01*
X126348706Y-157550791D01*
X126442190Y-157615707D01*
X126442193Y-157615708D01*
X126442194Y-157615708D01*
X126442195Y-157615709D01*
X126578710Y-157661154D01*
X126647468Y-157673563D01*
X126647470Y-157673563D01*
X126647490Y-157673563D01*
X126648025Y-157673612D01*
X126649678Y-157673642D01*
X126652808Y-157673753D01*
X126700580Y-157675461D01*
X126714215Y-157680000D01*
X126752129Y-157680000D01*
X127084335Y-157680000D01*
X127113689Y-157684987D01*
X127113956Y-157683819D01*
X127120743Y-157685367D01*
X127120745Y-157685368D01*
X127156596Y-157689407D01*
X127299996Y-157705565D01*
X127300000Y-157705565D01*
X127300004Y-157705565D01*
X127419503Y-157692100D01*
X127479255Y-157685368D01*
X127479258Y-157685366D01*
X127486044Y-157683819D01*
X127486310Y-157684987D01*
X127515665Y-157680000D01*
X128084335Y-157680000D01*
X128113689Y-157684987D01*
X128113956Y-157683819D01*
X128120743Y-157685367D01*
X128120745Y-157685368D01*
X128156596Y-157689407D01*
X128299996Y-157705565D01*
X128300000Y-157705565D01*
X128300004Y-157705565D01*
X128419503Y-157692100D01*
X128479255Y-157685368D01*
X128479258Y-157685366D01*
X128486044Y-157683819D01*
X128486310Y-157684987D01*
X128515665Y-157680000D01*
X129084335Y-157680000D01*
X129113689Y-157684987D01*
X129113956Y-157683819D01*
X129120743Y-157685367D01*
X129120745Y-157685368D01*
X129156596Y-157689407D01*
X129299996Y-157705565D01*
X129300000Y-157705565D01*
X129300004Y-157705565D01*
X129419503Y-157692100D01*
X129479255Y-157685368D01*
X129479258Y-157685366D01*
X129486044Y-157683819D01*
X129486310Y-157684987D01*
X129515665Y-157680000D01*
X130084335Y-157680000D01*
X130113689Y-157684987D01*
X130113956Y-157683819D01*
X130120743Y-157685367D01*
X130120745Y-157685368D01*
X130156596Y-157689407D01*
X130299996Y-157705565D01*
X130300000Y-157705565D01*
X130300004Y-157705565D01*
X130419503Y-157692100D01*
X130479255Y-157685368D01*
X130479258Y-157685366D01*
X130486044Y-157683819D01*
X130486310Y-157684987D01*
X130515665Y-157680000D01*
X131084335Y-157680000D01*
X131113689Y-157684987D01*
X131113956Y-157683819D01*
X131120743Y-157685367D01*
X131120745Y-157685368D01*
X131156596Y-157689407D01*
X131299996Y-157705565D01*
X131300000Y-157705565D01*
X131300004Y-157705565D01*
X131419503Y-157692100D01*
X131479255Y-157685368D01*
X131479258Y-157685366D01*
X131486044Y-157683819D01*
X131486310Y-157684987D01*
X131515665Y-157680000D01*
X132084335Y-157680000D01*
X132113689Y-157684987D01*
X132113956Y-157683819D01*
X132120743Y-157685367D01*
X132120745Y-157685368D01*
X132156596Y-157689407D01*
X132299996Y-157705565D01*
X132300000Y-157705565D01*
X132300004Y-157705565D01*
X132419503Y-157692100D01*
X132479255Y-157685368D01*
X132479258Y-157685366D01*
X132486044Y-157683819D01*
X132486310Y-157684987D01*
X132515665Y-157680000D01*
X132670999Y-157680000D01*
X132738038Y-157699685D01*
X132783793Y-157752489D01*
X132794999Y-157804000D01*
X132795000Y-162675500D01*
X132775315Y-162742539D01*
X132722511Y-162788294D01*
X132671000Y-162799500D01*
X122913817Y-162799500D01*
X122846778Y-162779815D01*
X122801023Y-162727011D01*
X122791079Y-162657853D01*
X122820104Y-162594297D01*
X122873554Y-162558219D01*
X122977133Y-162522659D01*
X123104810Y-162478828D01*
X123323509Y-162360474D01*
X123519744Y-162207738D01*
X123688164Y-162024785D01*
X123824173Y-161816607D01*
X123924063Y-161588881D01*
X123985108Y-161347821D01*
X124005643Y-161100000D01*
X123985108Y-160852179D01*
X123985107Y-160852175D01*
X123924063Y-160611118D01*
X123824173Y-160383393D01*
X123688166Y-160175217D01*
X123666557Y-160151744D01*
X123519744Y-159992262D01*
X123323509Y-159839526D01*
X123323507Y-159839525D01*
X123323506Y-159839524D01*
X123104811Y-159721172D01*
X123104802Y-159721169D01*
X122869616Y-159640429D01*
X122624335Y-159599500D01*
X122375665Y-159599500D01*
X122130383Y-159640429D01*
X121895197Y-159721169D01*
X121895188Y-159721172D01*
X121676493Y-159839524D01*
X121480257Y-159992261D01*
X121311833Y-160175217D01*
X121175826Y-160383393D01*
X121088056Y-160583490D01*
X121043100Y-160636976D01*
X120976364Y-160657666D01*
X120909036Y-160638991D01*
X120862493Y-160586881D01*
X120850500Y-160533680D01*
X120850500Y-115524000D01*
X120870185Y-115456961D01*
X120922989Y-115411206D01*
X120974500Y-115400000D01*
X127749052Y-115400000D01*
X127816091Y-115419685D01*
G37*
%TD.AperFunction*%
%TD*%
%TA.AperFunction,Conductor*%
%TO.N,SWITCH INPUT*%
G36*
X141543039Y-153419685D02*
G01*
X141588794Y-153472489D01*
X141600000Y-153524000D01*
X141600000Y-162675500D01*
X141580315Y-162742539D01*
X141527511Y-162788294D01*
X141476000Y-162799500D01*
X133424500Y-162799500D01*
X133357461Y-162779815D01*
X133311706Y-162727011D01*
X133300500Y-162675500D01*
X133300499Y-157627129D01*
X133300498Y-157627123D01*
X133294091Y-157567516D01*
X133243797Y-157432671D01*
X133243793Y-157432664D01*
X133157547Y-157317455D01*
X133157544Y-157317452D01*
X133042335Y-157231206D01*
X133042328Y-157231202D01*
X132907482Y-157180908D01*
X132907483Y-157180908D01*
X132847883Y-157174501D01*
X132847881Y-157174500D01*
X132847873Y-157174500D01*
X132847864Y-157174500D01*
X126752129Y-157174500D01*
X126752108Y-157174502D01*
X126737247Y-157176099D01*
X126668489Y-157163690D01*
X126617354Y-157116076D01*
X126600000Y-157052809D01*
X126600000Y-153524000D01*
X126619685Y-153456961D01*
X126672489Y-153411206D01*
X126724000Y-153400000D01*
X141476000Y-153400000D01*
X141543039Y-153419685D01*
G37*
%TD.AperFunction*%
%TD*%
M02*
