%TF.GenerationSoftware,KiCad,Pcbnew,8.0.6*%
%TF.CreationDate,2025-10-25T17:28:24-05:00*%
%TF.ProjectId,Eyeliner-PCB-V2,4579656c-696e-4657-922d-5043422d5632,rev?*%
%TF.SameCoordinates,Original*%
%TF.FileFunction,Legend,Bot*%
%TF.FilePolarity,Positive*%
%FSLAX46Y46*%
G04 Gerber Fmt 4.6, Leading zero omitted, Abs format (unit mm)*
G04 Created by KiCad (PCBNEW 8.0.6) date 2025-10-25 17:28:24*
%MOMM*%
%LPD*%
G01*
G04 APERTURE LIST*
%ADD10C,0.150000*%
%ADD11C,0.120000*%
G04 APERTURE END LIST*
D10*
X144290476Y-83054819D02*
X144623809Y-82578628D01*
X144861904Y-83054819D02*
X144861904Y-82054819D01*
X144861904Y-82054819D02*
X144480952Y-82054819D01*
X144480952Y-82054819D02*
X144385714Y-82102438D01*
X144385714Y-82102438D02*
X144338095Y-82150057D01*
X144338095Y-82150057D02*
X144290476Y-82245295D01*
X144290476Y-82245295D02*
X144290476Y-82388152D01*
X144290476Y-82388152D02*
X144338095Y-82483390D01*
X144338095Y-82483390D02*
X144385714Y-82531009D01*
X144385714Y-82531009D02*
X144480952Y-82578628D01*
X144480952Y-82578628D02*
X144861904Y-82578628D01*
X144100000Y-83150057D02*
X143338095Y-83150057D01*
X142719047Y-83007200D02*
X142814285Y-83054819D01*
X142814285Y-83054819D02*
X143004761Y-83054819D01*
X143004761Y-83054819D02*
X143099999Y-83007200D01*
X143099999Y-83007200D02*
X143147618Y-82911961D01*
X143147618Y-82911961D02*
X143147618Y-82531009D01*
X143147618Y-82531009D02*
X143099999Y-82435771D01*
X143099999Y-82435771D02*
X143004761Y-82388152D01*
X143004761Y-82388152D02*
X142814285Y-82388152D01*
X142814285Y-82388152D02*
X142719047Y-82435771D01*
X142719047Y-82435771D02*
X142671428Y-82531009D01*
X142671428Y-82531009D02*
X142671428Y-82626247D01*
X142671428Y-82626247D02*
X143147618Y-82721485D01*
X142290475Y-83007200D02*
X142195237Y-83054819D01*
X142195237Y-83054819D02*
X142004761Y-83054819D01*
X142004761Y-83054819D02*
X141909523Y-83007200D01*
X141909523Y-83007200D02*
X141861904Y-82911961D01*
X141861904Y-82911961D02*
X141861904Y-82864342D01*
X141861904Y-82864342D02*
X141909523Y-82769104D01*
X141909523Y-82769104D02*
X142004761Y-82721485D01*
X142004761Y-82721485D02*
X142147618Y-82721485D01*
X142147618Y-82721485D02*
X142242856Y-82673866D01*
X142242856Y-82673866D02*
X142290475Y-82578628D01*
X142290475Y-82578628D02*
X142290475Y-82531009D01*
X142290475Y-82531009D02*
X142242856Y-82435771D01*
X142242856Y-82435771D02*
X142147618Y-82388152D01*
X142147618Y-82388152D02*
X142004761Y-82388152D01*
X142004761Y-82388152D02*
X141909523Y-82435771D01*
X141004761Y-83007200D02*
X141099999Y-83054819D01*
X141099999Y-83054819D02*
X141290475Y-83054819D01*
X141290475Y-83054819D02*
X141385713Y-83007200D01*
X141385713Y-83007200D02*
X141433332Y-82959580D01*
X141433332Y-82959580D02*
X141480951Y-82864342D01*
X141480951Y-82864342D02*
X141480951Y-82578628D01*
X141480951Y-82578628D02*
X141433332Y-82483390D01*
X141433332Y-82483390D02*
X141385713Y-82435771D01*
X141385713Y-82435771D02*
X141290475Y-82388152D01*
X141290475Y-82388152D02*
X141099999Y-82388152D01*
X141099999Y-82388152D02*
X141004761Y-82435771D01*
X140814285Y-83150057D02*
X140052380Y-83150057D01*
X139861903Y-82150057D02*
X139814284Y-82102438D01*
X139814284Y-82102438D02*
X139719046Y-82054819D01*
X139719046Y-82054819D02*
X139480951Y-82054819D01*
X139480951Y-82054819D02*
X139385713Y-82102438D01*
X139385713Y-82102438D02*
X139338094Y-82150057D01*
X139338094Y-82150057D02*
X139290475Y-82245295D01*
X139290475Y-82245295D02*
X139290475Y-82340533D01*
X139290475Y-82340533D02*
X139338094Y-82483390D01*
X139338094Y-82483390D02*
X139909522Y-83054819D01*
X139909522Y-83054819D02*
X139290475Y-83054819D01*
X138488094Y-87054819D02*
X138488094Y-86054819D01*
X138488094Y-86054819D02*
X138249999Y-86054819D01*
X138249999Y-86054819D02*
X138107142Y-86102438D01*
X138107142Y-86102438D02*
X138011904Y-86197676D01*
X138011904Y-86197676D02*
X137964285Y-86292914D01*
X137964285Y-86292914D02*
X137916666Y-86483390D01*
X137916666Y-86483390D02*
X137916666Y-86626247D01*
X137916666Y-86626247D02*
X137964285Y-86816723D01*
X137964285Y-86816723D02*
X138011904Y-86911961D01*
X138011904Y-86911961D02*
X138107142Y-87007200D01*
X138107142Y-87007200D02*
X138249999Y-87054819D01*
X138249999Y-87054819D02*
X138488094Y-87054819D01*
X137583332Y-86054819D02*
X136964285Y-86054819D01*
X136964285Y-86054819D02*
X137297618Y-86435771D01*
X137297618Y-86435771D02*
X137154761Y-86435771D01*
X137154761Y-86435771D02*
X137059523Y-86483390D01*
X137059523Y-86483390D02*
X137011904Y-86531009D01*
X137011904Y-86531009D02*
X136964285Y-86626247D01*
X136964285Y-86626247D02*
X136964285Y-86864342D01*
X136964285Y-86864342D02*
X137011904Y-86959580D01*
X137011904Y-86959580D02*
X137059523Y-87007200D01*
X137059523Y-87007200D02*
X137154761Y-87054819D01*
X137154761Y-87054819D02*
X137440475Y-87054819D01*
X137440475Y-87054819D02*
X137535713Y-87007200D01*
X137535713Y-87007200D02*
X137583332Y-86959580D01*
X135438094Y-116054819D02*
X135438094Y-115054819D01*
X135438094Y-115054819D02*
X135199999Y-115054819D01*
X135199999Y-115054819D02*
X135057142Y-115102438D01*
X135057142Y-115102438D02*
X134961904Y-115197676D01*
X134961904Y-115197676D02*
X134914285Y-115292914D01*
X134914285Y-115292914D02*
X134866666Y-115483390D01*
X134866666Y-115483390D02*
X134866666Y-115626247D01*
X134866666Y-115626247D02*
X134914285Y-115816723D01*
X134914285Y-115816723D02*
X134961904Y-115911961D01*
X134961904Y-115911961D02*
X135057142Y-116007200D01*
X135057142Y-116007200D02*
X135199999Y-116054819D01*
X135199999Y-116054819D02*
X135438094Y-116054819D01*
X133914285Y-116054819D02*
X134485713Y-116054819D01*
X134199999Y-116054819D02*
X134199999Y-115054819D01*
X134199999Y-115054819D02*
X134295237Y-115197676D01*
X134295237Y-115197676D02*
X134390475Y-115292914D01*
X134390475Y-115292914D02*
X134485713Y-115340533D01*
D11*
%TO.C,R_PU_SCK1*%
X133372936Y-105110000D02*
X134827064Y-105110000D01*
X133372936Y-103290000D02*
X134827064Y-103290000D01*
%TO.C,R_PU_Accel_2*%
X136827064Y-97160000D02*
X135372936Y-97160000D01*
X136827064Y-95340000D02*
X135372936Y-95340000D01*
%TO.C,R_esc_R_PU_Accel_2*%
X136777064Y-92840000D02*
X135322936Y-92840000D01*
X136777064Y-94660000D02*
X135322936Y-94660000D01*
%TO.C,R_esc_2*%
X140640000Y-86727064D02*
X140640000Y-85272936D01*
X142460000Y-86727064D02*
X142460000Y-85272936D01*
%TO.C,D3*%
X138950000Y-88410000D02*
X138950000Y-86450000D01*
X140150000Y-88410000D02*
X140150000Y-86450000D01*
X138950000Y-88410000D02*
X140150000Y-88410000D01*
%TO.C,D1*%
X132550000Y-113450000D02*
X132550000Y-119260000D01*
X136850000Y-113450000D02*
X136850000Y-119260000D01*
X132550000Y-119260000D02*
X136850000Y-119260000D01*
%TO.C,C_esc_8*%
X141910000Y-135590000D02*
X141910000Y-131840000D01*
X141910000Y-138610000D02*
X141910000Y-142360000D01*
X141910000Y-131840000D02*
X132454437Y-131840000D01*
X141910000Y-142360000D02*
X132454437Y-142360000D01*
X132454437Y-131840000D02*
X131390000Y-132904437D01*
X131390000Y-135590000D02*
X131390000Y-132904437D01*
X132454437Y-142360000D02*
X131390000Y-141295563D01*
X131390000Y-138610000D02*
X131390000Y-141295563D01*
X130525000Y-139235000D02*
X130525000Y-140485000D01*
X131150000Y-139860000D02*
X129900000Y-139860000D01*
%TO.C,C_esc_7*%
X141910000Y-147090000D02*
X141910000Y-143340000D01*
X141910000Y-150110000D02*
X141910000Y-153860000D01*
X141910000Y-143340000D02*
X132454437Y-143340000D01*
X141910000Y-153860000D02*
X132454437Y-153860000D01*
X132454437Y-143340000D02*
X131390000Y-144404437D01*
X131390000Y-147090000D02*
X131390000Y-144404437D01*
X132454437Y-153860000D02*
X131390000Y-152795563D01*
X131390000Y-150110000D02*
X131390000Y-152795563D01*
X130525000Y-150735000D02*
X130525000Y-151985000D01*
X131150000Y-151360000D02*
X129900000Y-151360000D01*
%TO.C,C_esc_6*%
X124690000Y-110340000D02*
X120940000Y-110340000D01*
X127710000Y-110340000D02*
X131460000Y-110340000D01*
X120940000Y-110340000D02*
X120940000Y-119795563D01*
X131460000Y-110340000D02*
X131460000Y-119795563D01*
X120940000Y-119795563D02*
X122004437Y-120860000D01*
X124690000Y-120860000D02*
X122004437Y-120860000D01*
X131460000Y-119795563D02*
X130395563Y-120860000D01*
X127710000Y-120860000D02*
X130395563Y-120860000D01*
X128335000Y-121725000D02*
X129585000Y-121725000D01*
X128960000Y-121100000D02*
X128960000Y-122350000D01*
%TO.C,C_esc_5*%
X141860000Y-124090000D02*
X141860000Y-120340000D01*
X141860000Y-127110000D02*
X141860000Y-130860000D01*
X141860000Y-120340000D02*
X132404437Y-120340000D01*
X141860000Y-130860000D02*
X132404437Y-130860000D01*
X132404437Y-120340000D02*
X131340000Y-121404437D01*
X131340000Y-124090000D02*
X131340000Y-121404437D01*
X132404437Y-130860000D02*
X131340000Y-129795563D01*
X131340000Y-127110000D02*
X131340000Y-129795563D01*
X130475000Y-127735000D02*
X130475000Y-128985000D01*
X131100000Y-128360000D02*
X129850000Y-128360000D01*
%TO.C,Cout1*%
X144965000Y-116118748D02*
X144965000Y-117541252D01*
X146785000Y-116118748D02*
X146785000Y-117541252D01*
%TO.C,Cin1*%
X139385000Y-116118748D02*
X139385000Y-117541252D01*
X137565000Y-116118748D02*
X137565000Y-117541252D01*
%TO.C,Ca_2_1*%
X141390000Y-112411252D02*
X141390000Y-110988748D01*
X143210000Y-112411252D02*
X143210000Y-110988748D01*
%TO.C,Ca_1_1*%
X145710000Y-112411252D02*
X145710000Y-110988748D01*
X143890000Y-112411252D02*
X143890000Y-110988748D01*
%TD*%
M02*
