M48
; DRILL file {KiCad 8.0.6} date 2025-10-25T17:28:52-0500
; FORMAT={-:-/ absolute / inch / decimal}
; #@! TF.CreationDate,2025-10-25T17:28:52-05:00
; #@! TF.GenerationSoftware,Kicad,Pcbnew,8.0.6
; #@! TF.FileFunction,Plated,1,4,PTH
FMAT,2
INCH
; #@! TA.AperFunction,Plated,PTH,ComponentDrill
T1C0.0079
; #@! TA.AperFunction,Plated,PTH,ViaDrill
T2C0.0118
; #@! TA.AperFunction,Plated,PTH,ComponentDrill
T3C0.0236
; #@! TA.AperFunction,Plated,PTH,ComponentDrill
T4C0.0335
; #@! TA.AperFunction,Plated,PTH,ComponentDrill
T5C0.0374
; #@! TA.AperFunction,Plated,PTH,ComponentDrill
T6C0.0394
; #@! TA.AperFunction,Plated,PTH,ComponentDrill
T7C0.1575
; #@! TA.AperFunction,Plated,PTH,ComponentDrill
T8C0.1791
%
G90
G05
T1
X5.5945Y-4.5827
X5.5945Y-4.6232
X5.5945Y-4.6638
T2
X4.9921Y-3.7087
X5.0118Y-6.1063
X5.0118Y-6.1417
X5.0118Y-6.1772
X5.0118Y-6.3031
X5.0118Y-6.3386
X5.0118Y-6.374
X5.0512Y-6.1063
X5.0512Y-6.1417
X5.0512Y-6.1772
X5.0512Y-6.3031
X5.0512Y-6.3386
X5.0512Y-6.374
X5.0906Y-6.1063
X5.0906Y-6.1417
X5.0906Y-6.1772
X5.0906Y-6.3031
X5.0906Y-6.3386
X5.0906Y-6.374
X5.1024Y-3.8346
X5.1299Y-6.1063
X5.1299Y-6.1417
X5.1299Y-6.1772
X5.1299Y-6.3031
X5.1299Y-6.3386
X5.1299Y-6.374
X5.1516Y-3.2303
X5.1693Y-6.1063
X5.1693Y-6.1417
X5.1693Y-6.1772
X5.1693Y-6.3031
X5.1693Y-6.3386
X5.1693Y-6.374
X5.2087Y-6.1063
X5.2087Y-6.1417
X5.2087Y-6.1772
X5.2087Y-6.3031
X5.2087Y-6.3386
X5.2087Y-6.374
X5.2185Y-4.1024
X5.2972Y-3.689
X5.2972Y-3.7913
X5.3031Y-4.4665
X5.3031Y-4.6358
X5.3406Y-4.1024
X5.3917Y-4.372
X5.4055Y-4.4843
X5.4193Y-3.689
X5.4193Y-3.7913
X5.4469Y-4.4862
X5.4518Y-4.5381
X5.4518Y-4.6611
X5.4803Y-4.2884
X5.5069Y-4.315
X5.5226Y-4.4774
X5.6024Y-4.3361
X5.7008Y-4.3361
X5.7431Y-4.6611
X5.7727Y-4.4803
X5.781Y-4.3267
X5.7982Y-4.5263
X5.8297Y-4.311
X5.8484Y-4.2815
X5.8661Y-4.311
X5.873Y-4.4793
T3
X5.1196Y-3.5437
X5.1196Y-4.2437
X5.1696Y-3.5437
X5.1696Y-4.2437
X5.2196Y-3.5437
X5.2196Y-4.2437
X5.2696Y-3.5437
X5.2696Y-4.2437
X5.3196Y-3.5437
X5.3196Y-4.2437
X5.3696Y-3.5437
X5.3696Y-4.2437
X5.4196Y-3.5437
X5.4196Y-4.2437
X5.4696Y-3.5437
X5.5196Y-3.5437
X5.5196Y-4.2437
X5.5696Y-3.5437
X5.6196Y-3.5437
X5.6196Y-4.2437
X5.6696Y-3.5437
X5.7196Y-3.5437
X5.7196Y-4.2437
T4
X5.1196Y-3.5937
X5.1196Y-4.1937
X5.2196Y-3.5937
X5.2196Y-4.1937
X5.3196Y-3.5937
X5.3196Y-4.1937
X5.4196Y-3.5937
X5.4196Y-4.1937
X5.5196Y-3.5937
X5.5196Y-4.1937
X5.6196Y-3.5937
X5.6196Y-4.1937
X5.7196Y-3.5937
X5.7196Y-4.1937
T5
X4.8573Y-3.8681
X4.8573Y-3.9665
X4.8573Y-4.065
X4.8573Y-4.1634
X4.9823Y-2.9508
X5.0807Y-2.9508
X5.1791Y-2.9508
X5.2776Y-2.9508
X5.376Y-2.9508
X5.4744Y-2.9508
X5.5728Y-2.9508
X5.6713Y-2.9508
X5.7697Y-2.9508
T6
X5.8439Y-3.2972
X5.8447Y-3.1299
T8
X5.437Y-6.251
X5.7205Y-6.251
T7
G00X4.8819Y-5.1969
M15
G01X4.8819Y-5.0591
M16
G05
G00X4.8819Y-5.7874
M15
G01X4.8819Y-5.6496
M16
G05
G00X5.7638Y-5.1969
M15
G01X5.7638Y-5.0591
M16
G05
G00X5.7638Y-5.7776
M15
G01X5.7638Y-5.6398
M16
G05
M30
