%TF.GenerationSoftware,KiCad,Pcbnew,8.0.6*%
%TF.CreationDate,2025-10-25T17:28:24-05:00*%
%TF.ProjectId,Eyeliner-PCB-V2,4579656c-696e-4657-922d-5043422d5632,rev?*%
%TF.SameCoordinates,Original*%
%TF.FileFunction,Paste,Top*%
%TF.FilePolarity,Positive*%
%FSLAX46Y46*%
G04 Gerber Fmt 4.6, Leading zero omitted, Abs format (unit mm)*
G04 Created by KiCad (PCBNEW 8.0.6) date 2025-10-25 17:28:24*
%MOMM*%
%LPD*%
G01*
G04 APERTURE LIST*
G04 Aperture macros list*
%AMRoundRect*
0 Rectangle with rounded corners*
0 $1 Rounding radius*
0 $2 $3 $4 $5 $6 $7 $8 $9 X,Y pos of 4 corners*
0 Add a 4 corners polygon primitive as box body*
4,1,4,$2,$3,$4,$5,$6,$7,$8,$9,$2,$3,0*
0 Add four circle primitives for the rounded corners*
1,1,$1+$1,$2,$3*
1,1,$1+$1,$4,$5*
1,1,$1+$1,$6,$7*
1,1,$1+$1,$8,$9*
0 Add four rect primitives between the rounded corners*
20,1,$1+$1,$2,$3,$4,$5,0*
20,1,$1+$1,$4,$5,$6,$7,0*
20,1,$1+$1,$6,$7,$8,$9,0*
20,1,$1+$1,$8,$9,$2,$3,0*%
G04 Aperture macros list end*
%ADD10RoundRect,0.087500X-0.225000X-0.087500X0.225000X-0.087500X0.225000X0.087500X-0.225000X0.087500X0*%
%ADD11RoundRect,0.087500X-0.087500X-0.225000X0.087500X-0.225000X0.087500X0.225000X-0.087500X0.225000X0*%
%ADD12RoundRect,0.250000X-0.625000X0.400000X-0.625000X-0.400000X0.625000X-0.400000X0.625000X0.400000X0*%
%ADD13RoundRect,0.162500X-0.162500X-0.287500X0.162500X-0.287500X0.162500X0.287500X-0.162500X0.287500X0*%
%ADD14RoundRect,0.112500X-0.287500X-0.112500X0.287500X-0.112500X0.287500X0.112500X-0.287500X0.112500X0*%
%ADD15R,6.000000X5.000000*%
%ADD16RoundRect,0.150000X-0.200000X0.150000X-0.200000X-0.150000X0.200000X-0.150000X0.200000X0.150000X0*%
%ADD17RoundRect,0.250000X-1.750000X-1.000000X1.750000X-1.000000X1.750000X1.000000X-1.750000X1.000000X0*%
%ADD18RoundRect,0.250000X1.000000X-1.750000X1.000000X1.750000X-1.000000X1.750000X-1.000000X-1.750000X0*%
%ADD19RoundRect,0.437500X0.562500X-0.437500X0.562500X0.437500X-0.562500X0.437500X-0.562500X-0.437500X0*%
G04 APERTURE END LIST*
D10*
%TO.C,Accelerometer_1*%
X146837500Y-111050000D03*
X146837500Y-111550000D03*
X146837500Y-112050000D03*
X146837500Y-112550000D03*
D11*
X147500000Y-112712500D03*
X148000000Y-112712500D03*
X148500000Y-112712500D03*
D10*
X149162500Y-112550000D03*
X149162500Y-112050000D03*
X149162500Y-111550000D03*
X149162500Y-111050000D03*
D11*
X148500000Y-110887500D03*
X148000000Y-110887500D03*
X147500000Y-110887500D03*
%TD*%
D10*
%TO.C,Accelerometer_2*%
X137937500Y-111050000D03*
X137937500Y-111550000D03*
X137937500Y-112050000D03*
X137937500Y-112550000D03*
D11*
X138600000Y-112712500D03*
X139100000Y-112712500D03*
X139600000Y-112712500D03*
D10*
X140262500Y-112550000D03*
X140262500Y-112050000D03*
X140262500Y-111550000D03*
X140262500Y-111050000D03*
D11*
X139600000Y-110887500D03*
X139100000Y-110887500D03*
X138600000Y-110887500D03*
%TD*%
D12*
%TO.C,R_esc_1*%
X143950000Y-84450000D03*
X143950000Y-87550000D03*
%TD*%
D13*
%TO.C,Logic_Side_Regulator1*%
X142100000Y-116460000D03*
X142100000Y-117430000D03*
X142100000Y-118400000D03*
D14*
X140750000Y-116230000D03*
X140750000Y-116830000D03*
X140750000Y-117430000D03*
X140750000Y-118030000D03*
X140750000Y-118630000D03*
X143800000Y-118630000D03*
X143800000Y-118030000D03*
X143800000Y-117430000D03*
X143800000Y-116830000D03*
X143800000Y-116230000D03*
%TD*%
D15*
%TO.C,Fingertech_Switch1*%
X129800000Y-160175000D03*
%TD*%
D16*
%TO.C,D2*%
X145950000Y-87900000D03*
X145950000Y-86500000D03*
%TD*%
D17*
%TO.C,C_esc_4*%
X140650000Y-148600000D03*
X132650000Y-148600000D03*
%TD*%
%TO.C,C_esc_3*%
X132650000Y-137100000D03*
X140650000Y-137100000D03*
%TD*%
%TO.C,C_esc_2*%
X132600000Y-125600000D03*
X140600000Y-125600000D03*
%TD*%
D18*
%TO.C,C_esc_1*%
X126200000Y-119600000D03*
X126200000Y-111600000D03*
%TD*%
D19*
%TO.C,BetaFPV_ELRS_Lite1*%
X130850000Y-87050000D03*
X130850000Y-84550000D03*
X130850000Y-82050000D03*
X130850000Y-79550000D03*
%TD*%
M02*
